# .PCD v0.7 - Point Cloud Data file format
VERSION 0.7
FIELDS x y z
SIZE 4 4 4
TYPE F F F
COUNT 1 1 1
WIDTH 177
HEIGHT 1
VIEWPOINT 0 0 0 1 0 0 0
POINTS 177
DATA ascii
27.264748 -0.25396341 103.80579
27.256708 0.090748608 106.77196
27.318998 -0.17730166 111.01
27.317629 0.21186273 113.72351
27.248585 0.040917072 102.19667
27.424454 0.04079638 116.74354
27.414579 0.11899339 119.01019
27.455982 -0.032932658 121.20799
27.361216 0.24366553 123.0102
27.384268 0.25433168 125.57407
27.453438 0.22513334 131.00177
27.410124 0.28659275 128.10077
27.447346 0.077141859 134.29562
27.434929 0.045167308 136.48756
27.440382 -0.088272914 139.77176
27.456905 0.093756855 142.1358
27.53298 -0.22698961 145.27025
27.561083 -0.18482988 148.74754
27.6145 -0.30487889 151.39297
17.484312 24.953775 156.37558
27.635578 -0.17253897 154.40642
27.632093 0.02165335 155.95949
27.656013 0.013037404 158.9156
17.708567 23.082375 158.98337
17.758539 22.060482 160.63196
27.64673 0.060967542 161.63242
17.753275 21.062597 162.46933
27.649979 0.099270672 163.9019
17.698296 20.04089 164.1931
27.692789 -0.056929775 166.21207
17.63983 19.159697 165.7851
27.734085 5.6052952e-05 168.17038
17.635086 17.719744 167.85925
27.782475 -0.092909321 170.90553
17.617327 16.50288 169.62396
17.649271 15.294648 171.12157
27.819704 -0.099859133 173.31323
27.819836 -0.032644935 176.36366
17.669542 13.419917 173.80373
27.840605 -0.12404612 178.97189
17.633337 12.010638 176.00012
27.831377 0.0015218398 181.19235
17.553776 10.166909 179.10641
27.852928 -0.009639523 182.74889
27.857183 0.045591451 185.44511
17.098568 8.8637657 182.67078
28.773172 0.086269371 188.7556
16.642103 6.7566805 187.59949
27.998543 -0.80755985 191.64772
16.771715 5.6889868 189.12999
25.665739 -0.94696373 193.05106
23.656849 -3.3309934 196.79778
16.29381 4.357141 191.75922
17.114504 -22.067453 200.90253
17.085756 7.7797623 184.66747
16.66049 0.82964033 195.97197
16.901247 -19.037497 200.34517
17.414503 -16.141788 200.41037
17.160585 -4.4784269 199.11896
19.426321 3.378341 198.64557
17.955524 -12.911861 200.2179
17.412956 -6.2681422 198.98907
24.504871 3.6937475 200.10153
17.025251 2.7630985 193.44719
20.33943 -1.9438062 196.48523
17.20459 -26.484945 201.40073
21.341595 -2.4099734 195.66333
15.212592 -2.3409276 199.14665
22.632797 -2.4887626 204.5652
17.004768 2.9155858 206.15523
17.183887 -32.589573 201.22263
22.904943 -4.0832739 202.42442
16.224075 1.9450537 204.99545
17.388565 -2.5218067 200.92644
17.256372 -36.388447 200.96768
17.279003 -40.045635 200.85806
17.302536 -43.408611 200.72818
17.07445 -29.190292 201.41698
17.350256 -45.882599 200.77785
17.397816 -49.140423 200.73741
17.564053 -51.8591 200.71945
17.619862 -54.221333 200.66148
17.687632 -56.928841 200.55217
17.672853 -59.724209 200.47647
17.795589 -62.400936 200.37325
17.816824 -64.593544 200.31255
17.891409 -66.842049 200.19348
17.910549 -68.455757 200.14632
17.954937 -70.99585 200.06706
18.006506 -73.985222 199.97414
17.985128 -75.96257 199.92444
18.075653 -78.321289 199.85207
17.180391 -80.734238 199.70543
17.256073 -84.478668 199.53574
18.111671 -87.144753 199.50522
17.723951 -82.469841 199.60373
27.773989 -3.8291295 198.98213
35.503559 -3.9588509 200.11374
38.143105 -3.9009156 199.64427
44.154121 -3.8398046 201.05118
49.217167 -3.8550324 200.15109
22.43837 -4.0644345 200.11841
18.284554 -9.1981936 199.87694
33.262482 -4.0345564 200.00484
25.834015 -4.1336975 198.61795
32.056152 -3.7532306 198.75868
19.479862 -3.3562763 199.21271
17.157486 -24.071152 200.92555
30.086203 -1.0382557 193.41394
30.236357 0.66433424 190.26509
30.823023 -3.3474433 196.97211
51.138435 -3.261698 200.20749
53.211155 -2.1126134 200.49005
41.365852 -3.9174068 199.97833
46.484356 -3.9317644 200.24857
54.182346 0.3859874 200.84645
54.478191 2.7405221 200.50989
52.453362 3.3578866 200.11908
49.489838 4.1890178 199.73441
46.224834 3.9034181 200.74615
43.787426 3.904016 199.94019
42.961533 3.998996 201.60443
38.130295 3.9541783 201.07588
36.183472 3.8761032 199.69679
34.209339 3.8591852 200.33897
31.515818 0.56327677 192.34319
31.944311 3.6721516 198.94421
29.79273 3.8566115 200.66675
17.918499 2.7637975 200.75681
17.435974 5.0522509 208.3624
40.49049 3.9357252 202.55779
34.324238 3.2105832 203.20776
28.575191 3.041795 203.86069
24.493422 3.7322433 202.7215
22.185402 2.5848334 203.18983
17.769203 7.7499194 212.26418
23.874107 -0.042048559 204.69388
35.55315 2.2938612 205.25731
17.43078 9.5595856 213.93831
17.579426 6.5742087 209.88277
17.449316 10.5807 215.38359
17.330658 11.99614 218.57773
17.513382 13.737108 222.97305
17.287649 15.830784 224.92307
17.378592 16.681465 226.60425
17.215754 13.133179 221.09177
17.258804 18.390068 230.87051
17.080853 20.623058 235.26086
17.041557 18.721796 228.75087
16.932495 20.560493 232.47795
17.36455 23.140501 239.08958
17.495998 24.583605 241.99451
17.51314 26.12089 244.93588
17.497705 27.874447 248.45245
17.491945 29.184969 250.93527
17.381075 31.022402 254.47522
17.200588 32.985691 257.61508
17.104214 34.568436 260.17355
17.025377 35.800781 262.21393
17.136406 37.527176 265.39624
17.113176 39.309895 268.54968
17.29834 40.283913 270.65317
17.158232 41.691578 272.97708
17.063019 42.817646 274.68961
17.051781 22.480927 236.49947
16.815691 0.67676944 203.45723
17.309999 26.553411 153.6577
24.210615 6.7701669 149.97717
17.108265 32.24802 145.11168
17.101353 30.742773 147.37032
17.115393 28.664995 150.7139
17.175262 34.358902 141.91444
17.175697 35.492393 139.80743
17.390816 39.342941 133.72542
17.229372 37.545441 136.57954
17.70022 41.492527 130.4261
18.011457 43.717358 126.97464
