# .PCD v0.7 - Point Cloud Data file format
VERSION 0.7
FIELDS x y z
SIZE 4 4 4
TYPE F F F
COUNT 1 1 1
WIDTH 947
HEIGHT 1
VIEWPOINT 0 0 0 1 0 0 0
POINTS 947
DATA ascii
-0.0046251365 -0.028615508 -0.47405642
0.0065160063 -0.031240983 -0.47475046
0.019238666 -0.030728677 -0.47439656
0.028081719 -0.027468689 -0.47328621
-0.016232533 -0.017531777 -0.47403708
-0.0076415027 -0.020646064 -0.47686827
0.0062256688 -0.019183869 -0.4782021
0.019169966 -0.019143894 -0.47824311
0.034070071 -0.020551855 -0.47453573
0.039576244 -0.013872266 -0.47299546
-0.019517886 -0.0065261303 -0.4746927
-0.006628871 -0.0066796285 -0.47818142
0.0061215125 -0.0065885019 -0.47822773
0.019033941 -0.0063303714 -0.4782477
0.032054998 -0.0054968675 -0.4782576
0.041366428 -0.006157116 -0.4736695
-0.018852251 0.0060701966 -0.47499296
-0.0066353432 0.006378056 -0.47823384
0.0063844542 0.0067290091 -0.47823486
0.019340448 0.0067818533 -0.47825247
0.032377511 0.0070595886 -0.47793853
0.040850148 0.0061784731 -0.47358018
-0.015461456 0.016453572 -0.47407997
-0.0073434105 0.020421397 -0.4764272
0.0064904727 0.019442867 -0.47823748
0.019104492 0.019220937 -0.47825074
0.032843661 0.019368446 -0.47437885
-0.0028240122 0.027488545 -0.47368997
0.0069857244 0.02967122 -0.47426403
0.019096792 0.028834298 -0.47386241
0.026544964 0.026203001 -0.47253725
-0.0046653198 -0.028739925 -0.46663347
0.0065702451 -0.029768573 -0.46551329
0.018392533 -0.029675778 -0.46581304
0.027750667 -0.027585756 -0.46643814
-0.016014623 -0.017550254 -0.46643427
-0.005999547 -0.018938821 -0.46126524
0.0059845685 -0.022950152 -0.45923379
0.019863872 -0.021602627 -0.4599098
0.030703153 -0.017907271 -0.46298796
0.039611548 -0.013742842 -0.46676359
-0.018597398 -0.0064160461 -0.46564865
-0.011072451 -0.0063501443 -0.45906422
0.032929186 -0.0063729063 -0.46050608
0.041269597 -0.0069458825 -0.46648899
-0.018034782 0.0060286452 -0.46567389
-0.010290071 0.0065070642 -0.45942977
0.031546127 0.0073279934 -0.46015465
0.040898256 0.0060959524 -0.46680066
-0.015658543 0.016536605 -0.46677241
-0.0055959392 0.018189386 -0.46195242
0.0066758986 0.021770487 -0.46047384
0.019722598 0.019975379 -0.46028927
0.031117931 0.018137904 -0.46470636
-0.0026300985 0.027590942 -0.46657708
0.007021965 0.029594325 -0.46627218
0.019360337 0.028991934 -0.46659178
0.02644494 0.026094753 -0.46667331
-0.0046086009 -0.017262764 -0.44853696
0.0063519785 -0.022683738 -0.44844225
0.019777142 -0.020932868 -0.44848153
0.027712798 -0.015145503 -0.44882894
-0.01086159 -0.0065514049 -0.44859752
0.031617939 -0.006511711 -0.44838741
-0.010058212 0.0063704858 -0.44854936
0.030668991 0.0069351397 -0.44857606
-0.0038541153 0.015651684 -0.44837949
0.0069278446 0.020436844 -0.44837469
0.019731723 0.018579377 -0.44842184
0.026843185 0.013749447 -0.44834766
-0.0043785139 -0.017214166 -0.43550959
0.0063935872 -0.02251232 -0.43520463
0.019847821 -0.020676089 -0.43558401
0.027577823 -0.014995094 -0.43583825
-0.010552687 -0.0068422537 -0.43558624
0.031403862 -0.0067137992 -0.43561432
-0.0098790182 0.0063278726 -0.43554702
0.030326944 0.0072323559 -0.43561816
-0.0033350142 0.01582486 -0.4354879
0.0068165376 0.020231744 -0.43544084
0.019588936 0.018432019 -0.43568173
0.026554372 0.0138263 -0.43607295
-0.0042926371 -0.017041409 -0.42267829
0.0062286081 -0.022259716 -0.42253914
0.019633813 -0.020537436 -0.42231363
0.027419806 -0.014879827 -0.42294377
-0.010351899 -0.006688619 -0.42325708
0.031014994 -0.0071334359 -0.4226127
-0.0096306894 0.0063501662 -0.42288491
0.030246008 0.006901911 -0.42255324
-0.003311055 0.015623819 -0.42324689
0.0066464604 0.019977463 -0.42258593
0.019840548 0.0180823 -0.42254686
0.026502995 0.013612629 -0.4225682
-0.0039315517 -0.017080275 -0.40945488
0.0066024018 -0.022132354 -0.40967271
0.019757744 -0.020231845 -0.40942791
0.02730339 -0.014694195 -0.40947556
-0.010028622 -0.0070022666 -0.40982506
0.030933635 -0.0068945563 -0.40987816
-0.0093037887 0.0066205333 -0.40979016
0.029966025 0.0071058278 -0.40962806
-0.0033091931 0.015335746 -0.40947816
0.0068112486 0.019773034 -0.40960184
0.019788694 0.017863443 -0.40956974
0.026509454 0.013326368 -0.40993416
-0.0038190922 -0.016918907 -0.39651254
0.0064732903 -0.021908429 -0.39656171
0.020004613 -0.019919151 -0.39672056
0.02716307 -0.014559205 -0.39631662
-0.0099599445 -0.006503982 -0.39641601
0.030601369 -0.0072681545 -0.39604086
-0.0092807207 0.0061187907 -0.39640787
0.029599218 0.0075436961 -0.39598295
-0.0027975552 0.015520587 -0.39657992
0.0063712974 0.019543516 -0.39691514
0.019580433 0.017751466 -0.39640322
0.026358161 0.013191262 -0.39672342
-0.0036074405 -0.016880693 -0.38362315
0.00664675 -0.021725679 -0.38362515
0.019734992 -0.01983129 -0.38368374
0.027046224 -0.014390449 -0.38378456
-0.0095039075 -0.0073760306 -0.38349622
0.03049906 -0.0068810643 -0.38356099
-0.0089020301 0.006567609 -0.38353986
0.029417057 0.0075246599 -0.3839339
-0.0026160565 0.015447 -0.38371894
0.0063736457 0.019338153 -0.38352263
0.019835249 0.01744201 -0.38374922
-0.0034563357 -0.016766762 -0.37028235
0.0062321415 -0.021439878 -0.37032595
0.019595943 -0.019666571 -0.370653
0.026990604 -0.014168207 -0.36988664
-0.0094800973 -0.0066010421 -0.37055913
0.030338421 -0.0067619835 -0.3707267
-0.0086530074 0.0066043055 -0.37045223
0.029346958 0.0071421796 -0.3703078
-0.0025105181 0.01528117 -0.37021771
0.0067800242 0.019179355 -0.37037489
0.01992787 0.017125539 -0.37087837
-0.003345995 -0.016591378 -0.3571223
0.0062222765 -0.021232072 -0.35747632
0.019796854 -0.019270975 -0.35759801
0.026851691 -0.014038362 -0.35751763
-0.0093550039 -0.0065367622 -0.35752651
0.030091431 -0.0068657389 -0.35736975
-0.0084668044 0.0064785387 -0.35733065
0.025793679 0.012971236 -0.35824957
0.02929691 0.006686382 -0.35758623
-0.0025515417 0.015031739 -0.35793316
0.0065595936 0.018941861 -0.35768297
0.019489458 0.017181344 -0.35746604
-0.003273759 -0.016415637 -0.3440201
0.0063291527 -0.021067072 -0.34444699
0.019965427 -0.019044103 -0.34473494
0.026638938 -0.013975834 -0.34482342
-0.0091016982 -0.0066821272 -0.3448337
0.029914537 -0.0066998135 -0.3443425
-0.0083272466 0.0064867106 -0.3445141
0.025816711 0.01260976 -0.34504664
0.029179972 0.0066930247 -0.34458989
-0.002274378 0.015022084 -0.3448354
0.006559696 0.018761914 -0.34453857
0.019102497 0.017138183 -0.34441194
-0.0033464753 -0.016134789 -0.33178076
0.0067529995 -0.020964487 -0.33170646
0.019993972 -0.018812813 -0.33135268
0.02652725 -0.01380652 -0.3330431
-0.0087700626 -0.0071406919 -0.33170223
0.029646019 -0.0068371184 -0.33090588
-0.0081400005 0.0062539848 -0.3314372
0.025708472 0.012428765 -0.33039206
0.029095899 0.0063833375 -0.33144382
-0.0022082876 0.014831133 -0.3314642
0.0063306023 0.018501583 -0.3311663
0.01916194 0.016891217 -0.3315905
-0.0031851896 -0.015983747 -0.31878504
0.0064160507 -0.020661721 -0.31834942
0.019855917 -0.018645667 -0.31839353
0.026364513 -0.013657075 -0.31823775
-0.0085647209 -0.0071399724 -0.31874081
0.0292289 -0.0076954784 -0.31830657
-0.0076119471 0.0070975544 -0.31886205
0.025427783 0.012396885 -0.31696513
0.028815828 0.0066597629 -0.31851801
-0.001986746 0.014770506 -0.31834772
0.0068640378 0.018402565 -0.3181662
0.019353651 0.016660292 -0.31822467
-0.0030223734 -0.015842156 -0.30500424
0.006528392 -0.020495359 -0.3055093
0.019465767 -0.018593565 -0.30549511
0.026302529 -0.01352317 -0.30712843
-0.0083896779 -0.0070002694 -0.30517909
0.028990865 -0.0076194284 -0.30540952
-0.007542267 0.0066508907 -0.30548623
0.025386741 0.012171515 -0.30553421
0.028763399 0.0061793639 -0.3053664
-0.0021052223 0.014435099 -0.30510151
0.0064788829 0.018113816 -0.3055234
0.018881345 0.016642043 -0.30565405
-0.0029694859 -0.015701558 -0.29236841
0.0061424654 -0.02020661 -0.2925325
0.019983791 -0.018082296 -0.29228196
0.026137432 -0.01341544 -0.29517975
-0.0082818149 -0.0065495167 -0.29263142
0.028926715 -0.0070454506 -0.29321897
-0.0072662239 0.0066672368 -0.29233277
0.025173718 0.012105113 -0.29320946
0.028365701 0.0068088379 -0.29303786
-0.0020881409 0.014236839 -0.29283312
0.0062117078 0.017850833 -0.29259151
0.018685263 0.016567962 -0.29239678
-0.0024827092 -0.015908759 -0.27958661
0.0063344012 -0.020045461 -0.27975011
0.019344803 -0.018216642 -0.27955791
0.026086364 -0.013002262 -0.27456495
-0.0080062589 -0.0066973083 -0.27930969
0.028641582 -0.0075286091 -0.27942985
-0.0067317062 0.0075112018 -0.27904305
0.025207683 0.011823973 -0.27991971
0.028484115 0.0060692262 -0.27973464
-0.0017825898 0.014222608 -0.27995327
0.0060142665 0.017600225 -0.2794705
0.018645113 0.016375436 -0.27970219
-0.0025550928 -0.015610277 -0.26665178
0.006373161 -0.019868221 -0.26681125
0.01967687 -0.017834403 -0.26666817
-0.0077865012 -0.0067143049 -0.26733649
0.025951067 -0.012973424 -0.2724463
0.028443521 -0.0074326973 -0.26696506
-0.0068521132 0.0066242921 -0.26658669
0.024972452 0.011785592 -0.26673272
0.028392013 0.0057194438 -0.26644877
-0.0018006928 0.013957273 -0.2670866
0.0062843682 0.017459216 -0.26662025
0.018595632 0.01620879 -0.26659256
-0.0025595084 -0.015319712 -0.25311992
0.0063956138 -0.019629627 -0.25355226
0.019540358 -0.01770624 -0.25385103
-0.0076410905 -0.0066315504 -0.2538586
0.025634695 -0.012950222 -0.25396806
0.028234471 -0.0076909405 -0.25439572
-0.0063982089 0.0072998698 -0.25359362
0.024774663 0.011674859 -0.25392047
0.028355336 0.0053425105 -0.25326192
-0.0016300059 0.013824483 -0.25376287
0.0068027377 0.01731235 -0.25303689
0.018041406 0.016274251 -0.25359294
-0.002324705 -0.015298157 -0.24019533
0.0064834328 -0.019445196 -0.24047767
0.019529771 -0.017462088 -0.2401797
-0.0072469795 -0.0070520844 -0.2404685
0.025653755 -0.012716427 -0.23996583
0.028289838 -0.0067249704 -0.24077003
-0.0062893778 0.0070758639 -0.24041365
0.024600962 0.011607394 -0.2403613
0.027875345 0.0061138212 -0.24050726
-0.0012844682 0.013866399 -0.2397939
0.0069031492 0.017202841 -0.24012314
0.017961141 0.016143994 -0.24052356
-0.002138817 -0.015212957 -0.22704864
0.0063896142 -0.019284273 -0.22741711
0.01970874 -0.017158214 -0.22739913
-0.0072946046 -0.0063856393 -0.22781788
0.02562665 -0.01242655 -0.22633803
0.028052017 -0.0068988865 -0.2284822
-0.0061325142 0.0068904888 -0.22781965
0.024559591 0.011324556 -0.22702006
0.028094534 0.0050582909 -0.22782145
-0.0012413879 0.013653159 -0.22737326
0.0060363072 0.016811172 -0.22745633
0.018353779 0.015680386 -0.2275217
-0.0021544644 -0.014946145 -0.21396048
0.0064017307 -0.019039234 -0.21413766
0.019382957 -0.017139219 -0.21468154
-0.0069765099 -0.0067119878 -0.21436901
0.02550469 -0.01228419 -0.21482834
0.027943945 -0.0066124531 -0.21400505
-0.0057044374 0.0071691582 -0.21440075
0.024645867 0.010908677 -0.21401459
0.027880711 0.0051108389 -0.21547721
-0.00074348622 0.013797608 -0.21425927
0.0061524184 0.016677042 -0.21496622
0.018055789 0.015631096 -0.21455765
-0.0019824849 -0.014825004 -0.20183584
0.0062641217 -0.018842055 -0.20168175
0.019230682 -0.016971385 -0.20148687
-0.0067068096 -0.0067667421 -0.20135838
0.025302963 -0.012197087 -0.20128407
0.027846839 -0.0064059012 -0.20166132
-0.0052705035 0.0075291255 -0.20072196
0.024293674 0.011019753 -0.20148568
0.02765378 0.0050969166 -0.20170401
-0.00061351084 0.013681556 -0.2022969
0.0062466119 0.016456138 -0.20123184
0.017482765 0.015667723 -0.20108758
-0.0019532247 -0.014617058 -0.18849015
0.0065504536 -0.018694609 -0.18854438
0.018512115 -0.017196104 -0.18875498
-0.0065476024 -0.0068144253 -0.18865883
0.025298377 -0.011906542 -0.18880895
0.027870806 -0.0057799192 -0.18849884
-0.0051150923 0.0075266077 -0.18846506
0.024024429 0.011040548 -0.18870203
0.027686987 0.0045006615 -0.18799043
-0.00046066401 0.013560256 -0.18864951
0.0068379156 0.016419083 -0.18792811
0.017852139 0.015342176 -0.18854111
-0.0018144887 -0.014501363 -0.17545618
0.0066927192 -0.018495018 -0.17593227
0.018911513 -0.016766688 -0.1760457
-0.0065128044 -0.0064484379 -0.17548968
0.025158755 -0.011704811 -0.17468055
0.027802369 -0.0049730851 -0.17493592
-0.0050507816 0.0070713423 -0.1753011
0.02396623 0.010755199 -0.174936
0.027493315 0.004481988 -0.17594157
-0.00014572906 0.013575688 -0.17627896
0.0066873403 0.016215269 -0.17525141
0.01719573 0.015435289 -0.17593531
-0.0016071945 -0.014397309 -0.16201156
0.0069317948 -0.018315678 -0.162359
0.018422768 -0.016885828 -0.16258475
-0.0061315298 -0.0066825063 -0.1621982
0.024950961 -0.01166766 -0.16170277
0.027688814 -0.0049315137 -0.16328754
-0.0049470412 0.0068121967 -0.16286996
0.023935506 0.010458858 -0.16237448
0.027306089 0.0045542619 -0.1630192
-0.00023912608 0.013236259 -0.16059506
0.0065263594 0.015880117 -0.16264673
0.017403128 0.015164222 -0.16228506
-0.0012904874 -0.014448623 -0.14953391
0.0064697601 -0.018100576 -0.14959158
0.018550482 -0.016536279 -0.14979272
-0.0059156111 -0.0068528089 -0.14955366
0.02483283 -0.011487185 -0.14852145
0.027551549 -0.0046472177 -0.15011938
-0.0046078679 0.0069589461 -0.14945067
0.023772163 0.010286349 -0.14968377
0.027194329 0.0043361546 -0.14975995
0.0062014479 0.015627453 -0.14938317
0.017095068 0.015053255 -0.149657
-0.0012218906 -0.014246336 -0.13658714
0.0066141342 -0.017841196 -0.1363679
0.01850844 -0.01640266 -0.13648617
-0.0056494377 -0.0069222935 -0.13599597
0.024664335 -0.011393599 -0.13691108
0.02745345 -0.0043895226 -0.13624054
-0.0042565828 0.0071719061 -0.13613372
5.7575631e-05 0.012931103 -0.13639015
0.023803117 0.0099071469 -0.13584462
0.027315136 0.003349121 -0.13663095
0.0066535836 0.015492409 -0.13668311
0.017175063 0.01484724 -0.13670045
-0.0012583234 -0.014007219 -0.12353874
0.0068141632 -0.017724384 -0.1238485
0.018390892 -0.016266271 -0.12331413
-0.0053061573 -0.0072951191 -0.12380195
0.024673034 -0.011037342 -0.12310699
0.02737405 -0.0036187698 -0.12368053
-0.0040501016 0.00735108 -0.12381314
0.00036564295 0.012969901 -0.12401619
0.023261707 0.010264105 -0.12311392
0.027154433 0.0031341135 -0.12418865
0.0066316663 0.01534599 -0.12358343
0.016560223 0.014872938 -0.12349117
-0.00091479282 -0.014026044 -0.11063746
0.0063075367 -0.017357741 -0.11013822
0.017988143 -0.016232876 -0.11003818
-0.0051716627 -0.0069559733 -0.11065304
0.024603086 -0.010725093 -0.1104551
0.027113888 -0.0042441068 -0.11104202
-0.0037894521 0.0076696309 -0.11095963
0.00049038115 0.012847157 -0.11336335
0.023442278 0.0096893897 -0.11048268
0.026896423 0.0033611625 -0.11089944
0.0064630401 0.015079239 -0.11055484
0.016590947 0.014687928 -0.11065032
-0.00078419398 -0.013911693 -0.097773015
0.0067655509 -0.017278571 -0.097551204
0.0180704 -0.016026072 -0.097322129
-0.0049771327 -0.0069668228 -0.097559012
0.024423119 -0.010673477 -0.09741322
0.027031057 -0.003963388 -0.097796448
-0.003968759 0.0068304758 -0.097187437
0.00052898971 0.012580046 -0.097231768
0.023170112 0.0096767992 -0.097269893
0.02673905 0.0031908238 -0.097991787
0.0064840615 0.014943273 -0.098152727
0.016300123 0.014613504 -0.097800963
-0.00072804478 -0.013665632 -0.085360512
0.0067007369 -0.017088367 -0.084279358
0.017713878 -0.015965499 -0.08413481
-0.0045853355 -0.0073328437 -0.084523618
0.024088496 -0.01075398 -0.084159821
0.026887026 -0.0034314184 -0.084236383
-0.0040069646 0.0063257562 -0.084818952
0.00057406962 0.012380875 -0.084654182
0.022735791 0.00976496 -0.084134959
0.026800485 0.0023499536 -0.083255917
0.0064443359 0.014774324 -0.085205689
0.016217845 0.01443341 -0.084013604
-0.00079800992 -0.013410749 -0.072751865
0.0064901994 -0.01678949 -0.0710558
0.017607186 -0.015814928 -0.071356326
-0.0044788183 -0.0072687496 -0.071776919
0.024055135 -0.010418202 -0.071315184
0.026739018 -0.0035633016 -0.072182238
-0.0036770212 0.006660311 -0.071110196
0.00085939775 0.012339992 -0.071797751
0.022861153 0.009346311 -0.071649224
0.026485261 0.0029030354 -0.071938254
0.0075309267 0.014825421 -0.071131974
0.015923342 0.014340405 -0.071768083
-0.0005280528 -0.013387268 -0.060031425
0.0062557235 -0.016531181 -0.05843864
0.017723147 -0.015585967 -0.058253273
-0.0042668479 -0.0070721614 -0.058563296
0.023969319 -0.010174598 -0.058645207
0.026569156 -0.0032339068 -0.059244946
-0.003830276 0.0059041376 -0.058436245
0.0011493667 0.012267346 -0.058068056
0.02266736 0.0091256155 -0.057949431
0.026359621 0.0025827419 -0.058378875
0.0071631889 0.014594303 -0.058754161
0.015572032 0.014294516 -0.059342358
-0.00020322639 -0.013450135 -0.047446474
0.0064919675 -0.016422534 -0.045547735
0.017680442 -0.01544892 -0.045672797
-0.0040205829 -0.0071110018 -0.045742124
0.023958433 -0.0097574051 -0.045317385
0.026438612 -0.0029398436 -0.045579553
-0.0035209388 0.0063125677 -0.045571767
0.0012563382 0.012120519 -0.045587257
0.022429653 0.0090462491 -0.045401946
0.026327129 0.0018003103 -0.045396429
0.0077618421 0.01451638 -0.045455266
0.015445296 0.014155227 -0.046147872
-3.0821029e-05 -0.013227369 -0.031928644
0.006850888 -0.016209524 -0.032483149
0.017174859 -0.015459377 -0.032234326
-0.0037486379 -0.0072116992 -0.032051574
0.023516888 -0.010012052 -0.032282893
0.026325369 -0.0022980445 -0.031917628
-0.0033500639 0.0060686762 -0.032373022
0.0015171986 0.012017672 -0.031518143
0.022184556 0.0088576134 -0.03245407
0.02621218 0.0011965696 -0.033612441
0.0079007093 0.014365546 -0.032736771
0.015261413 0.013998687 -0.031836439
0.0062855757 -0.015907058 -0.018925982
0.01716177 -0.015258814 -0.019372426
-0.0034620047 -0.0075608981 -0.019283516
0.00016879431 -0.012963496 -0.01423209
0.023468815 -0.0096571352 -0.019767163
0.026183136 -0.0017442137 -0.020000463
-0.003087963 0.0062229005 -0.018874682
0.0018073004 0.011982837 -0.019201582
0.021879751 0.0088876178 -0.019434951
0.026049662 0.0020850147 -0.017552381
0.0082131289 0.014245671 -0.01966277
0.015162145 0.013869329 -0.019766873
0.0065533947 -0.015836151 -0.0064539784
0.016719753 -0.015259066 -0.0067446711
-0.0033587792 -0.0071429671 -0.006484176
0.00015477824 -0.012847582 -0.0049037612
0.023259018 -0.0095045213 -0.0062323576
0.026080782 -0.0013988556 -0.0082964385
-0.003252812 0.0055288617 -0.0067675714
0.0018685393 0.0117576 -0.0066032093
0.021741487 0.0086652497 -0.0062066708
0.026003243 0.00094023551 -0.010940582
0.0083764382 0.014058591 -0.0069201915
0.015060396 0.013698682 -0.0068215653
0.0069129397 -0.015712325 0.0067163808
0.016832475 -0.015052414 0.006488367
-0.0033622319 -0.0066993576 0.0068474398
0.00034396732 -0.012803082 0.0065759839
0.023500815 -0.0083173653 0.006843626
-0.002967675 0.0057278979 0.0064789383
0.0020500778 0.011646084 0.0069914525
0.021678405 0.0083645675 0.0067187534
0.0085249851 0.013900566 0.0065009459
0.014890529 0.013555059 0.006182781
0.0069995266 -0.015561511 0.019466609
0.016513925 -0.014964508 0.019699277
-0.0030716145 -0.0070327264 0.019174328
0.0005275865 -0.012664838 0.019171776
0.023153959 -0.0085108411 0.020254301
-0.0027968476 0.0055391793 0.019343618
0.0024956039 0.011657033 0.020100402
0.021202832 0.0085277157 0.020093368
0.0089341598 0.013788193 0.019367902
0.014534808 0.01344448 0.019094409
0.0066748755 -0.015316412 0.032167625
0.016401105 -0.014850501 0.032453623
-0.0030992238 -0.0063145175 0.032211613
0.00063533767 -0.012517426 0.032059323
0.023339367 -0.0077782562 0.032729432
-0.0027876762 0.0051422929 0.032716267
0.0029418697 0.011737128 0.032686073
0.020770453 0.0087888129 0.032572471
0.0095499707 0.013664669 0.032653961
0.014245938 0.013375122 0.032309216
-0.034033462 -0.27321705 0.049987063
-0.033987936 -0.26863712 0.050540004
0.0072252788 -0.015291726 0.045730446
0.016100248 -0.014768863 0.045197509
-0.0028350833 -0.0065946216 0.045871023
0.00081856159 -0.012426978 0.045590039
0.023055177 -0.0077703479 0.046139732
-0.0025467961 0.005271018 0.045339476
0.0029894933 0.01148806 0.045775123
0.020488957 0.0087276585 0.045870494
0.0099057974 0.013510845 0.045448463
0.013951018 0.013258512 0.045675494
-0.033571597 0.26823261 0.050658472
-0.033643443 -0.26378849 0.054435432
-0.033634223 -0.25354683 0.059636176
-0.033821739 -0.24404079 0.063351654
0.0071839793 -0.015062765 0.058653221
0.016226854 -0.014525808 0.058549471
-0.0027467185 -0.0063239881 0.058589395
0.00095253403 -0.012275908 0.059058815
0.022701537 -0.007966768 0.058870979
-0.0025393763 0.0048500155 0.058308043
0.0033122671 0.011389185 0.05845299
0.020097582 0.0087596215 0.058730412
0.0098127378 0.013358653 0.05808121
0.013620391 0.01314579 0.058487251
-0.033618536 0.2438592 0.063309118
-0.033569995 0.25385222 0.060270209
-0.033543933 0.26443964 0.054982875
-0.033696841 -0.24849235 0.065998025
-0.03362925 -0.23940887 0.069275178
-0.033729292 -0.22834036 0.074232325
-0.033778366 -0.21890722 0.076986551
0.0073376121 -0.014923139 0.071404733
0.015768418 -0.014505098 0.071447715
-0.002607048 -0.0061409376 0.071798362
0.0011655455 -0.012190264 0.071106218
0.022678349 -0.0074231322 0.07190492
-0.0023304007 0.0049351696 0.071280979
0.0039667534 0.011468843 0.071465798
0.019852445 0.0086168833 0.071693242
0.010570275 0.013223975 0.071184516
0.013516185 0.013071484 0.069611043
-0.0335632 0.21766612 0.076388754
-0.033580478 0.22810242 0.073636204
-0.033613361 0.23956817 0.068929978
-0.033537302 0.24834903 0.065891542
-0.033700533 -0.22454427 0.080517747
-0.033658635 -0.21422771 0.084085658
-0.033614289 -0.2028486 0.087977327
-0.03379317 -0.19447102 0.090583727
0.0078128902 -0.014845064 0.084614255
0.015848314 -0.014305809 0.084325105
-0.0026077684 -0.0057020956 0.084501311
0.0011772719 -0.011956151 0.084012851
0.022380663 -0.0078366734 0.084650785
-0.0023972227 0.0044147475 0.084559739
0.0051960824 0.011476276 0.084590554
0.019670434 0.0085168323 0.084438883
0.010225271 0.013120254 0.083059922
-0.033581667 0.19164006 0.089296415
-0.033496253 0.20251189 0.086831801
-0.03355965 0.21358389 0.083050787
-0.033627134 0.22405986 0.079700619
-0.03364997 -0.20945844 0.091902584
-0.033631057 -0.20016211 0.095072977
-0.033754263 -0.18901904 0.098098926
-0.033508394 -0.17774399 0.1014293
0.0081562679 -0.01475611 0.097626373
0.015688891 -0.014174447 0.097373076
-0.0025475426 -0.0054080463 0.097678334
0.0014941937 -0.011949859 0.097617708
0.022068907 -0.0078257155 0.097737774
-0.0022081283 0.0043246159 0.097396612
0.0061768494 0.011588486 0.097588636
0.019522814 0.0083361147 0.097716302
0.010592469 0.013109012 0.094928525
-0.033633254 0.16539069 0.10225448
-0.033533845 0.17643555 0.09948612
-0.033298466 0.18781546 0.09700609
-0.033514138 0.19950695 0.093411453
-0.03351099 -0.1858917 0.10628246
-0.033683199 -0.17492181 0.10952793
-0.033481691 -0.16337223 0.11189085
-0.033773407 -0.15282379 0.1151578
0.0080334721 -0.01455678 0.11033982
0.015469122 -0.014069218 0.11059815
-0.0023008231 -0.0054694903 0.11041147
0.0015790875 -0.01175626 0.11076892
0.02185089 -0.0078523895 0.11068981
-0.0020627815 0.0042747045 0.11052757
0.0062670833 0.011449336 0.11074988
0.019228613 0.0084191272 0.11046159
0.010212213 0.013004512 0.10785951
-0.033619732 0.1395427 0.11521068
-0.033407565 0.1501794 0.11257567
-0.033484355 0.16244429 0.11053298
-0.033380177 0.17425178 0.10749876
-0.033249471 0.18296446 0.10467484
-0.033325952 -0.17045718 0.11804124
-0.033580136 -0.16097853 0.12119162
-0.033316009 -0.14936824 0.12325691
-0.033365738 -0.1371142 0.12581384
-0.032904953 -0.12785685 0.12853435
0.0080986992 -0.014405069 0.12348462
0.015218256 -0.013985337 0.12367959
-0.0021480613 -0.005384319 0.12364988
0.0017247731 -0.011622096 0.12332286
0.021767924 -0.0074800937 0.12373108
-0.0019797042 0.0039580707 0.12354423
0.0061675659 0.011178164 0.123684
0.019191571 0.0081485733 0.12340467
-0.033683818 0.11342903 0.12818395
-0.033535507 0.12435231 0.12552553
-0.033355288 0.13667075 0.12380651
-0.033364445 0.14864932 0.12167121
-0.033541825 0.15846828 0.11838099
-0.033676606 -0.14674212 0.13222727
-0.03340216 -0.13594852 0.13569765
-0.03328326 -0.12365641 0.13657613
-0.033316251 -0.11164193 0.13971879
-0.033488661 -0.10296625 0.14250696
0.0087605482 -0.014336248 0.13659534
0.015089047 -0.013840215 0.13641602
-0.0021420384 -0.0048552137 0.13672769
0.0018680157 -0.011462343 0.13658401
0.021502553 -0.0075745541 0.13657504
-0.0018862257 0.0038094241 0.13651785
0.0059889713 0.010916916 0.13661183
0.019388897 0.0076794522 0.136527
-0.033620603 0.086999893 0.14119312
-0.033576313 0.098424569 0.13843179
-0.033560097 0.11067095 0.13656437
-0.033660419 0.1228202 0.13586649
-0.03343894 0.1340006 0.13237387
-0.033632342 -0.13121291 0.14395951
-0.033485942 -0.12235224 0.1469952
-0.033353321 -0.1103522 0.14942369
-0.039070778 -0.09614221 0.15452482
-0.033527452 -0.098116592 0.14987302
-0.033817321 -0.08625491 0.1533536
0.0083799297 -0.01410804 0.14932878
0.014608194 -0.013840719 0.14919801
-0.0020205351 -0.004664436 0.14960283
0.0020022211 -0.011263047 0.14970329
0.021134168 -0.0076546175 0.14954579
-0.0016903676 0.0037820414 0.14943181
0.0062540662 0.010782141 0.14952345
0.01945792 0.0073886155 0.14946198
-0.033646178 0.061251346 0.15399693
-0.039367165 0.076725155 0.15558657
-0.033639874 0.072230682 0.15136658
-0.039295767 0.084923409 0.15301362
-0.032496791 0.084502071 0.14905474
-0.039127655 0.095187657 0.14718476
-0.033157136 0.097619742 0.14956705
-0.033445835 0.10902083 0.14624847
-0.033897784 0.11762633 0.14330049
-0.033593431 -0.10748137 0.15845798
-0.03909089 -0.092802383 0.15717386
-0.033313785 -0.096958891 0.16179332
-0.03920529 -0.084281854 0.16194308
-0.032497428 -0.084284417 0.16240759
-0.039353475 -0.073902786 0.16697055
-0.033148166 -0.071894698 0.16315515
-0.034074191 -0.061446235 0.166895
0.0088815894 -0.014008699 0.16229704
0.014581516 -0.013625775 0.16201188
-0.0019329578 -0.0045702704 0.16287677
0.0022018079 -0.011192886 0.16263577
0.021093648 -0.0073702051 0.16244063
-0.0016876131 0.0036977704 0.16321954
0.0053405962 0.010042662 0.16287567
0.01904605 0.007474489 0.16260758
-0.033562995 0.049216587 0.16584106
-0.039627366 0.060929947 0.16605997
-0.032460105 0.058359861 0.16217841
-0.039507121 0.071172036 0.16120148
-0.031825081 0.071578473 0.16300349
-0.039206024 0.080633081 0.15759841
-0.033121586 0.083830528 0.16053618
-0.033589654 0.093028218 0.15719107
-0.033774633 -0.092287242 0.17003326
-0.033672158 -0.083139166 0.17304704
-0.039461192 -0.069325089 0.17159984
-0.032963049 -0.071897045 0.17621508
-0.039487388 -0.058363587 0.17590632
-0.032355592 -0.058157619 0.17488472
-0.039437618 -0.047308557 0.17970657
-0.033082929 -0.045858745 0.17671545
-0.033881228 -0.036725439 0.18066649
0.0091326619 -0.013819757 0.17527497
0.014412474 -0.013483788 0.17513382
-0.0018945847 -0.0044379607 0.17543083
0.0024093026 -0.011091636 0.17570809
0.020635394 -0.0075697191 0.17578708
-0.0017446589 0.003233437 0.17522554
0.0063431356 0.010147016 0.1753187
0.01870816 0.0074612829 0.1752947
-0.039355304 0.037424263 0.18111771
-0.03337216 0.034814682 0.1793393
-0.039554555 0.046377048 0.17708437
-0.031599473 0.04566795 0.17525432
-0.039576858 0.055971574 0.17199859
-0.031987026 0.057851486 0.17500949
-0.033463433 0.068518385 0.17097443
-0.033813577 -0.068916291 0.1826551
-0.033829059 -0.057929501 0.18395366
-0.03938286 -0.043370623 0.18403472
-0.033066075 -0.044937238 0.18683739
-0.039328784 -0.032420091 0.18899639
-0.033283878 -0.032688953 0.18813239
-0.03927245 -0.023703571 0.19319363
-0.034075532 -0.020457847 0.19132355
-0.016339703 -0.016424507 0.18969065
-0.0065082237 -0.017976934 0.18834509
0.0064639202 -0.017935835 0.1882599
0.019237107 -0.018359257 0.18889622
0.032524168 -0.018322891 0.18871534
0.045621499 -0.018398292 0.18879347
0.058250654 -0.018347023 0.18939647
0.071277775 -0.018157229 0.19025233
0.084308088 -0.017805194 0.19126666
0.094619967 -0.017786246 0.19303425
-0.043917578 -0.0029593059 0.19412425
-0.033058297 -0.0058960048 0.19307657
-0.01943261 -0.0065371939 0.18819521
-0.0065055583 -0.0065257894 0.18422304
0.0021531107 -0.011216543 0.183679
0.022428323 -0.0073880074 0.18387373
0.03227181 -0.0062415265 0.18443334
0.045220077 -0.0063480358 0.18448973
0.058542755 -0.006787823 0.18559618
0.071437664 -0.0065823467 0.18747616
0.084113359 -0.0063584014 0.18972237
0.094807461 -0.0063085174 0.19257098
-0.043102175 0.0023251253 0.19428422
-0.033198077 0.0062918919 0.19325948
-0.018929768 0.0059601218 0.18827251
-0.006148045 0.0062143151 0.18427083
0.0054264436 0.01064461 0.18385766
0.020355655 0.0082440237 0.18395068
0.032382801 0.0067262738 0.18440239
0.045118991 0.0068202666 0.18447009
0.058577809 0.0065652356 0.18559745
0.071163692 0.0060823066 0.18743502
0.084224604 0.0065579391 0.18974054
0.095292881 0.0059017884 0.19265041
-0.03927755 0.021820389 0.19199204
-0.032797255 0.020160686 0.18976465
-0.015223135 0.015389351 0.1898984
-0.006590473 0.015976839 0.18903966
0.0065639969 0.016216461 0.18913782
0.019489991 0.016271446 0.18924795
0.032458723 0.016147371 0.1889239
0.045302212 0.016243942 0.18907852
0.058211714 0.016333548 0.18972911
0.071415789 0.016288025 0.19056936
0.083851911 0.016356397 0.19173616
0.094793618 0.016005406 0.19321188
-0.039296933 0.032024935 0.18661976
-0.032274768 0.032063987 0.18819565
-0.039354332 0.041783452 0.18294613
-0.033112407 0.04435458 0.18480404
-0.033588938 0.052277818 0.18202457
-0.034250669 -0.028989594 0.1966248
-0.040839348 -0.016060423 0.20107941
-0.033063591 -0.019099081 0.20105554
-0.018578442 -0.017588057 0.20192894
-0.006470012 -0.020145701 0.2017719
0.0063862242 -0.02014154 0.2013142
0.019393291 -0.020138148 0.20130287
0.032499649 -0.020144399 0.20140646
0.045459379 -0.020137293 0.20127849
0.058437075 -0.020127974 0.20137979
0.071660079 -0.020113168 0.20166713
0.084629461 -0.020099338 0.2013597
0.095337257 -0.018732851 0.201534
-0.056575954 -0.0051641813 0.20231616
-0.046747092 -0.0094154859 0.19925949
-0.032566298 -0.011360567 0.19578812
-0.023431964 -0.01070499 0.1975946
0.09738373 -0.0061016576 0.2014453
-0.05585311 0.0042943703 0.20247866
-0.045304447 0.008451974 0.2005112
-0.030034112 0.011075395 0.1999481
-0.02315701 0.010029713 0.20040841
0.097380668 0.0059586703 0.20194884
-0.039169453 0.016047863 0.19686955
-0.033091683 0.017854044 0.20022015
-0.016924717 0.016434047 0.20187207
-0.0065139793 0.01771117 0.20135146
0.0065558236 0.017756112 0.2012538
0.019244196 0.017751981 0.20150036
0.032242965 0.017744029 0.20132022
0.045460958 0.017740695 0.20150743
0.058550451 0.017738122 0.20138276
0.071448907 0.01771703 0.20143627
0.084632039 0.01769948 0.2013769
0.094992109 0.017077046 0.20122719
-0.033300031 0.027248574 0.19573948
-0.042264663 -0.013553941 0.20986594
-0.032454461 -0.014625832 0.21133788
-0.018242283 -0.017102968 0.2140023
-0.0064687366 -0.020133488 0.21425703
0.0064311936 -0.020139059 0.21455643
0.019411363 -0.020123094 0.21438144
0.032517947 -0.020120056 0.21432021
0.045508754 -0.020108255 0.21423355
0.058441754 -0.020103047 0.21419421
0.071396559 -0.02010208 0.21398441
0.084480152 -0.020089913 0.21397011
0.095476456 -0.018342895 0.21433929
-0.055976488 -0.004913677 0.21191508
-0.045543108 -0.0071799201 0.21578787
-0.031794619 -0.0090654222 0.21810728
-0.023066785 -0.0085329544 0.21722212
0.097380608 -0.0065489989 0.21476179
-0.055687521 0.0038018937 0.21138778
-0.045223784 0.0066803885 0.21433069
-0.032434702 0.0088898391 0.21563967
-0.022098262 0.0089695901 0.21570988
0.097382627 0.006418616 0.2144006
-0.033131618 0.013363045 0.208996
-0.01669289 0.016283873 0.21445802
-0.0065787937 0.017787404 0.21427546
0.0063692932 0.017793907 0.21422414
0.01938686 0.017783757 0.21415074
0.032738917 0.017763754 0.21431215
0.045387797 0.017765578 0.21425401
0.058450982 0.017758735 0.21431273
0.07142061 0.017757639 0.21411856
0.084376998 0.017723937 0.21354616
0.095253251 0.016968025 0.21405074
-0.015780661 -0.016762571 0.22409378
-0.0067066029 -0.018099166 0.22481579
0.0062712161 -0.018163834 0.22466765
0.019205069 -0.017970258 0.22485872
0.032490768 -0.017966563 0.22473918
0.045465708 -0.018020552 0.22484043
0.05830517 -0.017930439 0.22494332
0.071452819 -0.017969344 0.22496101
0.084459037 -0.017904654 0.22496553
0.094945833 -0.017607624 0.22434868
-0.039283939 -0.001525844 0.22680312
-0.032665588 -0.0045398343 0.2273479
-0.017668733 -0.0068707126 0.22499937
-0.0070552211 -0.006404961 0.225953
0.0062099821 -0.0065973122 0.2259322
0.019485159 -0.0064430619 0.22593834
0.032733377 -0.0065370188 0.22595203
0.045598097 -0.0066335928 0.22595499
0.058581822 -0.0064934506 0.2259391
0.071336031 -0.0065923189 0.22595854
0.084931977 -0.0070642508 0.22662787
0.095212266 -0.0066566733 0.22486417
-0.039213952 0.00064246927 0.22682355
-0.033301968 0.0030832493 0.22761579
-0.017634882 0.0067376234 0.22474268
-0.0065874248 0.0065596085 0.22593734
0.0064844666 0.0068238177 0.22593291
0.019545522 0.0066436809 0.22595662
0.03247498 0.0062804525 0.22596379
0.045244187 0.0062563452 0.2259571
0.058467548 0.0067033842 0.22596459
0.071659081 0.0065197726 0.22596577
0.085120484 0.0068141939 0.22644196
0.094763838 0.0067288848 0.22500047
-0.015268963 0.015599871 0.22396679
-0.0064845276 0.01679006 0.22454959
0.0067170174 0.016740743 0.22459376
0.019522393 0.016701799 0.22445953
0.032425649 0.016598305 0.22454366
0.045313124 0.016574344 0.22467463
0.058493122 0.016583137 0.22460453
0.071203537 0.016637875 0.22468711
0.08419881 0.016658839 0.22443396
0.094801418 0.016593333 0.22379173
0.090807945 -0.013205962 0.24132644
0.091787778 -0.014453243 0.24153346
-0.039315484 -0.0015405859 0.24057584
-0.03211128 -0.0045625381 0.24056351
0.087618388 -0.0096404292 0.24005798
0.091587186 -0.0050982735 0.24169044
-0.039161809 0.0007432315 0.24017008
-0.032934777 0.0031587458 0.24053214
0.088432863 0.0086749056 0.23935501
0.093928874 0.0086300708 0.241017
-0.039740846 -0.0015477252 0.25292978
-0.031828124 -0.0044326289 0.2532407
-0.039854087 0.001644181 0.25326148
-0.033387128 0.0032626297 0.25277603
-0.039577324 -0.0019757512 0.26571587
-0.032049004 -0.0049770507 0.2664119
-0.039763812 0.0014837843 0.26560974
-0.032392472 0.0047912663 0.26651505
-0.039453086 -0.0012342149 0.27895594
-0.032231219 -0.0044833994 0.27937576
-0.039690811 0.0022200407 0.2799561
-0.032041751 0.0070433114 0.27968818
-0.033683397 0.013314343 0.28289255
-0.039348532 -0.0010144716 0.29270849
-0.032431271 -0.00418521 0.29269996
-0.039601974 0.0021245945 0.29227108
-0.032156814 0.0071116081 0.29244986
-0.033576209 0.013262111 0.28899243
-0.039216958 -0.00088558119 0.30474961
-0.032324381 -0.0040461165 0.30542368
-0.039396215 0.0015780899 0.3044419
-0.03249602 0.0065380335 0.30535117
-0.039049789 -0.00056483463 0.31780267
-0.032913283 -0.0040618568 0.31863126
-0.03914303 0.0010883601 0.31816626
-0.032793865 0.0058998689 0.31851923
-0.032756321 -0.0042980183 0.33164093
-0.039076839 0.0011546952 0.32803434
-0.033130791 0.0051179524 0.33132187
-0.032764588 -0.004383151 0.34420457
-0.033270247 0.0045232144 0.34438729
-0.033408564 -0.0040997951 0.35741425
-0.033461008 0.0040961164 0.35730466
-0.033283148 -0.0039521619 0.37065926
-0.033642765 0.0034602948 0.37025788
-0.033620685 -0.0038878324 0.3836897
-0.033516522 0.0030818598 0.38351145
-0.033596855 -0.0039060521 0.39636216
-0.033654395 0.0025401076 0.39627808
-0.033478614 -0.0037982385 0.40940043
-0.033661768 0.0020920215 0.40906489
-0.033451207 -0.0038058874 0.4224126
-0.033666909 0.0017218092 0.42206663
-0.033572122 -0.0039959648 0.43515673
-0.033710808 0.0011282639 0.4349556
-0.033556264 -0.004077109 0.44859925
-0.033754203 0.00069940777 0.44766989
-0.033603102 -0.0037981821 0.46150208
-0.03362732 0.00034199117 0.45978135
-0.033695817 -0.0044071656 0.47442877
-0.033586077 -0.0048293234 0.48718232
-0.033619221 -0.0053322064 0.50059348
-0.033506624 -0.0057841125 0.51329327
-0.033375647 -0.0045092716 0.52051657
