# .PCD v0.7 - Point Cloud Data file format
VERSION 0.7
FIELDS x y z
SIZE 4 4 4
TYPE F F F
COUNT 1 1 1
WIDTH 1871
HEIGHT 1
VIEWPOINT 0 0 0 1 0 0 0
POINTS 1871
DATA ascii
27 -4.25 97.75
27 4.25 97.75
25.75 -3.2499998 99.083328
26.678572 -3.7857144 99.035706
27.75 -4.25 99.750008
25.48077 -2.1346154 99.134621
24.75 -0.24999997 99.25
25.15909 1.5227273 99.25
25.75 3.0000002 99.166672
26.65 3.8500001 98.98333
27.75 4.25 99.083328
27.75 4.75 98.25
25.75 -3.25 100.5
26.673077 -3.8653851 100.75001
27.75 -4.25 100.75
25.458334 -2.0416667 100.83334
24.75 -0.24999988 100.75
25.25 1.6346151 100.82693
25.75 2.8750002 100.62501
26.711538 3.9038455 100.71154
27.75 4.25 101
25.75 -3.25 102.5
26.59375 -3.7812502 102.5
27.75 -4.25 102.41666
25.455883 -2.0735292 102.36766
24.799999 -0.29999995 102.64999
25.299999 1.5749999 102.475
25.75 2.75 102.25
26.644737 3.8552625 102.53948
27.75 4.25 102.58334
25.75 -3.25 104.25
26.661764 -3.8088236 104.54413
27.75 -4.4499998 104.45
25.450001 -2.05 104.5
24.955883 -0.27941173 104.54411
25.361111 1.611111 104.5
25.75 2.75 104.5
26.691175 3.8382351 104.54411
27.75 4.25 104.5
26.673077 -3.8269234 106.21156
27.75 -4.625 106.125
25.442308 -2.0576923 106.17309
25.0625 -0.25000006 106.1875
25.365385 1.5961536 106.25001
25.75 2.75 106.25
26.673077 3.8653843 106.17309
27.75 4.25 106.25
26.6875 -3.7500002 108.03125
25.450001 -2.05 107.99999
26.25 -2.75 108.75
25.211538 -0.25000006 107.94231
25.35 1.6499997 107.99999
25.75 2.75 108
26.607143 3.75 108.07143
27.75 4.25 108
26.826923 -3.75 109.71153
27.75 -4.25 109.75
25.464285 -2.0357141 109.75001
26.25 -2.75 109.75
25.25 -0.24999997 109.75
25.35 1.6499996 109.75001
25.75 2.75 109.75
26.673077 3.7500002 109.78847
27.75 4.25 109.75
26.85 -3.6500001 111.49999
27.75 -4.25 111.5
25.516666 -2.0166667 111.55
26.25 -2.75 111.49999
25.25 -0.24999997 111.5
25.35 1.6500001 111.50001
25.75 2.75 111.5
26.75 3.5227265 111.52274
27.75 4.25 111.5
26.855263 -3.6710532 113.53946
27.75 -4.25 113.5
25.5 -2 113.5
26.25 -2.75 113.5
25.25 -0.24999997 113.50001
25.416666 1.4999999 113.52777
25.75 2.75 113.25
26.772728 3.522727 113.5
27.75 4.25 113.5
26.865385 -3.6730771 115.32693
27.75 -4.25 115.25
25.5 -2 115.25001
26.25 -2.75 115
25.25 -0.24999988 115.24999
25.450001 1.5499997 115.25001
25.75 2.75 115.25
26.75 3.4999998 115.25
27.75 4.25 115.25
26.85 -3.6500003 117
27.75 -4.25 116.5
25.5 -2 116.99999
26.25 -2.75 116.99999
25.25 -0.24999997 116.99999
25.450001 1.5499997 117
25.75 2.75 116.99999
26.75 3.4999995 117
27.75 4.25 116.75
26.85 -3.6500001 119
27.75 -4.25 119.5
25.527777 -1.9722222 119.05555
26.25 -2.75 119
25.25 -0.24999988 119
25.449999 1.55 119
25.75 2.75 119
26.75 3.4999995 119
27.75 4.25 119
26.85 -3.6500001 120.75001
27.75 -4.25 120.74999
25.535715 -1.8928572 120.75
26.25 -2.75 120.74999
25.25 -0.24999997 120.75
25.450001 1.5499998 120.75001
25.75 2.75 120.74999
26.75 3.4999995 120.75
27.75 4.25 120.74999
26.75 -3.5000002 122.5
27.75 -4.25 122.5
25.549999 -1.9499999 122.49998
26.25 -2.75 122.5
25.25 -0.24999997 122.49999
25.450001 1.55 122.5
25.75 2.75 122.5
26.704546 3.4318175 122.45455
27.75 4.25 122.5
17.035713 45.535717 122.89285
16.892857 46.464287 122.82143
26.75 -3.5000002 124.5
27.75 -4.25 124.5
25.583334 -1.75 124.5
26.25 -2.75 124.5
25.25 -0.25000006 124.5
25.5 1.4999998 124.5
25.75 2.75 124.5
26.65 3.3499997 124.5
27.75 4.25 124.5
17 43.75 125.25
16.977272 45.113632 124.59091
17 46.25 124
26.75 -3.477273 126.20455
27.75 -4.25 125.75
25.613636 -1.6590909 126.29545
26.25 -2.5 126.25001
25.25 -0.24999997 126.25001
25.549999 1.4499997 126.25001
26.25 2.2500002 126.75
25.75 2.75 125.75
26.65 3.3499997 126.25
27.75 4.0499997 126.35001
17.027777 43.416664 126.30555
16.931818 44.750008 126.20454
26.75 -3.5000002 128
27.75 -3.75 128.25
25.625 -1.625 127.99999
26.25 -2.6499999 128.05
25.25 -0.24999997 128
25.56579 1.4605262 127.98684
26.25 2.2500002 127.25
26.65 3.3499997 128
27.75 4 128
17.049999 41.949997 128.2
16.90625 43.28125 128
17 44.249996 127.5
26.799999 -3.5000002 129.7
27.75 -3.75 129.75
25.625 -1.625 129.75
26.25 -2.5 129.75
25.25 -0.24999997 129.75
25.596153 1.480769 129.71153
26.25 2.2500002 129.75
26.75 3.3269229 129.67308
27.75 4.0000005 129.75
17.25 40.25 130.25
16.25 41.999996 130
16.944445 41.444443 129.75
16.964287 42.892857 129.67857
26.9 -3.5000002 131.45
27.75 -3.9642856 131.60715
25.711538 -1.7115384 131.55769
26.25 -2.5 131.5
25.25 -0.24999997 131.5
25.625 1.4999998 131.5
26.25 2.2500002 131.5
26.75 3.2884614 131.44231
27.75 3.9642856 131.46428
17.25 38.75 132.25
16.25 40.25 132.25
16.980768 39.865387 131.63461
16.25 41.150002 131.55
16.881578 41.513157 131.48683
27 -3.5000002 133.5
27.75 -4.1499996 133.35001
25.75 -1.75 133.5
26.3125 -2.5625 133.5
25.25 -0.24999997 133.5
25.632353 1.3676468 133.57353
26.25 2.2500002 133.5
26.85 3.2499998 133.45
27.75 4 133.5
17.016666 38.283337 133.71667
16.25 39.749996 133.60715
16.821428 39.82143 133.57141
16.25 40.75 132.75
16.964287 40.89286 133.17857
27.0625 -3.4375 135.3125
27.75 -4.25 135
25.75 -1.75 135.17857
26.416666 -2.6666667 135.25
25.375 -0.37499994 135.25
25.634615 1.2115381 135.21153
26.25 2.2500002 135.25
26.826923 3.1730766 135.25
27.75 3.75 135.25
17.125 36.625 135.625
16.25 38.416664 135.41667
16.883333 37.883331 135.25
16.25 39.25 135
16.9375 39.5625 135.1875
27.068182 -3.4318182 136.97728
27.75 -3.75 137.75
25.75 -1.75 137
26.305555 -2.5277777 136.91667
25.375 -0.37499985 137
25.75 1.2499998 137
26.25 2.2500002 137
26.875 3.1875 137
16.25 36.75 137.75
16.985292 36.132355 137.10294
16.25 37.799999 136.89999
16.892857 38.214283 137
17 39.25 136.25
27.049999 -3.4500003 138.89999
27.75 -3.75 139.25
25.75 -1.65 138.89999
26.25 -2.5 139
25.51923 -0.24999997 139.09615
25.75 1.3269228 138.94231
26.25 2.2500002 139
26.96875 3.2187498 138.9375
27.75 3.75 139
17.06818 34.477268 139.20454
16.250002 36.250004 139.15909
16.795454 35.75 138.88635
16.25 37.25 138.5
16.972221 37.472221 138.97221
27.083332 -3.416667 140.75
27.75 -3.75 140.75
25.75 -1.5 140.75
26.416666 -2.5833335 140.75
25.65909 -0.25000006 140.70454
25.75 1.3499999 140.75
26.25 2.2500002 140.75
26.892857 3.1785719 140.78572
27.75 3.7499995 140.75
17.15 33.149998 140.95
16.25 34.583336 141.08334
16.8125 34.1875 140.6875
16.25 35.607147 140.67857
16.875 36.1875 140.6875
27.083332 -3.416667 142.5
27.75 -3.75 142.5
25.75 -1.5 142.5
26.416666 -2.5833335 142.5
25.75 -0.24999997 142.5
25.75 1.25 142.5
26.25 2.2500002 142.5
26.881578 3.1710525 142.53947
27.75 3.75 142.5
16.25 33.083332 143.08333
16.9375 32.499996 142.53125
16.25 34.25 142.5
16.75 34.249996 142.5
16.25 35.25 142
16.916666 35.472225 142.36111
27.083332 -3.416667 144.25
27.75 -3.75 144.25
25.75 -1.5 144.25
26.4 -2.5 144.3
25.75 -0.24999997 144.25
25.75 1.25 144.25
26.25 2 144.25
26.857143 3.1428571 144.21428
27.75 3.7499995 144.25
17.027777 30.972219 144.36111
16.25 32.694447 144.36111
16.75 32.10714 144.17857
16.25 33.875 144.125
16.972221 34.361111 144.25
27.083332 -3.416667 146
25.75 -1.5357143 146.03571
26.416666 -2.4999998 146
25.75 -0.24999997 146
25.75 1.2499998 146
26.25 2 146
26.855263 3.1710525 146.01317
27.75 3.7499995 145.91667
17.25 29.25 146.5
16.25 31.049999 146.34999
16.883333 30.383333 145.98334
16.250002 32.392853 145.92857
16.861111 32.972221 146.13889
17.049999 33.849998 145.45
27.083332 -3.416667 148
27.75 -3.75 148.25
25.75 -1.5357143 148.10715
26.392857 -2.4642856 148.07143
25.75 -0.24999988 148
25.75 1.15 147.89999
26.25 2 148
26.85 3.1499999 147.99998
27.75 3.75 148
17.25 27.75 148.75
16.25 29.25 148.75
16.949999 28.75 148.05
16.250002 30.607141 148.07143
16.75 30.149998 147.84999
16.25 31.874998 147.625
16.958332 32.208332 147.91667
27.0625 -3.375 149.6875
27.75 -3.75 149.75
25.75 -1.5 149.75
26.4375 -2.3125 149.8125
25.75 -0.24999988 149.75
25.75 1 149.75
26.25 2 149.75
26.795454 3.0227277 149.65909
27.75 3.7499995 149.75
17.022726 27.431816 149.79546
16.25 28.916668 149.91667
16.75 28.449999 149.64999
16.25 30.349998 149.7
16.833334 31.083332 149.83333
16.75 31.749998 149.25
27.083334 -3.2500002 151.33333
27.75 -3.75 151.5
25.75 -1.5 151.5
26.392857 -2.3214285 151.53572
25.75 -0.24999997 151.5
25.75 1.1499999 151.60001
26.25 2 151.5
26.795454 2.9318182 151.52272
27.75 3.75 151.5
17.15 25.65 151.95
16.25 27.464285 151.75
16.84375 26.84375 151.375
16.250002 28.75 151.5
16.75 28.75 151.5
16.25 29.950001 151.14999
16.9 30.149998 151.40001
27.035715 -3.2500002 153.60715
27.75 -3.6500001 153.65001
25.75 -1.35 153.65001
26.464285 -2.2499998 153.57143
25.75 -0.24999997 153.5
25.75 1.2499998 153.5
26.25 2 153.5
26.931818 3.0681818 153.56818
27.75 3.75 153.5
17.125 24.125002 154.125
16.25 25.750002 154
16.92647 25.161764 153.48529
16.250002 27.049994 153.55
16.75 26.374998 153.125
16.25 28.562502 153.3125
16.75 28.821428 153.46429
27.125 -3.25 155.375
27.75 -3.5 155.25
25.75 -1.375 155.125
26.5 -2.25 155.25
25.75 -0.24999988 155.25
25.75 1 155.25
26.25 2 155.25
26.964285 3.0357146 155.17857
27.75 3.7499995 155.25
16.999998 23.678576 155.25
16.15 25.399998 155.34999
16.75 24.875 155.125
16.173077 26.82692 155.25
16.75 27.624998 155.375
16.25 28.25 154.75
16.75 28.25 154.75
27.083334 -3.2500002 156.91667
27.75 -3.5833335 156.83333
25.75 -1.25 157
26.5 -2.25 157
25.75 -0.24999988 157
25.75 1.0000002 157
26.291666 1.8333331 157
27 3.0000002 157
27.75 3.5000002 157
17 22.062498 157.3125
16.194445 23.972223 157.25
16.84375 23.281248 156.78125
16.000002 25.249998 156.94444
16.194445 26.527773 156.75
16.75 26.75 157.10715
27.25 -3.2499998 158.75
27.75 -3.625 158.875
25.75 -1.25 158.75
26.449999 -2.05 158.75
25.75 -0.24999988 158.75
25.75 1 158.75
26.305555 1.861111 158.75
27 2.9999998 158.75
27.75 3.4499998 158.85001
16.25 22.25 159.25
16.949999 21.48333 158.81667
16.025002 23.549997 158.8
16.75 22.75 158.5
16.15 25.1 158.64999
16.75 25.583336 159.08333
16.75 26.249998 158.25
27.25 -3.25 160.5
27.75 -3.5357144 160.60715
25.75 -1.25 160.41667
26.5 -2.075 160.47501
25.75 -0.24999997 160.5
25.75 0.96428579 160.46428
26.375 1.875 160.5
27.083332 2.916667 160.5
27.75 3.5000002 160.5
17.01923 19.903847 160.75
16.107143 21.821424 160.67857
16.795454 21.113634 160.34091
15.964287 23.511904 160.46428
16.75 24.25 161.25
16.25 24.916666 159.91667
16.75 24.916666 160.25
27.25 -3.25 162.5
27.75 -3.5000002 162.5
25.75 -1.25 162.5
26.43421 -2.0394735 162.48685
25.75 -0.24999988 162.5
25.75 0.75000006 162.5
26.375 1.875 162.5
27.083332 2.916667 162.5
27.75 3.4499998 162.14999
17.06818 18.47727 162.70454
16.1875 20 162.8125
16.84091 19.568184 162.25
15.909093 21.477272 162.5
16.75 20.75 161.75
16.150002 22.999998 162.25
16.75 23.650002 162.35001
27.25 -3.2499998 164.25
27.75 -3.25 164.75
26.483334 -2.0833335 164.28334
25.75 -0.3125 164.25
25.75 0.74999988 164.25
26.375 1.875 164.25
27.083332 2.916667 164.25
27.75 3.25 164.25
17.25 16.75 164.75
16.25 18.583334 164.58333
16.928572 17.857141 164.21428
15.977273 19.704546 164.29546
15.964286 21.464283 164.21428
16.75 22.25 164.75
16.75 22.75 164
27.25 -3.25 166
27.75 -3.2499998 166.08333
26.545454 -2.1363637 166
25.75 -0.24999988 166
25.75 0.75000006 166
26.375 1.875 166
27.083332 2.916667 166
27.75 3.25 166
16.25 16.75 166.75
16.983332 16.25 166.11667
16.0625 18.15625 166.15625
16.75 17.449999 165.65001
15.788462 19.788464 166.05769
16.050001 21 165.75
16.75 21.416666 166.25
27.25 -3.25 168
27.75 -3.25 168
26.613636 -2.159091 168
25.75 -0.24999988 168
26.25 -0.75 167.25
25.75 0.75000006 168
26.361111 1.583333 168
27.083332 2.916667 168
27.75 3.25 168
17.107141 14.607141 168.39285
16.194445 16.472221 168.25
16.865385 15.596154 167.78845
15.861112 17.944445 167.94444
15.958334 19.66667 167.83333
16.75 20.75 167.25
27.25 -3.2499998 169.75
27.75 -3.2499998 169.75
26.602942 -2.1617646 169.7206
25.75 -0.18750001 169.6875
26.25 -0.75 169.75
25.75 0.75000006 169.25
26.357143 1.6071424 169.78572
27.0625 2.9375002 169.6875
27.75 3.25 169.75
17.125 13.125001 170.125
16.25 14.75 170
16.9 14.15 169.65001
15.983335 15.950001 169.78334
16.75 15.25 169.25
15.883334 18.116667 169.75
16.75 19.5 169.5
27.25 -3.2499998 171.75
27.75 -3.25 171.5
26.638889 -2.0833333 171.44444
25.75 -0.083333351 171.5
26.25 -0.58333337 171.66667
26.367647 1.5441176 171.48529
27.083332 2.916667 171.5
27.75 3.25 171.5
16.25 13.25 172
16.985294 12.632352 171.60294
16.107143 14.357143 171.60715
16.75 13.916668 170.91667
15.779413 15.955883 171.45589
16.035715 17.642857 171.5
16.75 18.25 171.41667
27.25 -3.25 173.5
27.75 -3.25 173.5
26.644737 -2.1184208 173.51315
26.25 -0.41666666 173.47223
26.397058 1.5147054 173.54413
27.25 2.8500001 173.35001
27.75 3.25 173.5
17.06818 10.977274 173.70454
16.134615 12.788462 173.71153
16.805555 12.027776 173.25
15.791666 14.249999 173.5
15.88889 16.055555 173.41667
16.75 16.75 174
16.25 17.25 172.75
16.75 17.25 173.25
27.25 -3.25 174.75
27.75 -3.2499998 175.25
26.634615 -1.9807693 175.28847
26.25 -0.39285713 175.32143
26.449999 1.5499997 175.25
27.25 2.75 175.25
27.75 3.25 175.25
17.25 9.25 175.75
16.25 11.125 175.375
16.892857 10.321427 175.21429
15.928572 12.464285 175.21429
16.75 11.749999 174.75
15.75 14.250001 175.25
16.027777 15.583334 175.19444
16.916666 16.083334 175.41667
27.25 -3.2499998 176.75
27.75 -3.25 177
26.671053 -1.9605263 177.03947
26.25 -0.30555552 177.08333
26.450001 1.55 177
27.15 2.75 177.14999
27.75 3.25 177
16.25 9.25 177.75
16.958332 8.833334 177.16667
16.027779 10.722223 177.05556
16.75 9.875 176.625
15.550001 12.499997 176.95
15.916668 14.283332 177.05
16.916666 14.75 177.58333
16.25 15.25 176.25
16.75 15.5 176.5
27.25 -3.25 178.25
27.75 -3.2499998 178.75
26.65 -1.95 178.75
26.25 -0.18750001 178.75
26.5 1.4999996 178.75
27.25 2.75 178.75
27.75 3.25 178.75
17 7.5624995 178.8125
16.25 8.9499998 178.95
16.75 8.4500008 178.64999
15.625002 10.499999 178.75
15.683334 12.450001 178.81667
16.15 13.85 178.55
16.916666 14.083333 178.75
27.75 -3.25 180.5
26.671053 -1.9605263 180.46053
26.25 -0.24999997 180.5
26.5 1.4999996 180.5
27.25 2.75 180.5
27.75 3.1500003 180.64999
16.25 7.75 180.75
16.916666 7.3055549 180.36111
15.983335 8.8166676 180.51666
15.424999 10.525001 180.52499
15.937501 12.343749 180.40625
16.75 13 180.5
16.75 13.75 179.75
27.75 -3.25 182.5
26.694445 -1.9722222 182.5
27.75 -2.75 183
26.25 -0.24999997 182.5
26.583332 1.5833334 182.55556
27.25 2.75 182.5
27.75 3.0000002 182.5
16.113638 7.477272 182.56818
16.875 6.8125 182.375
15.607143 8.75 182.39285
15.644738 10.486842 182.53947
16.75 11.25 183.25
16.15 11.849999 182.05
16.916666 11.999998 182.5
27.75 -3.2499998 184.25
26.720587 -1.9852941 184.25
27.75 -2.75 184.25
26.25 -0.24999997 184.25
26.5625 1.6249996 184.21875
27.25 2.75 184.25
27.75 3.0000002 184.25
15.958333 7.1250005 184.25
16.916666 6.333333 184.25
15.386364 8.750001 184.29546
15.958334 10.374999 184.20833
16.875 11 184.375
27.75 -3.25 186
26.821428 -2.0357141 185.9881
27.75 -2.75 186
26.25 -0.25000006 186
26.654762 1.6309526 186.03572
27.25 2.75 186
27.75 3.0000002 186
16.25 5.7500005 186.75
16.85 5.6499996 186.45
15.729168 7.0000005 186
16.916666 6.25 185.41667
15.666667 8.750001 186.13889
16.107143 9.8928566 185.60715
17 10.062499 186
27.75 -3.25 188
26.84091 -1.9772726 188.02272
27.75 -2.75 188
33.75 -1.25 188.75
26.25 -0.24999997 188
33.75 -0.75 188.75
26.663044 1.5978265 188.03261
16.75 4.25 188.75
27.25 2.75 188
27.75 2.916667 187.83333
16.019232 5.4038463 188.01923
17.068182 5.0227275 187.97728
15.619565 7.0543475 187.96739
16.041666 8.5416679 187.79167
16.916666 8.75 188.13889
27.75 -3.2499998 189.75
26.838236 -1.9558823 189.77942
27.75 -2.75 189.75
33.416668 -1.5833334 189.58333
26.25 -0.24999997 189.75
33.75 -0.32142851 189.82143
26.666666 1.583333 189.75
32.75 2.2500002 190.25
33.5 1.375 189.875
16.15 4.1500006 189.95
17.138887 3.9722221 189.80556
27.25 2.75 189.75
28.125 3.0000002 189.875
30.25 3.7500002 189.91667
32.0625 3.1250002 189.875
15.799999 5.2000003 189.7
18.75 5 190
15.964286 6.9642859 189.71428
17.375 7.4375 189.9375
17 8.25 189.25
28.125 -3.375 191.75
30.5 -3.75 192.25
26.836956 -1.9456521 191.53261
27.75 -2.75 191.5
26.25 -0.24999988 191.5
33.75 -0.25000006 190.75
26.67 1.5500003 191.50999
32.75 2.2500002 191.5
33.403847 1.5192304 191.21153
15.944446 3.583333 191.58333
17.183332 3.0166664 191.55
18.75 3.9999998 191.66667
27.25 2.75 191.5
28.522728 3.3863635 191.56818
30.25 3.7500002 191.5
31.916668 3.1309519 191.55952
15.821428 5.3214288 191.57143
18.25 5.7500005 192
18.75 5.1071429 191.46428
16.050001 6.5 191.25
17.416666 6.6111121 191.52777
18.75 6.25 190.75
21.75 -3.25 193.75
22.821428 -4.1785712 193.75
28.450001 -3.4499998 193.05
30.15 -3.75 192.95
31.75 -3.4166667 192.75
34.75 -4.75 193.75
36.25 -4.75 193.75
40.75 -4.75 193.75
21.450001 -2.05 193.75
22.35 -1.9499999 193.75
25 -1.5 193.75
26.857143 -1.8571428 193.17857
27.75 -2.75 193.25
21.75 -0.24999997 193.75
22.5 -0.25000006 193.75
25.25 -0.24999997 193.75
26.25 -0.24999988 193.25
16.15 2.1500001 193.45
17.214287 1.9285712 193.28572
18.75 2.2500002 193.75
21.75 1.25 193.75
22.5 1.25 193.75
25.15 1.55 193.75
26.71875 1.6249996 193.25
15.82143 3.3928576 193.21428
18 3.0625 193.125
18.75 3.5681818 193.29546
22.5 4 193.75
27.25 2.75 193.25
28.464285 3.3214285 193.10715
30.25 3.7500002 193
31.75 3.2500002 192.83333
16.022728 5.159091 193.20454
17.671053 5.3552628 193.27632
18.75 4.875 193.125
23.25 4.75 193.75
24.5 4.75 193.75
26.5 4.75 193.75
29.25 4.75 193.75
32.25 4.75 193.75
34 4.75 193.75
35.25 4.75 193.75
37.5 4.75 193.75
39.75 4.75 193.75
41.75 4.75 193.75
17.25 6.25 192.75
23.083334 -5.25 195.41667
25.049999 -5.3499994 195.55
26.799999 -5.4000001 195.5
28.5 -5.25 195.75
30.5 -5.25 195.75
31.75 -5.25 195.55
34.049999 -5.25 195.55
35.75 -5.25 195.625
37.464287 -5.2500005 195.53572
39.5 -5.25 195.5
41.25 -5.25 195.5
42.892857 -5.2500005 195.53572
44.75 -5.25 195.5
46.583332 -5.25 195.58333
48.472221 -5.25 195.36111
50.25 -5.25 195.5
52 -5.25 195.75
53.5 -5.25 195.75
21.634615 -3.5961542 195.21153
22.700001 -4.4250002 194.77499
25 -4.75 194.5
26.6875 -4.75 194.6875
28.5 -4.75 194.5
30.125 -4.75 194.375
31.950001 -4.75 194.45
34.083332 -4.75 194.5
35.75 -4.75 194.55
37.5 -4.75 194.5
39.5 -4.75 194.5
41.25 -4.75 194.5
43 -4.7500005 194.75
44.75 -4.7500005 194.85001
46.583332 -4.75 195.08333
48.333332 -4.75 195.33333
50.149998 -4.75 195.55
51.5 -4.75 195.75
17.5 -1.25 195.75
21.25 -2.076087 195.01086
16.125 -0.12499999 195.75
17.204544 -0.068181723 195.61363
21.049999 -0.24999997 195.05
15.960527 1.5921052 195.0921
17.25 1.1249998 194.8125
18.75 1.8928572 195.25
21.1875 1.4374995 194.90625
15.900002 3.5999997 195
17.678572 4.1071424 195.39285
18.75 3.3653846 194.86539
21.571428 3.3571432 195.14285
22.25 4.0500002 194.64999
16.25 4.9166665 194.41667
17.392857 4.8571429 194.60715
23.083334 4.9444447 195.13889
24.964285 4.9642854 195.03572
26.75 4.9642854 195.03572
28.5 4.9499998 195.05
30.25 4.9642854 195.03572
31.972221 4.9722219 195.02777
34 4.9499998 195.05
35.75 4.9499998 195.05
37.5 4.9499998 195.05
39.525002 4.9750004 195.02499
41.25 4.9499998 195.05
43 4.9499998 195.05
44.714287 4.9642854 195.10715
46.555553 5 195.25
48.338238 5.0441175 195.36765
50.249996 5.2499995 195.5
52 5.25 195.75
53.25 5.25 195.75
21.75 -5.25 197.5
23.030001 -5.4299998 196.97
24.950001 -5.4499998 196.95
26.785713 -5.4285712 196.89285
28.477272 -5.295454 196.88637
30.166666 -5.25 197
32.049999 -5.2499995 196.89999
33.942307 -5.2499995 196.94231
35.849998 -5.2499995 196.95
37.549999 -5.2499995 197.05
39.450001 -5.2499995 197.05
41.211536 -5.2884612 197.01923
43.013161 -5.3289471 196.98685
44.750004 -5.2499995 197
46.499996 -5.2499995 197
48.544117 -5.2794108 197.01471
50.249996 -5.2499995 197
52 -5.2499995 197
54 -5.2499995 197
55.349998 -5.25 197.14999
14.5 -3.25 197.75
15.916667 -3.3333333 197.58333
17.522728 -3.4318182 197.56818
19.321428 -3.3214288 197.60715
21.336956 -3.945652 196.96739
22.25 -4.75 196.5
49.25 -4.75 196.25
52.25 -4.75 196.25
54 -4.75 196.5
55.249996 -4 197
12.25 -1.7083333 197.58333
13.98913 -2.076087 197.18478
15.727274 -2.0681818 196.84091
17.3125 -2.1874998 196.5
19.431818 -2.2045455 196.88637
20.865385 -2.3269231 196.67308
54.75 -2.25 197.5
55.249996 -2 197
10.75 -0.25000006 197.75
12.025001 -0.20000008 197.27499
14.05 -0.28333333 196.55
15.687501 -0.3125 196.25
17.25 -0.75 196.25
20.75 -0.24999997 196.25
54.75 -0.24999997 196.75
55.249996 -0.24999988 197
10.75 0.75000006 197.75
12.194444 1.3055553 197.47223
14.089286 1.5892861 197.05357
15.400001 1.6499997 196.45
19.5625 1.875 196.6875
20.75 0.75000006 196.25
54.75 1.5833335 196.91667
55.249996 1.4999996 197
14.249999 2.8333333 197.66667
15.855264 3.1973681 197.03947
17.527779 3.6574063 196.91667
19.25 3.0441175 197.27942
21.138889 3.5000002 196.97223
55.249996 3.5714285 197.10715
21.678572 4.8928576 197.25
22.98913 5.315217 196.94565
24.916666 5.3055549 196.94444
26.75 5.2499995 197
28.5 5.2499995 197
30.25 5.2499995 197
32 5.2499995 197
34 5.2499995 197
35.75 5.2499995 197
37.5 5.2499995 197
39.472225 5.3055544 197.08333
41.25 5.3214283 197.07143
42.988094 5.3690472 197.10715
44.833336 5.4166665 197.05556
46.5 5.3863635 197.06818
48.477276 5.3863626 197.04546
50.25 5.416666 197.11111
51.986843 5.3289471 197.0921
53.974998 5.349999 197.10001
55.249996 5.1388893 197.19444
17.5 -90.5 199.25
18.75 -90.25 199.25
17.5 -89.25 199.25
17.5 -87.5 199.25
17.5 -85.5 199.25
17.431818 -83.749992 199.25
17.5 -82.000008 199.25
17.5 -79.999992 199.25
17.5 -78.250008 199.25
17.326923 -76.557686 199.25
16.25 -74.25 199.25
17.25 -74.499992 199.25
16.25 -72.75 199.25
17.25 -72.821434 199.25
16.25 -71 199.25
17.25 -71.068184 199.11363
16.25 -69.25 199.25
17.15909 -69.204552 199.02272
16.25 -67.5 199.25
17.15 -67.483337 199.01666
16.25 -65.5 199.25
17.125 -65.5 199
16.25 -63.75 199.25
17.125 -63.75 199
16.25 -61.999996 199.25
17.25 -61.955875 199.04411
16.25 -59.999996 199.25
17.15625 -59.9375 199
16.25 -58.250004 199.25
17.285713 -58.321434 199
16.25 -56.500004 199.25
17.191175 -56.455879 199.01471
16.25 -54.75 199.25
17.25 -54.75 199.01923
16.25 -52.999996 199.25
17.276316 -53.039474 199.01315
16.25 -50.999996 199.25
17.369047 -51.059521 199.0119
16.25 -49.25 199.25
17.40625 -49.28125 199.03125
16.25 -47.500004 199.25
17.338236 -47.426472 199.07353
16.25 -45.500004 199.25
17.375 -45.500004 199.03125
16.25 -43.75 199.25
17.375 -43.916664 199
16.25 -41.999996 199.25
17.48077 -42.05769 199.05769
16.25 -40.25 199.05
17.583334 -40.138893 198.97223
16.25 -38.5 199
17.557692 -38.51923 199.01923
16.25 -36.392857 199.03572
17.568182 -36.43182 198.97728
16.25 -34.75 199
17.583334 -34.749996 198.91667
16.25 -33 199
17.5 -33.099998 198.95
16.15 -30.9 199.05
17.51923 -30.980774 198.90385
16.178572 -29.17857 199.03572
17.583334 -29.25 198.91667
16.15 -27.600002 199.05
17.480768 -27.44231 198.90384
16.083334 -25.5 199.08333
17.480768 -25.557692 198.90385
16.083334 -23.75 199.08333
17.613636 -23.659092 198.88637
16.083334 -22.000002 199.08333
17.642857 -22 198.89285
16.083334 -20.250002 199.08333
17.625 -20.208334 198.875
16.083334 -18.5 199.08333
17.583334 -18.583334 198.91667
18.75 -18.583334 199.25
16.083334 -16.5 199.08333
17.5 -16.541668 198.91667
18.75 -16.75 199.25
16.083334 -14.750001 199.08333
17.375 -14.687501 198.875
18.75 -14.750001 199.25
16.057693 -12.942307 199.05769
17.51923 -13.134616 198.90385
18.75 -13.5 199.25
16.057693 -10.980769 199.05769
17.516666 -10.983335 198.88333
18.75 -11.75 199.25
16.022726 -9.295454 199.02272
17.166666 -9.25 198.83333
18.75 -9.25 199.25
16.083334 -7.5000005 199.08333
17.431818 -7.7045465 198.88637
18.75 -7.5 199.25
16.083334 -5.75 199.08333
17.3125 -5.6875 198.875
18.75 -5.75 199.25
21.75 -5.25 198.75
22.861111 -5.25 198.69444
25 -5.25 199
26.75 -5.2500005 198.75
28.5 -5.25 198.66667
30.166666 -5.25 198.83333
31.85 -5.25 199.05
33.875 -5.25 198.625
35.799999 -5.2999997 198.8
37.5 -5.2499995 198.75
39.442307 -5.2884612 198.78847
41.200001 -5.2999997 198.75
43.035713 -5.3214283 198.75
44.799999 -5.2999997 198.75
46.42857 -5.3214283 198.78572
48.51923 -5.2884607 198.75
50.200001 -5.2999997 198.7
52.000004 -5.2499995 198.75
54 -5.2499995 198.75
55.250004 -5.25 198.75
12.583333 -3.2499998 199.08333
14.083332 -3.3333335 198.83333
15.720589 -3.9852943 198.72058
17.392857 -4.2857146 198.42857
19.464285 -3.75 198.89285
21.15 -4.2833338 198.75
54.75 -4.25 198.75
55.249996 -4 198.75
10.458332 -1.625 198.83333
11.85 -2.4166667 198.68333
13.75 -2.75 198.25
54.75 -2.25 199.25
55.249996 -2 198.75
10.107142 -0.24999997 198.67857
55.249996 -0.24999988 198.75
10.357142 1.2499996 198.85715
11.805556 2.1388891 198.52777
54.75 1.7500002 198.75
55.249996 1.4999996 198.75
12.36111 2.8611112 198.97223
14.039473 3.2499993 198.77632
15.788462 3.7115388 198.75
17.544119 3.9852941 198.77942
19.455883 3.573529 198.75
20.916666 3.9722221 198.75
55.249996 3.5000002 198.75
21.583334 4.916667 198.75
23.107143 5.3214283 198.71428
24.928572 5.3214283 198.71428
26.75 5.2499995 198.75
28.5 5.2499995 198.75
30.25 5.2499995 198.75
31.98077 5.2884607 198.71153
34 5.2499995 198.75
35.75 5.2499995 198.75
37.5 5.2499995 198.75
39.48077 5.2884607 198.75
41.25 5.2499995 198.75
42.972221 5.4166665 198.69444
44.750004 5.4038458 198.71153
46.513157 5.4342098 198.72368
48.539474 5.4342098 198.75
50.321426 5.4285712 198.75
51.999996 5.3749995 198.65625
53.988098 5.4642849 198.75
55.249996 5.1071424 198.75
17.46739 -90.728256 200.01086
18.75 -90.5 199.75
17.5 -89.250008 200
18.75 -89.5 199.75
16.25 -87 199.75
17.539474 -87.421051 200.11842
18.75 -87.75 199.75
16.25 -86 199.75
17.552328 -85.505814 200.19186
18.75 -85.25 199.75
16.25 -83.75 200.25
17.546877 -83.750008 200.1875
16.25 -81.5 199.75
17.534094 -81.965912 200.20454
18.75 -82.25 199.75
16.25 -79.999992 199.75
17.454084 -79.994881 200.29082
18.75 -79.75 199.75
16.25 -78.25 199.75
17.475002 -78.237503 200.3625
18.75 -78 199.75
16.25 -76.349998 199.85001
17.391308 -76.510857 200.42392
18.75 -75.75 199.75
16.25 -74.535713 199.96428
17.377453 -74.534325 200.46568
16.25 -72.75 200
17.325758 -72.749985 200.41667
16.25 -71 200
17.409576 -70.984047 200.48404
16.25 -69.25 200
17.456896 -69.267235 200.57759
16.25 -67.5 200
17.553572 -67.553566 200.69643
16.250002 -65.431816 200.20454
17.583334 -65.5 200.66667
16.25 -63.750004 200.25
17.583334 -63.75 200.66667
16.250002 -61.999996 200.25
17.790001 -62.030003 200.67
16.250002 -59.999996 200.25
17.84524 -60.035717 200.65475
16.250002 -58.204548 200.43182
17.85 -58.25 200.64999
16.250002 -56.500004 200.5
17.85 -56.500004 200.64999
16.250002 -54.75 200.5
17.85 -54.75 200.64999
16.220591 -52.955887 200.48529
17.940477 -52.988098 200.67857
16.076088 -51.032608 200.51086
18.194447 -51.055561 200.58333
16.0625 -49.28125 200.53125
18.25 -49.25 200.5
16.013161 -47.513157 200.48685
18.250002 -47.500004 200.5
18.75 -47 200.75
15.916668 -45.499992 200.5
18.250002 -45.550003 200.48334
18.75 -45.416668 200.58333
15.916668 -43.749996 200.5
18.25 -43.750004 200.53572
18.75 -43.749996 200.5
15.916668 -41.999996 200.5
18.25 -41.999996 200.5
18.75 -41.949997 200.64999
15.875001 -40.28125 200.40625
18.25 -40.25 200.125
18.75 -40.25 200.75
15.850001 -38.5 200.35001
18.25 -38.416668 199.75
18.75 -38.5 200.75
15.850001 -36.499996 200.35001
18.25 -36.500004 199.75
18.788462 -36.442307 200.78847
15.85 -34.75 200.35001
18.25 -34.75 199.75
18.791666 -34.708336 200.625
15.828948 -33.013157 200.38158
18.25 -33.25 199.75
18.785715 -32.92857 200.57143
15.805556 -31.055557 200.41667
18.25 -30.999998 199.75
18.75 -30.964289 200.60715
15.75 -29.249998 200.5
18.791666 -29.33333 200.58333
15.650001 -27.5 200.64999
18.78125 -27.437504 200.59375
15.583333 -25.511906 200.60715
18.75 -25.516665 200.55
15.516665 -23.75 200.51666
18.75 -23.75 200.58333
15.500001 -22.000004 200.5
18.838236 -22.044119 200.63235
15.485295 -20.220587 200.54411
18.84091 -20.204542 200.65909
15.489131 -18.510872 200.59782
18.8125 -18.468752 200.53125
15.513159 -16.407892 200.48685
18.75 -16.442308 200.44231
15.57353 -14.750001 200.45589
18.25 -14.250001 201.25
18.75 -14.861111 200.63889
15.659092 -12.999999 200.5
18.75 -12.916667 200.625
15.82143 -11.035715 200.63095
18.75 -11.083334 200.52777
15.85 -9.249999 200.64999
18.25 -9.25 201.25
18.75 -9.249999 200.55
15.850001 -7.5 200.64999
18.25 -7.2499995 201.25
18.75 -7.5 200.5
15.85 -5.7499995 200.64999
18.25 -5.25 201.25
18.75 -5.6071424 200.67857
21.75 -5.25 200.5
22.75 -5.2499995 200.5
25.01923 -5.2499995 200.51923
26.75 -5.2499995 200.47728
28.65909 -5.2954545 200.38637
30.200001 -5.2999997 200.39999
31.977272 -5.2499995 200.61363
34.016666 -5.2499995 200.48334
35.638889 -5.25 200.58333
37.485291 -5.3088231 200.54411
39.513161 -5.3289471 200.51315
41.326923 -5.3269224 200.44231
42.974998 -5.3499994 200.45
44.816669 -5.349999 200.51666
46.539471 -5.3289471 200.48685
48.565792 -5.3289471 200.48685
50.281254 -5.375 200.53125
52.027779 -5.3055549 200.5
54 -5.2499995 200.5
55.416668 -5.25 200.5
12.535714 -3.2500002 200.39285
13.98913 -3.5108697 200.53261
15.57353 -4.3088241 200.54411
19.557692 -4.0192308 200.63461
21.138889 -4.4166665 200.52777
54.75 -4.1499996 200.45
55.249996 -4.0000005 200.5
10.279411 -1.8088235 200.54411
11.613637 -2.6590908 200.70454
54.75 -2.55 200.35001
55.249996 -2 200.5
9.25 -3.6653396e-09 200.25
9.75 -0.24999997 200.5
54.75 -0.37500003 200.375
55.249996 -0.24999997 200.5
10.187499 1.4374998 200.46875
11.35 2.2500002 200.64999
54.75 1.7500002 200.75
55.249996 1.4999998 200.5
12.111112 2.9166665 200.44444
14 3.4999998 200.5
15.838235 3.8382351 200.54411
17.539474 4.171052 200.5921
19.583332 3.6666663 200.54167
20.916666 4.0833335 200.5
54.75 3.75 200.25
55.249996 3.4999998 200.5
21.583334 4.9166665 200.5
23.055555 5.3055549 200.44444
25.044117 5.2794108 200.45589
26.785713 5.3214283 200.5
28.5 5.2499995 200.5
30.21875 5.375 200.5
32.025002 5.3499999 200.5
33.960526 5.3289471 200.51315
35.788464 5.2884607 200.51923
37.5 5.2499995 200.5
39.485294 5.2794108 200.48529
41.21154 5.2884607 200.51923
43.02586 5.4741373 200.47414
44.77174 5.4891305 200.53261
46.472225 5.453702 200.52777
48.50806 5.4919353 200.49193
50.250004 5.48913 200.53261
51.999996 5.4423065 200.46153
54.05645 5.4274197 200.49193
55.249996 5.1500001 200.5
17.25 -73.75 201.75
17.25 -72.75 201.75
17.25 -71 201.75
17.25 -69.25 201.75
17 -67.5 201.75
17.049999 -65.400002 201.85001
17.083332 -63.75 201.91667
17.17857 -61.928566 201.89285
17.138889 -59.944443 201.94444
17.134615 -58.288464 201.98077
17.15 -56.499996 202.14999
17.1875 -54.75 202.15625
17.229166 -52.999992 202.1875
16.25 -50.999996 201.75
17.166666 -51.000004 202.25
16.25 -49.25 201.75
17.171053 -49.223679 202.30263
16.25 -47.500004 201.75
17.296877 -47.500004 202.34375
16.25 -45.500004 201.75
17.335716 -45.507141 202.37857
16.25 -43.75 202
17.379629 -43.76852 202.5463
16.25 -41.999996 202
17.321428 -42 202.60715
16.178572 -40.178577 201.96428
17.395834 -40.208336 202.64583
16.113638 -38.431816 201.93182
17.446972 -38.522724 202.64394
18.75 -38.25 201.75
16.096155 -36.442307 201.98077
17.564816 -36.583332 202.65741
16.125 -34.75 202.125
17.525 -34.824997 202.75
18.75 -34.25 201.75
16.125 -33.000004 202.125
17.522728 -32.93182 202.72728
18.75 -32.75 201.75
16.035715 -30.928576 202.25
17.583334 -31.041666 202.75
18.75 -31.249998 201.75
16.050001 -29.25 202.45
17.625 -29.249998 202.91667
18.75 -29.250004 201.75
15.945653 -27.467392 202.3587
17.71875 -27.5 202.90625
18.75 -27.35 201.85001
15.916668 -25.5 202.33333
17.625 -25.625 203
18.75 -25.392859 201.96428
15.916668 -23.749998 202.33333
17.583334 -23.75 203.08333
18.75 -23.849998 201.95
15.863637 -21.954546 202.36363
18 -21.900002 202.95
18.75 -22 202
15.955884 -20.279409 202.36765
17.5625 -20.25 203.0625
18.75 -20.25 201.875
16.014708 -18.544119 202.30882
17.59091 -18.431822 202.88637
18.75 -18.75 201.75
16.035715 -16.57143 202.03572
17.51923 -16.480768 202.21153
18.75 -17.25 201.75
16 -14.75 201.75
17.535715 -14.821427 201.96428
16.15 -13.150001 201.75
17.522728 -13.022726 201.75
16.25 -11 201.75
17.25 -11.083333 201.75
16.25 -9.25 201.75
17 -9.25 201.75
16.25 -7.5 201.75
17 -7.5833335 201.75
16.25 -5.75 201.75
17.083334 -5.916666 201.75
21.75 -5.25 202.75
22.972221 -5.3888888 202.77777
24.986841 -5.3815784 202.75
26.75 -5.3863635 202.70454
28.365385 -5.2884607 202.55769
30.194445 -5.25 202.63889
31.950001 -5.2499995 202.55
34.057693 -5.2499995 202.67308
35.75 -5.2499995 202.5
37.531246 -5.281249 202.5
39.450001 -5.2499995 202.48334
41.25 -5.2499995 202.5
43.024998 -5.3499994 202.45
44.750004 -5.2499995 202.5
46.485291 -5.2794113 202.51471
48.5 -5.2499995 202.5
50.21154 -5.2884607 202.51923
52 -5.2499995 202.5
54.000004 -5.2499995 202.5
55.416664 -5.25 202.5
12.75 -3.25 201.75
14.107142 -3.2500002 201.96428
15.750001 -3.666667 202.125
17.4375 -3.8124998 202.39583
19.1875 -3.4375 202.25
21.308823 -4.0735297 202.7794
54.75 -3.25 201.75
55.249996 -4.0000005 202.5
10.550001 -1.65 201.85001
12.059525 -1.9880953 202.41667
13.986842 -2.2236843 202.88158
15.638889 -2.5277777 203.08333
17.5 -2.75 203.25
19.464285 -2.3928571 203.10715
20.75 -2.375 203.125
54.75 -1.9166666 202.91667
55.249996 -2 202.5
10.321429 -0.28571427 202.10715
11.9 -0.34999999 203.05
13.25 -0.75 203.25
54.75 -0.24999997 201.75
55.249996 -0.24999988 202.5
10.583335 0.91666675 201.91667
12.173077 1.7884614 202.36539
13.86111 1.6944442 203.02777
15.249999 2.0833337 203.08333
19.9375 1.9375 203.0625
54.75 1.4166666 202.08333
55.249996 1.4999996 202.5
12.583333 2.75 201.91667
14.071429 2.9642854 202.17857
15.802632 3.3026311 202.51315
17.51087 3.6847825 202.53261
19.386364 3.204545 202.38637
21.068182 3.6818187 202.56818
54.75 3.25 201.75
55.249996 3.4999998 202.5
21.6875 4.9375 202.3125
23.044117 5.2794108 202.45589
24.955883 5.2794108 202.54411
26.75 5.2499995 202.5
28.5 5.2499995 202.5
30.211538 5.2884607 202.44231
31.972223 5.3055549 202.44444
34 5.2499995 202.5
35.75 5.2499995 202.5
37.5 5.2499995 202.5
39.500004 5.2499995 202.5
41.25 5.2499995 202.5
42.989998 5.4299994 202.53
44.776318 5.4342098 202.5658
46.590004 5.4299989 202.50999
48.53846 5.4423065 202.53847
50.226189 5.4642849 202.4881
52.049995 5.4299989 202.45
54.070004 5.4299989 202.50999
55.249996 5.0833335 202.41667
17.25 -41.25 203.75
17.25 -40.250004 203.75
17.25 -38.5 203.75
17.15 -36.349998 203.75
17 -34.75 203.75
17.113636 -32.886364 203.84091
17.216665 -30.950003 203.88333
17.194445 -29.249998 203.91667
17.083334 -27.483335 204.01666
17.138887 -25.5 204.08333
17.107143 -23.785713 204.17857
17.204544 -22 204.13637
17.200001 -20.350002 203.85001
17.083334 -19.083334 203.75
23 -5.4687495 204.28125
24.977272 -5.4772725 204.25
26.75 -5.4833331 204.21667
28.583334 -5.25 204.08333
29.75 -5.25 204
32 -5.25 204.3125
34.099998 -5.2499995 204.25
35.75 -5.25 204.16667
37.541664 -5.291666 204.20833
39.48077 -5.2884612 204.25
41.200001 -5.2999997 204.2
42.964287 -5.3214283 204.25
44.75 -5.25 204.25
46.437496 -5.375 204.21875
48.5 -5.2499995 204.25
50.25 -5.25 204.25
51.999996 -5.2499995 204.25
54 -5.2499995 204.25
55.250004 -5.25 204.25
21.571428 -3.8571429 204.21429
22.25 -4.625 204.375
55.249996 -4.0000005 204.25
14.25 -1.25 203.75
15.892858 -1.75 203.75
17.25 -1.9166666 203.86111
19.083334 -1.75 203.75
20.949999 -2.05 204.25
54.75 -1.75 204.25
55.249996 -2 204.25
12.75 0.25000003 203.75
14.083332 -0.16666661 203.75
15.687501 -0.24999997 204
16.75 -0.12499999 204.375
18.75 -0.5 204.25
20.75 -0.24999997 204.45
55.249996 -0.25000006 204.25
14.75 1 203.75
15.75 1.4999996 204.28125
17.416666 0.91666675 204.75
19.068182 1.7045454 204.02272
20.75 1 204.75
54.75 0.75000006 203.75
55.249996 1.4999999 204.25
15.950001 3.5499997 204.25
17.602942 4.0147057 204.13235
18.75 3.3055558 204.36111
21.549999 3.6500001 204.10001
22.25 4.25 204.5
55.249996 3.4999995 204.25
16.25 4.75 204.75
17.15 4.75 204.55
21.75 4.75 204
22.85 5.1499996 204.25
25 5.2499995 204.25
26.75 5.2499995 204.25
28.5 5.2499995 204.25
30.25 5.2499995 204.25
32 5.2499995 204.25
34 5.2499995 204.25
35.75 5.2499995 204.25
37.5 5.2499995 204.25
39.5 5.2499995 204.25
41.25 5.2499995 204.25
43.073528 5.3970585 204.25
44.833336 5.375 204.25
46.472218 5.4166665 204.27777
48.559525 5.4642849 204.25
50.3125 5.4687495 204.21875
52.044117 5.397058 204.13235
54.027779 5.4166665 204.25
55.249996 5.1071429 204.25
23.25 -5.416666 205.47223
25.049999 -5.4833331 205.48334
26.694445 -5.5277781 205.47223
28.35 -5.3500004 205.25
30.25 -5.25 205.41667
32.035713 -5.2500005 205.46428
34 -5.25 205.41667
35.625 -5.25 205.375
37.392857 -5.2500005 205.46428
39.607143 -5.2500005 205.46428
41.25 -5.25 205.5
43 -5.25 205.5
44.75 -5.25 205.5
46.5 -5.25 205.5
48.5 -5.25 205.5
50.25 -5.25 205.5
51.999996 -5.25 205.5
54 -5.25 205.5
55.25 -5.25 205.5
21.75 -3.6500001 205.45
22.4375 -4.1875 205.625
44.75 -3.9500003 205.75
45.75 -3.25 205.75
54.75 -4 205.25
55.249996 -4 205.5
21.361111 -2.0833333 205.47223
22.75 -2.75 205.75
43.25 -2.75 205.75
44.25 -1.75 205.75
45.75 -2.75 205.75
54.75 -2.5 205.5
55.249996 -2 205.5
21.166666 -0.33333331 205.41667
54.75 -3.6653396e-09 205.5
55.249996 -0.24999997 205.5
16.068182 1.9772726 205.79546
17.1875 1.6562496 205.9375
18.75 2.2500002 205.25
21.25 1 205.5
54.75 2.2500002 205.25
55.249996 1.5000001 205.5
15.828948 3.4868417 206.03947
18.25 3.6249998 206.125
18.75 3.5499997 205.95
21.5 3.4999998 205.25
22.25 4.25 205.5
54.75 4.25 205.75
55.249996 3.5000002 205.5
16.068182 5.0227275 206.20454
17.538462 5.2115383 206.07692
18.75 4.9166665 206.58333
23.0625 5.125 205.5
25 5.2499995 205.5
26.75 5.2499995 205.5
28.5 5.2499995 205.5
30.25 5.2499995 205.5
32 5.2499995 205.5
34 5.2499995 205.5
35.75 5.2499995 205.5
37.5 5.2499995 205.5
39.527779 5.2499995 205.58333
41.25 5.2499995 205.5
43.022724 5.340909 205.52274
44.849998 5.349999 205.60001
46.673073 5.3269234 205.59616
48.583336 5.3166666 205.64999
50.25 5.3611107 205.52779
52.041664 5.4166665 205.45833
53.900002 5.3499999 205.5
55.25 5.1500001 205.55
16.25 6.25 206.75
17 6.25 206.5
52.75 -2.75 208.25
16.75 2.2500002 207.25
15.964286 3.5357139 207.71428
17.361111 2.916667 207.75
18.75 3.8928576 207.67857
15.799999 5.2999997 207.7
17.916666 5.6666665 207.5
18.75 5.1874995 207.8125
16.15 6.3499994 207.95
17.392857 6.4285712 207.82143
52.75 -2.75 209.25
16.0625 4.0625005 209.25
17.5 3.8333333 209.25
18.75 4.0833335 208.91667
15.85 5.1499996 209.55
18.25 4.75 210
18.75 5.2500005 209.5
15.968751 6.875 209.625
17.613636 7.2045455 209.52272
18.75 6.5 209.75
17 8.25 210.25
16 5.4583335 211.375
17.5 5.125 211.125
18.75 5.6499996 211.35001
15.750002 7.0555558 211.5
18.25 7.75 211
18.75 7.000001 211.5
16.083334 8.583333 211.86111
17.549999 8.6499987 211.61
18.75 8.416667 212.08333
16.25 10.25 212.25
17 9.75 212.25
16.25 5.7500005 213
15.808824 6.9852943 213.22058
17.875 6.375 213.375
18.75 7.1500001 213.2
15.659091 8.750001 213.15909
18.125 9.125 212.875
18.75 8.6875 213.3125
16.049999 9.999999 213.39999
17.446428 10.446431 213.30357
18.75 9.75 213.5
17.25 11.749999 213.75
16.035715 7.3571429 214.89285
17.607143 7.3928561 215.17857
18.75 7.5833335 214.83333
15.53125 8.750001 215
18.75 8.750001 215
15.79762 10.511906 215.0119
17.9375 10.937501 214.6875
18.75 10.291666 215.125
16.25 12.083332 215.41667
17.416666 12.333333 215.13333
17.125 13.875 215.625
16.25 7.75 216.25
16.75 7.75 216.25
15.968751 8.75 216.9375
17.875 8.5 217.125
18.75 8.9375 216.8125
15.550001 10.500003 217
18.25 11.25 216.25
18.75 10.5 217
15.972224 12.444443 217.02777
17.986843 12.776316 216.77632
18.75 12.035712 217.25
16.25 13.75 217.5
17.309999 14.23 217.07001
17.35 15.349999 217.45
16.25 9.25 218.5
17.65 9.0500002 218.45
15.843751 10.4375 218.71875
17.950001 9.8499985 218.95
18.75 10.568182 218.70454
15.650001 12.450001 218.71666
18.25 13.125001 218.625
18.75 12.499998 218.75
16.178572 14.107143 218.82143
17.65 14.316667 218.68333
18.75 13.75 219.25
17.25 15.55 218.81667
16.071428 10.750002 220.39285
17.720589 10.544118 220.63235
18.75 11.050001 220.15001
15.718751 12.499998 220.5
18.25 11.749999 221.25
18.75 12.5 220.5
15.950001 14.316669 220.55
18.1875 14.499999 220.1875
18.75 14.0625 220.6875
16.25 15.349999 220.64999
17.359375 16.015625 220.48438
17.25 17.25 221.25
16.25 11.25 221.75
17.5 11.187501 222.1875
15.934212 12.48684 222.46053
17.85 11.949999 222.8
18.75 12.75 222.34091
15.75 14.249999 222.5
18.25 14.75 221.75
18.75 14.249999 222.5
16.107143 15.82143 222.60715
17.75 16.23 222.41
18.75 15.25 223
17.220587 17.485289 222.63235
16.0625 12.874999 224.125
17.865385 12.711538 224.21153
18.75 13.25 224
15.799999 14.199999 224.3
18.25 13.75 224.75
18.75 14.250001 224.25
15.931818 15.977272 224.25
18.1875 16.4375 224.125
18.75 15.6875 224.3125
16.25 17.25 224.5
17.295454 17.931816 224.27274
16.25 13.25 225.25
17.4375 13.125001 225.5
16.035715 14.357143 226
17.783333 14.05 226.35001
18.75 14.549998 225.64999
15.781251 16.062502 225.9375
18.25 16.75 225.5
18.75 16.000002 226
16.159092 17.613638 226.11363
17.646553 18.181032 225.93965
18.75 17.25 226.75
17.173077 19.403849 226.25
16.25 14.499999 227.5
17.53125 14.468751 227.6875
15.857143 15.928572 227.78572
18.25 15.374999 227.875
18.75 16.068182 227.70454
16.000002 18 227.75
17.903847 18.442308 227.59616
18.75 17.5 227.75
16.25 19.25 228
17.225 19.75 227.77499
17.25 20.75 228.25
17.25 14.75 228.75
16.071428 16.285713 229.46428
17.673079 15.769231 229.51923
18.75 16.550001 229.14999
15.808825 18.044117 229.48529
18.25 18.625 229.125
18.75 17.892857 229.57143
16.200001 19.600002 229.75
17.590908 19.840906 229.43182
17.216665 21.016666 229.71666
16.25 16.75 231
17.5 16.527777 231.36111
15.950001 17.949997 231.5
17.865385 17.442307 231.82692
18.75 18.35 231.39999
15.916668 19.816668 231.51666
18.200001 19.950001 231.35001
18.75 19.416668 231.66667
16.25 20.949999 231.85001
17.346775 21.459679 231.57259
17.25 22.75 232
16.125 18.4375 233.1875
17.702383 17.916666 233.2262
18.75 18.75 233
15.799999 19.800001 233.2
18.25 19.75 233.25
18.75 19.75 233.25
16.138889 21.138887 233.30556
17.678572 21.678572 233.20238
18.75 20.75 233.75
17.199999 22.849998 233.35001
16.25 18.550001 234.64999
17.321428 18.571428 234.85715
16.016666 19.783337 235.05
17.892859 19.500004 235.32143
18.75 20.049999 234.64999
16.000002 21.500002 235.06818
18.041668 21.916662 234.83333
18.75 20.964285 235.10715
16.25 22.75 235.25
17.233871 23.379032 235.12097
17.25 24.75 235.75
16.25 19.9375 236.8125
17.416666 19.879627 236.93518
15.931821 21.477272 236.97726
18.25 21.386362 237.06818
18.75 21.75 237
16.173077 23.173075 237.21153
17.560345 23.698275 236.93965
17.173077 24.942308 237.32692
17.25 20.25 238.25
16.071428 21.714283 238.67857
17.634615 21.288464 238.78847
18.75 22.25 238.5
16.031252 23.406254 238.75
17.89706 23.720589 238.77942
18.75 22.75 238.5
16.25 24.75 239.25
17.25 25.223682 238.77632
17.25 26.249998 239
16.25 22.083334 240.33333
17.423912 21.923914 240.38043
16.017857 23.535713 240.51785
18.06579 23.381577 240.5921
18.75 23.25 239.75
16.194445 25.027779 240.75
17.5 25.346157 240.46153
17.156248 26.468746 240.65625
17 22.25 241.75
16.159092 23.795458 242.11363
17.604168 23.312496 242.25
16.125 25.124998 242.25
18.200001 25.300001 242.2
16.25 26.249998 242.5
17.272726 26.863634 242.27272
16.25 23.949999 243.55
17.375 23.916666 243.875
16.250002 25.249998 244
18.083334 25.15 244.11667
16.250002 26.704544 244.06818
17.516668 27.116671 243.95001
17.15 28.400003 244.35001
17 24.25 245.25
16.25 25.464287 245.75
17.433332 25.266668 246
16.250002 26.999998 246
18.092106 27.039474 245.98683
16.25 28.25 246.5
17.136362 28.72727 246.02272
17.083334 29.75 246.58333
16.25 25.750002 247.25
17.15 25.750002 247.45
16.25 27.150002 247.7
17.704546 26.749996 247.79546
16.25 28.607143 247.82143
17.458334 28.708336 247.66667
17.049999 30.049999 247.8
16.25 27.464285 249.25
17.400002 27.216665 249.38333
16.250002 28.75 249.5
18.016666 28.716669 249.55
16.25 29.875 249.875
17 30.575003 249.47499
17.25 31.749998 250.25
17.15 27.75 250.95
16.25 28.861115 251.30556
17.516666 28.666664 251.56667
16.250002 30.326923 251.55769
17.444445 30.527775 251.44444
17.057692 31.980766 251.67308
16.25 29.25 252.75
17.25 29.124998 253.125
16.250002 30.499996 253.25
17.772728 30.295456 253.29546
16.25 31.749998 253.5
17.0625 32.4375 253.31252
16.25 30.861107 254.80556
17.462502 30.625002 254.91251
16.25 32.149998 255.10001
17.578951 32.578945 255.02632
17.316668 33.98333 255.21666
17.25 31.099997 256.5
16.250002 32.568184 256.70456
17.632355 32.397053 256.72058
16.25 33.75 257.25
17.358696 34.184784 256.77173
17.25 35.416668 257.08334
16.25 32.964287 258.25
17.473688 32.697369 258.4079
16.25 34.0625 258.6875
17.604839 34.266136 258.50809
17.275 35.524998 258.60001
17.1875 33.125 259.9375
16.25 34.361111 260.30554
17.500002 34.236118 260.5
16.25 35.375004 260.875
17.407896 35.907894 260.53946
17.25 37.25 261
16.25 34.75 261.75
17.283333 34.583332 262.11667
16.25 35.6875 262.3125
17.416668 35.946968 262.26514
17.25 37.361115 262.41666
16.25 36.350006 263.89999
17.23485 36.053032 263.93182
16.25 37.25 264.5
17.194445 37.842594 264.12036
16.25 36.75 265.25
17.173077 36.557697 265.59616
16.25 37.694447 266.02777
17.235716 37.978565 266.02142
17.113636 39.386368 266.29544
16.25 38.392857 267.67856
17.20652 38.11956 267.70651
16.25 39.25 268.25
17.174999 39.700005 267.77499
17.25 40.75 268.25
16.25 38.75 268.75
17.25 38.634617 269.21152
16.25 39.60714 269.60715
17.25 39.76667 269.55002
17.166666 41.027775 269.75
17.25 38.75 270.75
16.25 40.125 271.125
17.231482 39.879631 271.34259
16.25 40.950001 271.85001
17.250004 41.416668 271.55951
17.25 42.916664 272.08334
17.125 40.25 272.875
16.25 41.678574 273.39285
17.250002 41.499989 273.25
16.25 42.999996 273.75
17.279411 43.044113 273.33823
16.083334 42.138889 274.80557
17.214285 41.875 274.875
16.093752 43.124996 275.15625
17.290543 43.250004 275.03378
16.25 44.249996 275.75
17.25 44.374996 275.3125
17 42.25 276.25
16.041666 43.458336 276.66666
17.268518 43.250004 276.71295
16.125 44.5625 277
17.291666 44.66666 276.83331
16 43.75 278
17.25 43.583336 278.18332
16.022728 44.931816 278.34091
17.364586 44.96875 278.48959
17.333334 46.416668 278.83334
