# .PCD v0.7 - Point Cloud Data file format
VERSION 0.7
FIELDS x y z
SIZE 4 4 4
TYPE F F F
COUNT 1 1 1
WIDTH 112
HEIGHT 1
VIEWPOINT 0 0 0 1 0 0 0
POINTS 112
DATA ascii
0.022930523 0.0065530576 -0.46413919
nan nan nan
0.024409788 0.0065633492 -0.42507198
nan nan nan
0.025531512 0.0061662016 -0.38724574
nan nan nan
0.026800955 0.00642099 -0.33146107
nan nan nan
nan nan nan
nan nan nan
0.028715994 0.0070722294 -0.25681856
nan nan nan
nan nan nan
nan nan nan
0.028556261 0.0069424477 -0.208405
0.030722018 0.0073187887 -0.1890156
0.032002412 0.0074497689 -0.16097692
nan nan nan
0.035131913 0.0077729239 -0.10823276
nan nan nan
nan nan nan
0.026087429 0.014663943 -0.040910766
nan nan nan
nan nan nan
nan nan nan
nan nan nan
nan nan nan
-0.00091276236 0.027090155 -0.0091109667
nan nan nan
nan nan nan
-0.0093776835 0.0017493736 0.045121711
nan nan nan
nan nan nan
nan nan nan
nan nan nan
nan nan nan
-0.028673312 -0.046082914 0.050783854
nan nan nan
0.027606053 0.0046010744 0.017740505
nan nan nan
0.074533053 0.0028333978 0.041036915
nan nan nan
nan nan nan
nan nan nan
-0.028083848 0.031074254 0.091481082
nan nan nan
nan nan nan
-0.030302193 -0.062807679 0.049616288
-0.031124592 -0.081488274 0.048304502
-0.033499666 -0.11035362 0.048049975
nan nan nan
-0.034462579 -0.13883348 0.047165662
-0.0345263 -0.15865888 0.046514206
-0.034409422 -0.17856908 0.045893759
-0.034181934 -0.2071992 0.04506921
nan nan nan
-0.034097739 -0.23556368 0.044477869
-0.034063026 -0.25529528 0.044115916
-0.014216393 0.060512576 -0.064689785
-0.034222972 -0.27121282 0.043875746
-0.034302004 -0.28840831 0.04360801
-0.034556452 -0.30796486 0.043301493
-0.034774613 -0.32647148 0.043023363
-0.03499797 -0.34364304 0.042758603
-0.035294786 -0.37015685 0.042293444
nan nan nan
-0.035615727 -0.41057843 0.041523531
nan nan nan
nan nan nan
nan nan nan
0.076261513 -0.035111189 0.047267079
nan nan nan
-0.032012392 0.053132314 0.12128836
nan nan nan
-0.033782769 0.074974447 0.1545759
nan nan nan
-0.033940904 0.089284994 0.17765023
-0.033332832 0.10362895 0.20241295
nan nan nan
-0.032774914 0.12247685 0.23602398
nan nan nan
-0.032767463 0.13634828 0.26157045
-0.03261048 0.14580534 0.27904278
-0.032886777 0.15894838 0.30350697
nan nan nan
-0.034298278 0.18296444 0.34763736
nan nan nan
nan nan nan
-0.035934947 0.20234014 0.38293263
nan nan nan
-0.037614416 0.22000754 0.41463107
nan nan nan
-0.038867231 0.23411199 0.43955529
nan nan nan
nan nan nan
-0.017440999 0.077234 -0.092699468
-0.020717051 0.087175637 -0.1087216
-0.022680013 0.095751196 -0.12225799
-0.024311399 0.10611815 -0.13837218
-0.026150707 0.1159321 -0.15373512
-0.027699159 0.12574857 -0.16903992
-0.029233012 0.13646464 -0.18581881
-0.030218 0.14707954 -0.2025445
-0.031128537 0.15760368 -0.21915586
-0.031904206 0.16781829 -0.23532762
-0.032599773 0.17828496 -0.25188816
-0.033228721 0.18809831 -0.26738766
-0.034157064 0.2027818 -0.29062244
nan nan nan
-0.034787502 0.21657789 -0.31190884
nan nan nan
nan nan nan
