# .PCD v0.7 - Point Cloud Data file format
VERSION 0.7
FIELDS x y z
SIZE 4 4 4
TYPE F F F
COUNT 1 1 1
WIDTH 66
HEIGHT 1
VIEWPOINT 0 0 0 1 0 0 0
POINTS 66
DATA ascii
0.013220939 -0.00093266758 -0.44894946
0.010233135 -0.00088841323 -0.4154433
0.0091021657 -0.00076977577 -0.39840388
0.011961672 -0.0028812333 -0.38174003
0.0098856594 -0.00042079296 -0.3631095
0.011270469 -0.00067979982 -0.34466788
0.011321486 -0.00082397665 -0.3315742
0.010421824 -0.0022037365 -0.31328306
0.012306402 0.00095756591 -0.29608265
0.0088169174 -0.00036102295 -0.47077838
0.01202244 -0.0014372418 -0.27874339
0.010368492 -3.4671226e-05 -0.26685306
0.011243798 -0.0008594814 -0.25369018
0.011293166 -0.0007461732 -0.2403869
0.011318604 -0.00083784939 -0.22753045
0.011322498 -0.00079312036 -0.21455568
0.011255112 -0.00074190216 -0.20155957
0.011336458 -0.00073127862 -0.18857199
0.011310033 -0.00066901935 -0.17558889
0.011316015 -0.00073075836 -0.16240625
0.012020892 -0.0016094479 -0.1496387
0.01138233 -0.00079338683 -0.1364726
0.011353544 -0.00071044121 -0.12370151
0.011290081 -0.00071480003 -0.11090013
0.013460199 -0.00018862828 -0.092719764
0.01101077 -0.0013047702 -0.072347604
0.011151968 -0.00077609241 -0.054376092
0.012103208 -0.00018461225 -0.038454618
0.011040805 -0.00027620784 -0.019605447
0.0102492 -0.0002219966 0.0022762099
0.0080628032 -0.00054569321 0.025692139
0.0096070729 0.00042453501 0.054937363
0.0080518797 -0.0012634917 0.084708698
0.0092935339 -0.0047682123 0.11699206
0.010093456 -0.0044416357 0.15609594
-0.034060564 -0.26969415 0.053531483
-0.033719849 -0.24649416 0.06478519
-0.033652779 -0.22367942 0.076880611
-0.033267677 -0.20298485 0.087880254
-0.033723868 -0.16223846 0.1171838
-0.033761483 -0.12990536 0.13673681
-0.033678517 0.24677849 0.065279797
-0.03372737 0.22106695 0.078613795
-0.035410516 0.20079874 0.095239133
-0.03339766 0.17703296 0.10162404
-0.033580307 0.13149771 0.12699597
-0.033510014 0.11160281 0.13751571
-0.033351801 0.15136962 0.11486895
-0.035160519 0.085648403 0.15248911
-0.034056526 0.067963146 0.16208813
-0.033948153 0.057964593 0.16605857
-0.034812529 0.049599506 0.17379653
0.027377285 -0.0010979392 0.20537373
0.083541766 0.00027080521 0.21543449
-0.031506572 0.0039105867 0.20021068
-0.034744769 -0.066717178 0.17093748
-0.035176106 -0.085242704 0.16182308
-0.033734351 -0.10080351 0.15331627
-0.035144098 -0.046754919 0.18386753
-0.037673313 0.00084032636 0.27099359
-0.035122767 -7.3037227e-05 0.23472698
-0.037763648 0.00084432855 0.30501848
-0.03596855 0.00059645768 0.32345363
-0.022243319 -0.0016634609 0.40239701
-0.031922143 -0.0021822276 0.43254593
-0.035034165 -0.0018937702 0.46637321
