# .PCD v0.7 - Point Cloud Data file format
VERSION 0.7
FIELDS x y z
SIZE 4 4 4
TYPE F F F
COUNT 1 1 1
WIDTH 60
HEIGHT 1
VIEWPOINT 0 0 0 1 0 0 0
POINTS 60
DATA ascii
26.834742 0.096842133 101.91869
26.886494 0.011531358 110.04158
27.11314 -0.061553597 122.23196
26.93845 0.015031181 131.97684
27.268208 -0.13514288 145.44301
27.469687 -0.19548988 154.28259
27.349764 -0.041848034 158.33978
27.170498 -0.22455752 164.10851
27.728773 -0.39123341 173.46518
28.102356 -0.012484431 185.86652
16.903839 6.1791749 188.75975
18.376747 -0.22102395 199.90973
16.993021 -10.462947 199.9314
30.691648 -0.3969678 197.65567
46.196667 -0.12362605 200.51886
17.304598 5.0317841 208.30469
17.069569 -13.206932 200.43954
17.262451 -16.669558 200.66339
17.252645 -21.256733 201.04367
17.109739 -25.695913 201.38647
17.548334 -29.658258 201.3026
17.528675 -34.131596 200.77405
17.584002 -41.064903 200.65605
16.962574 -47.312393 200.53554
17.128389 -51.235126 200.48177
16.880642 10.192034 180.84024
17.142759 -54.909061 200.35168
17.156862 -58.265728 200.24965
16.993729 -61.763947 200.22197
16.987364 -65.32856 200.53793
16.940807 -69.259636 199.88559
17.151159 -73.992142 200.27525
17.508455 -84.391075 199.91272
53.151569 0.17612903 201.28812
17.29594 8.8117533 213.99527
17.446051 13.367178 220.74518
17.72834 16.396214 226.67662
17.603752 19.502117 232.24538
17.276438 23.184103 239.15611
17.132404 26.023088 243.97592
17.166594 28.204081 247.65849
17.007385 30.53388 252.11424
17.231384 33.43676 258.00342
17.043825 37.468849 264.84912
16.913015 40.871075 271.28058
16.820484 43.688663 276.40411
17.138687 12.679132 175.84196
17.141769 14.663995 172.30836
17.09697 16.634409 169.00722
17.200245 18.650846 165.88281
17.173124 20.897715 162.99014
17.066017 22.989151 159.63498
17.293713 25.172934 156.54645
16.837543 27.439606 153.21103
17.156752 29.760792 148.92639
17.073784 32.365829 145.1172
16.938202 34.557266 141.56578
17.010679 36.980076 137.68625
16.888132 41.557247 130.42952
17.229107 42.579552 128.65891
