# .PCD v0.7 - Point Cloud Data file format
VERSION 0.7
FIELDS x y z
SIZE 4 4 4
TYPE F F F
COUNT 1 1 1
WIDTH 1871
HEIGHT 1
VIEWPOINT 0 0 0 1 0 0 0
POINTS 1871
DATA ascii
0.017640023 -0.015838042 -0.51011074
0.023440592 0.0028489926 -0.51392621
0.018293409 -0.0060599218 -0.50933868
0.016253099 -0.011882722 -0.50865757
0.017164083 -0.010690634 -0.51086581
0.023135843 0.0028681618 -0.51253521
0.021537704 0.0063516321 -0.51013058
0.02146057 0.0083194682 -0.50978756
0.021945568 0.0080302153 -0.50921267
0.022098759 0.0084780799 -0.50782186
0.022098759 0.0084780799 -0.50782186
0.02309251 0.0032658852 -0.51204532
0.023656908 0.0054321587 -0.50992411
0.023359502 0.0032519908 -0.51119328
0.023135843 0.0028681618 -0.51253521
0.02019095 0.0089866482 -0.50243992
0.019774852 0.010640981 -0.50185591
0.020224398 0.0093827881 -0.50146228
0.020189548 0.009389719 -0.50214267
0.019817177 0.010363325 -0.50150913
0.019087648 0.0099470317 -0.49990466
0.021225946 0.0083525283 -0.49443239
0.020668546 0.0089587681 -0.50140661
0.020652337 0.0094925333 -0.5046432
0.020796265 0.008965984 -0.49540961
0.022254728 0.010009599 -0.49498162
0.020751232 0.0076760892 -0.49035722
0.018676661 0.0085003013 -0.49663141
0.021405946 0.0083566653 -0.49382758
0.021225946 0.0083525283 -0.49443239
0.023138057 0.010373432 -0.49094331
0.034998339 0.011744102 -0.47783718
0.034998339 0.011744102 -0.47783718
0.022888381 0.008413394 -0.48713383
0.022531057 0.0080734463 -0.48035857
0.019073524 0.010019279 -0.48402366
0.019939179 0.012746772 -0.48289675
0.018931715 0.0065560513 -0.49662831
0.024391351 0.0097060194 -0.48855683
0.025766119 0.0053825439 -0.4781051
0.034998339 0.011744102 -0.47783718
0.024250338 0.0050195572 -0.47113824
0.022667993 0.010178747 -0.47084048
0.022210997 0.0064443294 -0.48291504
0.020912942 0.0075219562 -0.48894435
0.02070572 0.0056552519 -0.49248216
0.019689487 0.0095796846 -0.49508163
0.022748766 0.0085231485 -0.46049404
0.022748766 0.0085231485 -0.46049404
0.021226216 0.0080156717 -0.45781347
0.021387551 0.010293021 -0.46186239
0.021381915 0.0092801284 -0.46725845
0.024468767 0.0079365065 -0.47161585
0.023892298 0.009698607 -0.47893074
0.021398036 0.0080740834 -0.4837732
0.022781264 0.0067691728 -0.45254067
0.021657979 0.0084678233 -0.45422184
0.022261001 0.0065913564 -0.45115447
0.022781264 0.0067691728 -0.45254067
0.022781264 0.0067691728 -0.45254067
0.022130737 0.010048101 -0.45654857
0.023846528 0.0083371047 -0.46126616
0.021046381 0.0077894917 -0.46293172
0.024942499 0.006049661 -0.47078854
0.024848279 0.0059236744 -0.44138834
0.025712823 0.0068906089 -0.44432464
0.023829689 0.0057951212 -0.43925393
0.024204491 0.0062977555 -0.44046769
0.024848279 0.0059236744 -0.44138834
0.024275029 0.0080389073 -0.44677138
0.023313265 0.0072980062 -0.44910479
0.021573516 0.0082267011 -0.45374766
0.022748766 0.0085231485 -0.46049404
0.024462752 0.0035450202 -0.42506394
0.024741715 0.0053614313 -0.42502913
0.024880601 0.0033519389 -0.4286769
0.022717087 0.0050324257 -0.42556518
0.025818722 0.0051057963 -0.42952144
0.024882628 0.0066090319 -0.43192786
0.025572916 0.0063128094 -0.43833649
0.025594519 0.0071633318 -0.44245803
0.02513719 0.0082078269 -0.44903097
0.022128146 0.0037586063 -0.41558239
0.022128146 0.0037586063 -0.41558239
0.023772912 0.0039474661 -0.41924769
0.023720197 0.0039862948 -0.419249
0.024793819 0.0047040991 -0.42259744
0.024462752 0.0035450202 -0.42506394
0.024880601 0.0033519389 -0.4286769
0.025818722 0.0051057963 -0.42952144
0.024882628 0.0066090319 -0.43192786
0.021946384 0.0044113607 -0.40462872
0.020312898 0.0048659481 -0.40888014
0.020117439 0.0051476299 -0.40910697
0.022066517 0.0052761203 -0.40837288
0.021094594 0.0056145741 -0.41175821
0.022468291 0.0025758764 -0.41783434
0.023402909 0.0035455562 -0.42006153
0.024793819 0.0047040991 -0.42259744
0.022856621 0.0044195959 -0.42684245
0.021266961 0.0043378212 -0.39375603
0.023006119 0.0050925845 -0.39345986
0.024685841 0.0046141739 -0.3985531
0.023073684 0.0042102961 -0.39625466
0.025947111 0.0027177997 -0.40222329
0.02207437 0.0020541218 -0.39965704
0.024685841 0.0046141739 -0.3985531
0.024685841 0.0046141739 -0.3985531
0.024134686 0.0038433005 -0.40452898
0.025780337 0.0044614072 -0.39149889
0.025829099 0.0045684776 -0.39245737
0.029155659 0.0076103196 -0.39706039
0.025268296 0.003774903 -0.39582652
0.028152758 0.0078603346 -0.39554036
0.02704452 0.0092382114 -0.39461961
0.02697801 0.0071395999 -0.3899433
0.028133869 0.0096261827 -0.3919788
0.030064983 0.0094222547 -0.39184895
0.02759598 0.010543601 -0.39002419
0.029134359 0.0088105891 -0.39109018
0.027335733 0.01102262 -0.38935477
0.02759598 0.010543601 -0.39002419
0.027002631 0.007423589 -0.38577083
0.027118061 0.0072421255 -0.38408536
0.02163876 0.015279255 -0.38809112
0.028676042 0.0091102999 -0.38371089
0.028345514 0.0058076642 -0.38198227
-0.035102393 0.25786224 -0.37940821
-0.051817264 0.26181883 -0.38586223
0.028764846 0.0066171633 -0.37589395
0.028805494 0.0065673264 -0.37647516
0.029526936 0.0041909553 -0.3724803
0.029157508 0.0063985228 -0.37500182
0.026250791 0.0046798647 -0.37123048
0.029819727 0.0045197825 -0.37207446
0.025480947 0.013629662 -0.3719703
0.025480947 0.013629662 -0.3719703
0.025480947 0.013629662 -0.3719703
-0.035062592 0.2502681 -0.36537895
-0.029607762 0.25267518 -0.37118325
-0.051817264 0.26181883 -0.38586223
0.025973523 0.0052748676 -0.36933404
0.028090524 0.0055828001 -0.37068504
0.025019338 0.0054062861 -0.36580068
0.02649405 0.0054795197 -0.36725071
0.026473269 0.0063600773 -0.36540568
0.025496898 0.0056840335 -0.36678654
0.026087666 0.0073470799 -0.36311573
0.028090524 0.0055828001 -0.37068504
0.027509775 0.0075686346 -0.3641296
0.026087666 0.0073470799 -0.36311573
-0.03552331 0.24817042 -0.36165076
-0.035062592 0.2502681 -0.36537895
0.025411848 0.0062875962 -0.35937145
0.024871416 0.0080785658 -0.35615945
0.024736298 0.0055887559 -0.35574344
0.024736298 0.0055887559 -0.35574344
0.030158022 0.0067875385 -0.35616973
0.024871416 0.0080785658 -0.35615945
0.027338939 0.011256337 -0.35374293
0.031247849 0.007540137 -0.34888896
0.031247849 0.007540137 -0.34888896
-0.038045581 0.24006051 -0.34948662
-0.037031692 0.2439101 -0.35461515
-0.03552331 0.24817042 -0.36165076
0.02939976 0.0060887663 -0.35091794
0.019330749 -0.0090345768 -0.35071915
0.02461119 0.0054509132 -0.34582967
0.023500459 0.005396042 -0.34661505
0.024795124 0.0049357614 -0.34507421
0.025377994 0.0065576285 -0.3434642
0.037626084 -0.00017449111 -0.34328973
0.02612076 0.0061655692 -0.34214878
0.033564907 0.0045384346 -0.34026295
-0.029736966 0.2339433 -0.33397886
-0.038003631 0.23790169 -0.34474376
-0.036539245 0.23438559 -0.34057027
-0.038045581 0.24006051 -0.34948662
0.029815508 0.0061272648 -0.33874762
0.02857415 0.007086236 -0.33999309
0.029458487 0.0069191111 -0.33540174
0.029731516 0.0059534605 -0.33804259
0.029731516 0.0059534605 -0.33804259
0.028387852 0.0046744673 -0.33621797
0.037222631 0.001822336 -0.3371841
0.027415195 0.0057543204 -0.33409923
0.024450174 0.015415341 -0.33155361
-0.037899125 0.22580044 -0.32603878
-0.029736966 0.2339433 -0.33397886
-0.033654995 0.22751467 -0.32948589
-0.035579626 0.23122649 -0.33485812
-0.035579626 0.23122649 -0.33485812
0.031762537 0.0083365804 -0.32668391
0.029904198 0.0077053215 -0.32818797
0.030995747 0.0075309225 -0.32397798
0.031369258 0.0080968291 -0.32535917
0.030995747 0.0075309225 -0.32397798
0.031165877 0.0075275642 -0.32470304
0.029928457 0.0077665518 -0.32777363
0.028988766 0.0088287285 -0.32947055
0.028927336 0.0085234223 -0.32982394
-0.0361109 0.22087269 -0.31844565
-0.037899125 0.22580044 -0.32603878
-0.037899125 0.22580044 -0.32603878
-0.033654995 0.22751467 -0.32948589
-0.029736966 0.2339433 -0.33397886
0.026667815 0.0059951837 -0.31817523
0.031181267 0.0081157228 -0.32470468
0.02424817 0.0071044718 -0.31516746
0.025744496 0.0055340184 -0.31654975
0.024287105 0.0075192181 -0.31436709
0.025038272 0.0062586516 -0.31521887
0.025991991 0.0051496788 -0.31966403
0.029726854 0.0066821156 -0.32120568
0.031165877 0.0075275642 -0.32470304
-0.033463337 0.21220356 -0.3055698
-0.03479382 0.2179281 -0.31479868
-0.035000734 0.21628149 -0.31187627
-0.037682373 0.22220005 -0.31935281
-0.035635404 0.22014429 -0.31683996
0.024293426 0.0082677463 -0.3081075
0.023827374 0.0076559228 -0.30527213
0.024372568 0.0082185967 -0.3026391
0.023510939 0.0085241068 -0.30724052
0.024459917 0.0086815218 -0.30166835
0.024936829 0.0079409285 -0.30445626
0.023766978 0.0073232981 -0.3098987
0.024854038 0.0066539007 -0.31352818
-0.03410292 0.20933074 -0.30074897
-0.03410292 0.20933074 -0.30074897
-0.033141606 0.2127625 -0.3065066
-0.033463337 0.21220356 -0.3055698
-0.035000734 0.21628149 -0.31187627
0.027238553 0.0085102478 -0.29439616
0.026946096 0.0092109591 -0.29334348
0.027851418 0.0079260999 -0.29190156
0.028079303 0.0079073068 -0.29014993
0.027977508 0.0081630824 -0.29099473
0.026581721 0.0098774554 -0.29482192
0.024459537 0.010000924 -0.29571494
0.025543267 0.010117327 -0.2974402
0.024986546 0.0077940724 -0.3026731
-0.033959188 0.20490742 -0.29394251
-0.034869935 0.20539592 -0.29409903
-0.034869935 0.20539592 -0.29409903
-0.03410292 0.20933074 -0.30074897
-0.03398608 0.20814988 -0.29913524
0.027900308 0.0054928064 -0.28304806
0.028013624 0.0057526119 -0.28215629
0.027352456 0.0052962387 -0.28188655
0.027352456 0.0052962387 -0.28188655
0.027657256 0.005790168 -0.28272626
0.029688416 0.0077971658 -0.28534618
0.027688039 0.0076973229 -0.28927442
0.026912684 0.0093149925 -0.29215547
0.025513928 0.010914508 -0.29501861
-0.034742426 0.20464061 -0.2936565
-0.033152428 0.19147752 -0.27296528
-0.035385657 0.19933042 -0.28508773
-0.03391083 0.19426635 -0.27766666
-0.035354737 0.19956325 -0.28625983
0.027226834 0.0028642667 -0.27105784
0.02707467 0.0030088117 -0.27176785
0.026364721 0.0056982441 -0.27187839
0.027226834 0.0028642667 -0.27105784
0.026312469 0.0058858064 -0.27114105
0.026335416 0.005673842 -0.27188873
0.027594615 0.0058589233 -0.27593276
0.028996686 0.0070773927 -0.28740585
0.027732924 0.0079130335 -0.29000163
-0.031929664 0.18306172 -0.25979337
-0.032212678 0.19789627 -0.28319016
-0.031785138 0.18596379 -0.26418391
-0.032904215 0.19196907 -0.27371341
-0.033161156 0.19038211 -0.27128524
-0.03391083 0.19426635 -0.27766666
0.023816209 0.0052883876 -0.26090494
0.023487376 0.0047024991 -0.26272753
0.02380795 0.005955453 -0.2626766
0.024082515 0.0066138254 -0.26086131
0.02492178 0.0066566523 -0.26322135
0.026639812 0.0054759071 -0.26417705
0.035254665 0.0065561226 -0.26934958
0.027325753 0.0036214683 -0.27304992
0.027943214 0.0055754641 -0.2801201
-0.033012677 0.19043393 -0.27175233
-0.032825436 0.17798865 -0.25339952
-0.031559374 0.18703483 -0.26572695
-0.032666024 0.17667252 -0.25135687
-0.031687848 0.18521194 -0.26319507
0.025343625 0.0071948897 -0.25354147
0.027508534 0.0070794271 -0.25121534
0.028032623 0.0074771112 -0.25237337
0.025343625 0.0071948897 -0.25354147
0.025079191 0.007821708 -0.2547861
0.023693349 0.0074140169 -0.2573683
0.024040563 0.0064863418 -0.26158568
0.025044711 0.0051785326 -0.26273853
-0.032538734 0.18588986 -0.26469457
-0.031479292 0.17537966 -0.24839455
-0.031658001 0.18220995 -0.25881201
-0.031173633 0.17361575 -0.24565384
-0.031832941 0.17668054 -0.25104719
-0.032385841 0.18000178 -0.25553831
0.033624355 0.0071254242 -0.24403791
0.032813031 0.0079454025 -0.24142517
0.032813031 0.0079454025 -0.24142517
0.03311694 0.0072401436 -0.24175835
0.032813031 0.0079454025 -0.24142517
0.032801427 0.0087233782 -0.24468917
0.028054124 0.0074364138 -0.24662803
0.027291337 0.0075228098 -0.24829848
0.025079191 0.007821708 -0.2547861
-0.030147428 0.17891094 -0.25274399
-0.033328895 0.16740602 -0.23668399
-0.030859981 0.17699623 -0.25018129
-0.033418193 0.1687233 -0.23841836
-0.031556435 0.17297374 -0.24496986
-0.033311181 0.16776668 -0.23774509
-0.031627733 0.17191628 -0.24304155
0.033691566 0.0078073153 -0.24026816
0.032432023 0.0067518442 -0.23704807
0.033270862 0.0089724017 -0.237295
0.034158722 0.0086522326 -0.23775214
0.03307987 0.0086563984 -0.23664135
0.03188831 0.0080461269 -0.234074
0.031608026 0.0071860468 -0.23834133
0.032285463 0.0070383996 -0.24036013
0.033188805 0.0081169009 -0.24151097
-0.03299135 0.16926122 -0.23977724
-0.033560116 0.16461517 -0.23225971
-0.033418193 0.1687233 -0.23841836
-0.0347015 0.16389295 -0.23080115
-0.033774436 0.16558768 -0.2338665
-0.033463076 0.16485296 -0.23308444
0.031403061 0.0075494493 -0.22609931
0.031458255 0.0084076487 -0.22835748
0.03112719 0.0088922447 -0.22991578
0.030651063 0.0083318548 -0.22794533
0.031271722 0.0087328553 -0.22820552
0.03013242 0.0073369853 -0.22339576
0.031458255 0.0084076487 -0.22835748
0.031766005 0.0084657343 -0.22991718
0.032355402 0.0088703148 -0.23122807
-0.033245936 0.16292079 -0.22880515
-0.034237146 0.15828864 -0.22221574
-0.033024598 0.16255663 -0.22916485
-0.034237146 0.15828864 -0.22221574
-0.035016641 0.16113526 -0.22661279
-0.034825608 0.15939352 -0.22419339
-0.033525568 0.16233461 -0.22771119
0.027990807 0.0060155825 -0.22580361
0.028726937 0.0058961241 -0.22649102
0.029180225 0.0054404717 -0.21322975
0.029452143 0.006555988 -0.2204717
0.03025985 0.0054532173 -0.2108663
0.028816769 0.0053120344 -0.21055603
0.029286146 0.0052172332 -0.21220884
0.029208345 0.0051919101 -0.21156456
0.029251693 0.0055405637 -0.21428871
-0.033858668 0.15351905 -0.2143662
-0.034167621 0.14976378 -0.20774527
-0.034851287 0.15469947 -0.21624707
-0.033250146 0.15189919 -0.21202384
-0.035087738 0.15559384 -0.21721068
-0.033779532 0.15274097 -0.2134496
-0.035087738 0.15559384 -0.21721068
0.029456967 0.0067078411 -0.21893139
0.029468426 0.0066145104 -0.21995863
0.034112982 0.0081896251 -0.20576845
0.030402724 0.0053225886 -0.20986289
0.034443289 0.0073545245 -0.20179206
0.034443289 0.0073545245 -0.20179206
0.034443289 0.0073545245 -0.20179206
0.034362417 0.0082939835 -0.20146488
0.034362417 0.0082939835 -0.20146488
-0.029546382 0.13851792 -0.18883258
-0.031733919 0.14189602 -0.19544861
-0.033399932 0.14957033 -0.20681313
-0.031844359 0.14494793 -0.19946347
-0.032547981 0.14702494 -0.20386505
-0.033164088 0.14860171 -0.20486663
-0.034723446 0.15165342 -0.21029899
0.031493519 0.0060084439 -0.20285453
0.031365301 0.0057278769 -0.20450042
0.030924588 0.0074425009 -0.18992376
0.034106988 0.0073412051 -0.19470797
0.031025015 0.0075549516 -0.1901641
0.032139674 0.0077112932 -0.19347562
0.033276848 0.0069197607 -0.19551529
0.042997465 -0.007637403 -0.18833037
0.034715466 0.0084907142 -0.19258946
-0.0290378 0.14799346 -0.2041008
-0.029708505 0.13512923 -0.18392955
-0.0074480595 0.053608615 -0.068435118
-0.010820976 0.068980463 -0.083727181
-0.033885788 0.15265779 -0.21086769
-0.0051773409 0.11970248 -0.069669947
0.029842647 0.0078964951 -0.18384992
0.029842647 0.0078964951 -0.18384992
0.0294801 0.0078611784 -0.18085
0.028842373 0.0078389132 -0.18339385
0.029535679 0.0077469712 -0.1838294
0.030803973 0.007537717 -0.18484546
0.030670367 0.0073943036 -0.18721443
0.030138234 0.0075854408 -0.18386178
0.030155683 0.0085362643 -0.18445592
-0.028005639 0.12974267 -0.17456625
-0.029295463 0.13498032 -0.1839402
-0.027814317 0.13074718 -0.17623886
-0.029052863 0.13675797 -0.18720971
-0.029054834 0.13664962 -0.18496443
-0.030247523 0.13805342 -0.18868554
-0.030960448 0.14020276 -0.19235426
0.026715195 0.0089639351 -0.1712283
0.029210567 0.0077045052 -0.17335752
0.027175251 0.0088537754 -0.17250301
0.027175251 0.0088537754 -0.17250301
0.027035348 0.0088510429 -0.1738416
0.029422138 0.0081245592 -0.17612466
0.029493818 0.0086626234 -0.17882474
0.030406425 0.0076608546 -0.17977196
0.030463386 0.0085227899 -0.18090823
-0.028593337 0.12941776 -0.17494659
-0.028729748 0.12537339 -0.16850679
-0.028180901 0.13022332 -0.17543618
-0.028654093 0.12711085 -0.17134278
-0.02810264 0.13237397 -0.1779497
-0.02844651 0.13300236 -0.17946917
-0.029118247 0.13526109 -0.18290325
0.025505427 0.0092381602 -0.16258249
0.025505427 0.0092381602 -0.16258249
0.0252716 0.0084421262 -0.16131185
0.0252716 0.0084421262 -0.16131185
0.025382396 0.010339132 -0.16256908
0.026634347 0.0095276544 -0.16862057
0.027175251 0.0088537754 -0.17250301
0.029422138 0.0081245592 -0.17612466
0.029626399 0.0088885901 -0.17756182
-0.028687501 0.12302836 -0.16420361
-0.027978193 0.11874092 -0.15720844
-0.029028185 0.12396882 -0.16626935
-0.028224079 0.11845288 -0.15698744
-0.028911266 0.124331 -0.16670063
-0.029467588 0.12295616 -0.16470322
-0.028451858 0.12823501 -0.17295752
0.025601014 0.0077899098 -0.14863889
0.026170444 0.0078448858 -0.14547084
0.025463663 0.0062761744 -0.14788856
0.025345698 0.0091498047 -0.15102786
0.025472738 0.008467108 -0.15959612
0.026714869 0.0099412296 -0.16524425
0.02590156 0.0079766102 -0.17080922
0.026298566 0.0092609236 -0.17204939
-0.028576711 0.11479722 -0.15071873
-0.029082203 0.11414996 -0.1493926
-0.02944199 0.11659065 -0.15408474
-0.028576711 0.11479722 -0.15071873
-0.029087439 0.11364696 -0.1494173
-0.027978193 0.11874092 -0.15720844
-0.029467588 0.12295616 -0.16470322
0.024524242 0.0049691857 -0.1349387
0.023751827 0.0049800551 -0.13735455
0.024561005 0.0051865163 -0.13592032
0.023916557 0.0080542276 -0.14037137
0.025734082 0.0076764035 -0.14654654
0.025642041 0.0084595419 -0.15386978
0.025432451 0.009452316 -0.16119608
0.027039586 0.0098148808 -0.16692121
-0.028357785 0.10622054 -0.13900883
-0.02711363 0.11049453 -0.14541392
-0.029071592 0.10713607 -0.14016271
-0.027518814 0.11241707 -0.14717518
-0.029071592 0.10713607 -0.14016271
-0.028063988 0.11110849 -0.14482594
-0.027957048 0.11254888 -0.14851177
0.026780583 0.0047773221 -0.12809743
0.02680775 0.0049937912 -0.12888542
0.02680775 0.0049937912 -0.12888542
0.026058471 0.0050056707 -0.12940165
0.024687728 0.0055192537 -0.13342969
0.025124302 0.0057277265 -0.1309268
0.023672109 0.0067520095 -0.13795288
0.024438825 0.0066505875 -0.14900261
0.025250416 0.0080809165 -0.15501198
-0.027984854 0.10259146 -0.13367362
-0.027734634 0.10051693 -0.13027366
-0.028521916 0.10485453 -0.13700543
-0.027734634 0.10051693 -0.13027366
-0.02765923 0.10079084 -0.13067622
-0.02845691 0.10725163 -0.14073455
0.028878437 0.006596094 -0.12071156
0.028167306 0.0060245181 -0.12285483
0.028167306 0.0060245181 -0.12285483
0.027639104 0.0056140358 -0.12340786
0.027639104 0.0056140358 -0.12340786
0.026617145 0.0047043278 -0.12831263
0.02680775 0.0049937912 -0.12888542
0.023703791 0.0068846764 -0.13940686
0.025496708 0.008090998 -0.1439974
-0.02718756 0.096737705 -0.12346803
-0.028457034 0.093917318 -0.12004312
-0.027297823 0.099144407 -0.1275598
-0.028457034 0.093917318 -0.12004312
-0.027216841 0.099432871 -0.12788455
-0.028274264 0.092969537 -0.11858
-0.027216841 0.099432871 -0.12788455
0.034992676 0.0073764287 -0.11615091
0.034992676 0.0073764287 -0.11615091
0.034992676 0.0073764287 -0.11615091
0.031777885 0.0074205017 -0.11445159
0.032183241 0.0071633197 -0.11386569
0.028254826 0.0062412806 -0.12128928
0.026780583 0.0047773221 -0.12809743
0.025845777 0.0056751962 -0.12932953
-0.028955342 0.087248333 -0.10949566
-0.028176116 0.0910374 -0.11583306
-0.028521832 0.088524193 -0.11130432
-0.028274264 0.092969537 -0.11858
-0.028060326 0.086582378 -0.10884553
-0.028521832 0.088524193 -0.11130432
-0.028587999 0.092605069 -0.11811794
0.033971045 0.0070068259 -0.10521982
0.034386244 0.0068730926 -0.10597371
0.033971045 0.0070068259 -0.10521982
0.034386244 0.0068730926 -0.10597371
0.034480613 0.0075990353 -0.10944512
0.031777885 0.0074205017 -0.11445159
0.032208491 0.0072846198 -0.10936773
-0.028216841 0.085202396 -0.10671358
-0.028809236 0.080560572 -0.10005752
-0.028287031 0.086117528 -0.10807646
-0.028809236 0.080560572 -0.10005752
-0.028809236 0.080560572 -0.10005752
-0.028750122 0.082266934 -0.10201199
-0.028216841 0.085202396 -0.10671358
-0.028444299 0.085768022 -0.10760138
0.035169136 0.005984399 -0.097832181
0.035169136 0.005984399 -0.097832181
0.034081407 0.0056865965 -0.095444031
0.034432013 0.0057475404 -0.093896687
0.034432013 0.0057475404 -0.093896687
0.029427964 0.013446002 -0.091285691
0.029427964 0.013446002 -0.091285691
-0.028906729 0.084077023 -0.1054036
-0.028766641 0.074748866 -0.092800342
-0.029040147 0.080814749 -0.1004674
-0.028760511 0.073612101 -0.090264037
-0.029020878 0.080254242 -0.0996494
-0.028790427 0.073148586 -0.089439474
-0.029164061 0.074603118 -0.092219219
-0.028873309 0.077717096 -0.095860764
0.035111509 0.0054468182 -0.088206306
0.035111509 0.0054468182 -0.088206306
0.034474336 0.0055592391 -0.086319625
0.034976911 0.0057422677 -0.083613999
0.034487016 0.0056065843 -0.084641024
0.012559046 0.030403722 -0.080190897
0.01206265 0.031521194 -0.086726382
-0.028354134 0.071164727 -0.082776733
-0.029156769 0.077803649 -0.096254073
-0.028850028 0.070226766 -0.084732898
-0.029199528 0.075980052 -0.093942367
-0.029268716 0.07010296 -0.082479432
-0.029188165 0.070449755 -0.083265528
-0.028620649 0.070135459 -0.08497306
-0.02890637 0.072973371 -0.089316532
-0.02890637 0.072973371 -0.089316532
0.034601849 0.0056436975 -0.081410021
0.036057904 0.0061337934 -0.078804992
0.036519248 0.0065099956 -0.074461065
0.036519248 0.0065099956 -0.074461065
0.036772065 0.0066935294 -0.075972043
0.017523509 0.02158726 -0.077291749
0.012559046 0.030403722 -0.080190897
-0.0285755 0.073709853 -0.087414831
-0.028773118 0.068219602 -0.078235388
-0.028461976 0.072058104 -0.084963813
-0.029192574 0.06497971 -0.073039606
-0.029185485 0.066114202 -0.075167127
-0.02882074 0.065955192 -0.075862847
-0.029400289 0.067867704 -0.080096066
0.037391223 0.0064249733 -0.068230793
0.037805196 0.0063746129 -0.065388232
0.037802756 0.0064547407 -0.064438418
0.037542727 0.006327692 -0.06719745
0.016311521 0.020404607 -0.074088305
0.037633009 0.0068911556 -0.069989115
-0.031035328 0.06401927 -0.067162283
-0.029299906 0.067860894 -0.077142455
-0.031482652 0.063555822 -0.066578381
-0.031609613 0.062138997 -0.063787706
-0.031035328 0.06401927 -0.067162283
-0.030698976 0.064656101 -0.069396853
-0.029452199 0.06397675 -0.072192371
0.038362272 0.0075449399 -0.053220179
0.037947536 0.0078452472 -0.05152614
0.11512296 0.0094441921 0.022475367
0.038044099 0.0075971312 -0.05242179
0.038613416 0.0071416292 -0.056256436
0.037682809 0.0065370924 -0.058309503
0.037771359 0.0068367119 -0.061212938
0.094703615 0.018661849 0.0099286633
0.066697367 0.029732246 0.011309184
0.10171205 0.020257346 0.0017862415
0.058235638 0.032074209 0.00061749667
-0.032682486 0.058217552 -0.056090564
0.086493976 0.020083733 0.016780004
0.082765609 0.022949206 0.018160857
0.11302861 0.0094774961 0.016347652
0.10469731 0.010318993 0.022866754
0.034343604 0.0074855532 -0.04416788
0.11608333 0.010782244 0.015574138
0.10960967 0.0072335848 0.024627728
0.11324052 0.0079147862 0.02193702
0.034001216 0.008505349 -0.054510299
-0.03436213 0.051918074 -0.042866487
-0.03436213 0.051918074 -0.042866487
-0.033724327 0.052059364 -0.045938261
-0.03393821 0.053710714 -0.047797948
0.090526514 0.018860308 0.011327681
0.040004868 0.0071373088 -0.033019103
0.039557658 0.0072628739 -0.035531923
0.039557658 0.0072628739 -0.035531923
0.039598417 0.0071239392 -0.037256233
0.097968392 0.017871385 0.0062002307
0.11095853 0.0090033906 0.017328961
0.11661792 0.0090801371 0.015690945
-0.029486477 0.040527757 -0.028996283
-0.029486477 0.040527757 -0.028996283
-0.0061336798 0.019534515 -0.046484005
-0.006336092 0.019165132 -0.044434935
-0.0060483962 0.017893886 -0.041086443
-0.028922193 0.046768904 -0.040614493
-0.028922193 0.046768904 -0.040614493
0.0062717814 0.01320904 -0.013710029
0.03876153 0.0066514118 -0.023903117
0.0048314142 0.013782742 -0.015143533
0.0081644589 0.012111605 -0.013260921
0.038480759 0.0066895848 -0.025835875
0.0033724129 0.012496412 -0.014366777
0.038507413 0.0065402156 -0.027748132
-0.036620576 0.038689017 -0.014212487
-0.016076358 0.031074401 -0.023100413
0.039693505 0.0072925552 -0.030236723
-0.027721101 0.038216833 -0.026996518
-0.03727768 0.041062325 -0.020252135
-0.0054400256 0.013298968 -0.042556442
-0.0075412267 0.01782649 -0.044172127
-0.0070326859 0.017723713 -0.043281458
0.019459162 0.011294547 -0.0037223166
0.0076633291 0.010823272 -0.0066509638
0.015067983 0.010720405 -0.0046062819
0.020338478 0.014541622 -0.0064903605
0.0042668772 0.012260276 -0.011853458
0.0080287093 0.011776074 -0.011232381
0.0057692938 0.01221252 -0.013690749
0.0042442079 0.012823924 -0.012335067
0.0042442079 0.012823924 -0.012335067
0.0076183402 0.014041198 -0.01557669
0.004345776 0.014892803 -0.018041184
0.0063031521 0.012889427 -0.015115358
0.0040311678 0.012907251 -0.014628008
0.0028634111 0.014897865 -0.016267926
0.0028889449 0.013718124 -0.015459662
-0.013330533 0.026294971 -0.016962823
0.00090629945 0.013638814 -0.020213438
-0.013372495 0.0275723 -0.018472129
-0.017774079 0.039113767 -0.015825637
-0.030877948 0.038896322 -0.02380175
0.035466012 0.013095306 0.008862867
0.068620138 0.015046456 0.013495741
0.016106494 0.01234297 0.00090157537
0.028875237 0.011204061 0.0082373191
0.020100769 0.012731297 -0.0020328914
0.019434275 0.012330102 -0.0035676809
0.019131191 0.01418943 -0.0026791149
0.018595576 0.01174478 -0.0036658612
0.019341601 0.011876748 -0.0044243475
0.030117834 0.017639633 -2.2137756e-05
0.045755249 0.018994395 0.0015321592
0.02033519 0.014411566 -0.0052502402
0.02330233 0.013404708 -0.0051055159
0.021467399 0.012804912 -0.0060996264
0.0074193664 0.012042014 -0.0090928879
0.022203185 0.01103829 -0.0055330331
0.022099553 0.015614084 -0.006642696
0.0080568306 0.01207268 -0.010916286
0.0053709541 0.01225743 -0.011834387
0.0043304167 0.012027613 -0.01471752
0.0033919325 0.012559387 -0.01386971
0.0076095434 0.014099557 -0.017299972
0.027696241 0.019991066 0.032243516
0.034674227 0.01718769 0.032894231
0.070885591 0.011053405 0.022603538
0.071419068 0.011150825 0.017747752
0.064184487 0.012442038 0.013909594
0.069588251 0.013584172 0.016416298
0.08256612 0.020940647 0.019684561
0.089434862 0.082918733 0.045869157
0.02563094 0.019653855 0.032971445
0.023641026 0.021570599 0.029823871
0.062567711 0.01548183 0.036434446
0.068782173 0.011794874 0.018906217
0.06839247 0.01070092 0.020022059
0.024394808 0.021891145 0.031844754
0.022039846 0.02575458 0.027868411
0.064721838 0.0088473028 0.025950439
0.062508687 0.011859005 0.016537584
0.023101047 0.019652262 0.036754251
0.019665329 0.019283464 0.033354677
0.04117848 0.015114821 0.035883922
0.023097703 0.021548847 0.029053774
0.026373014 0.026107686 0.028982479
0.065612651 0.012640663 0.03491661
0.035840157 0.013003713 0.010193507
0.046317235 0.017078396 0.037720002
0.069637991 0.0094477553 0.021496166
0.071251839 0.0093547618 0.023569567
0.025370164 0.026780928 0.028414186
0.034966014 0.012282844 0.0081663942
0.032097466 0.013451695 0.0063629011
0.026323281 0.013672115 0.0049114805
0.026325036 0.013185591 0.0048974194
0.062497597 0.0093857422 0.029940048
0.068390734 0.011347566 0.018299008
0.040072091 0.016007751 0.0054316199
0.037633475 0.020252047 0.027783897
0.059992936 0.025127538 0.031603038
0.068391912 0.013278469 0.023918962
0.036083769 0.013831186 0.0070897373
0.074484169 0.015343889 0.014584357
0.07665994 0.015216609 0.014642661
0.083772667 0.017285766 0.018773612
0.082738943 -0.065506853 0.046144325
0.091653459 -0.086954251 0.048416827
0.10184741 -0.057032663 0.040774763
0.020806137 0.011766782 -0.0031649615
0.023387786 0.018552305 0.03433663
0.025386022 0.018927475 0.031067654
0.023539517 0.028400788 0.028105659
0.028793484 0.030693095 0.024765627
0.054514766 0.024536174 0.030944338
0.066428222 0.013647559 0.0361715
0.053704798 0.0050653499 0.032493412
0.070752919 0.013639508 0.026945299
0.076338969 0.10809089 0.044033289
0.087015063 0.074567147 0.042653065
0.091018453 0.077980228 0.045734059
0.098371908 0.087807111 0.04737477
0.10703125 0.056251369 0.047855671
0.093191825 0.043163326 0.048012685
0.10758267 0.036918759 0.044470843
0.13454185 -0.00087615231 0.041842733
0.063133836 0.013614889 0.01651678
0.07489761 0.016531231 0.01224126
0.024885187 0.018955743 0.035343625
0.026656384 0.01980971 0.034534916
0.024904119 0.025860664 0.027941849
0.027546816 0.030600512 0.025711445
0.057988189 0.022335466 0.03283086
0.063056633 0.010972643 0.029523546
0.069950655 0.011144278 0.024151497
0.07111042 0.010635598 0.021748576
0.076469377 0.015589209 0.026395451
0.084216893 0.0095272595 0.029288141
0.089434862 0.082918733 0.045869157
0.090616971 0.077985354 0.045719925
0.098371908 0.087807111 0.04737477
0.1025248 0.064373769 0.049031831
0.10155623 0.035827387 0.045445707
0.11000955 0.036129214 0.045203958
0.13342899 -0.0014555018 0.041495673
0.13218503 -0.00012348259 0.041765802
-0.01870331 -0.0038371705 0.017841659
0.021312648 0.017980671 0.034058653
-0.020683544 0.00051862519 0.027472414
-0.019624878 -0.0032596113 0.022233741
0.026129322 0.018704114 0.03543932
-0.0093643796 -0.22800963 0.018375
-0.006172704 -0.23375432 0.011892564
0.020067533 0.017228186 0.038985882
0.023366908 0.017360142 0.032941762
0.0066810707 0.01451169 0.042763922
0.0069342768 0.01526249 0.038946405
0.041432545 0.019189926 0.03803581
0.024605483 0.020996876 0.032961771
0.022296267 0.022428485 0.028814847
0.025656864 0.017728057 0.039378498
0.035571255 0.01607448 0.038584001
0.02385159 0.024639752 0.028950682
0.052852485 0.020720851 0.033001311
0.063405223 0.013608716 0.035288438
0.064962462 0.012371855 0.029706378
0.068066277 0.011106753 0.023845349
0.06755247 0.010670311 0.023291955
0.064489387 0.012871007 0.020940561
0.081560411 0.017077932 0.025677362
0.081637025 -0.050650593 0.043262474
0.091653459 -0.086954251 0.048416827
0.098909765 -0.056781005 0.04252914
0.12193622 0.012549241 0.041862853
0.066748641 0.019063 0.0097014988
0.059347123 0.013874662 0.015299911
0.05895219 0.013476906 0.012643862
0.059639428 0.021411741 0.0034391948
0.058537986 0.012331401 0.01340935
0.032878961 -0.055625353 0.027900934
0.0077766492 0.01671179 0.042194884
0.018379116 0.017807195 0.038716841
0.02070087 0.018100904 0.033748332
0.026268819 0.01965877 0.03220772
0.024854155 0.025992038 0.028720176
0.031483006 0.031427354 0.025122795
0.037156168 -0.010405486 0.036843553
0.046094608 0.0018608134 0.03658599
0.067399748 0.027109636 0.029487876
0.070226215 0.011217376 0.0065561091
0.088097177 0.086224742 0.045910303
0.091735214 0.074682474 0.044463817
0.10120077 0.074480675 0.046149641
0.10948567 0.054973278 0.046318788
0.10561015 0.040366773 0.045851506
0.11750314 0.02640748 0.043850791
0.13202836 -1.3330595e-05 0.041549198
0.11000224 0.0092924703 0.044139273
0.079610743 0.01440062 0.016796943
0.079610743 0.01440062 0.016796943
-0.02022087 -0.00080395682 0.042293809
-0.020263596 -0.0034716111 0.030560123
-0.019911656 -0.027970742 0.028629167
-0.0036625676 -0.00087334251 0.040847268
0.0095663024 0.016360549 0.041012883
0.01634044 0.018878778 0.03649497
0.12074086 0.022107366 0.044340979
0.021403112 -0.19393499 0.023987865
0.069615096 0.012480819 0.017983483
0.082674205 0.017038744 0.013440429
-0.043702152 0.0091879675 0.051454604
-0.02474059 0.0032831051 0.046268266
-0.020091241 0.0017524076 0.028201852
-0.019630225 -0.0084202029 0.021702176
-0.016401131 -0.09036795 0.026612068
0.01221151 0.015616044 0.040341597
0.026843933 -0.080523647 0.031564284
0.031899616 -0.12763584 0.027925514
-0.047064651 0.016263859 0.061304662
-0.043223612 0.012904231 0.054552708
-0.026707413 -0.00020403849 0.047658782
-0.022247212 0.0011145794 0.035068594
-0.019557178 -0.0038667361 0.02326197
0.019147068 0.017500848 0.03878298
0.032407779 -0.06093787 0.031262159
0.03183056 -0.055405054 0.032323979
-0.047917392 0.015856462 0.061505221
-0.043922704 0.014027729 0.055480722
-0.031952132 0.0032669522 0.051467873
-0.021172492 0.0012057682 0.044294532
0.011825678 0.017021943 0.041098427
0.021027716 0.01703123 0.038329724
0.02876927 -0.12778142 0.028530551
0.025857316 -0.13314123 0.027272694
-0.034315757 0.0076694521 0.051678747
-0.025268197 -0.048938513 0.04740756
-0.0046920143 0.0047416328 0.046109561
0.0059286063 0.014233948 0.042842772
0.019147068 0.017500848 0.03878298
0.027756011 -0.080448166 0.031215401
0.018405052 0.019190973 0.036675066
0.018395877 0.019040963 0.031555314
0.036515787 0.018307643 0.033525847
0.027874336 0.026236247 0.029665515
0.043831777 0.020154916 0.028847849
0.059552688 0.016394515 0.034185335
0.063640416 0.010470957 0.034241106
0.059879001 0.0098965066 0.03088857
0.069493182 0.014077996 0.026999889
0.077179857 -0.059107184 0.045774788
0.091690361 -0.09391693 0.048409719
0.10708147 0.0044564814 0.042953499
0.072513558 0.013405376 0.017867504
0.070516035 0.011384197 0.018536134
0.067041658 0.011174593 0.018384399
0.069973625 0.011220176 0.019430181
0.069433481 0.010829967 0.019181998
0.063941926 0.010324795 0.029021747
0.024426444 -0.19819902 0.026667606
0.022751672 -0.19157901 0.027231239
-0.033927057 -0.48345226 0.04018566
-0.033772927 -0.48166963 0.039849661
-0.033772927 -0.48166963 0.039849661
-0.035584915 -0.47986114 0.040052328
-0.03514903 -0.46817228 0.039767213
-0.036768541 -0.45533687 0.040368292
-0.037129454 -0.44493577 0.041054301
-0.038630549 -0.4328596 0.041051768
-0.035294395 -0.42376158 0.041242946
-0.034058738 -0.41424495 0.040275477
-0.032462716 -0.41042042 0.039278951
-0.031726751 -0.37744313 0.038742244
-0.035692539 -0.39603561 0.042427141
-0.035364684 -0.38889357 0.042025272
-0.037227958 -0.38758549 0.042972904
-0.037227958 -0.38758549 0.042972904
-0.03689773 -0.37734461 0.041974973
-0.036349364 -0.37551048 0.041229334
-0.036806773 -0.36957246 0.041124858
-0.036540546 -0.36730427 0.040513173
-0.035889991 -0.35561937 0.042515446
-0.035019018 -0.35093859 0.043394521
-0.034391277 -0.34712353 0.043833297
-0.035251528 -0.34386975 0.044605296
-0.034998566 -0.33982563 0.044259135
-0.034258783 -0.33547652 0.043582112
-0.034762125 -0.32716224 0.043459792
-0.034643538 -0.32340789 0.043537289
-0.035168357 -0.31802306 0.043429486
-0.035114959 -0.31539735 0.043346018
-0.034436844 -0.30715424 0.043295328
-0.034700934 -0.30383766 0.042983092
-0.034037072 -0.29777765 0.044282969
-0.034474932 -0.29365197 0.044280764
-0.033497538 -0.2864354 0.043548234
-0.033326592 -0.28315416 0.043431517
-0.033472814 -0.27533287 0.044068303
-0.034818429 -0.27255341 0.044105265
-0.03451528 -0.2666969 0.04433278
-0.035380892 -0.26350212 0.044616397
-0.035057191 -0.25867906 0.043819342
-0.037329409 -0.25311017 0.043608125
-0.034267601 -0.24467605 0.043872405
-0.033248071 -0.24173962 0.04269851
-0.031473555 -0.23421355 0.043467101
-0.029603431 -0.23106495 0.042739887
-0.030265255 -0.22620249 0.044884
-0.029485645 -0.22666699 0.044434872
-0.031630889 -0.21552698 0.043677546
-0.031845462 -0.21709237 0.043564159
-0.03109064 -0.20724587 0.04375599
-0.031997833 -0.21029699 0.044248607
-0.034013245 -0.19167276 0.044322014
-0.033622451 -0.19076286 0.044053253
-0.033870559 -0.18627685 0.043731745
-0.033870559 -0.18627685 0.043731745
-0.034203727 -0.17964086 0.045709159
-0.034203727 -0.17964086 0.045709159
-0.031643122 -0.16119574 0.045070499
-0.031673782 -0.15925661 0.04592824
-0.032702327 -0.15676738 0.046369847
-0.033385739 -0.15782894 0.0464986
-0.03426984 -0.14957246 0.046763152
-0.033519968 -0.14925671 0.047158569
-0.037136368 -0.13676734 0.048235107
-0.0359306 -0.13832882 0.047971886
-0.039005246 -0.12591487 0.048608739
-0.039005246 -0.12591487 0.048608739
-0.037672754 -0.11508577 0.050719816
-0.037738126 -0.11662172 0.05032381
-0.037112795 -0.10317215 0.046312623
-0.035671819 -0.10541131 0.048142593
-0.038627658 -0.09592393 0.045931607
-0.036903426 -0.099312954 0.046078663
-0.036784247 -0.10047027 0.046840075
-0.037733763 -0.081947044 0.044873908
-0.038326614 -0.0859171 0.044456702
-0.037465058 -0.090304017 0.045142084
-0.039116628 -0.075057022 0.044609975
-0.038193058 -0.075533882 0.044431657
-0.038058903 -0.077982135 0.044484213
-0.039204799 -0.06801983 0.043920361
-0.038799733 -0.070309184 0.043856181
-0.038799733 -0.070309184 0.043856181
-0.037607688 -0.049876075 0.042060018
-0.037518684 -0.049497843 0.041762788
-0.039221123 -0.060815435 0.043756738
-0.038284536 -0.042509325 0.041588608
-0.037792172 -0.041042514 0.041919533
-0.037758246 -0.040672384 0.041736539
-0.033137288 -0.031578217 0.049178418
-0.038153857 -0.022241153 0.053150792
-0.035825863 0.027695511 0.092823952
-0.036259588 -0.0062560583 0.06069728
-0.025459692 0.057059634 0.13874063
-0.030027203 0.0083086584 0.065461129
-0.0040467717 0.012897701 0.040909246
0.0025003138 0.016011257 0.040441353
0.0092427982 0.016966255 0.037659556
0.019980533 0.01958512 0.034945779
0.021903262 0.019484213 0.031672169
0.028719906 0.021800678 0.033487745
0.041684266 0.015147146 0.03511817
0.050347339 -0.0071477741 0.038560573
0.058592673 0.013318905 0.039322764
0.058916524 0.033688743 0.025924794
0.086003557 0.091463797 0.045677129
0.091530763 0.074159443 0.044204831
0.1033326 0.075925879 0.047696915
0.11239491 0.0084697688 0.044848405
0.11837862 0.014005897 0.044422459
0.11244879 0.0078187101 0.042228796
0.11491543 0.0072415946 0.045169864
0.11332524 0.0071018124 0.046582125
0.053476498 0.0062895147 0.035012815
0.017295843 -0.19067174 0.030968342
-0.042913862 0.011009108 0.051403299
-0.032359723 -0.0010796128 0.051400986
-0.025047712 -0.055479418 0.048227351
-0.020919062 -0.024160337 0.047970239
-0.01480349 0.0051448089 0.052894704
-0.004958347 0.011145979 0.045959905
0.031986061 -0.11174349 0.031147189
0.059741586 0.0089899395 0.031930391
-0.04904541 0.015401561 0.062319674
-0.044034015 0.013256472 0.05460785
-0.031454943 0.0020387224 0.051397562
0.05019173 0.0083925268 0.044821292
0.04873912 0.0065770485 0.041215993
-0.04893801 0.016472738 0.063314669
0.025609534 -0.13062871 0.031276241
-0.051050417 0.016994318 0.063808478
-0.047125414 0.015880894 0.060487833
0.013445279 -0.18889539 0.029516378
0.02661431 -0.14084311 0.028451174
-0.047103737 0.015286169 0.059550729
-0.04325382 0.012484657 0.052798856
-0.032928769 7.906137e-05 0.051247459
-0.024840347 -0.014447568 0.047731966
-0.022091184 -0.12335824 0.036693737
0.00062198495 0.013033953 0.04277654
0.026957178 -0.1470978 0.026069863
0.0028814541 0.014949176 0.040847708
0.01820652 0.01737 0.040605444
0.027387751 0.020965176 0.036370281
0.026487052 0.019692073 0.033805799
0.026954925 0.0228895 0.030311897
0.041053932 0.022730434 0.031080045
0.060657185 0.011733984 0.043290205
0.056597263 0.0042297607 0.026196945
0.050209165 0.0065810052 -0.044628102
0.07501585 -0.055810023 0.043534063
0.087986901 -0.071782462 0.045002848
0.073598787 0.016421515 0.0044907755
0.081248216 0.015007564 0.020700216
0.072750039 0.0091240779 0.02308015
0.069988817 0.010464997 0.02462855
0.069946371 0.010421965 0.025569053
0.066906512 0.010158423 0.029769633
0.044898164 -0.0010322012 0.03472976
0.018336382 -0.19619246 0.028046429
0.024647949 -0.16844484 0.026726412
-0.033033408 -0.48436198 0.039261308
-0.018878523 -0.48233151 0.041663069
-0.034042884 -0.48238155 0.039921522
-0.035318404 -0.47774446 0.041082095
-0.035315871 -0.47434711 0.04066081
-0.036408223 -0.47434047 0.041457519
-0.036755987 -0.47496912 0.041545734
-0.035315871 -0.47434711 0.04066081
-0.03569809 -0.46343186 0.041235477
-0.036929995 -0.46088675 0.041704901
-0.036592949 -0.45128393 0.040538363
-0.036592949 -0.45128393 0.040538363
-0.038881775 -0.44305107 0.041327644
-0.037537768 -0.44460937 0.042063635
-0.039411858 -0.4395639 0.041771613
-0.039135177 -0.43699649 0.041155301
-0.038716808 -0.43386969 0.041228626
-0.035294395 -0.42376158 0.041242946
-0.037069768 -0.42965493 0.040967137
-0.035294395 -0.42376158 0.041242946
-0.034058738 -0.41424495 0.040275477
-0.035463881 -0.42192996 0.041016161
-0.034395933 -0.40946814 0.04014837
-0.034713745 -0.39774624 0.041206054
-0.036309704 -0.42426106 0.041121557
-0.028268045 -0.3614192 0.036765411
-0.033866078 -0.39757735 0.041167229
-0.035337698 -0.39229307 0.042275295
-0.036780585 -0.38578448 0.042246796
-0.036541007 -0.38318589 0.043132223
-0.036735974 -0.37633795 0.041635267
-0.035667367 -0.37265348 0.041568778
-0.036806773 -0.36957246 0.041124858
-0.036600556 -0.36316183 0.041189231
-0.035545159 -0.35371393 0.042960446
-0.034737788 -0.34963131 0.0445746
-0.034391277 -0.34712353 0.043833297
-0.034508482 -0.34212956 0.044605765
-0.034998566 -0.33982563 0.044259135
-0.034687962 -0.33248842 0.044626791
-0.035458423 -0.3246153 0.043581363
-0.034831613 -0.32044742 0.043559015
-0.035114959 -0.31539735 0.043346018
-0.03388001 -0.31184101 0.043862212
-0.034436844 -0.30715424 0.043295328
-0.034302 -0.30140156 0.044250861
-0.034260213 -0.29749295 0.043656897
-0.034605354 -0.29168847 0.044443056
-0.033497538 -0.2864354 0.043548234
-0.033979673 -0.28177324 0.043486323
-0.033620749 -0.27620012 0.043870818
-0.03472257 -0.26966462 0.044618148
-0.034792669 -0.26752397 0.044335283
-0.035058826 -0.26111782 0.044272315
-0.035210516 -0.25993603 0.044057772
-0.037123784 -0.2513507 0.044288389
-0.034465719 -0.24668312 0.043372206
-0.034465719 -0.24668312 0.043372206
-0.032889847 -0.24079354 0.043194659
-0.031805485 -0.23731385 0.043225568
-0.030960934 -0.23618124 0.042614657
-0.030064991 -0.23156077 0.04247614
-0.030192867 -0.22953612 0.043583412
-0.029979194 -0.22257853 0.043876402
-0.031157674 -0.22569369 0.044885233
-0.030743694 -0.22448419 0.044483107
-0.032403294 -0.21354493 0.044265904
-0.031845462 -0.21709237 0.043564159
-0.031845462 -0.21709237 0.043564159
-0.032571055 -0.20498113 0.043767009
-0.031997833 -0.21029699 0.044248607
-0.032778073 -0.20987266 0.044184942
-0.033599272 -0.19509681 0.043805487
-0.033738952 -0.19038646 0.044033073
-0.03368615 -0.19009118 0.044302747
-0.033870559 -0.18627685 0.043731745
-0.0338495 -0.18494307 0.044004124
-0.034035932 -0.18182118 0.045078542
-0.034068689 -0.17897634 0.046284378
-0.034203727 -0.17964086 0.045709159
-0.033971827 -0.17345479 0.044906937
-0.032616321 -0.16281353 0.045443039
-0.032829244 -0.16527793 0.045317061
-0.032725167 -0.16466339 0.045211118
-0.032586038 -0.15426566 0.047177833
-0.032765128 -0.15745728 0.046491683
-0.035619561 -0.14567949 0.046849858
-0.035711713 -0.14590666 0.047293
-0.03724312 -0.1336049 0.04833487
-0.037339903 -0.13286793 0.048081566
-0.037538532 -0.12276416 0.050535675
-0.038511824 -0.12601551 0.048113573
-0.036820218 -0.11220121 0.049487807
-0.038466398 -0.12025016 0.050427165
-0.036538966 -0.10253307 0.046958841
-0.036159933 -0.10690622 0.048542887
-0.038627658 -0.09592393 0.045931607
-0.036936019 -0.099725232 0.046554733
-0.037724275 -0.081136346 0.044568844
-0.037171565 -0.086658813 0.044533547
-0.038754407 -0.073437713 0.045235291
-0.0388893 -0.071110271 0.043710575
-0.038058903 -0.077982135 0.044484213
-0.039179012 -0.069045499 0.043894503
-0.039101541 -0.06848418 0.043946765
-0.038785748 -0.053185966 0.042765442
-0.037435524 -0.050739851 0.04145366
-0.037344556 -0.044716444 0.041503273
-0.038272116 -0.04402668 0.04116552
-0.038284536 -0.042509325 0.041588608
-0.037479796 -0.037177924 0.041739468
-0.041940007 0.013629954 0.085064232
-0.028360303 0.074130096 0.19550341
-0.04180808 0.0091885207 0.078103684
-0.035136301 0.002618341 0.064554699
-0.033752151 0.022969861 0.084576793
-0.012431563 -0.0049421312 0.043165445
-0.0093337493 0.010979459 0.041365277
0.0027367251 0.016164271 0.041543312
0.0081842169 0.017283721 0.036099963
0.018365759 0.017432254 0.038521498
0.025544431 0.019697169 0.035823718
0.040698085 0.0054999269 0.0093118967
0.055706471 0.011119578 0.048650619
0.057002518 0.0097135091 0.048147094
0.057287458 0.014470936 0.035384737
0.086003557 0.091463797 0.045677129
0.095408835 0.080592953 0.04734496
0.1020281 0.077506654 0.047206774
0.11534285 -0.001682621 0.042938061
0.12054623 -0.0027147427 0.043191303
0.10077246 0.0062055443 0.048297975
0.082773373 0.024118854 0.057833914
0.081796713 0.024973322 0.058704101
0.016781194 -0.16882671 0.032182295
0.021056462 -0.15665627 0.032015916
-0.045718122 0.014293952 0.059655078
-0.043741707 0.0089775305 0.057173386
-0.038324364 -0.012274198 0.059899144
-0.026562648 0.0011546827 0.059496209
-0.014484407 -0.0058448543 0.046577912
0.018897241 -0.1023551 0.03491386
0.022699989 -0.083295435 0.038308125
-0.051080398 0.016971828 0.06431035
-0.04904541 0.015401561 0.062319674
0.047392104 0.0075030606 0.047141835
0.023551729 -0.050184339 0.040861573
-0.051943675 0.020789998 0.0719079
-0.051649116 0.021140143 0.070987888
0.01848905 -0.10349184 0.034336846
0.0190592 -0.078387827 0.039468855
-0.051815219 0.020661971 0.070444643
-0.051443484 0.017295651 0.065002874
0.072534241 0.021906273 0.059803337
0.046097863 0.0091946851 0.048573662
-0.050925944 0.016962096 0.064477392
-0.046452437 0.014526544 0.059103146
-0.043702152 0.0091879675 0.051454604
-0.032766182 0.0025592551 0.051437188
-0.025662508 -0.057032663 0.046762638
-0.019880699 -0.1380672 0.037948981
0.063654475 0.015218801 0.055509385
0.068556979 0.017517064 0.057791281
-0.0093725203 -0.16768633 0.028403405
0.0029137 0.0096567897 0.047557957
0.011825678 0.017021943 0.041098427
0.019693144 0.019082915 0.036856942
0.023645848 0.018524157 0.034220874
0.02973743 0.019885834 0.033556037
0.043895129 0.015985403 0.037293546
0.034370467 0.03863759 0.023441758
0.058367703 0.00722615 0.017694917
0.073789939 -0.058710381 0.043651123
0.086600713 -0.076806486 0.045458913
0.093455836 -0.062220775 0.041912153
0.078358687 0.013397359 0.027204875
0.060192097 0.0097838389 0.034047425
0.062803082 0.0095285131 0.033155665
0.033536598 -0.015912501 0.038722023
0.010522627 -0.13061425 0.034179792
0.073140517 0.021669839 0.056860298
0.076205321 0.022373663 0.057819501
0.073630005 0.020452647 0.058025159
-0.035692539 -0.39603561 0.042427141
-0.035337698 -0.39229307 0.042275295
-0.037548874 -0.38153681 0.044183549
-0.036290526 -0.37108707 0.041886877
-0.036600556 -0.36316183 0.041189231
-0.034737788 -0.34963131 0.0445746
-0.035251528 -0.34386975 0.044605296
-0.034627777 -0.33346993 0.044041611
-0.035478581 -0.31946993 0.043881219
-0.03388001 -0.31184101 0.043862212
-0.034700934 -0.30383766 0.042983092
-0.034729324 -0.2943489 0.04421106
-0.032758962 -0.2847181 0.043910664
-0.035251323 -0.27025956 0.0444928
-0.034733687 -0.27007586 0.044515934
-0.036048364 -0.264992 0.04475804
-0.034191057 -0.26393536 0.044494472
-0.035057191 -0.25867906 0.043819342
-0.03712545 -0.25563228 0.04400878
-0.0342215 -0.24464792 0.042899303
-0.033401936 -0.24309297 0.042851586
-0.030960934 -0.23618124 0.042614657
-0.031191548 -0.23333621 0.042614177
-0.031252388 -0.22012262 0.043985978
-0.030894987 -0.22216614 0.044156872
-0.031945497 -0.21106492 0.044524677
-0.031994425 -0.21239886 0.044467099
-0.033353429 -0.20585124 0.043907922
-0.033131197 -0.20922551 0.044496682
-0.032915451 -0.20251627 0.044248711
-0.033992093 -0.19302857 0.044618733
-0.033622451 -0.19076286 0.044053253
-0.034092356 -0.18448539 0.044782512
-0.034002621 -0.18342848 0.044986185
-0.034203727 -0.17964086 0.045709159
-0.033880934 -0.17409258 0.04513818
-0.034410033 -0.17189133 0.044900205
-0.034410033 -0.17189133 0.044900205
-0.033279978 -0.16002877 0.045962647
-0.033813313 -0.16203621 0.045842424
-0.032725167 -0.16466339 0.045211118
-0.033513881 -0.15106608 0.047356691
-0.033513881 -0.15106608 0.047356691
-0.032283645 -0.15363623 0.047139186
-0.035670049 -0.14313354 0.047243837
-0.035670049 -0.14313354 0.047243837
-0.035538722 -0.14376551 0.046763305
-0.038338944 -0.12963711 0.048117451
-0.037004452 -0.13163334 0.048139472
-0.037574664 -0.12928453 0.049300581
-0.037632674 -0.12171146 0.050776042
-0.038717534 -0.12392315 0.050116055
-0.038677923 -0.12665538 0.04833205
-0.036820218 -0.11220121 0.049487807
-0.037188549 -0.1159272 0.050519362
-0.038604971 -0.11837623 0.050041512
-0.036833905 -0.10403991 0.047290169
-0.035793141 -0.10588129 0.048137456
-0.036100652 -0.1078795 0.048371684
-0.038627658 -0.09592393 0.045931607
-0.037628524 -0.098419175 0.045902576
-0.036784247 -0.10047027 0.046840075
-0.037724275 -0.081136346 0.044568844
-0.037733763 -0.081947044 0.044873908
-0.037709896 -0.09167631 0.045466922
-0.038754407 -0.073437713 0.045235291
-0.039116628 -0.075057022 0.044609975
-0.038808584 -0.069950856 0.043862592
-0.038771834 -0.069599956 0.043995213
-0.038186662 -0.052475192 0.042459287
-0.038785748 -0.053185966 0.042765442
-0.037157003 -0.047118381 0.041488353
-0.037150435 -0.046401579 0.041658428
-0.037358679 -0.038261216 0.041659646
-0.037358679 -0.038261216 0.041659646
-0.036299184 0.058612633 0.16581552
-0.039970417 -0.021791292 0.052693639
-0.018462684 -0.015643766 0.018571913
-0.014523501 -0.026537908 0.015386852
-0.012673025 -0.19121094 0.01932955
-0.002050515 0.017284187 0.032170597
0.0034034092 0.021170737 0.029486366
0.010808256 0.020015785 0.030165169
0.015126255 0.042108368 0.016165858
0.027499489 0.021620896 0.037701309
0.044764496 0.017892757 0.037093196
0.047658786 0.019265214 0.034058142
0.084460892 0.094347775 0.046334498
0.094896428 0.081849627 0.047886286
0.10676052 0.0045293304 0.042913586
0.11396102 -0.0026140336 0.044924438
0.12040981 -0.0013629216 0.043839436
0.13075666 0.0050212895 0.045324061
0.1291445 0.0029701556 0.053650413
0.13501056 0.0032322085 0.056288537
0.13497886 0.0050943443 0.061158359
0.14192966 0.0046944898 0.06344945
-0.047403209 0.016586494 0.062952369
-0.044954147 0.017407263 0.063439824
-0.045876496 -0.014148144 0.067067839
-0.039627377 0.014300034 0.080047525
-0.031922042 -0.022595026 0.05278381
-0.02011916 -0.0064078192 0.020565575
0.11071792 0.004645789 0.059092201
0.14162508 0.0043112556 0.062388081
-0.051115062 0.021122493 0.069820665
-0.050925944 0.016962096 0.064477392
-0.046693884 0.016840883 0.063173175
-0.046757411 -0.019052207 0.064086854
-0.041585252 -0.069653817 0.05484635
-0.023483478 -0.0092230784 0.048970602
-0.021280665 -0.0022994154 0.034729406
0.027262339 -0.14053762 0.040345758
0.069844551 0.018393481 0.063092336
-0.053155668 0.022032732 0.072449893
-0.051906429 0.020731989 0.070275359
-0.051050417 0.016994318 0.063808478
0.10704157 0.0052375565 0.058845572
0.11487666 0.0026882286 0.061193679
-0.053246796 0.022443604 0.073754929
-0.05120958 0.021167042 0.069672212
-0.050583884 0.016731681 0.06397897
-0.04700676 0.016148282 0.061731227
-0.027089724 -0.0028091264 0.052346028
0.11159608 0.0033059265 0.059368487
0.13133714 0.0025176418 0.058809176
-0.051471677 0.018144373 0.065958567
-0.04900628 0.016251026 0.063575335
-0.045399915 0.013733675 0.058461629
-0.041136969 0.0070088371 0.051441874
-0.0284511 -0.0057189562 0.052119263
0.02840052 0.014569012 0.039676853
0.11189186 0.0046220487 0.058447108
0.13366151 0.00398219 0.056677673
0.03278473 0.012578549 0.039902102
0.050104462 0.015591719 0.040524736
0.00054073328 -0.19419377 0.039105784
-0.0024917973 -0.056532715 0.046517789
0.012902632 0.016499655 0.043105237
0.020375237 0.018946391 0.036892299
0.024457224 0.017485479 0.033860505
0.027685206 0.02084377 0.031808671
0.051718257 0.0041418117 0.02420832
0.070210561 0.0082275514 0.029486982
0.084399328 -0.061456863 0.045996495
0.069423378 0.01843429 0.029047655
0.056999214 0.0065866956 0.045395631
0.058985412 0.0088757128 0.0444391
0.019779289 -0.089514345 0.042582661
0.07169041 0.019531265 0.060802121
0.08326669 0.02462386 0.062477149
0.12228091 0.0041763727 0.053879935
0.1319634 0.0032093448 0.052203398
0.13296413 0.0026958643 0.05406297
-0.031845462 -0.21709237 0.043564159
-0.031997833 -0.21029699 0.044248607
-0.033226877 -0.20319296 0.044273354
-0.033148635 -0.18913259 0.043721192
-0.034035932 -0.18182118 0.045078542
-0.033637229 -0.17018028 0.045681048
-0.033475112 -0.1582015 0.046315458
-0.033647571 -0.14928064 0.047256831
-0.036238227 -0.14076732 0.047204278
-0.037574664 -0.12928453 0.049300581
-0.037632674 -0.12171146 0.050776042
-0.037807561 -0.11505181 0.05071944
-0.036159933 -0.10690622 0.048542887
-0.036784247 -0.10047027 0.046840075
-0.018823741 -0.016883919 0.020449642
-0.014617098 -0.046163812 0.020581663
-0.0059841843 0.021368006 0.025633639
0.0013498398 0.02180177 0.027235515
0.0036146836 0.020261642 0.02640577
0.0063063223 0.02922871 0.021605361
0.014214767 0.025269331 0.027973309
0.012615155 -0.093600579 0.045011524
0.031828996 0.0041943439 0.048654314
0.083810464 0.091996104 0.045354094
0.094641343 0.075716101 0.046772454
0.10693949 0.0078032636 0.046163831
0.11427125 -0.0013962074 0.044154532
0.12088091 -0.00099798141 0.04384467
0.13701339 0.0040682177 0.056191165
0.14009546 0.0054961555 0.061716877
0.1415876 0.0037067009 0.064669512
0.14944462 0.0036638728 0.067177929
0.14107825 0.0039604558 0.067631677
-0.019557102 -0.0011481608 0.024368836
-0.019284671 -0.0027637652 0.020763019
0.13747041 0.0034280061 0.066209301
-0.048011128 0.016474025 0.064378567
-0.04446771 0.014938768 0.057265528
-0.043358546 -0.0079164701 0.052506208
-0.028766098 -0.0054946034 0.051669154
-0.020209702 0.0012957404 0.04090685
0.030997079 -0.0766441 0.046678882
0.035941005 -0.069109358 0.046872534
-0.051093746 0.021771178 0.070756815
-0.049310047 0.016664727 0.063792698
-0.04586184 0.014411781 0.060158111
-0.043922704 0.014027729 0.055480722
-0.035142668 0.0009641581 0.051957238
-0.023312751 0.011161801 0.051285665
0.025228767 -0.085060664 0.044387516
-0.048305254 0.016337162 0.063921034
-0.047441792 0.01622466 0.061134528
-0.043553989 0.013065751 0.054202713
-0.035900351 0.0036216171 0.052294325
-0.028582083 0.012361425 0.053011313
0.12916134 0.005559972 0.063600294
0.13403992 0.0038498889 0.065157622
-0.048223529 0.015887439 0.063342728
-0.044390395 0.013061233 0.055373996
-0.041442264 0.0061380463 0.050304286
0.029086009 0.021965308 0.047956884
0.035406601 0.024570948 0.047922116
0.142185 0.003479101 0.054682367
-0.050188534 0.01663602 0.063946992
-0.047103737 0.015286169 0.059550729
0.03235919 0.02383595 0.047046024
0.035861328 0.025342064 0.047964517
0.062401742 0.013941028 0.049421947
-0.0048635695 -0.10826839 0.044460088
0.00070231175 0.0052472036 0.048669625
0.0075897244 0.015539923 0.038063258
0.013252797 0.019613478 0.034690104
0.02300526 0.019722316 0.037368584
0.026170101 0.021482289 0.032499388
0.038470343 0.007907101 0.049919952
0.06971813 0.015745105 0.062699363
0.022404863 -0.18433827 0.048599675
0.029911425 -0.067100808 0.050752632
0.040490076 -0.017835962 0.050117485
0.11529524 0.0036685613 0.05793884
0.12480263 0.002847455 0.055565052
0.13148513 0.0028093869 0.054269202
0.13374613 0.0040680724 0.05189646
0.13928282 0.0065164017 0.046103083
0.13773033 0.005377369 0.053458542
-0.019199314 -0.0069717295 0.020039059
-0.015654605 -0.026720734 0.019413071
-0.015914569 -0.078807577 0.021499034
-0.0032272851 0.018363951 0.028606968
0.00018540306 0.022843424 0.024487
0.0053979219 0.022774914 0.025472833
0.0096377637 0.01930343 0.033875223
-0.0060199276 -0.094957255 0.045833841
0.040971775 0.0061755804 0.032540716
0.080768928 0.10574879 0.047408238
0.091004722 0.092311285 0.047802288
0.10497525 0.0046582315 0.042708084
0.11496787 -0.00094644184 0.044683985
0.12257816 -0.0017068241 0.042211853
0.14817892 0.0042891186 0.052064642
0.14997646 0.0054347459 0.065345354
0.15291935 0.0023207997 0.067742884
0.14904769 0.00473424 0.068396688
0.13870002 0.0025958254 0.067783013
-0.021273959 0.0032873761 0.031296063
-0.0194724 -0.00060838321 0.026281031
0.11396102 -0.0026140336 0.044924438
0.11853052 -2.9068246e-05 0.043042973
0.1233711 0.0040943045 0.0674261
0.13072573 0.0039530285 0.067628443
-0.020916255 0.0054038214 0.042367306
-0.020888148 0.0016813864 0.028256208
0.10987876 0.0013060132 0.042442162
0.1108139 -0.0026233748 0.042229861
0.11853052 -2.9068246e-05 0.043042973
0.076859966 0.014443615 0.065904669
0.057660252 0.0078577651 0.062771849
-0.02392594 0.011941311 0.052640051
0.048813842 0.0058625787 0.05935616
0.051819615 0.0070393858 0.060849182
-0.050896984 0.016988892 0.063979603
-0.047227938 0.01555863 0.060048744
-0.043551095 0.0093049845 0.051404536
-0.029427938 0.011300287 0.053545654
0.14896365 0.0054154834 0.061663721
0.13203268 0.0040667923 0.067304604
-0.051626027 0.021123381 0.07024277
-0.045739532 0.013561021 0.058605429
-0.043763079 0.013998036 0.05470195
0.03602263 0.025245251 0.048173815
0.036030877 0.028202061 0.052123703
0.14286418 0.0049516582 0.052306648
0.14841937 0.003857733 0.056056786
-0.053077355 0.022607666 0.073690355
-0.049964584 0.016124124 0.063394725
-0.047103737 0.015286169 0.059550729
0.053690996 0.029547311 0.050528083
0.073635511 0.024573158 0.049605601
0.069576129 0.015727976 0.059696309
-0.011782235 -0.029818764 0.045183301
0.00048956112 0.013016446 0.041382235
0.0073957974 0.014605701 0.039114915
0.013884521 0.017158793 0.037809677
0.020327631 0.019349363 0.035808288
0.0050359881 -0.19677737 0.039118227
0.091660306 0.021941831 0.067364968
0.091806144 0.021637565 0.067541271
0.075574182 0.014384585 0.065044388
0.086266093 0.019471232 0.067054033
0.12893134 0.0030583728 0.057205532
0.13385701 0.0043346426 0.056303948
0.13535641 0.0032904129 0.055687606
0.13819835 0.0043135905 0.048110668
0.13843639 0.006745433 0.047612935
0.14367011 0.0048201261 0.052097939
-0.044612668 0.029876042 0.085451841
-0.052042417 0.022217624 0.071792684
0.15448153 -0.0046407715 0.086755164
-0.051762432 0.01931246 0.067238197
-0.044612668 0.029876042 0.085451841
-0.052095424 0.019631932 0.069090784
-0.049368031 0.015161742 0.061894834
-0.036975838 0.033988405 0.090757117
-0.051779877 0.020129964 0.068745665
-0.047403209 0.016586494 0.062952369
-0.036767341 0.035532307 0.09139704
-0.051654562 0.025380684 0.07953953
0.15448153 -0.0046407715 0.086755164
-0.036461212 0.03693578 0.091606185
-0.051216953 0.027708974 0.087573439
-0.051791977 0.020147225 0.069479227
-0.035796404 0.039660335 0.097280808
-0.036512315 0.034330197 0.089678288
-0.052331645 0.024723977 0.076692849
-0.036279596 0.042844929 0.10272345
-0.035961818 0.038731288 0.094585307
-0.036767341 0.035532307 0.09139704
-0.03641741 0.044135779 0.10511916
-0.036510162 0.046424702 0.10804515
-0.036378991 0.040397275 0.099131145
-0.035961818 0.038731288 0.094585307
-0.03660858 0.050652444 0.11369859
-0.036422707 0.042223845 0.10185809
-0.03645622 0.041451719 0.10051577
-0.037497289 0.052359238 0.11650795
-0.036665492 0.047810953 0.11000083
-0.036510162 0.046424702 0.10804515
-0.038621198 0.054186746 0.12075257
-0.03785852 0.052235637 0.11557182
-0.037497289 0.052359238 0.11650795
-0.038765244 0.055009082 0.12103316
-0.036327619 0.049702883 0.11288835
-0.036661889 0.048321448 0.11019735
-0.03873191 0.056370385 0.12326651
-0.037649773 0.050459974 0.11391784
-0.036195517 0.049100589 0.11187471
-0.038795974 0.057977516 0.12508932
-0.038817823 0.053816151 0.12037787
-0.036361411 0.050527673 0.11337034
-0.038650531 0.056000467 0.12272138
-0.038678791 0.058222882 0.12640856
-0.038887881 0.055001672 0.12208093
-0.037776865 0.052633543 0.11771463
-0.038635738 0.05956066 0.12901491
-0.038424779 0.05399999 0.11960643
-0.037146244 0.063742347 0.13195693
-0.039021626 0.056380875 0.12354051
-0.038968068 0.054290716 0.12110956
-0.036704581 0.065742098 0.1355968
-0.038704187 0.060067806 0.13090692
-0.035615116 0.067654029 0.13722494
-0.038405463 0.060158562 0.13004519
-0.038635738 0.05956066 0.12901491
-0.037824251 0.062822364 0.13473928
-0.038405463 0.060158562 0.13004519
-0.03781075 0.059271023 0.12510407
-0.034811139 0.070818909 0.1391962
-0.037601989 0.061154116 0.12950121
-0.037601989 0.061154116 0.12950121
-0.033836946 0.07279712 0.14132515
-0.03625942 0.066643842 0.13650008
-0.036704581 0.065742098 0.1355968
-0.035345979 0.07566455 0.14467569
-0.034663241 0.072783127 0.14208427
-0.034854848 0.074817091 0.14460105
-0.03496531 0.071764424 0.13954401
-0.036346354 0.066193424 0.13600029
-0.034671362 0.074225627 0.14393856
-0.035606142 0.070136465 0.13880861
-0.035955943 0.068610944 0.13714129
-0.033709761 0.076924831 0.14886835
-0.034024414 0.073934689 0.14333309
-0.034221549 0.07217364 0.14014819
-0.034123708 0.078786381 0.15253557
-0.034263317 0.075219885 0.14730784
-0.034052711 0.074064083 0.14352265
-0.034229267 0.078116134 0.15057994
-0.03155683 0.05156453 0.10256507
-0.043715961 0.059358142 0.12639494
-0.034802549 0.072272733 0.14186667
-0.034772925 0.080828935 0.15985607
-0.045062039 0.056659289 0.12198398
-0.03398278 0.0732053 0.14403085
-0.035287265 0.081983589 0.16106746
-0.034123708 0.078786381 0.15253557
-0.034123708 0.078786381 0.15253557
-0.035676632 0.082661487 0.16256417
-0.035287265 0.081983589 0.16106746
-0.034584682 0.086843178 0.16816011
-0.030064955 0.091128297 0.17781007
-0.042719353 0.018252565 0.13306378
-0.035537176 0.083172277 0.16393995
-0.035287265 0.081983589 0.16106746
-0.034229934 0.079210378 0.15542342
-0.034375396 0.086451583 0.16780789
-0.036015641 0.082644001 0.16219741
-0.036180932 0.083212815 0.16448541
-0.034907538 0.087865099 0.17263557
-0.03475393 0.087292016 0.16891672
-0.034584682 0.086843178 0.16816011
-0.033747926 0.089778177 0.1736334
-0.035213102 0.087726712 0.17093135
-0.034526404 0.086661339 0.16832469
-0.034526404 0.086661339 0.16832469
-0.031627189 0.091347903 0.17468721
-0.034921832 0.088385373 0.17352591
-0.035843007 0.087719254 0.1716513
-0.030261295 0.092989735 0.17854108
-0.033799205 0.090256341 0.17443971
-0.033747926 0.089778177 0.1736334
-0.028929316 0.094310164 0.18206736
-0.030261295 0.092989735 0.17854108
-0.031627189 0.091347903 0.17468721
-0.033799205 0.090256341 0.17443971
-0.029726606 0.095332727 0.1842005
-0.030261295 0.092989735 0.17854108
-0.031627189 0.091347903 0.17468721
-0.029707484 0.097871311 0.18819326
-0.030004093 0.093381085 0.17923394
-0.030430246 0.092978783 0.17849314
-0.030482011 0.098882787 0.19100299
-0.02860545 0.096274577 0.18589993
-0.029060256 0.09568049 0.18461834
-0.030625211 0.09966892 0.1924466
-0.030344712 0.099259593 0.19015448
-0.029010197 0.096589543 0.18683927
-0.030712912 0.10885338 0.20990601
-0.030383315 0.095958702 0.18475331
-0.029133135 0.095308155 0.18416618
-0.031141119 0.10412318 0.19874385
-0.031179801 0.10018969 0.19377854
-0.02938463 0.09782546 0.18774348
-0.030124649 0.10664194 0.20197783
-0.031527821 0.10380422 0.19840708
-0.030983375 0.10706279 0.20327523
-0.028838389 0.10269125 0.19827974
-0.027833737 0.052671272 0.20748359
-0.018194133 0.095780455 0.19739652
-0.030050209 0.099003501 0.19004515
-0.031610388 0.11174493 0.21295287
-0.031141119 0.10412318 0.19874385
-0.031527821 0.10380422 0.19840708
-0.031037595 0.11080106 0.21135303
-0.031113476 0.10819203 0.20603152
-0.0308339 0.11028593 0.21085306
-0.026478857 0.077597968 0.1466243
-0.0093444232 0.093887687 0.12790419
-0.03226592 0.11957619 0.22917257
-0.031988956 0.10997217 0.21053553
-0.030868698 0.10798054 0.20627956
-0.034270525 0.11348771 0.21910013
-0.031924419 0.1132103 0.21637915
-0.03135344 0.11221441 0.21411924
-0.034758091 0.11574403 0.22339827
-0.0342036 0.11577709 0.22174187
-0.032757681 0.11715728 0.2260467
-0.0342036 0.11577709 0.22174187
-0.034270525 0.11348771 0.21910013
-0.03383369 0.11339201 0.21952412
-0.033541456 0.11651725 0.22466621
-0.03460563 0.11563804 0.22456986
-0.03460563 0.11563804 0.22456986
-0.033978108 0.11860679 0.22717445
-0.033783488 0.11893257 0.22740115
-0.033978108 0.11860679 0.22717445
-0.03261574 0.12094139 0.23104092
-0.032757681 0.11715728 0.2260467
-0.033281542 0.11765954 0.22651872
-0.03262867 0.11907285 0.23000281
-0.03262867 0.11907285 0.23000281
-0.034032241 0.11921818 0.22778361
-0.033351827 0.12333499 0.23465906
-0.032936133 0.12251949 0.23398374
-0.032768339 0.12139347 0.23141399
-0.034748487 0.12758833 0.23991349
-0.034748487 0.12758833 0.23991349
-0.035064444 0.13101803 0.24698034
-0.033533785 0.12403108 0.23730333
-0.033788301 0.12427492 0.23645526
-0.034624908 0.12815315 0.24309132
-0.035273299 0.12766278 0.24247295
-0.034624908 0.12815315 0.24309132
-0.035081774 0.131152 0.24882479
-0.035081774 0.131152 0.24882479
-0.034580402 0.13399851 0.25538367
-0.034624908 0.12815315 0.24309132
-0.034881145 0.13078684 0.25076461
-0.035064444 0.13101803 0.24698034
-0.035080969 0.13131605 0.24962106
-0.034209322 0.13406751 0.25555047
-0.034209322 0.13406751 0.25555047
-0.034719337 0.13092527 0.25113776
-0.034175575 0.13791372 0.26048723
-0.033952273 0.13739462 0.25987399
-0.032770362 0.13839968 0.26221591
-0.03340539 0.13638732 0.25835043
-0.033621073 0.13424087 0.25615761
-0.032787964 0.13890873 0.26347363
-0.034175575 0.13791372 0.26048723
-0.033621073 0.13424087 0.25615761
-0.029631559 0.14014915 0.26696408
-0.032821003 0.13992834 0.26503718
-0.029631559 0.14014915 0.26696408
-0.032787964 0.13890873 0.26347363
-0.031944122 0.14370084 0.27338257
-0.030073693 0.14054687 0.26779109
-0.034584347 0.1452706 0.27522111
-0.030760985 0.13958754 0.26774284
-0.035289012 0.1457068 0.27717671
-0.031015551 0.14316472 0.27248195
-0.032900278 0.1484302 0.28231689
-0.033983029 0.14557326 0.27758962
-0.032576978 0.14966373 0.28493094
-0.034412712 0.14504622 0.27615693
-0.031419225 0.14990155 0.28574991
-0.034039002 0.14555047 0.27780879
-0.031420898 0.14658935 0.27868304
-0.032964833 0.15134138 0.28835157
-0.033373754 0.15639193 0.29658759
-0.032725915 0.15217325 0.28968027
-0.026975244 0.15450059 0.30123436
-0.031254955 0.14892198 0.28340018
-0.028283639 0.14487401 0.29152846
-0.031549182 0.146282 0.28171086
-0.025506584 0.1323237 0.25995404
-0.028627522 0.15899734 0.31080762
-0.031892128 0.15788805 0.30455783
-0.030870177 0.16115195 0.31667796
-0.03270511 0.15649739 0.29880652
-0.028701747 0.15911561 0.30908772
-0.030955762 0.14914018 0.28737989
-0.032921609 0.15737367 0.30310267
-0.032603417 0.16330324 0.31334424
-0.032889847 0.16070014 0.30693987
-0.032806553 0.16491562 0.31674233
-0.031912375 0.1610107 0.30938876
-0.032677896 0.16716532 0.32124555
-0.033075456 0.16613343 0.32001516
-0.033760294 0.16984227 0.32599995
-0.032806553 0.16491562 0.31674233
-0.033493351 0.16694488 0.32114962
-0.032730568 0.16613796 0.31866521
-0.033075299 0.17000583 0.32592779
-0.032648586 0.16860864 0.32360992
-0.032969158 0.17488007 0.33329207
-0.033760294 0.16984227 0.32599995
-0.032648586 0.16860864 0.32360992
-0.032066327 0.17498896 0.33367497
-0.033760294 0.16984227 0.32599995
-0.03156941 0.17880288 0.33942816
-0.031031234 0.17775503 0.33823624
-0.030563403 0.17946389 0.34229246
-0.03157936 0.17740098 0.33862215
-0.03159485 0.18123262 0.34601822
-0.029866597 0.17881426 0.34091356
-0.030921705 0.18175061 0.34488136
-0.03472282 0.18508199 0.34997958
-0.034240987 0.18953052 0.3558051
-0.035074912 0.18671075 0.35114512
-0.03439137 0.19199915 0.36027589
-0.03499965 0.18903808 0.3548933
-0.03439137 0.19199915 0.36027589
-0.035157923 0.19231321 0.36174586
-0.03439137 0.19199915 0.36027589
-0.033774506 0.19335824 0.36556831
-0.035157923 0.19231321 0.36174586
-0.033774506 0.19335824 0.36556831
-0.033774506 0.19335824 0.36556831
-0.03333915 0.19630259 0.37395215
-0.032725405 0.19327344 0.36966419
-0.03442781 0.19919798 0.37984964
-0.03333915 0.19630259 0.37395215
-0.03442781 0.19919798 0.37984964
-0.03442781 0.19919798 0.37984964
-0.033543516 0.19736491 0.37688446
-0.03579773 0.2018947 0.38333485
-0.03442781 0.19919798 0.37984964
-0.036308151 0.20284308 0.38553169
-0.038451452 0.20970878 0.39252365
-0.038021598 0.20510553 0.38729012
-0.038480777 0.21350056 0.40104315
-0.039577663 0.21086417 0.39638498
-0.038480777 0.21350056 0.40104315
-0.039577663 0.21086417 0.39638498
-0.038640909 0.21616527 0.40751427
-0.040391598 0.21394107 0.40492943
-0.038016211 0.21907565 0.41270179
-0.037860475 0.22025223 0.4162952
-0.038016211 0.21907565 0.41270179
-0.036348831 0.2220467 0.42050046
-0.037286136 0.22134461 0.41895732
-0.037327889 0.22291863 0.42363915
-0.036797505 0.22249562 0.4194825
-0.037286136 0.22134461 0.41895732
-0.03772258 0.222922 0.42445192
-0.037327889 0.22291863 0.42363915
-0.036951479 0.22400661 0.42818561
-0.03772258 0.222922 0.42445192
-0.040560108 0.23140135 0.43383607
-0.040560108 0.23140135 0.43383607
-0.039891385 0.23434867 0.43919328
-0.038655348 0.23307814 0.43760294
-0.041522328 0.23717029 0.44221359
-0.041522328 0.23717029 0.44221359
-0.041241288 0.23658568 0.44609722
-0.040879954 0.23684125 0.44495684
-0.039161678 0.24243955 0.45261365
-0.040112603 0.23687766 0.44636634
-0.038501173 0.24347113 0.45440787
-0.039161678 0.24243955 0.45261365
-0.039592456 0.24502903 0.45817852
-0.038501173 0.24347113 0.45440787
-0.039784301 0.24727373 0.46449143
-0.039592456 0.24502903 0.45817852
-0.040064152 0.24620809 0.45964417
-0.039105441 0.24847816 0.46470261
-0.039784301 0.24727373 0.46449143
-0.038913816 0.24957126 0.46676821
-0.038913816 0.24957126 0.46676821
-0.038913816 0.24957126 0.46676821
-0.038913816 0.24957126 0.46676821
-0.040292304 0.25416774 0.47320026
-0.040292304 0.25416774 0.47320026
-0.039899882 0.25664312 0.4741075
