# .PCD v0.7 - Point Cloud Data file format
VERSION 0.7
FIELDS x y z
SIZE 4 4 4
TYPE F F F
COUNT 1 1 1
WIDTH 489
HEIGHT 1
VIEWPOINT 0 0 0 1 0 0 0
POINTS 489
DATA ascii
-0.29918709 -0.12776217 -0.15130465
-0.31552884 -0.13566127 -0.15476181
-0.30889642 -0.13242152 -0.15320855
-0.32842848 -0.14191355 -0.15739876
-0.1237428 -0.14866155 -0.31119996
-0.12424768 -0.14260237 -0.29911336
-0.12495428 -0.13416813 -0.2825973
-0.12563515 -0.12901238 -0.27237457
-0.12673722 -0.12029932 -0.25455669
-0.13059933 -0.1046012 -0.22263771
-0.13572839 -0.093570352 -0.19885792
-0.15471978 -0.079093151 -0.15930793
-0.20011231 -0.086744063 -0.14266698
-0.17588884 -0.080589183 -0.14761598
-0.21784049 -0.092707343 -0.14183563
-0.27285066 -0.11560324 -0.14691111
-0.25488073 -0.10776079 -0.14475131
-0.28522173 -0.12138295 -0.14927034
-0.293264 -0.12549996 -0.15109923
-0.30604255 -0.13188516 -0.15421021
-0.32430035 -0.14124212 -0.15879841
-0.12405923 -0.14390077 -0.30155617
-0.1244655 -0.13959487 -0.29311273
-0.12505874 -0.13199009 -0.2781547
-0.12587114 -0.12463653 -0.26361075
-0.12706856 -0.11686411 -0.24776174
-0.13001077 -0.10415392 -0.2219981
-0.13497125 -0.090989135 -0.19433367
-0.1424841 -0.08536312 -0.17902432
-0.15084268 -0.076619178 -0.15699591
-0.16160943 -0.073229671 -0.14311211
-0.20293452 -0.084598638 -0.13639194
-0.18644828 -0.079069421 -0.13712068
-0.23465928 -0.098215684 -0.14048675
-0.27253732 -0.11527683 -0.14636381
-0.2528308 -0.1065806 -0.14377962
-0.27474916 -0.11705969 -0.14807257
-0.28485113 -0.12303659 -0.15260279
-0.27935827 -0.12007481 -0.15079094
-0.29637074 -0.12887087 -0.15551637
-0.30638805 -0.13424315 -0.15847506
-0.1248707 -0.13088787 -0.27526546
-0.12500881 -0.12897219 -0.27148002
-0.12579165 -0.11982786 -0.25341636
-0.12733077 -0.11063998 -0.23547049
-0.1290419 -0.10291797 -0.22004639
-0.13318329 -0.086874783 -0.18750733
-0.13910024 -0.077136226 -0.1654149
-0.14561865 -0.07243026 -0.15222147
-0.15816554 -0.070575871 -0.1402379
-0.18957728 -0.076826252 -0.13052338
-0.17339694 -0.072239555 -0.13290592
-0.21985275 -0.089859962 -0.13457973
-0.25527865 -0.10726412 -0.14325033
-0.23839015 -0.09855099 -0.13831536
-0.25360543 -0.1067143 -0.14350429
-0.2505995 -0.10699536 -0.146524
-0.25254628 -0.1099194 -0.15152128
-0.26922405 -0.11913443 -0.15701643
-0.12515758 -0.11808097 -0.24851908
-0.12506737 -0.12466563 -0.26238236
-0.12581392 -0.1159072 -0.24562643
-0.12727802 -0.10358158 -0.22204153
-0.12903872 -0.096543737 -0.20797922
-0.13189934 -0.082612783 -0.1801164
-0.13655026 -0.071147315 -0.15535374
-0.14355585 -0.064315125 -0.1378136
-0.14704038 -0.062840782 -0.13278258
-0.16368921 -0.063229755 -0.12203021
-0.19011346 -0.073482998 -0.12346504
-0.21937783 -0.088185914 -0.13161191
-0.23086399 -0.095456533 -0.13809918
-0.21831548 -0.090431429 -0.13831784
-0.21885692 -0.093904406 -0.14602004
-0.21668437 -0.091413185 -0.14229049
-0.22236885 -0.097489692 -0.15123039
-0.12601303 -0.10932375 -0.23253348
-0.12587413 -0.10828486 -0.23024054
-0.12702656 -0.099321954 -0.21363328
-0.13004407 -0.079478398 -0.17503881
-0.13536565 -0.064670891 -0.14367783
-0.13966686 -0.056538355 -0.12539326
-0.14275604 -0.05450654 -0.11936524
-0.14977798 -0.052477889 -0.11065295
-0.17119211 -0.059786312 -0.10982595
-0.15643789 -0.053916585 -0.10876192
-0.18757951 -0.068631195 -0.11591528
-0.21223383 -0.085832842 -0.13315621
-0.2032104 -0.079109676 -0.1258449
-0.18542933 -0.071725227 -0.12643561
-0.19203593 -0.078736521 -0.13701355
-0.1802527 -0.075263277 -0.14092107
-0.18249381 -0.079087235 -0.14778779
-0.12642348 -0.097836636 -0.21026084
-0.12641546 -0.10175726 -0.21797092
-0.12707719 -0.091219246 -0.19817317
-0.1279048 -0.083624259 -0.18376178
-0.12951051 -0.072371893 -0.16184406
-0.13155228 -0.060425967 -0.13798283
-0.13485381 -0.049839802 -0.1156186
-0.14205271 -0.042733759 -0.096902005
-0.15030108 -0.04333967 -0.092227556
-0.16109703 -0.048861064 -0.095853455
-0.17959583 -0.06481754 -0.11539809
-0.16305469 -0.057636153 -0.11676136
-0.16062723 -0.053212255 -0.10835192
-0.16556279 -0.06288331 -0.12685931
-0.16083437 -0.06220552 -0.13135184
-0.16248289 -0.06235579 -0.12924248
-0.15513583 -0.060312629 -0.13360727
-0.15702687 -0.063702799 -0.13913065
-0.1272245 -0.084109403 -0.18451412
-0.12761533 -0.074919455 -0.16732801
-0.12807252 -0.073017485 -0.16358632
-0.13019854 -0.055937152 -0.13036026
-0.13243312 -0.043701451 -0.10542056
-0.13593584 -0.037643053 -0.091157906
-0.13603644 -0.034478512 -0.084908411
-0.13996643 -0.031906337 -0.077054061
-0.14938416 -0.038011923 -0.083220199
-0.14332277 -0.033197373 -0.077545561
-0.15623762 -0.045500901 -0.094332248
-0.15235242 -0.045874238 -0.10032757
-0.14795797 -0.048038367 -0.11190297
-0.14725009 -0.050562214 -0.12000706
-0.14452086 -0.049682651 -0.12244668
-0.14147368 -0.048908133 -0.12492991
-0.12796783 -0.065470345 -0.14974311
-0.12797415 -0.067545153 -0.15340236
-0.12821382 -0.057403605 -0.13457531
-0.12855311 -0.052349258 -0.12487859
-0.12916186 -0.048934426 -0.11778107
-0.13034341 -0.035773214 -0.091693066
-0.13231213 -0.026021378 -0.071059048
-0.13481636 -0.022751216 -0.062884212
-0.1381148 -0.024042748 -0.064210907
-0.13770019 -0.022629565 -0.06095507
-0.14247392 -0.029489929 -0.072815396
-0.13667485 -0.027021876 -0.0755063
-0.13649404 -0.033907723 -0.094315492
-0.13737926 -0.031833228 -0.087152697
-0.13673326 -0.038274497 -0.10513057
-0.13517649 -0.038679477 -0.1095663
-0.13517837 -0.037088279 -0.10530879
-0.13659398 -0.039731335 -0.11213148
-0.12836693 -0.044495076 -0.11039329
-0.1284833 -0.042561769 -0.10651525
-0.128371 -0.03057253 -0.083448172
-0.12889397 -0.029059166 -0.079884373
-0.12989379 -0.020612059 -0.062410325
-0.13051164 -0.013830001 -0.048667155
-0.13155258 -0.012844582 -0.0459399
-0.13177803 -0.010746985 -0.043138858
-0.13143937 -0.0094876261 -0.039912298
-0.13118143 -0.0091349436 -0.04107273
-0.12877549 -0.0011701128 -0.027202131
-0.12976348 -0.0089020757 -0.044323534
-0.12976155 -0.01869861 -0.068008013
-0.13126604 -0.027281268 -0.087717861
-0.1314725 -0.026059415 -0.088915303
-0.13137688 -0.028742192 -0.093263768
-0.13278729 -0.027150711 -0.091630377
-0.13382164 -0.023936914 -0.08626575
-0.12830865 -0.036515795 -0.095234334
-0.12810184 -0.023917299 -0.070886262
-0.12778474 -0.013850803 -0.051298503
-0.12831393 -0.012392545 -0.047793105
-0.1275903 0.00058743852 -0.023029726
-0.12724783 0.0046373606 -0.015652539
-0.12749967 0.0053597554 -0.014048572
-0.12603514 0.0076670866 -0.012372673
-0.12646717 0.0085154744 -0.0094903959
-0.12530336 0.0045664287 -0.021152185
-0.12557966 -0.0039937631 -0.042630956
-0.12805249 -0.012970733 -0.062807105
-0.13040861 -0.016550407 -0.071105868
-0.13366359 -0.017222369 -0.07239908
-0.13204086 -0.016420212 -0.070555724
-0.13662302 -0.016048837 -0.069388181
-0.12820734 -0.02990412 -0.082665905
-0.12788777 -0.020092117 -0.063744962
-0.12753624 -0.011458633 -0.047041658
-0.12724546 -0.0056324755 -0.035716828
-0.12703207 0.0010911488 -0.022529453
-0.12656888 0.0078818928 -0.0095561994
-0.12564796 0.016202088 0.0058535757
-0.12493302 0.019162605 0.010520327
-0.12447403 0.019498633 0.010381021
-0.12403259 0.014583454 -0.0018942138
-0.12429819 0.017204618 0.0046537379
-0.1246509 0.0074405414 -0.018745048
-0.12773187 -0.0055461293 -0.048296008
-0.12643635 -0.00050910556 -0.037321549
-0.13045135 -0.0083280373 -0.05412272
-0.13484816 -0.0079953261 -0.052458286
-0.14065026 -0.006023691 -0.045947284
-0.14585212 -0.0034654781 -0.038102672
-0.1272057 -0.006936139 -0.038355511
-0.12667407 0.0025294262 -0.020006293
-0.1259267 0.014582574 0.0033068152
-0.1249188 0.022044726 0.016960014
-0.12393707 0.026661044 0.024772722
-0.12350257 0.024062585 0.017642977
-0.12350257 0.024062585 0.017642977
-0.12418928 0.01782137 0.0025565687
-0.12738116 0.010133672 -0.014796944
-0.13377614 0.002990105 -0.028262842
-0.14088079 0.00093169184 -0.029921785
-0.14639783 0.0015758876 -0.026391074
-0.14363371 0.001357206 -0.027895011
-0.15181111 0.0038688467 -0.018633449
-0.153695 0.004668396 -0.016240278
-0.12690324 -0.002436267 -0.029669534
-0.1262334 0.0078571225 -0.0097075989
-0.12542604 0.017684706 0.009373161
-0.1250657 0.021891225 0.017450588
-0.12445885 0.027020933 0.027030861
-0.123385 0.032310169 0.036266916
-0.12298974 0.032428015 0.035001375
-0.12421437 0.026437709 0.021199854
-0.12945656 0.018172849 0.0042983429
-0.13868688 0.011333874 -0.0068944856
-0.13452388 0.012419538 -0.0064689736
-0.1433766 0.0084946975 -0.011464097
-0.14908317 0.0096761771 -0.0063193389
-0.15651175 0.012802576 0.0038673833
-0.16027972 0.014403843 0.0093688853
-0.12544796 0.016212184 0.0066268574
-0.1249117 0.022163639 0.018212201
-0.12416276 0.028233591 0.030057909
-0.12385579 0.031696893 0.036620572
-0.1227283 0.037566025 0.047201414
-0.12254206 0.038657252 0.048809566
-0.12374774 0.035647236 0.04167264
-0.12934384 0.026555516 0.02357107
-0.13716096 0.020077854 0.012628132
-0.14933062 0.018817194 0.015401544
-0.1556861 0.01835194 0.017009843
-0.16150384 0.020636275 0.024281878
-0.15959555 0.020521568 0.023605216
-0.16561916 0.023063524 0.031429581
-0.12451053 0.024286922 0.022536423
-0.12400893 0.029166933 0.032061305
-0.12325023 0.034861397 0.043280136
-0.12266519 0.038250923 0.04978434
-0.12193689 0.042567153 0.05812319
-0.12135834 0.045426819 0.063300692
-0.1231062 0.043620415 0.059865452
-0.12940435 0.036225419 0.046537023
-0.13790704 0.029280476 0.034986757
-0.15228206 0.024008848 0.029129734
-0.14826436 0.026279099 0.033126798
-0.15744974 0.024785072 0.033244915
-0.1643323 0.027784009 0.04263727
-0.16900016 0.030489344 0.050269384
-0.17399251 0.034996703 0.062041551
-0.12306289 0.034725204 0.043295756
-0.12219146 0.039809529 0.053494114
-0.12163753 0.042466342 0.058856349
-0.12134863 0.044979077 0.063649565
-0.12041042 0.049474895 0.072679691
-0.12137412 0.05009174 0.074675575
-0.12614132 0.045822117 0.068269394
-0.13720244 0.036186781 0.051667135
-0.14794335 0.032210894 0.047499172
-0.15750089 0.032132138 0.051125877
-0.16721 0.036277436 0.063366525
-0.17151292 0.038088664 0.06862355
-0.16824284 0.037068471 0.065554649
-0.17592935 0.043331407 0.08144062
-0.17799526 0.044770241 0.085194483
-0.12116932 0.042392526 0.059286442
-0.12106246 0.044266716 0.062825881
-0.1193607 0.049104452 0.073387705
-0.11952721 0.050196867 0.0751452
-0.11666075 0.056513865 0.089669749
-0.11788759 0.05470936 0.08520554
-0.11716395 0.058066603 0.093352154
-0.11985101 0.057440151 0.094543256
-0.13109867 0.050163414 0.08322832
-0.1467317 0.040746696 0.067237265
-0.16137689 0.039924994 0.070265763
-0.15899505 0.038146857 0.065749027
-0.16677673 0.042849012 0.078180127
-0.17236567 0.044906761 0.084096059
-0.17517437 0.049803384 0.095575467
-0.17903671 0.05184561 0.10145585
-0.11750845 0.053424399 0.083203383
-0.11835152 0.05174927 0.079273351
-0.11536444 0.057415612 0.092610598
-0.11454109 0.059589688 0.097387187
-0.11231747 0.063983947 0.10809946
-0.11267 0.065076619 0.11219369
-0.12046845 0.059821311 0.10396725
-0.13671465 0.05276715 0.092802092
-0.15406761 0.045483913 0.081112586
-0.16467182 0.047674548 0.088268392
-0.17072985 0.052016791 0.09959577
-0.17530017 0.054793451 0.10716271
-0.17289321 0.05320631 0.10298403
-0.17977512 0.057567418 0.11536035
-0.11543184 0.057068311 0.091965869
-0.11220711 0.062326737 0.10467315
-0.11180905 0.063223585 0.10667668
-0.11139104 0.064070903 0.10876875
-0.10975655 0.066473715 0.11509959
-0.11007144 0.066296242 0.11548517
-0.11202804 0.065659963 0.11576338
-0.12263029 0.061291274 0.10920254
-0.14412165 0.055935923 0.10253677
-0.16108797 0.053648204 0.10077478
-0.16031496 0.053334322 0.099796861
-0.16929303 0.055239875 0.10657103
-0.17477918 0.060409181 0.12017148
-0.17249118 0.058742318 0.11555937
-0.17683572 0.063033752 0.12668221
-0.17896752 0.066395357 0.13410589
-0.11063232 0.063367091 0.10795046
-0.10993057 0.064423144 0.11054586
-0.10892698 0.065779462 0.11388484
-0.10801368 0.066453226 0.1160963
-0.10788671 0.066975981 0.11771964
-0.10885502 0.065592751 0.11557403
-0.11309095 0.064484477 0.11409783
-0.12730934 0.061721966 0.11054484
-0.15237062 0.058656886 0.1098538
-0.16670099 0.060901687 0.11875205
-0.16986221 0.065149233 0.12828714
-0.17400225 0.070056371 0.13939139
-0.1701944 0.0671397 0.13241591
-0.17505446 0.072476581 0.14464132
-0.17826498 0.074088775 0.15003014
-0.10737311 0.065437548 0.11404018
-0.10729353 0.065381221 0.11391439
-0.10715813 0.065423891 0.11419487
-0.10685761 0.065780029 0.11515854
-0.1074523 0.065533467 0.1151729
-0.11035838 0.063921928 0.11170363
-0.11942944 0.063355625 0.11188771
-0.14070523 0.065421395 0.11976336
-0.15957633 0.066707835 0.12813543
-0.1580891 0.064538561 0.12342454
-0.16475607 0.070261031 0.13588911
-0.16689892 0.080155969 0.15454614
-0.16566518 0.076636769 0.14781523
-0.16815151 0.08255361 0.15992992
-0.17219552 0.085947409 0.16873227
-0.10688884 0.063597687 0.10972849
-0.10662963 0.063538641 0.10972594
-0.10643964 0.063590124 0.10977763
-0.10661384 0.063766569 0.11050456
-0.10790805 0.063311487 0.1091227
-0.11185263 0.063233174 0.1081922
-0.12496831 0.068410039 0.11814768
-0.14108746 0.072000563 0.13024972
-0.15600468 0.077043809 0.14431418
-0.15924352 0.083393671 0.15700693
-0.15874745 0.09568657 0.17774715
-0.15772495 0.09529981 0.17637323
-0.15703224 0.10755637 0.19778155
-0.10694268 0.06165294 0.10402054
-0.10711529 0.061612152 0.10340086
-0.10710562 0.061649431 0.10312269
-0.10706647 0.06175606 0.10337203
-0.10781777 0.06202998 0.10366781
-0.1122588 0.063687108 0.10575408
-0.11722 0.068409503 0.11314475
-0.13127674 0.0758738 0.13072076
-0.14806287 0.088964567 0.160384
-0.14571273 0.084727474 0.1519421
-0.14934902 0.096287519 0.17368294
-0.1476005 0.10943007 0.19475795
-0.14410561 0.12330369 0.21647482
-0.14129622 0.13416491 0.23354562
-0.1070251 0.061634254 0.10417394
-0.10809826 0.061207879 0.099286154
-0.10829043 0.06177073 0.099631503
-0.10863435 0.06238224 0.099683017
-0.10851511 0.062102851 0.099476084
-0.11013998 0.065006666 0.10275122
-0.11357646 0.070270605 0.11023292
-0.12520809 0.081090651 0.13384399
-0.13639893 0.091037944 0.15665555
-0.13915618 0.11230332 0.19459821
-0.13795288 0.10189296 0.17551345
-0.13800721 0.12530456 0.21550675
-0.13018027 0.14675234 0.24684191
-0.13264175 0.13522555 0.22886565
-0.129614 0.15353377 0.25822377
-0.10824851 0.061180729 0.099022426
-0.1106376 0.065353215 0.099434689
-0.1110098 0.066435024 0.10020185
-0.11136362 0.067795701 0.10211211
-0.11447561 0.075404257 0.11378498
-0.11922196 0.085445568 0.13278903
-0.12698933 0.099614918 0.16371234
-0.12992729 0.11658192 0.19358206
-0.12975219 0.13588849 0.22726332
-0.12455072 0.1560557 0.25792319
-0.12000068 0.16700894 0.27337393
-0.12343016 0.1694188 0.28148085
-0.11015937 0.063948631 0.098517001
-0.11015902 0.064166591 0.098709986
-0.11799843 0.091736794 0.14044897
-0.12156912 0.10411648 0.16358565
-0.12287051 0.12658806 0.20326327
-0.1193231 0.15472509 0.24945402
-0.12010168 0.14691111 0.23674099
-0.11579031 0.17228873 0.27776784
-0.11627796 0.17920688 0.29140165
-0.11089347 0.19504787 0.31461129
-0.11353198 0.073834427 0.10704192
-0.11336768 0.073301785 0.10641985
-0.11534435 0.077342466 0.10844428
-0.11497355 0.080331363 0.11446786
-0.11573084 0.084584922 0.12084175
-0.11673852 0.095064797 0.13847062
-0.11812419 0.10994158 0.1654771
-0.1161776 0.13487071 0.20724349
-0.1138586 0.16071042 0.25239849
-0.10780501 0.1856188 0.29110479
-0.10734757 0.19658025 0.31258592
-0.11088536 0.18742497 0.29983258
-0.10474852 0.20508868 0.32516158
-0.096766829 0.22371623 0.34998339
-0.11800594 0.093174115 0.12961879
-0.11979754 0.099327296 0.13600276
-0.11979416 0.09819635 0.13394362
-0.1182531 0.096803688 0.135048
-0.11827266 0.10716892 0.15165892
-0.11726439 0.11694505 0.16907847
-0.11327369 0.14420414 0.21740295
-0.10962013 0.16548209 0.25294062
-0.10510586 0.18826526 0.2909385
-0.10053046 0.20781022 0.3231298
-0.093735531 0.22603962 0.34816635
-0.086675845 0.24221098 0.3689447
-0.077671267 0.258129 0.38663161
-0.12213338 0.12355752 0.17147619
-0.1229436 0.12550746 0.17312849
-0.12086399 0.12113123 0.16822875
-0.12050941 0.11893751 0.16538817
-0.11730506 0.12514247 0.17836142
-0.11301854 0.14534841 0.21324496
-0.10692134 0.17184854 0.25843802
-0.10025371 0.20309323 0.31255457
-0.10056075 0.19282418 0.29121411
-0.095091134 0.21878131 0.33518758
-0.086029485 0.23947591 0.36141762
-0.07649374 0.2581459 0.38310578
-0.12402518 0.13956708 0.19421709
-0.12346306 0.14258325 0.19874322
-0.12147061 0.13271269 0.18496911
-0.11881367 0.13426912 0.18928356
-0.11384007 0.14523174 0.20999098
-0.10683131 0.16748142 0.24798813
-0.095980749 0.20646507 0.31063566
-0.084740885 0.23727039 0.35369742
-0.092485294 0.2165636 0.32518727
-0.07494089 0.25805283 0.37915787
-0.066542991 0.27310449 0.39565861
-0.059246112 0.28821927 0.41551229
-0.12501813 0.1502125 0.20979443
-0.12253538 0.14259894 0.19880241
-0.11876921 0.14418395 0.20239174
-0.11707174 0.14653514 0.20737854
-0.11616776 0.14260569 0.20192081
-0.095169164 0.20526281 0.3061215
-0.084148444 0.23585972 0.34908852
-0.067720301 0.26990825 0.3900882
-0.060226161 0.28441045 0.40772882
-0.045547523 0.30595788 0.42758271
-0.036596321 0.31888622 0.43912143
-0.12329572 0.14861086 0.20772977
-0.12250631 0.1441682 0.2011853
-0.1091271 0.15699431 0.22810306
-0.10054268 0.18272275 0.26870659
-0.082140759 0.23707131 0.34746826
-0.061235886 0.28207996 0.4025209
-0.065574393 0.27151319 0.38891074
-0.046312802 0.30333984 0.42293903
-0.037068114 0.31792444 0.43725955
-0.018213024 0.33943841 0.45191327
-0.043577995 0.30802524 0.4269723
-0.024563123 0.33099931 0.44426814
-0.018126372 0.33851776 0.4494637
-0.00280366 0.35540619 0.46067083
-0.0066509563 0.35209551 0.45929033
0.015407275 0.37258902 0.46809831
