# .PCD v0.7 - Point Cloud Data file format
VERSION 0.7
FIELDS x y z
SIZE 4 4 4
TYPE F F F
COUNT 1 1 1
WIDTH 2922
HEIGHT 1
VIEWPOINT 0 0 0 1 0 0 0
POINTS 2922
DATA ascii
-50.820198 -71.198807 -3.2752886
-50.756187 -70.19426 -3.2433434
-50.765663 -69.307724 -3.2167132
-50.729511 -68.374306 -3.1877782
-50.761852 -67.547813 -3.163707
-50.751011 -66.677551 -3.1374729
-50.691326 -65.75798 -3.1087806
-50.618481 -64.836807 -3.0798566
-50.65192 -64.065338 -3.0579164
-50.657146 -63.270081 -3.0347366
-50.644249 -62.464531 -3.010947
-50.580738 -61.609566 -2.9846394
-50.581219 -60.845032 -2.9625819
-50.594105 -60.10643 -2.9416795
-50.555435 -59.317875 -2.9182136
-50.538387 -58.566116 -2.8964317
-50.589008 -57.902637 -2.8789163
-50.51355 -57.105259 -2.8546276
-50.489864 -56.377602 -2.8336864
-50.474213 -55.668995 -2.8135841
-50.458984 -54.970573 -2.7938805
-50.473846 -54.313984 -2.7761979
-50.431988 -53.605534 -2.7557521
-50.413139 -52.930943 -2.7369235
-50.437656 -52.310215 -2.720778
-50.383968 -51.616894 -2.7007458
-50.400509 -51.00396 -2.6848063
-50.376198 -50.357563 -2.6670012
-50.317955 -49.685833 -2.6477275
-50.34169 -49.127136 -2.6390789
-50.280674 -48.468834 -2.6202397
-50.306797 -47.901997 -2.6062348
-50.260445 -47.273254 -2.5887568
-50.271851 -46.705959 -2.5745347
-50.294861 -46.155602 -2.5611608
-50.251804 -45.551247 -2.5446875
-50.29752 -45.033577 -2.5329616
-51.149948 -40.896248 -0.77987385
-50.230206 -44.421055 -2.5157983
-51.066162 -40.318119 -0.7748099
-50.234291 -43.878345 -2.5024712
-51.048931 -39.798466 -0.77082872
-50.243885 -43.346107 -2.4896526
-51.009796 -39.267117 -0.76658517
-50.199757 -42.77359 -2.4744143
-51.024292 -38.782001 -0.76321238
-50.203171 -42.247562 -2.4617581
-51.021694 -38.288391 -0.7596451
-50.146049 -41.676598 -2.4463713
-50.995487 -37.781841 -0.75578904
-50.181664 -41.188232 -2.4357333
-50.963249 -37.275787 -0.75190729
-50.143307 -40.644367 -2.421721
-50.961086 -36.796364 -0.74853009
-50.155724 -40.147003 -2.410378
-50.880753 -36.265476 -0.74406755
-50.092018 -39.594173 -2.3955956
-51.059433 -44.548122 -4.2125459
-50.956234 -35.849819 -0.74194056
-50.110611 -39.111694 -2.3849623
-50.878643 -43.843475 -4.1753564
-50.911438 -35.353294 -0.73811591
-50.096565 -38.608437 -2.3729742
-50.766457 -43.206841 -4.1443148
-50.857784 -34.855457 -0.73422348
-50.062138 -38.094574 -2.3602266
-50.688229 -42.606731 -4.116509
-50.931374 -34.448509 -0.73222041
-50.111042 -37.648518 -2.3515968
-50.639168 -42.037949 -4.0914989
-50.887325 -33.965523 -0.72857738
-50.043232 -37.119385 -2.3376822
-50.605194 -41.4879 -4.068109
-50.809925 -33.465031 -0.72451544
-50.01519 -36.625015 -2.3258309
-50.63998 -40.999447 -4.0506053
-50.776264 -32.99794 -0.72113472
-50.042526 -36.17543 -2.3167362
-50.561405 -40.424759 -4.0244036
-50.79998 -32.571754 -0.71861959
-50.059536 -35.722103 -2.3073328
-50.540165 -39.901905 -4.00315
-50.847115 -32.163441 -0.71648109
-50.012985 -35.22776 -2.2951808
-50.560081 -39.416439 -3.9854956
-50.774231 -31.682816 -0.71270132
-50.029591 -34.782143 -2.2861056
-50.521576 -38.890385 -3.9635749
-50.81086 -31.274153 -0.71050853
-50.006615 -34.31295 -2.2753921
-50.430889 -38.330082 -3.9379342
-50.782383 -30.828592 -0.70745182
-49.935963 -33.815685 -2.2626929
-50.431992 -37.84499 -3.9198146
-50.72979 -30.372246 -0.70410961
-49.954235 -33.382828 -2.2541971
-50.398746 -37.338867 -3.8993495
-50.718723 -29.944407 -0.70139253
-49.982281 -32.959728 -2.2462943
-50.388252 -36.85437 -3.8809683
-50.670544 -29.498182 -0.69821006
-49.882954 -32.456818 -2.2328377
-50.382111 -36.377472 -3.86323
-50.71381 -29.10821 -0.69633198
-49.917965 -32.045357 -2.2255616
-50.38578 -35.911854 -3.8465426
-50.690857 -28.682976 -0.69358718
-49.891872 -31.598005 -2.2157123
-50.35228 -35.424088 -3.8273191
-50.623962 -28.236458 -0.69028825
-49.935162 -31.197779 -2.2090917
-50.295994 -34.925106 -3.80668
-50.691784 -27.86788 -0.68886852
-49.901245 -30.752502 -2.1992018
-50.252357 -34.439713 -3.7873118
-50.670708 -27.45277 -0.68628007
-49.889954 -30.324762 -2.1904631
-50.275288 -34.003944 -3.7732441
-50.636089 -27.03344 -0.68355167
-49.87664 -29.899111 -2.1817825
-50.193405 -33.501541 -3.7516
-50.63974 -26.6374 -0.6813817
-49.876682 -29.484642 -2.1738293
-50.152584 -33.031281 -3.7333298
-50.582603 -26.212364 -0.67843592
-49.794445 -29.025202 -2.162442
-50.199486 -32.622307 -3.7218502
-50.604023 -25.830822 -0.67658466
-49.880215 -28.666599 -2.1584873
-50.191936 -32.181103 -3.7065806
-50.646137 -25.461805 -0.67504615
-49.847637 -28.242416 -2.149538
-50.17981 -31.740549 -3.6912327
-50.64782 -25.074524 -0.67300516
-49.760998 -27.791376 -2.1384079
-50.173546 -31.30723 -3.6765726
-50.595428 -24.66321 -0.67028546
-49.824856 -27.427324 -2.1338799
-50.162376 -30.874252 -3.6618032
-50.549294 -24.257994 -0.6676898
-49.812572 -27.023632 -2.1262121
-50.121979 -30.426924 -3.6451564
-50.617275 -23.909626 -0.66663736
-49.817471 -26.631954 -2.1194062
-50.121391 -30.00725 -3.6316547
-50.619617 -23.531921 -0.66475397
-49.759609 -26.209723 -2.1100628
-50.005077 -29.522327 -3.6100335
-50.50964 -23.104961 -0.66143548
-49.762455 -25.82242 -2.103425
-50.069592 -29.147598 -3.6017113
-50.582142 -22.763859 -0.66054338
-49.769653 -25.439766 -2.0970914
-50.108051 -28.759794 -3.5917163
-50.506329 -22.358107 -0.65774947
-49.762054 -25.051968 -2.090255
-50.108177 -28.352547 -3.5791876
-50.447006 -21.962645 -0.65520954
-49.750809 -24.664858 -2.0833864
-50.041481 -27.910851 -3.5621233
-50.498585 -21.617493 -0.65414435
-49.739628 -24.280247 -2.0766401
-50.031357 -27.50408 -3.5493226
-50.508133 -21.255827 -0.65256625
-49.73373 -23.900616 -2.0702322
-50.009331 -27.093718 -3.5358994
-50.460556 -20.87228 -0.65028459
-49.693439 -23.507015 -2.0625119
-49.997547 -26.691816 -3.5234199
-50.490883 -20.522923 -0.64904034
-49.720135 -23.147371 -2.0576863
-49.989277 -26.294533 -3.5114009
-50.490726 -20.162758 -0.64743572
-49.710148 -22.772646 -2.0514514
-49.974442 -25.896517 -3.4991317
-50.465641 -19.79458 -0.64554447
-49.69574 -22.398153 -2.0451467
-50.011776 -25.527819 -3.4907122
-50.451546 -19.432711 -0.64382678
-49.65543 -22.014416 -2.0378902
-49.951488 -25.111891 -3.4756839
-50.414768 -19.064142 -0.64185262
-49.616394 -21.633808 -2.0308018
-49.900356 -24.703793 -3.4615138
-50.4538 -18.725866 -0.64087462
-49.636768 -21.281185 -2.026253
-49.971546 -24.358416 -3.4560187
-50.43446 -18.367392 -0.63918531
-49.661411 -20.931963 -2.0219779
-49.956509 -23.972849 -3.4447408
-50.38559 -18.000202 -0.63715416
-49.685989 -20.584209 -2.0177979
-49.942993 -23.59045 -3.4337628
-50.412601 -17.661818 -0.63611341
-49.605244 -20.195042 -2.0094488
-49.919868 -23.205959 -3.4223187
-50.40361 -17.312174 -0.63464761
-49.640682 -19.855274 -2.0059111
-49.975975 -22.86018 -3.4164844
-50.366077 -16.954504 -0.63285315
-49.611984 -19.491552 -1.9998813
-49.940235 -22.474319 -3.4045494
-50.379658 -16.615623 -0.63173091
-49.59269 -19.133543 -1.9943333
-49.958324 -22.114849 -3.3964682
-50.34082 -16.261015 -0.62998086
-49.647907 -18.805687 -1.9918759
-49.901257 -21.724382 -3.383462
-50.37888 -15.932604 -0.62922192
-49.604267 -18.441919 -1.9855478
-49.881886 -21.352835 -3.3732014
-50.318977 -15.574677 -0.62726831
-49.584579 -18.089083 -1.9802796
-49.872936 -20.987854 -3.3638241
-50.318981 -15.236982 -0.62609106
-49.598507 -17.750095 -1.9764488
-49.863415 -20.62464 -3.3545833
-50.300011 -14.894921 -0.62470609
-49.567448 -17.396631 -1.9709203
-49.911488 -20.286779 -3.3493798
-50.307384 -14.561958 -0.62367618
-49.583591 -17.061308 -1.9673625
-49.875443 -19.91642 -3.3386972
-50.293625 -14.22411 -0.62241191
-49.571606 -16.717714 -1.9627798
-49.889484 -19.567957 -3.331537
-50.270008 -13.884877 -0.62105352
-49.549606 -16.372377 -1.9578942
-49.857468 -19.203257 -3.3214679
-50.337444 -13.57163 -0.62084615
-49.498207 -16.019194 -1.9519424
-49.846989 -18.848812 -3.3130023
-50.276688 -13.224873 -0.6190843
-49.528114 -15.693803 -1.9492878
-49.881145 -18.512703 -3.3076606
-50.202026 -12.876423 -0.61718053
-49.515751 -15.356197 -1.945056
-49.813984 -18.140804 -3.2957637
-50.273453 -12.566487 -0.61709905
-49.547314 -15.033356 -1.9426358
-49.820267 -17.797626 -3.2888923
-50.251007 -12.23377 -0.61589044
-49.551167 -14.703118 -1.9392132
-49.791077 -17.443443 -3.2798376
-50.282822 -11.915181 -0.61537272
-49.50909 -14.360698 -1.9340816
-49.83075 -17.114788 -3.2754719
-50.211479 -11.573349 -0.61361897
-49.553101 -14.044408 -1.9323981
-49.79002 -16.759966 -3.2659731
-50.194363 -11.245506 -0.61255509
-49.536304 -13.711844 -1.9284257
-49.810371 -16.42725 -3.2606349
-50.219028 -10.927864 -0.61202621
-49.494995 -13.373994 -1.9235866
-49.761208 -16.073174 -3.2508993
-50.180183 -10.597355 -0.61074883
-49.500263 -13.050045 -1.9206432
-49.786011 -15.744506 -3.2461474
-50.231499 -10.28664 -0.61059368
-49.486748 -12.72225 -1.9170537
-49.735741 -15.393557 -3.2366502
-51.113823 -18.246996 0.66890204
-50.166538 -9.9530087 -0.60905021
-49.483227 -12.398157 -1.9139342
-49.765461 -15.068776 -3.2325063
-51.086575 -17.884623 0.66709679
-50.206524 -9.6411362 -0.60880595
-49.487797 -12.077077 -1.9112087
-49.789986 -14.743299 -3.2281623
-51.020576 -17.510839 0.65809554
-50.129372 -9.3077593 -0.60716641
-49.531715 -11.766248 -1.9100807
-49.75835 -14.402443 -3.2203207
-51.089962 -17.184986 0.65761805
-50.22303 -9.0067186 -0.60762006
-49.468952 -11.431133 -1.9049195
-49.797901 -14.083318 -3.2172272
-51.031334 -16.817427 0.66222042
-50.085369 -8.6651716 -0.60529989
-49.446262 -11.106741 -1.9013858
-49.77026 -13.746256 -3.2099316
-51.064236 -16.481611 0.66132259
-50.112385 -8.3534994 -0.60499555
-49.439701 -10.787036 -1.8985525
-49.742298 -13.410585 -3.2027607
-51.032349 -16.126245 0.65961564
-50.134785 -8.0413799 -0.6046589
-49.445377 -10.470871 -1.8962675
-49.684116 -13.068419 -3.1937916
-51.021835 -15.779257 0.65821588
-50.069927 -7.7161527 -0.60329425
-49.471786 -10.159702 -1.8948539
-49.759483 -12.76232 -3.193542
-51.002304 -15.430983 0.65673012
-50.070911 -7.4020691 -0.6027475
-49.49892 -9.8491364 -1.8935429
-49.726231 -12.429109 -3.1864533
-50.924942 -15.067128 0.65453112
-50.039257 -7.0839229 -0.60183191
-49.466141 -9.5274572 -1.8900169
-49.725906 -12.105343 -3.181613
-50.973614 -14.741992 0.64736754
-50.024708 -6.7690301 -0.6011461
-49.445004 -9.2091074 -1.8870147
-49.70277 -11.777142 -3.1754491
-50.911999 -14.386244 0.64545178
-50.054623 -6.4605775 -0.60101783
-49.44838 -8.8961525 -1.8850249
-49.696434 -11.454048 -3.1704943
-50.940086 -14.057238 0.6447022
-50.061859 -6.1494613 -0.60064036
-49.43354 -8.5806856 -1.8824166
-49.661167 -11.125477 -3.1638298
-50.917068 -13.715235 0.64333361
-49.978065 -5.8281093 -0.59919471
-49.409874 -8.264595 -1.8795489
-49.702412 -10.814875 -3.1621702
-50.92366 -13.382424 0.64236736
-50.002701 -5.5202146 -0.59907264
-49.434704 -7.9572496 -1.8786008
-49.665077 -10.488003 -3.1556411
-50.932449 -13.051166 0.64145601
-50.028458 -5.2125511 -0.59898674
-49.42947 -7.6455555 -1.8765838
-49.680408 -10.173218 -3.1525896
-50.925411 -12.716887 0.64037251
-50.029938 -4.9025869 -0.59863305
-49.355507 -7.3243175 -1.8720342
-49.730732 -9.8659782 -3.1518822
-50.855118 -12.368348 0.63852227
-49.972679 -4.587584 -0.5975998
-49.396706 -7.0209384 -1.8719275
-49.639503 -9.5316877 -3.1423342
-50.907616 -12.050761 0.63824099
-49.961205 -4.2775588 -0.59713757
-49.373852 -6.7088799 -1.8694663
-49.695335 -9.2266054 -3.1422255
-50.839249 -11.705626 0.63647139
-49.940685 -3.9672923 -0.5965901
-49.349514 -6.3974299 -1.8670233
-49.681751 -8.9090862 -3.1378508
-50.821907 -11.373719 0.63536865
-49.97879 -3.661864 -0.59676564
-49.409721 -6.0972185 -1.8678507
-49.614868 -8.5832109 -3.1302414
-50.775909 -11.036707 0.63393497
-49.915226 -3.3494201 -0.59575003
-49.337536 -5.7811971 -1.8637457
-49.65538 -8.2767467 -3.1295345
-50.842503 -10.724908 0.63393283
-49.863632 -3.038743 -0.59490049
-49.411316 -5.4827118 -1.8652269
-49.662285 -7.965023 -3.1268303
-50.764854 -10.383594 0.63215834
-49.904156 -2.7339776 -0.5951727
-49.357677 -5.1703801 -1.8619694
-49.651596 -7.6511154 -3.1231427
-50.804943 -10.067418 0.63187641
-49.928989 -2.4281566 -0.59527993
-49.334003 -4.8620605 -1.8599159
-49.604652 -7.3325739 -3.1173012
-50.736897 -9.7307806 0.63027561
-49.968563 -2.1228397 -0.59558523
-49.329533 -4.5561781 -1.8586584
-49.600578 -7.0212526 -3.114279
-50.797714 -9.4390202 0.62713611
-50.029087 -1.8179575 -0.59616244
-49.349579 -4.252809 -1.8583953
-49.62875 -6.7148976 -3.1134024
-50.700752 -9.0995274 0.62523794
-50.050571 -1.5112901 -0.59629673
-49.285038 -3.9427485 -1.855019
-49.598328 -6.4011307 -3.1089711
-50.723686 -8.7827301 0.62484443
-49.985485 -1.2023902 -0.59542221
-49.329502 -3.6418314 -1.8558166
-49.602501 -6.092483 -3.1068311
-50.688492 -8.4566259 0.62375993
-50.019718 -0.89615953 -0.59575319
-49.297531 -3.3354695 -1.853809
-49.592567 -5.7826037 -3.1039281
-50.667355 -8.1338778 0.6228739
-50.036362 -0.58936894 -0.5958972
-49.275776 -3.0303826 -1.8522568
-49.595688 -5.4747305 -3.1019623
-50.709076 -7.8217182 0.62278503
-50.027233 -0.28227299 -0.59575659
-49.344856 -2.7308197 -1.8541887
-49.590454 -5.1663651 -3.0995939
-50.977329 -7.8454642 -4.5125046
-50.631054 -7.4919319 0.62125057
-50.027092 0.024685323 -0.59574556
-49.334328 -2.4266965 -1.8531985
-49.515949 -4.8516712 -3.0930178
-50.626328 -7.1740746 0.62064075
-50.080921 0.33199838 -0.59639961
-49.312714 -2.1224091 -1.8518627
-49.577904 -4.5507946 -3.0950856
-50.951408 -7.2025704 -4.5020471
-50.62859 -6.8577752 0.62014097
-50.091755 0.63946009 -0.59656411
-49.284828 -1.8183278 -1.8503616
-49.556316 -4.2423453 -3.0920548
-50.948078 -6.8835101 -4.4979358
-50.604862 -6.5386138 0.61934721
-50.099258 0.94703996 -0.59671146
-49.273586 -1.5152265 -1.8495556
-49.537281 -3.9346874 -3.0893023
-50.870781 -6.5554886 -4.4874763
-50.563278 -6.2180543 0.61835968
-50.123634 1.2552059 -0.59708226
-49.29636 -1.2132145 -1.8500962
-49.596973 -3.6333299 -3.0915763
-50.856609 -6.2366734 -4.4827657
-50.548824 -5.9016547 0.61772847
-50.106236 1.562463 -0.59697795
-49.299183 -0.91064578 -1.8499577
-49.589539 -3.3270075 -3.0897822
-50.827354 -5.9167562 -4.4769025
-50.627689 -5.5962009 0.61826092
-50.232677 1.8749933 -0.59861022
-49.256237 -0.60754651 -1.8481715
-49.588459 -3.0214157 -3.0885017
-50.857086 -5.6041541 -4.476408
-50.516544 -5.27037 0.61649704
-50.339867 2.1883819 -0.60003632
-49.311596 -0.30562937 -1.8501433
-49.582687 -2.7158086 -3.0870464
-50.492767 -4.9548931 0.61582428
-50.448421 2.5033209 -0.601502
-49.353745 -0.0030550663 -1.8516892
-49.586899 -2.4109747 -3.0863295
-50.751999 -4.9630089 -4.4614615
-50.527756 -4.6454902 0.61589175
-50.501133 2.8166699 -0.60232526
-49.381008 0.29993722 -1.8527461
-49.578838 -2.1057379 -3.0849655
-50.541843 -4.3154607 0.62518114
-50.853832 3.1494594 -0.60675097
-49.34024 0.60246468 -1.8513206
-49.563805 -1.8005058 -3.0832844
-50.71439 -4.3317523 -4.4531469
-50.525322 -4.0019293 0.62466127
-49.401066 0.90640104 -1.8537765
-49.530357 -1.4950384 -3.0805752
-50.723392 -4.0191755 -4.4516878
-50.491673 -3.6876664 0.62395382
-49.42083 1.2101469 -1.854762
-49.503147 -1.1902443 -3.0783703
-50.66769 -3.702064 -4.4447222
-50.498837 -3.3768146 0.62377453
-49.466812 1.5150298 -1.8568015
-49.469563 -0.88576019 -3.0758862
-50.687325 -3.3909602 -4.4445353
-50.4916 -3.0652556 0.61713564
-49.47216 1.8190976 -1.8573864
-49.418602 -0.58155036 -3.072438
-50.601246 -3.0734499 -4.4352508
-50.54063 -2.757087 0.61751652
-49.44717 2.1220665 -1.8569022
-49.442097 -0.27842915 -3.0737345
-50.598194 -2.7617638 -4.4334145
-50.499828 -2.444175 0.62312537
-49.426056 2.425066 -1.8566329
-49.40097 0.024918163 -3.0711296
-50.603878 -2.450747 -4.4325113
-50.555706 -2.1360345 0.62364137
-49.477169 2.7319891 -1.8591478
-49.359249 0.32776734 -3.068603
-50.572506 -2.1382785 -4.4285307
-50.53603 -1.82464 0.62324882
-49.551815 3.0411923 -1.8626188
-49.368 0.63077408 -3.06933
-50.632141 -1.8296454 -4.4326863
-50.680122 -1.5185319 0.62489915
-49.559277 3.3470068 -1.8636361
-49.495316 0.93617833 -3.0775447
-50.54821 -1.5161115 -4.4244404
-50.688015 -1.2075239 0.62489337
-49.552944 3.6521504 -1.8642055
-49.389801 1.2373829 -3.071398
-50.464436 -1.2037265 -4.416378
-50.792339 -0.89821523 0.62609977
-49.601734 3.9618955 -1.8669206
-49.338253 1.5390683 -3.068722
-50.446598 -0.89362913 -4.4142542
-50.902229 -0.58775783 0.62739807
-49.607056 4.2688022 -1.8680714
-49.419834 1.8451958 -3.0744424
-50.394512 -0.58342135 -4.4093003
-51.026245 -0.27607229 0.62889397
-49.653721 4.5799122 -1.8708518
-49.401558 2.1481345 -3.0740678
-50.388268 -0.27415833 -4.4085236
-49.673855 4.8893361 -1.8667778
-49.352276 2.4494712 -3.081502
-50.387127 0.035014156 -4.4105678
-49.672451 5.1971278 -1.8678881
-49.382061 2.7547977 -3.0843589
-50.420818 0.34442204 -4.4136186
-49.733315 5.5121989 -1.8773561
-49.396969 3.0597777 -3.076766
-50.351795 0.65293741 -4.4056377
-49.729881 5.8209205 -1.8785394
-49.397224 3.3641739 -3.0780096
-50.362549 0.96217889 -4.4070125
-49.693623 6.1259975 -1.8785543
-49.377968 3.6673791 -3.0781538
-50.36631 1.2714484 -4.4079413
-49.692913 6.4356947 -1.879985
-49.409958 3.9747469 -3.0816107
-50.371727 1.5809119 -4.4091816
-49.751045 6.7538514 -1.8837165
-49.341949 4.2741489 -3.0789468
-50.418476 1.8921123 -4.4142065
-49.683231 7.0553803 -1.8827528
-49.387589 4.5835814 -3.0834918
-50.325581 2.1979306 -4.4071712
-49.727821 7.3732681 -1.8861213
-49.361145 4.8867917 -3.0836549
-50.312527 2.5067508 -4.4072919
-49.705391 7.6819243 -1.887023
-49.430264 5.2000976 -3.0899076
-50.363762 2.8191986 -4.4132123
-49.736252 7.9994621 -1.8900223
-49.406689 5.5043311 -3.0904872
-50.349434 3.1284158 -4.4135556
-49.766376 8.3178835 -1.8930709
-49.414906 5.8124185 -3.093174
-50.330296 3.4373648 -4.4136438
-49.725555 8.6250229 -1.8934957
-49.417145 6.1203241 -3.0956066
-50.341137 3.7485702 -4.4165287
-49.787678 8.9508228 -1.8979169
-49.417454 6.4284739 -3.0980384
-50.38023 4.062459 -4.4220619
-49.76062 9.261507 -1.899016
-49.445347 6.74088 -3.1023216
-50.464573 4.3810792 -4.4317412
-49.721058 9.5701628 -1.8997114
-49.450855 7.0509615 -3.1053236
-50.412651 4.6884027 -4.429625
-49.784145 9.8994741 -1.9044069
-49.501789 7.3684139 -3.1113024
-50.439381 5.0032401 -4.4345875
-49.73288 10.206895 -1.9048057
-49.435467 7.6688833 -3.110033
-50.398952 5.3117118 -4.433815
-49.79026 10.537456 -1.9094441
-49.50032 7.9902844 -3.1171389
-50.467613 5.6322608 -4.442812
-49.75724 10.849868 -1.9106948
-49.406006 8.2864246 -3.1143429
-50.64323 5.9666934 -4.4614115
-49.774536 11.173995 -1.9139557
-49.461555 8.6080971 -3.1211152
-50.728214 6.2925248 -4.4722152
-50.031185 11.55452 -1.9265146
-49.492546 8.9267101 -3.1264682
-49.802902 11.824145 -1.9204818
-49.468815 9.2361927 -3.1284904
-49.739716 12.132022 -1.9208796
-49.458176 9.5486212 -3.1314638
-45.44492 13.810052 -0.56561512
-49.78331 12.466784 -1.9254812
-49.51506 9.8751287 -3.1388433
-45.381691 13.799028 -5.3517318
-49.792667 12.794316 -1.9288431
-49.419537 10.171752 -3.1366851
-43.421455 13.779428 -0.5424946
-49.776764 13.116342 -1.9313084
-49.524765 10.510569 -3.1473978
-49.782024 13.444929 -1.934677
-49.461079 10.814631 -3.1475086
-42.539112 13.795058 -5.045609
-49.741512 13.762008 -1.9363477
-49.450909 11.130773 -3.1511486
-40.846004 13.782154 -0.5250383
-49.785534 14.104269 -1.9189136
-49.732525 11.50533 -3.1783922
-50.930099 9.1660852 -4.508523
-40.786263 13.782589 -4.8440471
-40.04417 13.785855 -0.51580906
-49.781254 14.433606 -1.9221261
-39.229946 13.77535 -0.50640023
-49.812801 14.774692 -1.9268085
-49.471561 12.086412 -3.1709552
-38.524899 13.793886 -0.49838227
-45.488258 13.796238 -1.7627721
-49.454834 12.404377 -3.1747017
-45.430161 13.797924 -6.5428591
-44.449757 13.779657 -1.7257719
-49.528297 12.746315 -3.1843781
-37.764496 13.803039 -4.5240426
-44.440708 13.795808 -6.4124289
-39.914909 14.571128 -9.1208944
-37.046959 13.779919 -0.48141423
-49.457748 13.052243 -3.1849318
-37.06358 13.805236 -4.4501395
-43.451168 13.781492 -6.2817302
-39.175507 14.574233 -8.9722023
-36.36842 13.782144 -0.47368687
-42.633892 13.792417 -1.6617172
-49.45121 13.375611 -3.1897359
-42.578415 13.792785 -6.1676755
-38.452438 14.57445 -8.8269157
-41.815083 13.814427 2.7376671
-35.730183 13.791589 -0.4664675
-49.497822 13.714701 -3.1981103
-35.639206 13.775044 -4.2990928
-41.700665 13.791737 -6.0526733
-40.992691 13.822287 2.6893263
-35.070526 13.784807 -0.45895112
-49.521099 14.048898 -3.2051237
-35.051418 13.795641 -4.2383199
-40.832798 13.783229 -5.9388704
-36.889721 14.502327 -8.5084028
-40.107517 13.798465 2.6367595
-34.479298 13.797261 -0.45231336
-49.509926 14.374544 -3.2100489
-34.450417 13.803822 -4.1758118
-40.030231 13.786501 -5.8343358
-36.109665 14.452099 -8.3487835
-38.905514 15.566307 -13.462379
-39.346745 13.8073 2.5922654
-33.844734 13.784853 -0.44509009
-39.313072 13.792727 -1.5450151
-49.525673 14.70921 -3.2168612
-33.812428 13.789565 -4.1086583
-35.224018 14.34901 -8.1642189
-38.169754 15.544297 -13.240541
-38.572437 13.801987 2.5467839
-33.237968 13.776097 -0.43821397
-38.569069 13.798062 -1.5190744
-45.449661 13.802662 -2.9575558
-33.199459 13.777773 -4.0443716
-38.493862 13.788065 -5.6346512
-37.571186 15.569982 -13.065802
-37.807552 13.79056 2.5018213
-44.544098 13.803292 1.7594764
-44.466778 13.802739 -2.8990531
-32.668995 13.79321 -3.9899852
-37.807846 13.804673 -5.5465283
-37.235477 15.699257 -12.982311
-37.139698 13.805744 2.4631867
-32.133575 13.782826 -0.42585152
-37.084869 13.782727 -1.4671694
-43.501602 13.796346 -2.841593
-32.086529 13.779868 -3.9290988
-36.82621 15.793527 -12.873163
-50.785225 22.126255 4.8480353
-36.438965 13.800332 2.4222832
-31.605511 13.786545 -0.41996652
-36.41087 13.787093 -1.4438242
-31.563934 13.78544 -3.8753908
-36.376652 13.79033 -5.3609924
-31.735962 13.845628 -7.4322982
-36.576275 15.952751 -12.819771
-50.271832 22.270586 4.8119807
-31.053715 13.773258 -0.41374958
-35.766605 13.794656 -1.4216064
-41.699669 13.790305 -2.7347372
-31.049067 13.788041 -3.8224916
-31.126162 13.80754 -7.3091917
-36.306351 16.100889 -12.759551
-50.054214 22.542589 4.8042998
-35.05827 13.789246 2.346648
-40.925022 13.791387 1.6294065
-30.573013 13.785158 -0.40846416
-35.109886 13.789436 -1.3988407
-30.549938 13.791427 -3.7713907
-35.051945 13.782434 -5.1903009
-40.932945 13.794566 -7.0602202
-30.59704 13.798124 -7.2046871
-36.093842 16.272398 -12.719718
-49.805073 22.798994 4.7937241
-34.425819 13.784994 2.3099325
-40.112103 13.792086 1.6003797
-30.110947 13.799756 -0.40341452
-34.519012 13.802443 -1.3786476
-40.056652 13.794521 -2.6378891
-30.028316 13.778367 -3.7173629
-40.060349 13.774791 -6.92416
-30.070614 13.78338 -7.1005111
-35.881443 16.442297 -12.680183
-38.811005 15.543975 -14.593519
-49.68272 23.112762 4.7955079
-33.836811 13.790648 2.2760458
-33.919991 13.804927 -1.3580809
-39.285748 13.799258 -2.5926492
-50.224277 14.906339 -4.5643969
-29.567394 13.787118 -3.6707067
-33.823627 13.781051 -5.0330825
-39.296547 13.782363 -6.8066325
-35.679253 16.615292 -12.644522
-38.08395 15.524622 -14.355683
-49.548557 23.421236 4.7963395
-33.260159 13.794207 2.2429082
-38.557011 13.788761 1.5449705
-29.175165 13.806597 -0.39311776
-33.33514 13.805914 -1.3380311
-38.462536 13.7758 -2.5438521
-45.522175 13.81526 -4.1446943
-29.103004 13.788605 -3.6234899
-38.584064 13.798923 -6.6977611
-29.163115 13.802962 -6.9257026
-35.545177 16.819019 -12.633342
-37.512375 15.560722 -14.175955
-49.432945 23.73876 4.7991581
-37.808025 13.783146 1.5183191
-44.452827 13.789521 0.58066976
-28.714222 13.80474 -0.3880409
-32.739292 13.795087 -1.3174872
-37.727127 13.774169 -2.5007558
-28.627899 13.779226 -3.5747962
-32.67955 13.784899 -4.8876452
-37.79707 13.779631 -6.5757012
-28.685823 13.793134 -6.8323255
-34.503902 14.56599 -9.0262489
-35.368469 17.001793 -12.607379
-37.202641 15.700478 -14.095045
-37.126945 13.79351 1.4943386
-28.210964 13.776535 -0.38237509
-32.170494 13.788465 -1.2979783
-37.01368 13.771658 -2.4590199
-43.498363 13.786247 -3.9755361
-28.20866 13.791256 -3.5329456
-37.126774 13.79393 -6.4736905
-33.914101 14.562823 -8.8951654
-35.175739 17.175646 -12.576009
-36.842793 15.815637 -13.995214
-36.435501 13.791631 1.4698867
-42.570488 13.780517 0.55824858
-27.805119 13.79028 -0.37801403
-31.634687 13.789191 -1.2797498
-36.395153 13.796343 -2.4235065
-42.607632 13.792203 -3.9017885
-27.746832 13.777045 -3.4856265
-31.606005 13.791336 -4.7520394
-36.364525 13.765232 -6.3553867
-45.069183 14.573322 -8.938036
-27.760098 13.769955 -6.651587
-33.366261 14.570705 -8.7747593
-35.058868 17.385792 -12.572127
-36.559971 15.960604 -13.92472
-50.596218 25.489426 10.708015
-27.440918 13.80494 2.6882973
-35.744862 13.78155 1.4454092
-31.088722 13.778827 -1.2610599
-41.714397 13.786406 -3.8276653
-27.338894 13.784241 -3.4449406
-31.053261 13.777576 -4.6815553
-35.733768 13.777733 -6.2598071
-44.152649 14.5768 -8.7738438
-34.952122 17.60087 -12.57234
-36.295921 16.1112 -13.861542
-50.215836 25.685322 10.660668
-27.032707 13.808075 2.6565566
-30.552452 13.784292 2.0878572
-35.103596 13.78231 1.4228711
-40.83527 13.774683 0.53767014
-26.982475 13.797403 -0.36910433
-30.620123 13.796543 -1.2454624
-40.849941 13.779305 -3.7560315
-26.945234 13.79377 -3.4059374
-30.590231 13.797405 -4.6244259
-43.08765 14.518995 -8.5900173
-26.961275 13.788533 -6.5002389
-32.123295 14.499857 -8.4940386
-34.856392 17.821609 -12.577003
-36.04649 16.265965 -13.80414
-49.934692 25.929298 10.63456
-26.613787 13.800652 2.623661
-30.101822 13.803904 2.0628121
-40.035206 13.778977 0.52823913
-26.58412 13.800125 -0.36480653
-30.122204 13.795166 -1.2286297
-34.439892 13.785398 -2.3098161
-40.081535 13.794603 -3.6930919
-26.526369 13.785413 -3.3636205
-34.468655 13.778162 -6.0673509
-26.577963 13.798876 -6.4281154
-31.479813 14.442562 -8.3471651
-39.05077 15.608344 -11.24437
-34.735058 18.029268 -12.572902
-35.847157 16.4415 -13.766179
-38.745762 15.515208 -15.735411
-49.696438 26.193979 10.617848
-26.245344 13.814593 2.5956464
-29.60561 13.796836 2.0345707
-33.908535 13.795722 1.3811898
-26.160496 13.784647 -0.36014721
-29.637974 13.794024 -1.2123082
-33.814278 13.776303 -2.273484
-26.175661 13.807798 -3.3298302
-29.586409 13.784041 -4.4979095
-26.160807 13.786739 -6.3475637
-30.795492 14.357977 -8.1889162
-38.229996 15.55301 -11.035306
-34.724667 18.295218 -12.60954
-35.646954 16.615166 -13.72819
-38.012863 15.493043 -15.476081
-49.617367 26.542599 10.635551
-25.860979 13.815581 2.5659688
-29.109243 13.783546 2.0062337
-38.512573 13.785795 0.51034278
-29.168945 13.794105 -1.1965629
-38.491142 13.777823 -3.5618653
-25.735867 13.778318 -3.2845767
-33.315243 13.793634 -5.8936749
-39.841633 14.247064 -7.9842706
-25.753111 13.774446 -6.269031
-30.063959 14.242126 -8.0174789
-37.621754 15.575289 -10.887115
-34.625687 18.515388 -12.614615
-35.494984 16.810209 -13.70913
-37.540726 15.569903 -15.32247
-49.432865 26.835304 10.631098
-51.304905 24.636555 9.2837267
-25.442516 13.793359 2.5327983
-28.688057 13.800238 1.9830041
-32.71645 13.781045 1.3394212
-37.833 13.805004 0.50245059
-25.419043 13.79512 -0.35224396
-28.700068 13.788485 -1.180777
-32.700878 13.792976 -2.2098398
-37.780613 13.785582 -3.5038762
-28.646732 13.77659 -4.3804274
-32.758156 13.799044 -5.8099923
-38.646191 14.087628 -7.7618799
-25.413816 13.794182 -6.2069244
-29.422924 14.160152 -7.8695512
-37.298351 15.710174 -10.82122
-34.650955 18.803215 -12.665615
-35.34589 17.005899 -13.691591
-37.13253 15.668324 -15.194817
-49.350231 27.183813 10.648998
-50.57048 24.666868 9.1780472
-25.108408 13.81224 2.5079277
-28.218969 13.788436 1.9563906
-37.071613 13.785517 0.49345288
-28.24227 13.782468 -1.1653998
-32.172466 13.803233 -2.1798139
-25.022053 13.793876 -3.2148385
-28.208965 13.779818 -4.3263354
-32.165386 13.782336 -5.7197499
-37.565025 13.955227 -7.56179
-24.993122 13.76504 -6.1246901
-28.697886 14.028735 -7.6985078
-36.895844 15.807884 -10.732381
-34.562851 19.030851 -12.675856
-35.127701 17.167149 -13.64762
-36.763721 15.77914 -15.083234
-49.370731 27.591301 10.689754
-50.21962 24.878338 9.141902
-24.749086 13.813061 2.4804564
-27.786743 13.789084 1.9322546
-24.690342 13.79453 -0.344466
-27.821955 13.789358 -1.1515255
-31.609558 13.791988 -2.1473677
-36.442421 13.806362 -3.3952272
-24.66992 13.797804 -3.1804142
-27.79191 13.787948 -4.2752671
-31.631323 13.783831 -5.6397152
-36.537666 13.829278 -7.3719263
-24.674454 13.787529 -6.0672159
-36.628063 15.959865 -10.682775
-34.518009 19.283113 -12.702565
-35.068142 17.405403 -13.665715
-36.530575 15.94521 -15.027437
-49.418304 28.017193 10.737074
-49.937946 25.121565 9.1185141
-24.349283 13.786544 2.4488187
-27.367943 13.791178 1.9089801
-31.11228 13.784997 1.2839181
-35.740288 13.792012 0.47794893
-24.327726 13.788482 -0.34058094
-27.394886 13.787717 -1.1373296
-31.087509 13.791876 -2.1176121
-35.746387 13.794072 -3.3382027
-24.312012 13.794145 -3.1451254
-27.361132 13.784074 -4.2219315
-31.134037 13.795055 -5.5660391
-35.778111 13.793359 -7.2356162
-24.332268 13.792918 -6.0037732
-27.408899 13.817899 -7.3976588
-36.369064 16.113253 -10.635872
-34.596817 19.606634 -12.775599
-34.933353 17.606476 -13.655031
-36.278355 16.100843 -14.964041
-49.533627 28.485607 10.799903
-49.680321 25.400618 9.1106577
-24.032694 13.80271 2.4254513
-26.995897 13.797285 1.8847134
-30.621691 13.793026 1.2671417
-35.069187 13.79632 0.46842131
-23.996641 13.796052 -0.33712459
-26.971067 13.78247 -1.1232243
-30.629259 13.814121 -2.0921314
-35.087692 13.787838 -3.2845292
-23.956486 13.787424 -3.1100187
-26.972601 13.798836 -4.167274
-35.123329 13.797441 -7.1259556
-23.98929 13.793676 -5.939919
-26.981955 13.810944 -7.305161
-36.090164 16.255329 -10.58328
-34.632042 19.908327 -12.833473
-34.854317 17.835665 -13.666658
-36.01532 16.249348 -14.896391
-50.469772 29.410051 17.190769
-49.736897 29.010044 10.882828
-49.559288 25.723534 9.1172352
-23.690954 13.800442 2.3994629
-26.597546 13.800172 1.8627793
-30.090788 13.776604 1.2486472
-34.39962 13.777245 0.46059832
-23.677782 13.806728 -0.33382896
-26.588791 13.793514 -1.1108078
-30.077463 13.787968 -2.0601809
-34.46368 13.787342 -3.233974
-23.62496 13.790288 -3.0779073
-26.542013 13.784687 -4.1137385
-23.639648 13.786327 -5.8741803
-26.541649 13.791746 -7.2087283
-35.925514 16.447063 -10.564392
-39.000877 15.589266 -12.354232
-34.70031 20.231857 -12.904531
-34.737469 18.045685 -13.664002
-35.848076 16.439365 -14.868659
-50.192577 29.662567 17.158024
-49.89679 29.515104 10.957233
-49.43071 26.043047 9.1228075
-23.351263 13.795156 2.3735867
-26.199741 13.798464 1.8408139
-29.660299 13.800275 1.2342743
-26.188717 13.79056 -1.0976082
-29.617857 13.797826 -2.034461
-33.877132 13.794423 -3.1868167
-23.291628 13.788017 -3.045445
-26.169605 13.795809 -4.0690627
-29.607086 13.77592 -5.337491
-33.87096 13.787627 -6.9056797
-23.359827 13.815915 -5.825604
-26.168423 13.802386 -7.130228
-35.708839 16.613647 -10.530456
-38.155807 15.523677 -12.116486
-34.75964 20.553267 -12.973252
-34.702076 18.298559 -13.693988
-35.654808 16.616272 -14.830507
-49.97607 29.949875 17.146511
-50.13604 30.073418 11.050087
-49.425484 26.429008 9.1515999
-50.471405 23.859121 7.6827312
-23.018377 13.789726 2.3483067
-25.811054 13.796719 1.8194183
-29.158508 13.785069 1.2168899
-33.248337 13.791978 0.44741574
-23.002527 13.793993 -0.32667077
-25.801476 13.789518 -1.0849042
-33.281521 13.790569 -3.1386888
-22.957462 13.781126 -3.0127516
-25.7927 13.80002 -4.0235491
-29.185061 13.798031 -5.2765737
-33.277164 13.784534 -6.8017321
-25.782124 13.801502 -7.0479131
-30.826569 14.57291 -9.1168833
-37.668968 15.595678 -11.992052
-34.949947 20.956284 -13.092027
-34.596268 18.514956 -13.696808
-35.487926 16.804308 -14.803703
-37.541588 15.539332 -16.489204
-49.819241 30.272902 17.156113
-50.506012 30.718307 11.172963
-49.375664 26.793251 9.1726446
-50.102089 24.061758 7.6488442
-22.719643 13.800901 2.3264253
-25.413698 13.785475 1.7973375
-28.737673 13.802487 1.2028387
-32.710598 13.804766 0.44131106
-22.683239 13.792459 -0.32333216
-25.435116 13.795028 -1.0730385
-28.698143 13.800464 -1.9827697
-32.741692 13.802883 -3.0957084
-22.6579 13.791121 -2.984488
-25.375778 13.77789 -3.9716239
-28.698515 13.784076 -5.2038007
-32.735474 13.796079 -6.7081895
-22.681093 13.792954 -5.6981225
-25.380085 13.787305 -6.9610052
-30.320078 14.561757 -8.9933453
-37.358387 15.7363 -11.923692
-35.190384 21.395086 -13.231018
-34.547131 18.762253 -13.722675
-35.317673 16.989763 -14.775892
-37.150818 15.645268 -16.359425
-49.68589 30.61088 17.174549
-49.499825 27.25511 9.2266045
-49.886738 24.336155 7.6386209
-22.394081 13.791951 2.3017108
-25.073198 13.80055 1.7792114
-28.250816 13.782619 1.1859782
-32.100044 13.779745 0.4342064
-22.367542 13.789197 -0.32003224
-25.036335 13.778222 -1.0597618
-28.185421 13.767474 -1.9531453
-22.332186 13.781371 -2.9526682
-25.009455 13.778357 -3.9274483
-28.271822 13.793261 -5.1416798
-32.165493 13.788891 -6.608602
-22.364756 13.789267 -5.6398005
-25.025591 13.794271 -6.8868637
-29.858154 14.566036 -8.8826742
-37.019772 15.861818 -11.846457
-35.744236 22.03334 -13.489835
-34.56514 19.0476 -13.775993
-35.154778 17.177816 -14.751561
-36.805325 15.766351 -16.249582
-49.609375 30.985275 17.213495
-50.666481 28.307388 15.494088
-49.717205 27.773701 9.2987137
-49.73148 24.639322 7.6378536
-22.088091 13.791148 2.2789152
-24.685568 13.785223 1.7576741
-27.830978 13.789846 1.1718835
-31.581787 13.787374 0.42833245
-22.042706 13.776306 -0.31658801
-24.670439 13.774753 -1.0478318
-27.776081 13.779262 -1.9306023
-31.620977 13.789837 -3.0055201
-22.033777 13.784618 -2.9243422
-24.672188 13.790555 -3.8876994
-27.812197 13.78093 -5.0733724
-31.657381 13.801625 -6.5214834
-22.046545 13.780482 -5.5807738
-24.647619 13.783788 -6.8059955
-29.415699 14.57431 -8.7774849
-36.673855 15.98065 -11.766921
-34.554695 19.319199 -13.818817
-35.04768 17.392687 -14.751125
-36.567265 15.930624 -16.187332
-49.470303 31.321987 17.2316
-50.28587 28.501005 15.430885
-49.981094 28.324894 9.3803997
-49.538635 24.923517 7.6315799
-21.781858 13.78642 2.2560055
-24.36528 13.803166 1.7408667
-31.030567 13.774035 0.42199481
-21.745422 13.776772 -0.31352651
-24.339088 13.78632 -1.0373317
-27.344906 13.775083 -1.9064721
-31.065264 13.774969 -2.9606781
-21.716253 13.77209 -2.8933613
-24.302349 13.780215 -3.8426738
-21.74822 13.780303 -5.5265565
-24.329386 13.802469 -6.7413807
-28.883171 14.531871 -8.6450262
-36.349102 16.105238 -11.694209
-34.544868 19.592888 -13.862705
-34.929127 17.601776 -14.746408
-36.24506 16.055573 -16.088005
-49.412727 31.711931 17.278997
-50.065289 28.783287 15.417103
-50.936863 29.280912 9.5933161
-49.451027 25.260839 7.6418166
-50.857719 22.917238 6.2572355
-21.488718 13.786278 2.2343636
-24.034128 13.811048 1.7232287
-26.976099 13.781132 1.1429224
-30.555172 13.788055 0.41667244
-21.44194 13.769598 -0.3103632
-24.017691 13.799607 -1.0272232
-26.930073 13.77393 -1.8834072
-30.570581 13.780694 -2.9215364
-21.430058 13.775691 -2.8664382
-23.967855 13.78558 -3.8030877
-26.987293 13.787232 -4.9533901
-30.5935 13.787031 -6.3367014
-21.453413 13.778714 -5.4730229
-23.966917 13.791899 -6.6642675
-28.420132 14.51811 -8.532937
-36.096596 16.259052 -11.644851
-22.381334 14.371352 -8.5450935
-34.585148 19.897194 -13.9276
-34.769878 17.789885 -14.724984
-36.032982 16.226835 -16.037766
-49.42017 32.146545 17.350252
-49.871223 29.080313 15.412001
-49.412891 25.62488 7.660078
-50.356754 23.064259 6.2128949
-21.209183 13.791369 2.2140553
-23.669275 13.795265 1.7031062
-26.568539 13.779141 1.1292157
-30.070988 13.792271 0.41121605
-21.176626 13.783473 -0.30774131
-23.638535 13.775371 -1.014603
-26.560751 13.79129 -1.8634611
-30.102654 13.79262 -2.8848515
-21.168108 13.79159 -2.8426659
-23.619213 13.778605 -3.7611113
-26.61796 13.805151 -4.9010558
-30.122128 13.79759 -6.2564855
-21.194994 13.797169 -5.4285932
-23.632185 13.792985 -6.5946007
-27.918507 14.478552 -8.408843
-35.910599 16.441063 -11.617174
-22.047279 14.348668 -8.4510088
-34.659817 20.224216 -14.00738
-34.728973 18.038685 -14.754258
-35.809624 16.391272 -15.982817
-51.164299 33.742546 24.896324
-49.426708 32.584133 17.422413
-49.73447 29.410975 15.42522
-49.485512 26.049072 7.6959691
-50.008865 23.277191 6.1874785
-20.917372 13.784969 2.1923814
-23.335024 13.792964 1.6851134
-26.179844 13.782053 1.1162688
-20.892731 13.78193 -0.3048389
-23.336103 13.791636 -1.0052356
-26.156792 13.785961 -1.8410201
-20.897665 13.798783 -2.8176656
-23.294437 13.781409 -3.7227898
-26.192793 13.789245 -4.8382602
-29.652412 13.803178 -6.1763992
-20.855366 13.759009 -5.3631282
-23.303036 13.793262 -6.5262461
-27.33787 14.390973 -8.2604008
-35.680801 16.601431 -11.57557
-21.746931 14.343918 -8.3694592
-34.765629 20.572943 -14.100894
-34.682796 18.285791 -14.78203
-35.634151 16.57616 -15.949594
-50.523785 33.766785 24.685005
-49.631325 33.157692 17.565922
-49.626923 29.759872 15.448208
-51.06424 27.277868 13.955668
-49.535973 26.465069 7.7289257
-49.842304 23.572809 6.1846499
-20.662683 13.799715 2.1745212
-22.993959 13.782444 1.6665595
-25.802795 13.78642 1.103778
-29.122225 13.792142 0.40052634
-20.615417 13.781271 -0.30202079
-23.032278 13.803457 -0.99577755
-25.756416 13.777542 -1.818756
-29.148657 13.790778 -2.8094344
-20.609465 13.790819 -2.790164
-22.979301 13.786016 -3.6858761
-25.821747 13.796917 -4.7852688
-29.141975 13.783757 -6.0875816
-20.610661 13.779819 -5.3218431
-26.819841 14.329128 -8.1302862
-35.538979 16.801477 -11.562788
-21.412266 14.31249 -8.2743044
-34.937389 20.965086 -14.222471
-34.597523 18.513016 -14.793823
-35.468616 16.764645 -15.921247
-50.304367 34.068523 24.679476
-49.85976 33.754616 17.719742
-49.507351 30.102713 15.468194
-50.419014 27.332159 13.824905
-49.876057 27.041452 7.8077302
-49.645748 23.853701 6.1783061
-20.389832 13.799149 2.1546767
-22.688902 13.789532 1.650551
-25.459801 13.804639 1.0927086
-28.686226 13.801782 0.39568719
-20.336916 13.776392 -0.29917347
-22.65716 13.768301 -0.98319364
-25.394932 13.785249 -1.7991693
-28.696777 13.793111 -2.7739859
-20.333212 13.787339 -2.7641654
-22.670868 13.790853 -3.6499076
-25.422279 13.784661 -4.7268257
-28.689251 13.78567 -6.0105667
-20.348944 13.78626 -5.2760091
-22.635946 13.77628 -6.3862896
-26.293892 14.256204 -7.9972157
-35.357666 16.981979 -11.537482
-21.097527 14.290176 -8.1864109
-35.092567 21.352142 -14.338704
-34.571533 18.772867 -14.831684
-35.315979 16.95838 -15.899139
-50.057056 34.350925 24.661085
-50.16856 34.414467 17.9042
-49.418148 30.465368 15.498438
-50.178329 27.601393 13.805089
-49.601887 24.208353 6.191216
-20.114847 13.793756 2.134522
-22.379082 13.789979 1.6341374
-25.056194 13.785408 1.0789963
-20.081984 13.784218 -0.29666185
-22.373905 13.784861 -0.97455412
-25.024185 13.783447 -1.7788613
-28.253942 13.794312 -2.7393098
-20.085051 13.799726 -2.741889
-22.331812 13.773041 -3.6088593
-25.056847 13.786132 -4.6745205
-28.286411 13.806364 -5.9438052
-20.068596 13.776738 -5.2251406
-22.327658 13.777107 -6.3230433
-35.221794 17.183481 -11.527334
-20.825256 14.292944 -8.1146402
-35.738266 22.046618 -14.657531
-34.533489 19.027508 -14.865172
-35.128136 17.134212 -15.861606
-49.902916 34.697441 24.689568
-50.3498 34.995037 18.045172
-49.347645 30.841366 15.535383
-49.949753 27.87624 13.789001
-49.43261 24.502434 6.1887374
-19.842505 13.78676 2.1145589
-22.073402 13.789199 1.6179644
-27.765259 13.780798 0.38528755
-19.825991 13.788229 -0.29412448
-22.07909 13.790833 -0.96538031
-24.693747 13.7996 -1.7613578
-27.823133 13.796032 -2.7056975
-19.808828 13.789626 -2.7156808
-22.048534 13.78579 -3.576684
-24.699919 13.78786 -4.6236296
-27.814344 13.787915 -5.862277
-19.833132 13.7949 -5.1857753
-22.04376 13.789399 -6.266489
-25.361992 14.156391 -7.7660365
-35.111397 17.397146 -11.525924
-20.57303 14.306319 -8.0504131
-34.536083 19.306124 -14.917001
-35.058056 17.367126 -15.877783
-49.783432 35.069462 24.736454
-50.603142 35.633591 18.213991
-49.45026 31.329071 15.627913
-49.746605 28.16456 13.780371
-49.435249 24.882761 6.208066
-19.583735 13.785906 2.0959578
-21.777506 13.790842 1.6024477
-27.348167 13.783569 0.38066623
-19.538353 13.766824 -0.29110497
-21.812872 13.811323 -0.95742762
-24.316238 13.785111 -1.7404314
-27.415491 13.804126 -2.6742425
-19.551256 13.789188 -2.6919179
-21.735298 13.776162 -3.5395172
-24.33589 13.781183 -4.571229
-27.383867 13.784479 -5.7892656
-19.576391 13.795324 -5.1406817
-21.739111 13.785132 -6.2038145
-24.94075 14.122673 -7.6634402
-34.981812 17.601091 -11.51862
-20.27422 14.283881 -7.9676323
-34.541588 19.588337 -14.97101
-34.921238 17.567024 -15.864337
-49.653194 35.435551 24.77931
-50.68285 32.524323 22.696695
-51.006798 36.388039 18.439299
-49.484016 31.777626 15.699908
-49.584328 28.475842 13.783557
-49.546844 25.321154 6.2414742
-19.337439 13.790751 2.0786152
-21.496395 13.798346 1.587963
-24.007183 13.789901 1.0445781
-26.938021 13.784777 0.37484604
-19.326532 13.795808 -0.28920484
-21.498507 13.797794 -0.94732749
-23.994528 13.797957 -1.7234323
-27.005161 13.805876 -2.6424305
-19.293739 13.785613 -2.6680582
-21.483242 13.799812 -3.5120404
-24.002876 13.787791 -4.5244827
-27.033522 13.809629 -5.7324085
-19.321127 13.793641 -5.0957804
-21.449802 13.786938 -6.1452785
-24.504047 14.07465 -7.5556507
-34.869473 17.813524 -11.517404
-20.010479 14.282596 -7.8982768
-34.590122 19.897343 -15.04468
-34.821453 17.785391 -15.868285
-49.565243 35.833836 24.844679
-50.373047 32.763615 22.647562
-49.638428 32.308662 15.811499
-49.490143 28.827009 13.806287
-50.747623 26.317162 12.268311
-49.665184 25.767179 6.2761803
-19.07259 13.779198 2.0591958
-21.204435 13.795384 1.572619
-23.663107 13.786047 1.0332681
-26.532955 13.783581 0.37037942
-19.054853 13.779152 -0.28639922
-21.186371 13.78174 -0.93728197
-23.653263 13.795529 -1.7049686
-26.575409 13.792507 -2.6086116
-19.049667 13.788553 -2.6459558
-21.171421 13.783751 -3.4748254
-23.68722 13.800459 -4.4808602
-26.595713 13.792406 -5.6574111
-19.069696 13.791567 -5.0516915
-21.142921 13.773745 -6.0814571
-24.06786 14.02121 -7.4475427
-34.77729 18.036364 -11.523293
-19.734005 14.268841 -7.8235617
-34.624691 20.200989 -15.113343
-34.740635 18.013727 -15.881527
-49.565136 36.29892 24.955801
-50.112717 33.0336 22.62122
-49.902859 32.918449 15.959766
-49.472431 29.224709 13.85111
-50.318073 26.487438 12.203528
-50.11272 26.390877 6.3530793
-18.839663 13.787637 2.043143
-20.923201 13.795875 1.5580101
-23.315022 13.77556 1.0217403
-26.148474 13.788246 0.36618644
-18.818029 13.784529 -0.28410566
-20.92907 13.79786 -0.92962706
-23.299997 13.781781 -1.6855685
-26.193888 13.79917 -2.5794249
-18.830227 13.806581 -2.6271937
-20.898537 13.789408 -3.4438598
-23.32346 13.780899 -4.4279599
-26.204397 13.794157 -5.5920711
-18.821115 13.788465 -5.0081592
-20.879414 13.785302 -6.02988
-23.704805 14.005221 -7.3616529
-34.74868 18.292957 -11.550789
-19.511396 14.291001 -7.7699251
-34.766537 20.570715 -15.230067
-34.650814 18.237797 -15.891323
-49.6161 36.806084 25.0947
-49.924866 33.351009 22.628374
-50.140266 33.518387 16.101168
-49.397247 29.590658 13.880635
-50.033497 26.730984 12.174061
-18.621023 13.803867 2.028579
-20.631008 13.785574 1.5425221
-23.013208 13.788435 1.0122026
-18.591843 13.794926 -0.28196341
-20.637388 13.787972 -0.92041171
-22.994862 13.792452 -1.6695852
-25.764082 13.775363 -2.5453756
-18.573851 13.794635 -2.6031847
-20.607851 13.779847 -3.409827
-23.018694 13.792072 -4.3860846
-25.801542 13.784935 -5.5240469
-18.581852 13.789183 -4.9669137
-20.588963 13.775678 -5.9702973
-23.373287 14.003532 -7.2852445
-19.219366 14.25912 -7.6883283
-34.912601 20.947414 -15.350071
-34.558491 18.460878 -15.900633
-49.839348 37.447964 25.323355
-49.795544 33.70834 22.66308
-50.399593 34.141045 16.25141
-49.418896 30.017193 13.938212
-49.757637 26.977358 12.146989
-18.377028 13.79852 2.0111842
-20.343088 13.774488 1.5272857
-22.700933 13.791329 1.0021709
-25.381413 13.784467 0.35778657
-18.353699 13.793647 -0.27963009
-20.361845 13.785335 -0.91187805
-22.696812 13.803751 -1.6540635
-25.411718 13.788126 -2.5188749
-18.305058 13.770076 -2.5773058
-20.361 13.796327 -3.382926
-22.698956 13.790478 -4.3412023
-18.341219 13.785931 -4.9251113
-20.334141 13.786552 -5.9208241
-22.961798 13.949174 -7.1835303
-26.854914 14.561046 -8.9855509
-18.935587 14.229548 -7.6095934
-35.105785 21.357365 -15.492336
-34.564484 18.737583 -15.955989
-50.1185 38.14109 25.583624
-49.663185 34.064972 22.697546
-50.960426 31.410269 20.915613
-50.634087 34.755043 16.395477
-49.439533 30.446566 13.99646
-49.693863 27.338654 12.172142
-18.146297 13.800201 1.9951624
-20.108007 13.796014 1.5159634
-22.375725 13.782434 0.99152881
-25.054037 13.806415 0.3543593
-18.123922 13.795786 -0.27741379
-20.10392 13.791365 -0.90410006
-22.35746 13.785995 -1.6354667
-25.079016 13.80746 -2.4942472
-18.097113 13.788339 -2.5598919
-20.081043 13.787171 -3.3504045
-22.37332 13.781298 -4.2950153
-25.046804 13.779441 -5.3982587
-18.106194 13.783941 -4.8846192
-20.084034 13.797619 -5.872541
-22.611593 13.927087 -7.1005712
-26.480028 14.568732 -8.8898602
-18.706425 14.237773 -7.5524664
-35.623039 21.972654 -15.779803
-34.552753 19.006466 -16.004112
-50.373707 38.825699 25.83502
-49.571682 34.451378 22.751911
-50.472717 31.538647 20.794481
-50.96986 35.447563 16.57432
-49.518898 30.916115 14.072369
-49.536488 27.649364 12.174921
-17.908937 13.793948 1.9783338
-19.83906 13.791285 1.5020388
-22.048862 13.768432 0.98076981
-24.688753 13.803284 0.35038415
-17.895231 13.795951 -0.27520385
-19.8312 13.783982 -0.89562213
-22.082731 13.804324 -1.6215357
-17.865385 13.785854 -2.5390308
-19.801132 13.77452 -3.3177423
-22.048361 13.768462 -4.2487717
-24.70348 13.788689 -5.3423972
-17.866554 13.775486 -4.8426824
-19.815901 13.793139 -5.8187752
-26.087826 14.562186 -8.788022
-18.44581 14.219006 -7.4823318
-49.696682 31.075974 -22.098001
-34.48457 19.245518 -16.026926
-50.628105 39.519337 26.089369
-49.540646 34.882545 22.835472
-50.196667 31.796066 20.760736
-49.716713 31.465218 14.183184
-49.39542 27.969513 12.182201
-17.692112 13.800726 1.9636996
-19.58411 13.793056 1.4891161
-21.806021 13.803481 0.97371697
-24.306187 13.78583 0.34614873
-17.666073 13.792931 -0.27297613
-19.581964 13.789716 -0.88817078
-21.751862 13.783833 -1.6034203
-24.314013 13.777767 -2.4347968
-17.641888 13.786923 -2.519243
-19.564415 13.788754 -3.2921941
-21.796663 13.797899 -4.2165041
-24.350023 13.788036 -5.2841558
-17.648678 13.78099 -4.806457
-19.563589 13.796482 -5.7694359
-21.895401 13.85944 -6.9285612
-25.628799 14.512926 -8.663228
-18.208887 14.215341 -7.4214683
-50.031727 31.714163 -22.33309
-34.535828 19.552994 -16.106203
-50.88982 40.228569 26.350941
-49.54987 35.345787 22.939262
-49.927696 32.056648 20.730457
-49.952503 32.045403 14.306276
-49.356628 28.348896 12.215305
-17.467623 13.798842 1.948144
-19.316675 13.782794 1.4751841
-21.485111 13.785719 0.96314627
-23.991692 13.802698 0.34286955
-17.43285 13.783844 -0.27067417
-19.301065 13.769836 -0.87924588
-24.02529 13.809587 -2.4143238
-17.444185 13.80566 -2.5030611
-19.33276 13.803809 -3.2674036
-21.481647 13.783837 -4.1718483
-23.995031 13.782144 -5.2253733
-17.426979 13.780835 -4.7690182
-19.325092 13.806613 -5.7239771
-21.589952 13.852373 -6.8586726
-25.260715 14.509906 -8.5687399
-17.962442 14.201192 -7.3564014
-50.418884 32.394947 -22.594213
-34.565918 19.851089 -16.176739
-49.616467 35.854683 23.071512
-49.843201 32.436024 20.777622
-50.151295 32.60902 14.420243
-49.358471 28.754158 12.259195
-17.237722 13.789841 1.931904
-19.073078 13.786376 1.4630136
-21.180517 13.774476 0.95326275
-23.609385 13.776253 0.33860764
-17.250574 13.812577 -0.26915485
-19.081938 13.790964 -0.87310219
-21.178036 13.787338 -1.5734755
-23.684416 13.807683 -2.3885384
-17.197462 13.782855 -2.4797473
-19.057772 13.784797 -3.2351627
-21.211094 13.7947 -4.1356654
-23.680807 13.795588 -5.1752815
-17.229759 13.79755 -4.7381272
-19.047394 13.785524 -5.6666727
-21.278095 13.837321 -6.786447
-24.861002 14.483904 -8.4631405
-17.723326 14.189732 -7.2939935
-34.587975 20.146984 -16.24461
-49.827751 36.474838 23.273392
-49.754883 32.81488 20.82435
-50.341312 33.173824 14.533136
-49.384773 29.176804 12.309963
-17.02824 13.794458 1.9178767
-18.847507 13.800183 1.452179
-20.920483 13.788758 0.94534969
-23.28656 13.780107 0.33518407
-17.01329 13.794753 -0.26676828
-18.824261 13.781357 -0.86516488
-20.907707 13.794744 -1.5596503
-23.317183 13.785982 -2.3599899
-17.002985 13.799183 -2.4638677
-18.829679 13.79658 -3.2107527
-20.919973 13.78876 -4.0953236
-23.339689 13.789362 -5.1191268
-16.99135 13.778596 -4.6957269
-18.793318 13.778142 -5.6161304
-24.469643 14.457731 -8.3599567
-17.52199 14.20584 -7.246871
-34.690708 20.492931 -16.351608
-50.131119 37.171482 23.521179
-49.659958 33.191311 20.869467
-50.66716 30.367643 18.978796
-50.634422 33.8144 14.677378
-49.523441 29.670166 12.389676
-16.802467 13.783174 1.9019376
-18.578659 13.779239 1.4379519
-20.616934 13.770887 0.93543363
-22.969433 13.783433 0.33183047
-16.795425 13.789769 -0.26467395
-18.58017 13.77856 -0.85781598
-20.622185 13.788713 -1.5446334
-22.989037 13.783033 -2.3352933
-16.78504 13.793988 -2.4445047
-18.58534 13.793606 -3.1834614
-20.622097 13.77467 -4.0534806
-23.03467 13.800525 -5.0707045
-16.784504 13.782429 -4.6618466
-18.577841 13.796224 -5.5769305
-20.670153 13.805828 -6.6460876
-24.103807 14.441839 -8.265089
-17.276299 14.183213 -7.1811147
-34.864834 20.885429 -16.493778
-50.425606 37.871555 23.767933
-49.454926 33.495098 20.869282
-50.394871 30.626305 18.972197
-50.848686 34.4105 14.800411
-49.705601 30.195295 12.500804
-16.595949 13.784986 1.8881001
-18.360153 13.792606 1.4275634
-20.365314 13.784276 0.92783725
-22.688015 13.804605 0.33010718
-16.571043 13.776627 -0.26246515
-18.347221 13.781092 -0.85094905
-20.344973 13.78475 -1.5301763
-22.692629 13.795315 -2.3137383
-16.58823 13.803641 -2.4281318
-18.340364 13.787114 -3.1559312
-20.380766 13.795069 -4.0226068
-22.701992 13.791209 -5.0160046
-16.595758 13.7988 -4.6328526
-18.347319 13.800498 -5.5330458
-23.699755 14.398097 -8.1566811
-17.026815 14.154175 -7.1133809
-35.072372 21.303263 -16.653488
-50.672894 38.545841 23.995522
-49.48653 33.961288 20.97016
-50.081875 30.858465 18.925291
-49.864208 30.712097 12.587851
-16.399824 13.793007 1.8753804
-18.108248 13.777992 1.4145237
-20.113298 13.794408 0.92019457
-22.367004 13.798043 0.32666221
-16.37237 13.782225 -0.26065296
-18.118746 13.784185 -0.84425926
-22.370792 13.788366 -2.2895074
-16.371168 13.793902 -2.4087026
-18.096363 13.778284 -3.1284335
-20.093447 13.781123 -3.9825132
-22.389498 13.790159 -4.9655614
-16.380257 13.790485 -4.5962291
-18.088076 13.78009 -5.4802613
-20.125963 13.802492 -6.5250874
-16.805651 14.145597 -7.0571122
-51.020271 39.306614 24.273773
-49.511028 34.426872 21.06966
-49.905796 31.174038 18.905373
-50.122837 31.297226 12.68163
-16.206711 13.801258 1.8629463
-17.889233 13.785478 1.4039965
-19.824867 13.776202 0.91084868
-22.040049 13.783761 0.32201543
-16.159349 13.773202 -0.2586022
-17.868649 13.767831 -0.83652633
-19.834843 13.797264 -1.5044308
-22.056828 13.782316 -2.2659874
-16.171387 13.796127 -2.3917189
-17.902439 13.804978 -3.109494
-19.85689 13.798793 -3.9523349
-22.092838 13.795138 -4.9184489
-16.17309 13.78653 -4.5617499
-17.864395 13.783731 -5.438014
-19.841343 13.787063 -6.4601159
-23.050327 14.39376 -7.9933639
-16.590061 14.138953 -7.0028806
-49.400249 30.842318 -23.634773
-49.587627 34.933453 21.193077
-49.804203 31.537058 18.939838
-50.292336 31.833603 12.773692
-15.997035 13.792934 1.848538
-17.673363 13.79279 1.3936703
-19.59375 13.794648 0.90410197
-21.75358 13.791007 0.31906033
-15.951373 13.765808 -0.25662082
-17.670238 13.78857 -0.83118302
-19.566141 13.789268 -1.4904399
-21.768187 13.788396 -2.2449839
-15.953662 13.780404 -2.3719785
-17.653969 13.786938 -3.0809729
-19.586004 13.78953 -3.9151855
-21.776592 13.784103 -4.8667817
-15.979949 13.792083 -4.5310574
-17.650915 13.792622 -5.3986897
-19.61817 13.811252 -6.4149246
-16.360666 14.117667 -6.9424858
-49.428764 31.283245 -23.739803
-49.87175 35.593487 21.407448
-49.677376 31.88673 18.976189
-50.616165 32.476078 12.926914
-15.817302 13.808065 1.8375244
-17.434942 13.791978 1.3847512
-19.344503 13.797472 0.89649069
-21.447733 13.770756 0.31799147
-15.774467 13.782917 -0.25513056
-17.450575 13.790267 -0.82481509
-19.320471 13.794333 -1.4781458
-21.458132 13.777215 -2.221684
-15.772951 13.794204 -2.3576508
-17.425344 13.781352 -3.0557733
-19.315483 13.777101 -3.8779337
-21.490255 13.788275 -4.8216066
-15.79525 13.80269 -4.5026169
-17.437887 13.799324 -5.3593311
-19.350414 13.801104 -6.3549433
-22.351177 14.341386 -7.8113599
-16.135906 14.097366 -6.8836856
-49.589554 31.812832 -23.91033
-50.189259 36.286964 21.638905
-49.533993 32.225555 18.996593
-50.920288 33.114021 13.056231
-15.602708 13.790339 1.8223906
-17.205585 13.783012 1.3732257
-19.09754 13.7989 0.88895273
-21.170856 13.777165 0.31513384
-15.600625 13.800739 -0.25368378
-17.223946 13.783697 -0.81808549
-19.073364 13.795376 -1.4656889
-21.191586 13.790442 -2.2028067
-15.588827 13.802902 -2.3427446
-17.215998 13.788337 -3.0338411
-19.088451 13.792659 -3.849272
-21.208261 13.791778 -4.7772346
-15.568692 13.774099 -4.4620423
-17.191341 13.776604 -5.3094382
-19.082726 13.787607 -6.2946954
-15.89688 14.061463 -6.8183961
-49.786613 32.372173 -24.10067
-50.39608 36.90947 21.82531
-49.449913 32.604439 19.040712
-15.405725 13.785529 1.8092289
-17.005714 13.795058 1.3640038
-18.850456 13.797207 0.88137561
-20.884995 13.774291 0.31213093
-15.405836 13.79785 -0.25188825
-17.003996 13.77968 -0.81163925
-18.821455 13.789863 -1.4528059
-20.913218 13.792689 -2.1826272
-15.392685 13.798649 -2.325948
-16.989746 13.779096 -3.0088134
-18.855433 13.801174 -3.8192875
-20.913849 13.783649 -4.7298799
-15.385291 13.781055 -4.4336314
-16.989708 13.787064 -5.2731929
-18.839411 13.788536 -6.2422252
-21.654974 14.272827 -7.6286902
-15.689368 14.05044 -6.766242
-50.128922 33.034134 -24.364035
-50.677635 37.595573 22.046732
-49.397064 33.006229 19.097988
-15.217543 13.786208 1.7970295
-16.787722 13.78987 1.3532802
-18.591881 13.783934 0.87322384
-20.634132 13.791256 0.30964056
-15.212899 13.794205 -0.25011289
-16.814045 13.797527 -0.80659837
-18.577185 13.786865 -1.4404538
-20.623461 13.783916 -2.1611731
-15.192138 13.787931 -2.3083847
-16.799416 13.796471 -2.9900422
-18.600592 13.790715 -3.7847371
-20.655642 13.796009 -4.6905403
-15.207668 13.79106 -4.4067473
-16.77659 13.785698 -5.2332015
-18.599522 13.789014 -6.1906586
-21.342386 14.255411 -7.5492435
-15.493215 14.047032 -6.7186937
-50.94894 38.283737 22.266533
-49.504692 33.519333 19.218754
-20.43298 13.837076 2.7812779
-15.036126 13.790779 1.7855654
-16.569645 13.781873 1.3424925
-18.341946 13.77384 0.86543816
-20.369507 13.795955 0.30693406
-15.025331 13.793065 -0.2484159
-16.617338 13.807599 -0.8012113
-18.359663 13.800938 -1.4301268
-20.334806 13.772247 -2.1397395
-15.005013 13.78695 -2.2927625
-16.577555 13.785457 -2.965554
-18.350306 13.780438 -3.7509449
-20.36676 13.784527 -4.6440601
-15.013166 13.783494 -4.3748107
-16.578325 13.794055 -5.1976604
-18.367197 13.79222 -6.1413836
-15.275944 14.021784 -6.6616588
-49.620617 34.043739 19.344492
-20.158648 13.832462 2.7554371
-14.854772 13.793221 1.7740464
-16.368942 13.785735 1.3330595
-18.108908 13.773422 0.85841411
-20.093864 13.789869 0.30404988
-14.84475 13.796093 -0.24682526
-16.394896 13.793694 -0.79455197
-18.099531 13.780014 -1.4164234
-20.114925 13.804113 -2.1254752
-14.813989 13.780023 -2.2764513
-16.367607 13.781623 -2.9430687
-18.132082 13.791369 -3.7235658
-20.098818 13.78375 -4.6021619
-14.845712 13.798583 -4.350605
-16.392004 13.810115 -5.1657147
-18.126488 13.786214 -6.0890689
-20.683985 14.185766 -7.3773785
-15.090867 14.023482 -6.6183491
-16.71287 14.077323 -7.6275172
-49.881866 34.67503 19.528919
-14.690308 13.809327 1.7644914
-16.153496 13.77459 1.3223724
-17.888075 13.779531 0.85193789
-19.834766 13.791843 0.30140421
-14.665561 13.798235 -0.24524902
-16.192394 13.79389 -0.78882527
-17.89308 13.79708 -1.4068658
-19.834116 13.791181 -2.1047051
-14.63541 13.782377 -2.2619622
-16.184359 13.797922 -2.9252872
-17.889275 13.780774 -3.6909988
-19.860939 13.800552 -4.5669971
-14.644231 13.779759 -4.316258
-16.158724 13.783984 -5.1187568
-17.919046 13.802809 -6.0477219
-20.417561 14.188034 -7.3132663
-14.867122 13.986539 -6.5577359
-16.446171 14.026087 -7.5449357
-50.101604 35.285709 19.699343
-19.620499 13.820373 2.7048588
-14.508471 13.807058 1.7527933
-15.976267 13.793665 1.314768
-17.673622 13.78795 0.84573781
-19.578238 13.792447 0.29878643
-14.482893 13.794871 -0.24360518
-15.968882 13.773466 -0.78203911
-17.655664 13.787582 -1.3948243
-19.574226 13.789412 -2.086066
-14.479265 13.803944 -2.2508781
-15.957644 13.774611 -2.8995316
-17.676291 13.790351 -3.6644452
-19.58688 13.789098 -4.5233488
-14.487307 13.800675 -4.2948837
-15.975659 13.798075 -5.087491
-17.664804 13.780494 -5.9903398
-20.120636 14.165565 -7.2379093
-14.677641 13.979039 -6.5118709
-16.238447 14.021946 -7.4889698
-50.38409 35.949173 19.896769
-19.334335 13.797071 2.6770291
-14.311113 13.787567 1.7391385
-15.785689 13.799088 1.3060278
-17.465723 13.798985 0.83982509
-19.30183 13.775709 0.29585257
-14.317457 13.805835 -0.24224284
-15.772581 13.773831 -0.77655011
-17.440876 13.792961 -1.3845158
-19.315392 13.785179 -2.0674572
-14.298837 13.8004 -2.2359514
-15.765766 13.778696 -2.8799744
-17.45649 13.792007 -3.6363542
-19.320618 13.779719 -4.4812999
-14.313715 13.803826 -4.2684512
-15.769779 13.790102 -5.0487785
-17.466799 13.799259 -5.9517951
-19.832926 14.145811 -7.1655016
-14.496997 13.977631 -6.469656
-16.045691 14.028279 -7.4396291
-50.639313 36.602242 20.085871
-17.086489 16.66991 7.0251479
-19.119001 13.821241 2.6589065
-14.143449 13.794368 1.7290168
-15.580896 13.789638 1.2960604
-17.236038 13.790132 0.83283395
-19.062599 13.782295 0.29347646
-14.132937 13.796258 -0.24054866
-15.605996 13.798052 -0.7725023
-17.202579 13.776908 -1.3722836
-19.069893 13.787361 -2.0501964
-14.110015 13.786383 -2.2196112
-15.583014 13.788537 -2.8619921
-17.241459 13.794785 -3.6091254
-19.070099 13.778358 -4.442719
-14.120494 13.785708 -4.2359772
-15.575131 13.78945 -5.0134554
-17.233532 13.787554 -5.9010262
-19.54719 14.123765 -7.0934448
-14.297594 13.955667 -6.4187627
-15.821992 14.004919 -7.3756151
-16.925797 16.717068 7.0011215
-18.862671 13.812951 2.6349957
-13.974111 13.797525 1.7186328
-15.366531 13.76898 1.2852325
-17.019838 13.789286 0.82646012
-18.835756 13.795063 0.29128179
-13.957529 13.793291 -0.23899916
-15.408257 13.792585 -0.76688874
-17.000887 13.787452 -1.3629174
-18.825497 13.787343 -2.0329785
-13.945315 13.793726 -2.2069752
-15.398991 13.795094 -2.8436871
-17.033001 13.800265 -3.5831473
-18.824207 13.777285 -4.4050465
-13.961179 13.798496 -4.2135038
-15.392338 13.797014 -4.9817734
-17.024103 13.79217 -5.8581829
-19.265343 14.10084 -7.0224304
-14.114259 13.946852 -6.3747544
-15.59796 13.978247 -7.3110261
-18.602856 13.798841 2.6104798
-13.804811 13.79867 1.7081921
-15.187808 13.777782 1.2773311
-16.798237 13.781331 0.81979024
-18.589941 13.791077 0.28878364
-13.79522 13.801227 -0.2376655
-15.209249 13.783476 -0.76117903
-16.780315 13.780107 -1.3519877
-18.576492 13.780891 -2.015182
-13.770803 13.7893 -2.1927061
-15.201682 13.787402 -2.8228204
-16.809444 13.790843 -3.5538535
-18.602482 13.791085 -4.3728805
-13.788261 13.795863 -4.1867867
-15.206226 13.799396 -4.9488497
-16.799776 13.782026 -5.8099809
-13.931331 13.936074 -6.330637
-15.416246 13.986909 -7.2659435
-18.364315 13.797384 2.5888379
-13.649769 13.812166 1.6994624
-15.016786 13.791548 1.270041
-16.620079 13.806647 0.81521463
-18.355122 13.792283 0.28644511
-13.617091 13.791235 -0.2360501
-15.042308 13.801229 -0.75704807
-16.576092 13.783566 -1.3423226
-18.363613 13.798458 -2.001236
-13.622308 13.809037 -2.1825123
-15.022401 13.793743 -2.8051932
-16.598835 13.789321 -3.5271485
-18.36561 13.790905 -4.3370094
-13.621107 13.796901 -4.1616583
-15.007257 13.787693 -4.9115367
-16.580393 13.77312 -5.7632289
-13.744449 13.918901 -6.2844067
-15.219288 13.979422 -7.2134066
-18.161467 13.82013 2.5721478
-13.47331 13.801977 1.688005
-14.828816 13.787604 1.2612749
-16.389978 13.786341 0.80806237
-18.111113 13.783614 0.28395173
-13.461745 13.802278 -0.2348209
-14.836436 13.780966 -0.75092864
-16.373289 13.785733 -1.3327246
-18.10865 13.781535 -1.9826288
-13.460114 13.813126 -2.1700647
-14.832131 13.787726 -2.7854087
-16.395344 13.791175 -3.5018239
-18.12644 13.786054 -4.3004251
-13.448111 13.789897 -4.1345773
-14.830626 13.79418 -4.8813381
-16.388172 13.784261 -5.7257056
-18.452852 14.034989 -6.8192968
-13.581335 13.923571 -6.2487721
-15.00808 13.95617 -7.1537557
-17.930138 13.818643 2.5513465
-13.325563 13.819249 1.680086
-14.636133 13.776857 1.2520528
-16.190386 13.788968 0.80237824
-17.889957 13.789472 0.28180566
-13.310132 13.815417 -0.23365055
-14.662469 13.787928 -0.74639148
-16.184893 13.797705 -1.3242562
-17.89093 13.790015 -1.9680187
-13.287072 13.803997 -2.1557815
-14.645056 13.782301 -2.7661066
-16.195755 13.793854 -3.477206
-17.904032 13.791121 -4.2676554
-13.316424 13.823551 -4.120091
-14.652557 13.797209 -4.850503
-16.182079 13.781334 -5.6831384
-18.165482 13.993188 -6.7447019
-13.384733 13.891524 -6.1974158
-14.828983 13.960273 -7.1090832
-17.670578 13.792252 2.5264072
-13.154893 13.810858 1.6692209
-14.467685 13.786695 1.2448558
-16.00913 13.804973 0.79757845
-17.676249 13.798468 0.27976769
-13.162879 13.831432 -0.23255107
-14.500385 13.804135 -0.74243844
-15.962179 13.777855 -1.3129261
-17.647537 13.775852 -1.9505068
-13.150021 13.830468 -2.1472738
-14.480095 13.795571 -2.7508857
-15.996067 13.79402 -3.4524403
-17.666348 13.781576 -4.2310772
-13.157187 13.827056 -4.0969963
-14.459693 13.783969 -4.8145657
-15.967801 13.768769 -5.6374483
-17.927826 13.986231 -6.6882005
-13.223002 13.893284 -6.1618872
-14.63538 13.948389 -7.057168
-15.523499 16.504223 6.668004
-17.464077 13.801966 2.4968922
-13.096752 13.919852 1.67265
-14.317746 13.800449 1.236231
-15.798923 13.793634 0.79130769
-17.445019 13.801895 0.27649546
-13.072832 13.906693 -0.23246337
-14.316144 13.797179 -0.73732579
-15.773883 13.785126 -1.3043711
-17.438749 13.785907 -1.9367435
-13.092666 13.940448 -2.1518354
-14.286059 13.780811 -2.7302151
-15.80892 13.802674 -3.4302633
-17.448313 13.790392 -4.1997228
-13.092052 13.928749 -4.1032491
-14.298537 13.798793 -4.7890081
-15.788321 13.783813 -5.603837
-13.094161 13.928052 -6.1415572
-14.453531 13.945314 -7.0106091
-15.376296 16.550028 6.6482677
-15.417012 16.607376 4.2829523
-17.244375 13.801072 2.4775419
-13.104197 14.100127 1.6846187
-14.139821 13.797317 1.228155
-15.600349 13.789864 0.78558511
-17.210514 13.78891 0.27411455
-13.06662 14.072117 -0.23388398
-14.149959 13.805483 -0.73311579
-15.598998 13.802019 -1.2968884
-17.209978 13.777487 -1.9206889
-13.098156 14.118907 -2.1669357
-14.128114 13.796806 -2.7161577
-15.597175 13.787369 -3.4026105
-17.233698 13.793408 -4.1683588
-13.08849 14.0973 -4.1291656
-14.128026 13.802658 -4.7601748
-15.600202 13.78917 -5.5669937
-17.421621 13.93858 -6.5626769
-13.104952 14.112048 -6.1871161
-14.24955 13.918342 -6.9529634
-15.278341 16.648296 6.6499581
-15.348105 16.737963 4.2922616
-17.043482 13.812701 2.4608092
-13.086371 14.255364 1.6935402
-13.962192 13.792241 1.2200543
-15.378628 13.762886 0.77865785
-16.983154 13.778697 0.27183482
-13.08152 14.262683 -0.23571271
-13.948089 13.776589 -0.72702295
-15.404872 13.799701 -1.2877643
-17.011456 13.790684 -1.907941
-13.079176 14.273108 -2.1782436
-13.963903 13.804848 -2.7008221
-15.405682 13.787408 -3.3792276
-17.006628 13.783714 -4.1338162
-13.078064 14.260566 -4.1534042
-13.960595 13.807516 -4.7322183
-15.407401 13.788074 -5.5282788
-17.168591 13.909769 -6.4993892
-13.080006 14.259665 -6.2165303
-14.078301 13.920892 -6.9109535
-15.265692 16.840784 6.6893039
-16.809496 13.794814 2.4392011
-13.093353 14.439829 1.705878
-13.794476 13.794823 1.2127725
-15.198545 13.770601 0.77380353
-16.789543 13.793305 0.27008548
-13.066646 14.423134 -0.2370349
-13.809167 13.807792 -0.72418433
-15.213834 13.797761 -1.2788479
-16.789093 13.78199 -1.8924505
-13.089532 14.461562 -2.1947052
-13.790156 13.801417 -2.6835458
-15.229497 13.798956 -3.3590908
-16.799765 13.787706 -4.1040206
-13.08181 14.441546 -4.1826572
-13.762187 13.77935 -4.6935358
-15.220706 13.790118 -5.491549
-13.080696 14.43726 -6.2588439
-13.899511 13.913807 -6.8649664
-16.60478 13.798176 2.4217348
-13.080526 14.604775 1.7158501
-13.634286 13.802987 1.2061124
-15.018733 13.776429 0.76893806
-16.583475 13.795304 0.26812717
-13.074691 14.611202 -0.23880272
-13.61165 13.778351 -0.71824628
-15.015775 13.786998 -1.2692866
-16.601395 13.799284 -1.880802
-13.068926 14.618088 -2.2062485
-13.632996 13.812605 -2.6694052
-15.024014 13.781583 -3.3323576
-16.584352 13.782084 -4.07198
-13.068864 14.606386 -4.2070951
-13.600727 13.78584 -4.667232
-15.022959 13.779744 -5.4506063
-16.700775 13.873657 -6.3862672
-13.07839 14.613935 -6.3005285
-13.71728 13.900944 -6.8169627
-16.398113 13.797411 2.4038956
-13.090483 14.797595 1.7290341
-13.475418 13.81063 1.1995326
-14.851073 13.791388 0.7646724
-16.36182 13.781657 0.26590559
-13.094455 14.81522 -0.24081945
-13.461236 13.794371 -0.71476221
-14.845739 13.799717 -1.2620474
-16.394543 13.798318 -1.8669243
-13.08835 14.821854 -2.224839
-13.44324 13.788559 -2.648767
-14.828414 13.770657 -3.307653
-16.401535 13.801171 -4.0478091
-13.079555 14.800089 -4.2396908
-13.460812 13.812524 -4.6482153
-14.856167 13.795558 -5.420702
-16.474129 13.857098 -6.3319945
-13.075331 14.792168 -6.3426609
-13.556059 13.907221 -6.7791224
-14.709943 13.828533 2.7784109
-16.194477 13.79667 2.3864086
-13.084359 14.974827 1.740329
-13.291312 13.790222 1.1906542
-14.65811 13.780662 0.75907636
-16.185854 13.804101 0.26441744
-13.081328 14.984664 -0.24226446
-13.289086 13.786189 -0.71009976
-14.666802 13.802107 -1.2540118
-16.189592 13.796412 -1.8531907
-13.076859 14.993261 -2.2384818
-13.293209 13.803113 -2.6358442
-14.659533 13.782308 -3.2887838
-16.182667 13.787487 -4.0145965
-13.08223 14.987448 -4.2702875
-13.303402 13.819644 -4.6230545
-14.669957 13.791239 -5.3835335
-16.2535 13.842694 -6.2797217
-13.056971 14.95533 -6.3781486
-13.351668 13.866746 -6.7193322
-14.542761 13.840438 2.7628222
-15.994985 13.796984 2.369442
-13.085615 15.163043 1.7528384
-13.157039 13.819621 1.1861997
-14.496691 13.79745 0.75508732
-15.982694 13.80113 0.26247701
-13.085212 15.176073 -0.24405637
-13.175667 13.837456 -0.70856285
-14.472307 13.787486 -1.2445921
-15.966838 13.776596 -1.8373342
-13.080896 15.184987 -2.2550802
-13.150505 13.823704 -2.6243176
-14.490095 13.791481 -3.2696948
-15.975759 13.78127 -3.984169
-13.068594 15.158576 -4.2961173
-13.145134 13.82401 -4.597445
-14.4799 13.78091 -5.344718
-16.013811 13.808983 -6.2197351
-13.081116 15.169868 -6.4352913
-13.202644 13.881447 -6.6870747
-14.365213 13.840435 2.7451742
-15.787554 13.787908 2.3512025
-13.078024 15.343589 1.7643998
-13.085789 13.914759 1.1874514
-14.318322 13.796112 0.75019175
-15.772736 13.789676 0.26041368
-13.077332 15.356462 -0.24566226
-13.072796 13.899196 -0.70760363
-14.306349 13.797822 -1.2375776
-15.790863 13.794687 -1.8267903
-13.067396 15.358898 -2.2689571
-13.097072 13.937799 -2.6306717
-14.312668 13.790973 -3.248692
-15.78959 13.790555 -3.9587693
-13.080801 15.362337 -4.3310356
-13.106289 13.95362 -4.6137176
-14.31284 13.790272 -5.3141875
-15.816789 13.809199 -6.1760049
-13.08825 15.367805 -6.4850698
-13.097369 13.941066 -6.6769552
-15.430268 16.617628 6.0596423
-15.395015 16.577957 3.6940472
-14.172929 13.823865 2.724587
-15.6011 13.794723 2.3359966
-13.069129 15.525108 1.7760183
-13.080463 14.081233 1.1947861
-14.172043 13.823857 0.74695772
-15.573371 13.784885 0.25851372
-13.078979 15.550696 -0.24748102
-13.087417 14.086946 -0.71306026
-14.126952 13.793112 -1.229357
-15.583977 13.783461 -1.8126065
-13.073165 15.558102 -2.2864919
-13.08379 14.095984 -2.6453264
-14.146616 13.799364 -3.23016
-15.596433 13.791464 -3.9314842
-13.065116 15.536041 -4.3573241
-13.090769 14.109595 -4.6386442
-14.134448 13.786627 -5.2792621
-15.60973 13.798123 -6.128099
-13.066447 15.534301 -6.5213728
-13.11443 14.131996 -6.7297325
-15.359954 16.746817 6.072269
-15.296659 16.676092 3.6949301
-13.977092 13.801213 2.7031684
-15.415004 13.799631 2.3207664
-13.073148 15.72472 1.7896428
-13.095613 14.272172 1.2041464
-13.987043 13.81189 0.74165988
-15.400435 13.801267 0.25704396
-13.07502 15.741059 -0.24922904
-13.098894 14.273951 -0.71844417
-13.935699 13.774412 -1.2200459
-15.414661 13.803205 -1.8027304
-13.087462 15.770583 -2.3058736
-13.05778 14.242237 -2.6576869
-13.956625 13.782166 -3.2060277
-15.385982 13.774515 -3.8996663
-13.071864 15.739116 -4.3917012
-13.080345 14.273017 -4.6658955
-13.988003 13.812284 -5.2561212
-15.422759 13.802347 -6.0878305
-13.077296 15.74228 -6.5748734
-13.824919 13.819515 2.6900873
-15.214557 13.789289 2.3032839
-13.078862 15.929413 1.8037716
-13.075032 14.426445 1.2103708
-13.788409 13.783868 0.73559821
-15.197048 13.788067 0.25505656
-13.079845 15.944915 -0.25118124
-13.070408 14.419524 -0.72172093
-13.773039 13.781731 -1.2131859
-15.218089 13.796365 -1.7896079
-13.074121 15.952677 -2.3207254
-13.0902 14.45466 -2.6822872
-13.814268 13.810034 -3.1927319
-15.211227 13.787139 -3.8767431
-13.079317 15.946156 -4.4269943
-13.077142 14.446489 -4.6962848
-13.789089 13.783994 -5.2130599
-15.225442 13.794938 -6.0432429
-13.07719 15.940137 -6.6238708
-13.665909 13.829242 2.6756079
-15.031011 13.791868 2.2882659
-13.082443 16.134621 1.8178847
-13.077909 14.60877 1.2189121
-13.650179 13.814175 0.732732
-15.016242 13.792952 0.2534377
-13.07045 16.134348 -0.2528972
-13.067632 14.595448 -0.72649926
-13.626049 13.803006 -1.2076759
-15.040645 13.804579 -1.7786686
-13.076144 16.156342 -2.3386374
-13.08882 14.632593 -2.7003512
-13.624606 13.788604 -3.1683912
-15.043187 13.803906 -3.8554306
-13.069167 16.134676 -4.4569845
-13.087399 14.637344 -4.7321334
-13.630434 13.793633 -5.184978
-15.064251 13.818149 -6.0128036
-13.072961 16.135874 -6.6717515
-13.503071 13.833209 2.6602948
-14.864718 13.808239 2.275806
-13.064451 16.316069 1.8292618
-13.082605 14.795698 1.2277881
-13.472675 13.80292 0.72773641
-14.825039 13.785992 0.25163361
-13.075644 16.344793 -0.25493342
-13.077994 14.788621 -0.73210645
-13.453265 13.796281 -1.1998425
-14.852284 13.800553 -1.7663745
-13.075852 16.36025 -2.3564947
-13.06766 14.790581 -2.7146583
-13.478559 13.809258 -3.1540737
-14.836588 13.782969 -3.8240843
-13.083483 16.356535 -4.4960093
-13.072272 14.802221 -4.7594156
-13.484064 13.814028 -5.1614461
-14.859722 13.799387 -5.9648519
-13.103484 16.377995 -6.7384901
-14.559535 15.109704 7.3312616
-13.329175 13.823747 2.6426964
-14.680218 13.805619 2.2604854
-13.069347 16.529043 1.8441138
-13.063366 14.957898 1.234573
-13.304382 13.798884 0.72320592
-14.647332 13.789297 0.25004876
-13.066952 16.540979 -0.25673801
-13.090861 14.98749 -0.73796099
-13.292513 13.799828 -1.193035
-14.66688 13.796939 -1.7543597
-13.064989 16.553913 -2.372798
-13.080929 14.98997 -2.7364709
-13.308899 13.803878 -3.1341338
-14.657645 13.785254 -3.7996926
-13.069374 16.546007 -4.5259633
-13.072117 14.986382 -4.7927489
-13.319942 13.814461 -5.1309733
-14.674572 13.796104 -5.9243994
-14.501653 15.235628 7.3490491
-13.157346 13.814185 2.625385
-14.486011 13.791451 2.2435694
-13.072473 16.743141 1.8590161
-13.076336 15.159494 1.2445661
-13.177511 13.836208 0.72091079
-14.473081 13.793739 0.24851426
-13.074309 16.760704 -0.25889835
-13.071398 15.151855 -0.74209082
-13.159689 13.830788 -1.1887084
-14.479063 13.788694 -1.7419817
-13.079344 16.782837 -2.3940628
-13.082398 15.178656 -2.7562101
-13.180576 13.839737 -3.1238539
-14.494412 13.800315 -3.7792583
-13.10023 16.795931 -4.5722528
-13.052346 15.150375 -4.8194923
-13.148846 13.805551 -5.0976014
-14.497819 13.798491 -5.8871121
-14.472994 15.393562 7.3822541
-13.112123 13.936939 2.6333749
-14.306153 13.788552 2.2287755
-13.096237 16.98744 1.8771833
-13.084818 15.35887 1.2543193
-13.111508 13.937152 0.72196478
-14.300293 13.797498 0.24699643
-13.08185 16.98424 -0.26110643
-13.082364 15.354048 -0.74804795
-13.090642 13.928368 -1.1901691
-14.311208 13.79728 -1.73194
-13.062663 16.975239 -2.4100296
-13.075755 15.3584 -2.7743917
-13.098564 13.923705 -3.1246064
-14.313589 13.790873 -3.753365
-13.060998 16.959192 -4.5947928
-13.071982 15.362797 -4.8614583
-13.095782 13.919871 -5.1100464
-14.323122 13.800704 -5.8504496
-15.444877 16.617723 5.4688516
-13.097585 14.093775 2.6477735
-14.130793 13.787784 2.2145944
-13.071732 17.172541 1.8887388
-13.077678 15.54268 1.2627534
-13.074646 14.069965 0.72467524
-14.108237 13.780346 0.24513507
-13.086335 17.207445 -0.26329842
-13.062418 15.522575 -0.75233954
-13.077908 14.087034 -1.1968474
-14.139728 13.800351 -1.7214025
-13.074807 17.208467 -2.431706
-13.079523 15.555191 -2.7953904
-13.087679 14.084308 -3.1425667
-14.151957 13.803587 -3.7331209
-13.070131 17.188194 -4.6350217
-13.073755 15.557289 -4.8975272
-13.079403 14.074512 -5.1372571
-14.160446 13.812512 -5.8185124
-15.346815 16.716747 5.4703469
-13.112264 14.284342 2.6684096
-13.970201 13.799421 2.2026541
-13.080432 17.40453 1.9053907
-13.080369 15.740932 1.2723156
-13.080275 14.25038 0.72981995
-13.953666 13.797677 0.24391575
-13.069921 17.406498 -0.2651121
-13.080572 15.739177 -0.75893319
-13.08372 14.26788 -1.2053688
-13.978456 13.811435 -1.712054
-13.078681 17.434616 -2.4522765
-13.072184 15.741546 -2.8144121
-13.068885 14.238294 -3.1589725
-13.978915 13.803191 -3.7097466
-13.078731 17.420322 -4.6758895
-13.086325 15.767674 -4.9383864
-13.07618 14.245341 -5.1702266
-13.98387 13.808728 -5.7806635
-13.09714 14.444787 2.6833186
-13.808322 13.807941 2.1904485
-13.059175 17.600071 1.9179893
-13.069931 15.926168 1.2807816
-13.070765 14.416595 0.73421121
-13.79889 13.813108 0.2426872
-13.069602 17.630333 -0.26729485
-13.075323 15.93071 -0.7642858
-13.074582 14.43473 -1.2126639
-13.772354 13.775821 -1.6971319
-13.068904 17.646114 -2.4706988
-13.064122 15.929705 -2.8336673
-13.087173 14.435019 -3.1847425
-13.797352 13.792131 -3.6839526
-13.066037 17.627661 -4.7099333
-13.074772 15.951918 -4.97087
-13.082968 14.429468 -5.2078195
-13.799943 13.795371 -5.7395163
-13.11108 14.639685 2.7045281
-13.626246 13.794118 2.1749511
-13.083766 17.861202 1.9376612
-13.065147 16.121044 1.2899821
-13.07436 14.599592 0.73943132
-13.621148 13.80355 0.24104626
-13.08201 16.13979 -0.77045095
-13.07256 14.611689 -1.2207689
-13.633869 13.805693 -1.6904739
-13.062793 17.866037 -2.4902217
-13.083032 16.153894 -2.8592141
-13.076984 14.602853 -3.2040076
-13.623503 13.7865 -3.6600513
-13.082412 17.878025 -4.75529
-13.085009 16.16572 -5.0123801
-13.086407 14.61245 -5.2447805
-13.635504 13.799297 -5.706233
-13.090802 14.79876 2.7190251
-13.449599 13.783441 2.1602147
-13.073345 18.078632 1.9525096
-13.083278 16.347462 1.3016515
-13.103609 14.814163 0.74621242
-13.454369 13.802923 0.23958917
-13.078022 18.101871 -0.27199003
-13.061631 16.318325 -0.77513313
-13.081718 14.803726 -1.2300836
-13.464611 13.802681 -1.6799569
-13.071478 18.110107 -2.5130141
-13.074735 16.347731 -2.8792686
-13.063305 14.76893 -3.2227988
-13.485511 13.815392 -3.645685
-13.071196 18.094631 -4.7914805
-13.081665 16.365923 -5.0494719
-13.073206 14.779188 -5.2757363
-13.479287 13.809669 -5.6762128
-13.101688 14.995476 2.7403462
-13.313207 13.812207 2.1518798
-13.077267 18.319742 1.9698465
-13.066439 16.533358 1.3100445
-13.105521 15.0008 0.75154883
-13.294766 13.807681 0.23825127
-13.068255 18.324167 -0.27412015
-13.068552 16.533903 -0.78154957
-13.071475 14.976332 -1.2377379
-13.316807 13.819806 -1.6720643
-13.087769 18.369146 -2.5377679
-13.069382 16.548191 -2.9003961
-13.073002 14.963917 -3.2477825
-13.304841 13.798681 -3.6196637
-13.076583 18.338095 -4.8346119
-13.079857 16.571127 -5.0879264
-13.066805 14.955874 -5.3100867
-13.303933 13.798385 -5.6379166
-15.464656 21.97389 5.0786519
-13.102168 15.18305 2.7598803
-13.162911 13.825058 2.141258
-13.072864 18.553272 1.9862943
-13.078394 16.758852 1.3215284
-13.077894 15.155869 0.75528336
-13.152985 13.829268 0.23722668
-13.053664 18.54335 -0.27619562
-13.079535 16.758148 -0.78834105
-13.083507 15.177095 -1.247672
-13.165406 13.831546 -1.6636795
-13.067501 18.580904 -2.5558972
-13.066696 16.755146 -2.9225612
-13.078043 15.156386 -3.2720778
-13.15943 13.816545 -3.6031005
-13.06874 18.567051 -4.8737411
-13.074631 16.775139 -5.1258368
-13.077742 15.155072 -5.3522205
-13.170116 13.828412 -5.6170602
-15.482278 16.462118 7.2704425
-15.344516 22.089931 5.0836148
-13.132837 15.408737 2.7862043
-13.104128 13.93352 2.1455629
-13.083446 18.812395 2.0054035
-13.066852 16.957575 1.3308512
-13.082426 15.350546 0.76097029
-13.090842 13.934151 0.23764347
-13.078502 18.822954 -0.27915964
-13.064569 16.952415 -0.79369372
-13.090239 15.374661 -1.2572867
-13.103572 13.93683 -1.6666406
-13.068778 18.827175 -2.5786941
-13.060252 16.960464 -2.9443409
-13.076191 15.343586 -3.2951078
-13.081277 13.904332 -3.6049941
-13.078226 18.824884 -4.9202633
-13.07211 16.98584 -5.1656122
-13.085781 15.353861 -5.3939667
-13.114568 13.940372 -5.629745
-15.328404 16.500216 7.2455916
-15.447652 16.622643 4.8775811
-13.066327 14.065269 2.1534641
-13.071456 19.043379 2.0214381
-13.080845 17.192907 1.3429959
-13.085311 15.546153 0.76667231
-13.083157 14.098329 0.23906986
-13.063169 19.049271 -0.28132203
-13.076455 17.1849 -0.8008067
-13.075151 15.549232 -1.2649778
-13.098133 14.103458 -1.6769243
-13.08002 17.20348 -2.9725394
-13.089511 15.551497 -3.3224473
-13.084588 14.07997 -3.6296475
-13.077785 19.072954 -4.9640336
-13.082877 17.217384 -5.2115164
-13.079591 15.538727 -5.4306145
-13.071891 14.066966 -5.6483712
-15.251366 16.620651 7.2572465
-15.373029 16.74725 4.8863735
-13.091187 14.266591 2.171948
-13.079518 19.307972 2.0409672
-13.092261 17.428801 1.3551219
-13.065787 15.71771 0.77116466
-13.084065 14.273974 0.24068239
-13.075282 19.320034 -0.28413051
-13.068942 17.395493 -0.8068682
-13.073375 15.742208 -1.274127
-13.083231 14.261919 -1.6861886
-13.074781 19.338173 -2.6265085
-13.07497 17.417633 -2.9956238
-13.086062 15.742461 -3.3460271
-13.061431 14.229151 -3.6473751
-13.071238 19.316469 -5.006444
-13.072003 17.423985 -5.2496748
-13.073282 15.726079 -5.4679551
-13.081105 14.251251 -5.6900311
-15.208102 16.77902 7.2855144
-13.096775 14.449667 2.1875439
-13.078327 19.563671 2.0594747
-13.075765 17.63109 1.3645862
-13.073773 15.925088 0.77738875
-13.076071 14.442163 0.2421609
-13.074424 19.576485 -0.28671676
-13.070323 17.621452 -0.81361371
-13.083852 15.952978 -1.2846642
-13.098014 14.455092 -1.6994933
-13.075018 19.596598 -2.6506615
-13.080744 17.649858 -3.0217023
-13.083357 15.937127 -3.3702769
-13.093127 14.440548 -3.6808999
-13.07924 19.586153 -5.0554447
-13.08182 17.661791 -5.2970395
-13.070373 15.920288 -5.5074925
-13.068484 14.414046 -5.7229056
-13.074584 14.60428 2.1987638
-13.071033 19.814838 2.0774329
-13.066876 17.846945 1.3750613
-13.069743 16.120867 0.78301615
-13.069861 14.614547 0.24370205
-13.062906 19.821505 -0.28912595
-13.063161 17.839529 -0.81996644
-13.067752 16.134241 -1.2927794
-13.074582 14.608382 -1.7080513
-13.067842 19.848568 -2.673847
-13.073309 17.867981 -3.0452545
-13.08217 16.136564 -3.3954127
-13.078188 14.603146 -3.7018209
-13.064983 19.827145 -5.0968609
-13.076542 17.883051 -5.3392334
-13.080585 16.133572 -5.5534053
-13.075149 14.60044 -5.7649479
-13.068631 14.779113 2.2129714
-13.085021 20.103331 2.0992219
-13.084934 18.103617 1.3886251
-13.07279 16.328421 0.78918642
-13.082874 14.810996 0.24563463
-13.084714 18.100931 -0.82827544
-13.064992 16.334751 -1.3023976
-13.08499 14.801779 -1.7212437
-13.065365 20.112419 -2.6985402
-13.086383 18.118093 -3.0741379
-13.070192 16.325552 -3.4182396
-13.07742 14.783823 -3.7272105
-13.070974 20.103643 -5.1472239
-13.076283 18.114935 -5.3844094
-13.078418 16.334772 -5.594933
-13.084526 14.792554 -5.8089933
-15.639983 21.930187 7.1977363
-13.081261 14.977593 2.2306306
-13.066418 20.346735 2.1162267
-13.088212 18.344194 1.4008918
-13.071539 16.533783 0.79522049
-13.094177 15.008395 0.24757126
-13.075047 20.379906 -0.29490826
-13.079704 18.329849 -0.83506221
-13.06466 16.541401 -1.3124578
-13.080386 14.980816 -1.7326974
-13.083658 20.413683 -2.7281389
-13.085258 18.352741 -3.1002698
-13.088537 16.555664 -3.4495399
-13.092214 14.984826 -3.7575624
-13.077951 20.387022 -5.1991348
-13.071345 18.344236 -5.4286237
-13.066817 16.527122 -5.6332479
-13.062088 14.95105 -5.8396502
-15.407571 21.887157 7.1524491
-15.485937 21.996094 4.3923755
-13.072777 15.154564 2.2449982
-13.077247 20.641064 2.138453
-13.08383 18.57811 1.4125978
-13.068979 16.740665 0.80129874
-13.075378 15.173795 0.24897148
-13.086645 20.676035 -0.29802579
-13.089133 18.583174 -0.84292817
-13.067642 16.755533 -1.3230608
-13.070476 15.156171 -1.7436705
-13.082727 20.69059 -2.7543654
-13.079954 18.585506 -3.1259737
-13.073419 16.746738 -3.4725723
-13.073651 15.150202 -3.7788446
-13.070601 20.653322 -5.2464957
-13.072211 18.585707 -5.4762425
-13.075363 16.748144 -5.681129
-13.075336 15.152869 -5.8870296
-15.291863 22.010235 7.1583457
-15.377825 22.110565 4.3932085
-13.08424 15.359979 2.2741048
-13.08992 20.944235 2.1615
-13.076407 18.829126 1.427974
-13.06364 16.947187 0.80733198
-13.078203 15.354851 0.2516377
-13.066086 20.926586 -0.30047601
-13.066325 18.794699 -0.84887022
-13.073241 16.976496 -1.3341494
-13.087318 15.365331 -1.758462
-13.068724 20.951954 -2.7784312
-13.068216 18.813044 -3.1506975
-13.058332 16.940695 -3.4961104
-13.073516 15.339337 -3.805939
-13.065248 20.927944 -5.2957926
-13.082421 18.8449 -5.5288563
-13.072423 16.95787 -5.7249537
-13.100959 15.372263 -5.9409232
-13.606976 22.079351 7.6326451
-15.144726 22.086447 7.1527748
-13.08635 15.554802 2.2910175
-13.081848 21.219921 2.1816266
-13.084129 19.089191 1.4415811
-13.080947 17.186714 0.81490356
-13.070296 15.537704 0.25331524
-13.077376 21.233583 -0.30372617
-13.081538 19.065121 -0.85744238
-13.076295 17.197729 -1.3452047
-13.062578 15.528303 -1.7679069
-13.065663 21.236128 -2.8054311
-13.061582 19.051931 -3.177223
-13.077541 17.182638 -3.5294142
-13.079987 15.539053 -3.8355069
-13.076283 21.234564 -5.3529773
-13.065383 19.069075 -5.5710006
-13.066811 17.167419 -5.7685204
-13.080254 15.540115 -5.9746618
-14.88033 17.906635 7.4844618
-14.944566 22.083858 7.1221046
-13.06901 15.7291 2.3048346
-13.074575 21.502367 2.2023754
-13.073922 19.327545 1.4534956
-13.085217 17.412996 0.82181031
-13.061573 15.722163 0.25501108
-13.085853 21.542269 -0.30698729
-13.067263 19.297062 -0.86425161
-13.068484 17.408121 -1.3553638
-13.084751 15.749832 -1.7839538
-13.060724 21.522888 -2.8326738
-13.076113 19.326326 -3.2095423
-13.055733 17.374168 -3.5522335
-13.068537 15.720232 -3.8603618
-13.075343 21.527775 -5.4065657
-13.076509 19.338741 -5.626236
-13.076727 17.400967 -5.8199248
-13.079579 15.734272 -6.0183396
-14.840168 18.082886 7.5199285
-14.760816 22.103319 7.0990376
-13.082553 15.943417 2.3244326
-13.072759 21.79958 2.2245595
-13.078664 19.592531 1.4673607
-13.071811 17.619236 0.82774264
-13.077439 15.93923 0.25722548
-13.091272 21.852251 -0.31025413
-13.080214 19.573814 -0.87303531
-13.071706 17.636776 -1.366896
-13.081779 15.944287 -1.7968534
-13.062569 19.563883 -3.2356217
-13.066556 17.612566 -3.5845151
-13.065369 15.914055 -3.8881981
-13.073212 21.824972 -5.4609561
-13.093425 17.647621 -5.8754392
-13.05465 15.901765 -6.0516524
-14.769349 18.223473 7.5405626
-13.0707 16.129789 2.3398674
-13.079198 22.116877 2.2487063
-13.090015 17.871904 0.83582377
-13.080479 16.143934 0.25922883
-13.068864 22.121618 -0.31293413
-13.072319 19.824232 -0.88061047
-13.077464 17.872755 -1.37894
-13.07777 16.140354 -1.8098719
-13.060295 22.130022 -2.8912671
-13.073917 19.843462 -3.2685313
-13.083143 16.136585 -3.9228799
-13.079549 22.142632 -5.5202541
-13.078744 19.863064 -5.7316489
-13.084367 17.863434 -5.9204488
-13.07631 16.128927 -6.1074538
-14.61262 18.257982 7.5176005
-14.382098 22.119207 7.0469213
-13.090499 16.358414 2.3613362
-13.079057 22.429621 2.2723019
-13.068307 20.107061 1.4937719
-13.085052 18.097025 0.84258133
-13.094718 16.365797 0.26149622
-13.089376 22.470037 -0.31672078
-13.054561 20.064108 -0.8876909
-13.073507 18.099348 -1.3902069
-13.075287 16.341274 -1.8233707
-13.068301 22.457268 -2.9234898
-13.082643 20.124403 -3.3015223
-13.077869 18.087523 -3.6482389
-13.0818 16.338852 -3.9524636
-13.072107 22.443382 -5.5751305
-13.082538 20.136751 -5.7873507
-13.074549 18.08173 -5.9660969
-13.07443 16.330429 -6.1532612
-14.168068 22.085392 7.0083189
-13.084717 16.558443 2.3785758
-13.087765 22.764406 2.2980392
-13.06994 20.382196 1.5082256
-13.085632 18.333698 0.84984636
-13.065348 16.53607 0.26293099
-13.088413 22.78874 -0.32007495
-13.079782 20.37528 -0.89789039
-13.074548 18.336784 -1.4022558
-13.071087 16.543091 -1.836906
-13.073241 22.786242 -2.9558175
-13.077379 20.388998 -3.3317032
-13.053591 18.289249 -3.6727028
-13.077348 16.540295 -3.9817073
-13.078297 22.774181 -5.6372633
-13.057361 20.37051 -5.8313975
-13.073998 18.316624 -6.0170178
-13.062241 16.52198 -6.1951199
-13.977694 22.085648 6.9810529
-15.485007 21.975256 6.4803767
-15.448692 21.926352 3.6911955
-13.083825 16.767799 2.3970721
-13.09326 23.100853 2.3238492
-13.072013 20.663368 1.5230675
-13.067254 18.547585 0.85602802
-13.096933 16.786776 0.26563451
-13.073964 23.090494 -0.32318035
-13.074553 20.644693 -0.9062103
-13.08067 18.585573 -1.4151167
-13.079274 16.763895 -1.8524773
-13.072595 20.659395 -3.3627172
-13.070675 18.552879 -3.7094679
-13.065579 16.735462 -4.009315
-13.08417 23.111643 -5.7008147
-13.065121 20.660563 -5.8913693
-13.064811 18.543327 -6.0650411
-13.0822 16.757559 -6.2532358
-13.806479 22.114241 6.9631815
-15.385545 22.121138 6.4954348
-15.313601 22.020353 3.6911321
-13.08456 16.982574 2.4162529
-13.077662 23.406971 2.3465271
-13.097164 20.98704 1.5409725
-13.058541 18.778898 0.86298954
-13.068177 16.96352 0.26715741
-13.094802 23.461906 -0.32724795
-13.078528 20.934048 -0.91537184
-13.084116 18.834965 -1.4279658
-13.080139 16.978796 -1.8673204
-13.080055 23.460463 -3.0222266
-13.066887 20.933546 -3.3942263
-13.07703 18.805935 -3.7439501
-13.093082 16.98452 -4.0496583
-13.064589 23.410959 -5.7547636
-13.076472 20.962152 -5.9543757
-13.072314 18.797892 -6.1219535
-13.088737 16.979704 -6.3060431
-13.626802 22.127535 6.9409089
-13.10151 17.222122 2.4388511
-13.077617 23.747946 2.3726203
-13.074682 21.240082 1.5536324
-13.06759 19.0401 0.87129188
-13.062906 17.17362 0.26919883
-13.072238 23.762934 -0.3303217
-13.053991 21.182922 -0.92273438
-13.067763 19.059963 -1.4389178
-13.079063 17.194605 -1.8821934
-13.075766 23.794878 -3.0549135
-13.079225 21.24238 -3.4312239
-13.088312 17.195515 -4.0807414
-13.066303 23.755407 -5.8196158
-13.087109 21.268709 -6.0185308
-13.086739 19.067173 -6.1833825
-13.089977 17.198534 -6.3573642
-13.076776 17.410278 2.454087
-13.085453 24.111128 2.4008384
-13.070478 21.528048 1.5688
-13.065207 19.289253 0.87900817
-13.063295 17.394609 0.27140132
-13.077814 24.122385 -0.33419657
-13.07948 19.330309 -1.4532412
-13.083622 17.421415 -1.8981974
-13.076914 24.146839 -3.08974
-13.071677 21.524841 -3.4638283
-13.079303 19.31053 -3.8121631
-13.069331 17.390968 -4.108017
-13.084544 24.138123 -5.8935947
-13.071528 21.538378 -6.0720301
-13.085647 19.318586 -6.2387586
-13.07295 17.396631 -6.4008183
-13.076691 17.634466 2.4743311
-13.095988 24.487761 2.430294
-13.082357 21.848701 1.5862871
-13.071773 19.556318 0.88750648
-13.078845 17.639683 0.27396786
-13.091418 24.505159 -0.33838031
-13.065299 21.79567 -0.94237036
-13.080108 19.589142 -1.4666384
-13.099124 17.666777 -1.9161378
-13.091661 24.532358 -3.1287322
-13.084738 19.576189 -3.848686
-13.059708 17.602018 -4.1388631
-13.094238 24.51384 -5.965601
-13.072911 21.841692 -6.1348104
-13.07061 19.55372 -6.2886744
-13.066268 17.611719 -6.4503355
-13.085066 17.873943 2.4966204
-13.086615 22.163231 1.6032628
-13.061103 19.80228 0.89501488
-13.090464 17.883678 0.2765047
-13.086672 22.138235 -0.95369184
-13.089584 19.866211 -1.4813414
-13.091728 17.885143 -1.9310727
-13.078769 22.144541 -3.537456
-13.067052 19.811783 -3.8791676
-13.070416 17.844227 -4.1768785
-13.084704 22.168955 -6.2040629
-13.078663 19.82803 -6.350966
-13.063067 17.835068 -6.5026584
-13.083663 18.10405 2.5175006
-13.076875 22.460382 1.6189235
-13.07624 20.092384 0.90448338
-13.076339 18.096315 0.27854651
-13.071851 20.106752 -1.4932685
-13.079215 18.100021 -1.945572
-13.090452 22.47818 -3.5778544
-13.068629 20.081184 -3.9161413
-13.082028 18.091909 -4.2159853
-13.088859 22.490114 -6.2713466
-13.074491 20.088806 -6.4086766
-13.072886 18.080158 -6.5626478
-13.097506 18.359451 2.5417926
-13.08648 22.797441 1.6373997
-13.077999 20.367367 0.91323239
-13.081495 18.339451 0.28104815
-13.076159 22.753307 -0.97320199
-13.065639 20.369625 -1.5068089
-13.06534 18.316526 -1.9601896
-13.072074 22.766712 -3.6109447
-13.073939 20.361546 -3.9550974
-13.0924 18.342237 -4.2555194
-13.075502 22.787653 -6.3318233
-13.056644 20.333202 -6.4609628
-13.078579 18.32378 -6.6218233
-15.507903 22.010969 5.7792182
-13.085181 18.582296 2.5614805
-13.069741 23.09535 1.6530056
-13.076477 20.642494 0.92195368
-13.067086 18.55908 0.28317988
-13.076043 23.079763 -0.98371482
-13.070313 20.654699 -1.5219355
-13.094542 18.597792 -1.981654
-13.069999 23.09004 -3.6494386
-13.092333 20.668037 -3.9989514
-13.065483 18.544104 -4.2836733
-13.058876 23.085678 -6.3922477
-13.086082 18.57427 -6.6832018
-15.35566 22.08091 5.772778
-13.084009 18.821581 2.5712602
-13.076527 23.417877 1.6673878
-13.083909 20.937315 0.93151796
-13.061805 18.810856 0.28465563
-13.071461 23.405371 -0.99415565
-13.079076 18.820093 -1.996752
-13.084684 23.450478 -3.7005935
-13.081207 20.933516 -4.0347114
-13.076661 18.80397 -4.3219271
-13.082851 23.462849 -6.4743333
-13.087272 20.941753 -6.6027994
-13.10142 19.09557 2.5976591
-13.083145 23.771221 1.6867987
-13.05561 21.180109 0.93873823
-13.071144 19.073055 0.28740424
-13.079645 23.761347 -1.0058481
-13.081886 21.245556 -1.553526
-13.066236 19.049994 -2.0125997
-13.07292 21.208723 -4.0722175
-13.069517 19.041906 -4.3581009
-13.086544 23.811804 -6.5483432
-13.095448 21.243773 -6.672564
-13.097609 19.343376 2.6203873
-13.087251 24.127983 1.7063841
-13.072009 21.500954 0.9493857
-13.062886 19.314089 0.28883556
-13.084599 24.119486 -1.0175908
-13.077486 21.533236 -1.5686647
-13.083529 19.3284 -2.033493
-13.087076 24.146477 -3.784795
-13.066645 21.492674 -4.1112657
-13.088875 19.323172 -4.4040098
-13.08359 24.156416 -6.6209102
-13.120669 21.580006 -6.7527585
-13.091112 19.59165 2.6430888
-13.093843 24.497612 1.7268103
-13.077933 21.811062 0.95951742
-13.069726 19.582052 0.29163808
-13.082369 24.47245 -1.0290761
-13.059009 21.803232 -1.5824662
-13.087884 19.592743 -2.0528164
-13.084716 24.499781 -3.8275161
-13.083941 21.821651 -4.1587591
-13.067969 19.549587 -4.4372535
-13.108371 24.560852 -6.7095885
-13.099898 19.867622 2.6694257
-13.059622 22.086681 0.96809906
-13.072207 19.848457 0.29440552
-13.076675 22.139784 -1.6010392
-13.084826 19.850798 -2.0714025
-13.07678 22.116278 -4.1995378
-13.059325 19.798527 -4.4754844
-13.11118 20.152727 2.6968722
-13.074964 22.425573 0.97941834
-13.067734 20.109203 0.29707813
-13.077414 22.454548 -1.6179681
-13.076074 20.104908 -2.0895069
-13.078406 22.432055 -4.2441816
-13.085942 20.106215 -4.5268011
-13.087743 20.389309 2.7177341
-13.078621 22.751539 0.99013108
-13.052797 20.35854 0.29957283
-13.056777 20.347319 -2.1063344
-13.074039 22.744158 -4.2879734
-13.075817 20.362867 -4.5664358
-13.112206 20.705807 2.7491448
-13.075238 23.072161 1.0005739
-13.083748 20.685062 0.30319047
-13.081999 23.109955 -1.6535007
-13.077181 20.656885 -2.1300337
-13.080104 23.08135 -4.3363314
-13.062194 20.618828 -4.6057744
-13.080937 23.416018 1.011986
-13.075857 20.956112 0.30598161
-13.072358 23.427074 -1.6704198
-13.069449 20.927708 -2.1496501
-13.081457 23.417566 -4.3843341
-13.078762 20.927937 -4.6623793
-13.077968 23.751839 1.0230122
-13.069203 21.234461 0.30886909
-13.074518 23.772583 -1.6893035
-13.090173 21.250004 -2.1744642
-13.089572 23.773544 -4.4358606
-13.078051 21.215347 -4.7084432
-13.073539 24.092505 1.0342104
-13.070655 21.531681 0.31201988
-13.065689 24.105644 -1.7072419
-13.097155 21.556425 -2.1975546
-13.085942 24.116007 -4.4846935
-13.067595 21.492504 -4.7463908
-13.093922 24.487309 1.0476892
-13.062843 21.819508 0.31502342
-13.086213 24.501179 -1.7295355
-13.078007 21.825565 -2.2167697
-13.089482 24.479666 -4.5372996
-13.060518 21.780817 -4.792274
-13.090366 22.173063 0.31896228
-13.074183 22.125984 -2.2390926
-13.076644 22.114241 -4.8478894
-13.07243 22.456293 0.32187662
-13.085114 22.457979 -2.2645214
-13.078245 22.429935 -4.8994126
-13.079827 22.789474 0.32549578
-13.075283 22.76104 -2.2869475
-13.070517 23.10042 0.32878527
-13.066724 23.072767 -2.3101692
-13.077862 23.075468 -5.0049825
-13.084127 23.459166 0.33387986
-13.096324 23.459572 -2.3408084
-13.085984 23.435078 -5.0685773
-13.080987 23.795589 0.33751926
-13.072097 23.757515 -2.3624892
-13.069505 23.746706 -5.118536
-13.080049 24.143635 0.34131113
-13.078793 24.118906 -2.3904011
-13.072333 24.100754 -5.1774631
-13.079328 24.477118 -2.4179037
-13.093485 24.497221 -5.2452765
