# .PCD v0.7 - Point Cloud Data file format
VERSION 0.7
FIELDS x y z
SIZE 4 4 4
TYPE F F F
COUNT 1 1 1
WIDTH 3156
HEIGHT 1
VIEWPOINT 0 0 0 1 0 0 0
POINTS 3156
DATA ascii
12.131693 0.29842409 2.919591
11.554558 0.8525691 2.4835298
10.574748 -0.78215259 2.0019448
10.091269 -0.25039974 1.6494422
9.9284468 0.24513189 1.3667852
9.9137039 0.72975504 1.1168741
9.6590424 -0.7144025 0.84073138
9.5319128 -0.23628645 0.59288847
9.5093832 0.23240331 0.354072
9.5703297 0.70280319 0.1187306
9.5283451 -0.70473582 -0.11860415
9.4973278 -0.23376888 -0.35570687
9.5358534 0.23138836 -0.59273636
9.7120104 0.71490824 -0.84864527
9.7623243 -0.72589487 -1.1025091
9.8132648 -0.24588116 -1.350628
10.06005 0.24700324 -1.6439106
10.652959 0.78590077 -2.0165985
10.89754 -0.8096754 -2.3468294
11.47399 -0.28843409 -2.7645657
15.80256 0.38633931 -4.2202024
16.047951 1.182496 -4.7388959
26.80197 -1.9843093 -8.6378365
26.309862 -0.6555742 -9.1864777
26.313242 0.62791967 -9.9282513
26.77516 1.9756426 -10.907786
12.039259 0.22224392 2.8969634
10.613788 -0.85055238 2.0102856
10.116658 -0.31315321 1.6538751
9.9174881 0.18397978 1.3650955
9.8908052 0.66712576 1.1138126
9.6740713 -0.77364951 0.84242678
9.5293913 -0.29391298 0.59283137
9.5099897 0.17503189 0.35404885
9.544939 0.6423164 0.11836469
9.5459566 -0.76437628 -0.11887898
9.4985323 -0.29096094 -0.35581109
9.5063906 0.17647 -0.59083289
9.6956711 0.65575391 -0.84686172
9.7712517 -0.78687406 -1.1040418
9.7987232 -0.30568877 -1.3488593
10.046659 0.1850003 -1.641506
10.617155 0.71778762 -2.0089493
10.955593 -0.88161421 -2.3604517
11.498703 -0.35693255 -2.7709787
15.871428 0.29059231 -4.2380381
16.168802 1.0916955 -4.7725148
26.973902 -2.1635332 -8.6973619
26.368111 -0.81894553 -9.2083969
26.262506 0.46549407 -9.9078436
26.715229 1.8088508 -10.878716
11.991412 0.14776462 2.8851776
11.382665 0.70034397 2.4445641
10.661399 -0.92023861 2.0203347
10.123503 -0.37555423 1.6553396
9.8982506 0.12287325 1.3623183
9.8689346 0.60484457 1.1109109
9.694458 -0.83517498 0.84463239
9.5445681 -0.3530134 0.59389913
9.5088139 0.11665098 0.35397175
9.5363913 0.58298516 0.11821211
9.5484962 -0.82357401 -0.11897131
9.4950285 -0.34918073 -0.35575339
9.5259447 0.1183683 -0.5919919
9.6812534 0.5951277 -0.84526771
9.798234 -0.84958857 -1.1076586
9.8082075 -0.36623788 -1.3504487
10.032291 0.12316369 -1.6390042
10.53103 0.64707816 -1.9918643
11.001814 -0.95331138 -2.3716259
11.50444 -0.4277834 -2.7729418
15.946061 0.19409195 -4.2575688
16.32955 1.001936 -4.818058
27.102936 -2.3413386 -8.7434349
26.390568 -0.98176265 -9.2181692
26.263163 0.30432177 -9.9071999
26.625013 1.6386905 -10.837681
11.951645 0.073933706 2.8754463
11.27002 0.62402481 2.4195042
10.693613 -0.98915911 2.0275514
10.110653 -0.43721601 1.653646
9.8918371 0.06209258 1.3613575
9.8404579 0.5425142 1.1073098
9.7285385 -0.89828014 0.84806591
9.5362787 -0.41131476 0.59352922
9.4985065 0.058237307 0.35356811
9.5216894 0.52346498 0.11798783
9.5732136 -0.88491535 -0.11934468
9.4962664 -0.40758735 -0.35588682
9.5181446 0.059863463 -0.59147328
9.6570663 0.53418356 -0.84285384
9.814786 -0.91173249 -1.1101414
9.8196526 -0.4270165 -1.3523599
10.012441 0.061479002 -1.6356688
10.497671 0.58039588 -1.9848437
11.088275 -1.0293883 -2.3915808
11.540161 -0.50003618 -2.7822387
16.44644 0.9078508 -4.850811
27.240545 -2.5217109 -8.792654
26.449642 -1.1465169 -9.2410879
26.229029 0.14297475 -9.8938065
26.479885 1.4667237 -10.77474
11.909554 0.00059628079 2.8652649
10.752492 -1.0611851 2.0399113
10.131296 -0.5004071 1.6574931
9.8730516 0.0013935569 1.3587452
9.8061342 0.48028904 1.1030952
9.7550545 -0.96113002 0.85087556
9.5341787 -0.46985021 0.59356678
9.4889269 -4.5486973e-05 0.35320488
9.5311928 0.46534708 0.11806799
9.6125946 -0.94807613 -0.11990589
9.5070715 -0.46650934 -0.35639232
9.5091639 0.0014586875 -0.59090346
9.650732 0.4744553 -0.842031
9.8439178 -0.97539681 -1.1140925
9.8258209 -0.48770612 -1.3535961
10.009614 4.2651547e-05 -1.6351762
10.45789 0.51385248 -1.9766886
11.160808 -1.1052343 -2.4086423
16.913006 0.82954627 -4.9868279
27.41855 -2.707968 -8.8553076
26.462135 -1.3097786 -9.248086
26.239737 -0.017973306 -9.8977003
26.467775 1.3032038 -10.766356
11.904424 -0.072449498 2.8640835
11.152428 0.48031956 2.3928132
10.810745 -1.1339557 2.0522442
10.157961 -0.56422436 1.6623906
9.8718863 -0.059180453 1.3586092
9.7843075 0.41905752 1.1003299
9.7849903 -1.0247397 0.85401893
9.5481567 -0.52928662 0.59462804
9.4911051 -0.058282923 0.35329258
9.5077553 0.40574163 0.1177446
9.6092348 -1.0073167 -0.11751636
9.522666 -0.52586401 -0.35580632
9.5155764 -0.056927849 -0.58846098
9.6260242 0.4140504 -0.84164625
9.8645973 -1.0386065 -1.1157509
9.8389368 -0.54889601 -1.3576833
10.004406 -0.0613444 -1.634356
10.41706 0.44779223 -1.9684148
11.253208 -1.1814145 -2.4300444
11.635839 -0.65146703 -2.8070657
13.753861 -0.081390031 -3.6720481
21.287979 0.91323131 -6.2786088
27.777008 -2.9155769 -8.9757814
26.572107 -1.4787173 -9.2943554
26.253002 -0.17907158 -9.9029322
26.431343 1.1388831 -10.748491
11.893794 -0.14537056 2.8616869
11.121289 0.41062972 2.3855469
10.876152 -1.20833 2.0660291
10.167078 -0.62732983 1.6644814
9.8552122 -0.11955648 1.3563899
9.7683649 0.35834184 1.098269
9.8187265 -1.0892204 0.85753059
9.5674667 -0.58926344 0.59604454
9.5072718 -0.11672322 0.35391441
9.5057173 0.3472366 0.11769075
9.6566515 -1.0722301 -0.11817449
9.5173855 -0.58416903 -0.3557362
9.5268154 -0.11545588 -0.58918881
9.6290407 0.3550027 -0.84170377
9.914608 -1.1054221 -1.1221535
9.8756332 -0.61174953 -1.3632393
9.9901514 -0.12256119 -1.6321195
10.412092 0.38358894 -1.9669945
11.33754 -1.2606473 -2.4498794
11.696658 -0.72689259 -2.8227606
21.262293 0.78145826 -6.2695012
28.017319 -3.1147213 -9.0594397
26.63772 -1.6463798 -9.3206625
26.282297 -0.34055382 -9.9145851
26.358927 0.97376692 -10.716412
11.860999 -0.21776515 2.854064
11.0725 0.34081024 2.3745885
10.948464 -1.2844193 2.0812235
10.193883 -0.69179529 1.6695333
9.8583288 -0.1800984 1.3569455
9.7631054 0.29817533 1.0974513
9.8688049 -1.1561176 0.86250752
9.5682116 -0.64826483 0.59632748
9.4908113 -0.17476991 0.3533349
9.4837608 0.28817764 0.1173948
9.6865263 -1.1357577 -0.11862314
9.5425653 -0.64451057 -0.35681853
9.5222855 -0.17384265 -0.58896357
9.6144304 0.29540303 -0.84025228
9.9444361 -1.1705676 -1.1263212
9.864563 -0.67184818 -1.3622546
9.9771643 -0.18363555 -1.6301512
10.372789 0.31842154 -1.9591634
11.472166 -1.346929 -2.4807096
13.757195 -0.25026259 -3.673481
21.269773 0.65107507 -6.270411
26.735983 -1.8171942 -9.3587713
26.259178 -0.50142044 -9.9068375
26.315952 0.81052095 -10.696717
11.026694 0.27168921 2.364363
11.048824 -1.3649712 2.1018536
10.223746 -0.75687009 1.6751533
9.8777552 -0.24109024 1.3597975
9.7382116 0.23761685 1.0944685
9.9037685 -1.2218615 0.86620229
9.580327 -0.70816499 0.59734213
9.4936361 -0.2331012 0.35348666
9.4887037 0.23006223 0.11743631
9.7278404 -1.201156 -0.11921708
9.5417671 -0.70329624 -0.35694328
9.5040531 -0.23185264 -0.5879128
9.5972414 0.23594175 -0.83860779
9.9846706 -1.2374635 -1.1317171
9.9016209 -0.73543578 -1.3679696
9.9844465 -0.24506184 -1.631556
10.354129 0.2542679 -1.9553075
13.725085 -0.33393288 -3.6653852
21.226076 0.51939672 -6.2564716
26.842112 -1.9899408 -9.4000177
26.291527 -0.6634407 -9.9203911
26.274025 0.64788967 -10.677857
11.924459 -0.36535504 2.8701966
11.011486 0.2037172 2.3607895
11.146168 -1.4464864 2.1220202
10.255937 -0.82255727 1.681223
9.8735161 -0.30161583 1.3594431
9.7306528 0.17769852 1.0934758
9.9454145 -1.2890004 0.87052006
9.6101494 -0.7696864 0.5994848
9.4868259 -0.29118904 0.35329297
9.4877033 0.17179587 0.11740868
9.7641411 -1.2665105 -0.11975495
9.5606136 -0.7636947 -0.35781685
9.521636 -0.29074982 -0.58909965
9.5895691 0.17688484 -0.83782673
10.031333 -1.305792 -1.1378927
9.9175596 -0.79783732 -1.3708222
9.9974813 -0.30677253 -1.6339628
10.334885 0.19035177 -1.951416
11.785736 -1.5305902 -2.5523846
12.012961 -0.96881461 -2.9029067
21.234108 0.38924229 -6.2580166
26.937586 -2.1632917 -9.4379234
26.343967 -0.82653868 -9.941905
26.275173 0.48661998 -10.67691
11.931505 -0.43886524 2.8724871
10.979725 0.1357426 2.3537571
11.256193 -1.5310519 2.1447151
10.282299 -0.88820082 1.6864061
9.8866768 -0.3627505 1.361536
9.7064104 0.1176841 1.09065
9.9725618 -1.3547879 0.87360746
9.6310663 -0.83086616 0.60109627
9.4911432 -0.34962508 0.35352698
9.4852877 0.11353779 0.11736795
9.7820692 -1.3299173 -0.12007266
9.5757265 -0.82406253 -0.35856497
9.5289927 -0.34950989 -0.58967644
9.5755081 0.11785684 -0.83651942
10.086874 -1.376014 -1.1451292
9.9448757 -0.8614819 -1.3753026
10.000861 -0.36831087 -1.6348537
10.304668 0.12655149 -1.9455274
11.989998 -1.6319883 -2.5987403
12.19671 -1.0589964 -2.9488237
21.129946 -0.77364147 -5.6450186
21.230005 0.25887066 -6.2562213
27.082432 -2.3422561 -9.4935293
26.392473 -0.99019527 -9.9623156
26.261444 0.32518846 -10.670319
10.967606 0.06829036 2.3510251
11.382449 -1.6194195 2.170624
10.321318 -0.95540941 1.6937352
9.8762283 -0.42306292 1.3604289
9.7045107 0.058109865 1.090376
10.040586 -1.4268275 0.88031691
9.642765 -0.89151537 0.60215652
9.5148335 -0.40897319 0.35449621
9.4891195 0.055354346 0.11740895
9.8452873 -1.4000908 -0.12095181
9.5953379 -0.88509464 -0.35949594
9.5293255 -0.40808585 -0.58984089
9.566433 0.059041042 -0.83567917
10.141429 -1.446895 -1.1523088
9.960145 -0.92441136 -1.3781726
10.005791 -0.42998511 -1.6360601
10.29692 0.06326966 -1.9439547
12.434608 -1.1565671 -3.0079999
21.104204 -0.90239704 -5.6395144
21.197645 0.12839769 -6.2463355
27.232185 -2.5236435 -9.5512724
26.453362 -1.1550634 -9.9877863
26.255096 0.16399615 -10.66713
12.015697 -0.58969027 2.8942802
10.93748 0.00099036121 2.3445218
11.540672 -1.7142404 2.2027614
10.369445 -1.0240729 1.7026321
9.8881865 -0.48437643 1.3624599
9.6771765 -0.0014329166 1.0872853
10.096014 -1.4979594 0.88596576
9.6542854 -0.95235944 0.60322952
9.5151443 -0.46749476 0.354608
9.4832745 -0.0028690237 0.11733464
9.9033489 -1.4703978 -0.12177368
9.6193275 -0.94686759 -0.36060563
9.5341911 -0.46691874 -0.59030831
9.5796347 0.00034186229 -0.83681643
10.198203 -1.5189009 -1.1597968
9.9934006 -0.9893809 -1.3835882
10.025639 -0.49248523 -1.6397686
10.285448 8.7653782e-05 -1.9417522
12.724526 -1.2623312 -3.0799487
21.153431 -1.0345709 -5.6542592
21.230927 -0.0016736249 -6.2560277
27.390375 -2.7079105 -9.612402
26.469618 -1.3185443 -9.9967899
26.215605 0.002890398 -10.650877
12.119014 -0.66932458 2.9201009
10.916961 -0.065997936 2.3401661
11.735765 -1.8168859 2.2420845
10.392108 -1.0907381 1.7074201
9.9076834 -0.54628921 1.3655823
9.7087154 -0.06101032 1.0908504
10.165594 -1.5720904 0.89290136
9.7088213 -1.0179287 0.60701591
9.5160351 -0.52608758 0.35475481
9.4835768 -0.061060455 0.1173408
9.9699564 -1.5428686 -0.12270679
9.6405697 -1.0087223 -0.36162716
9.5546427 -0.52670592 -0.5917635
9.5715618 -0.058389522 -0.83612686
10.277435 -1.5952219 -1.1698986
10.033519 -1.0555596 -1.3900131
10.05179 -0.55561513 -1.6445727
10.257579 -0.06285309 -1.9365273
13.234829 -2.0502141 -2.8762414
13.023202 -1.3727071 -3.1542218
21.176544 -1.1659906 -5.6622429
21.207918 -0.13180366 -6.2493691
27.64164 -2.9041221 -9.7066517
26.557972 -1.4863595 -10.033415
26.235401 -0.15808775 -10.659114
12.227109 -0.75057453 2.9472013
10.93243 -0.1331778 2.3436134
11.969783 -1.9283942 2.2890103
10.457822 -1.1625531 1.7193564
9.9232197 -0.60824054 1.3682125
9.7063627 -0.12055843 1.0906487
10.232998 -1.6468667 0.89969248
9.7356863 -1.0811793 0.60909891
9.5304241 -0.58556038 0.3554185
9.4762287 -0.11916398 0.11725672
10.020056 -1.6136367 -0.12344293
9.6622314 -1.0709639 -0.36267936
9.5725079 -0.58662605 -0.59308171
9.5761538 -0.1171812 -0.83657503
10.338033 -1.669652 -1.1779407
10.08617 -1.1237128 -1.3982362
10.066198 -0.61838746 -1.6475197
10.261302 -0.12584399 -1.9373394
13.726989 -2.2127869 -2.986094
21.156174 -1.2951208 -5.6588149
21.211229 -0.26198635 -6.2507014
27.86557 -3.1006312 -9.7917833
26.642067 -1.65511 -10.068832
26.227034 -0.31897822 -10.656309
12.309157 -0.83145338 2.9681518
10.910185 -0.19986662 2.3390632
12.322285 -2.0628328 2.3587961
10.519349 -1.2347819 1.7306852
9.951726 -0.67130405 1.3726851
9.7103701 -0.18020476 1.0912026
10.279614 -1.7191426 0.90470147
9.7646122 -1.1450874 0.61133671
9.5434895 -0.64516526 0.35604668
9.5065584 -0.17789136 0.1176433
10.083933 -1.687466 -0.12435509
9.7103443 -1.1366525 -0.36474025
9.5782957 -0.64599603 -0.59367472
9.5712166 -0.17586297 -0.83622223
10.425354 -1.7494586 -1.1890911
10.128569 -1.1913998 -1.4051008
10.077612 -0.68118173 -1.6500409
10.275756 -0.18908753 -1.9402509
21.681393 -3.6316636 -4.7212095
13.54403 -1.595888 -3.284863
21.19035 -1.4277732 -5.6701922
21.227264 -0.39246464 -6.2560182
28.241364 -3.3180006 -9.9308023
26.779858 -1.8286884 -10.124958
26.2952 -0.48119056 -10.685004
10.908251 -0.26679423 2.3389556
12.974316 -2.2539127 2.486212
10.567493 -1.3062162 1.739892
9.9693165 -0.73396629 1.3757067
9.6884499 -0.23927356 1.0888839
10.367206 -1.7992506 0.91336465
9.8001747 -1.2102625 0.61401653
9.5361853 -0.7034772 0.35592851
9.4914684 -0.23587574 0.11747228
10.13832 -1.760584 -0.12515667
9.7421837 -1.20102 -0.36620608
9.5925827 -0.70611197 -0.59481758
9.5675859 -0.23452941 -0.83601499
10.500087 -1.8283105 -1.198872
10.160083 -1.2583573 -1.4105172
10.097809 -0.74481583 -1.6540649
10.259447 -0.25176778 -1.9374267
21.739151 -3.7786136 -4.7387466
21.344437 -2.6478908 -5.1805553
21.219517 -1.5605866 -5.6804523
21.234735 -0.52295846 -6.2590475
28.832842 -3.5669813 -10.146296
26.778393 -1.993736 -10.128839
26.25651 -0.64166456 -10.670681
10.915996 -0.33401433 2.3410115
21.622366 -3.8930862 4.1478996
10.654456 -1.3833903 1.7555746
9.9905891 -0.79719466 1.3792913
9.7093449 -0.29941151 1.091418
10.459105 -1.8813806 0.92246085
9.8436375 -1.2769982 0.61721897
9.5639267 -0.76455402 0.35713229
9.4939556 -0.29423732 0.11752319
10.235514 -1.8422303 -0.12649368
9.7852545 -1.2673308 -0.36811048
9.6037264 -0.76620686 -0.59578896
9.5713844 -0.29339668 -0.83648849
10.614648 -1.915436 -1.2132713
10.200015 -1.3268989 -1.4171648
10.134416 -0.81006742 -1.6608442
10.268962 -0.3150591 -1.9395521
21.815172 -3.9298763 -4.7604847
21.4266 -2.7916825 -5.2045565
21.240028 -1.6931881 -5.6886177
21.271379 -0.65448105 -6.2709146
26.901382 -2.1689508 -10.180202
26.332211 -0.8052097 -10.703252
21.231977 -1.8273178 5.126987
10.94453 -0.40211859 2.3476162
21.73753 -4.0516791 4.1746826
10.009601 -0.86055195 1.3826189
9.7015018 -0.35876596 1.0907633
10.553741 -1.9653308 0.93185353
9.9015274 -1.3463355 0.62135506
9.5810699 -0.82511878 0.35795477
9.4854927 -0.352245 0.11744298
10.310651 -1.9211416 -0.12756552
9.8159142 -1.3325913 -0.36956456
9.6252136 -0.82738644 -0.59742564
9.5892429 -0.35285008 -0.83822274
10.719572 -2.0023623 -1.2266455
10.271403 -1.4003286 -1.4282502
10.147447 -0.8738023 -1.6638269
10.273606 -0.37831163 -1.9408312
21.946259 -4.0926771 -4.7944798
21.525335 -2.9389758 -5.2328219
21.312571 -1.8306402 -5.7109466
21.251947 -0.78443307 -6.2664866
27.050329 -2.3481021 -10.241827
26.352699 -0.96771806 -10.713793
21.26503 -1.9616805 5.1377783
10.951651 -0.46968541 2.3497171
21.805302 -4.2029157 4.1925721
10.783804 -1.5349748 1.7798575
10.056884 -0.92681497 1.3899094
9.7267952 -0.41948009 1.093876
10.670859 -2.054965 0.94329023
9.934927 -1.4130166 0.62398332
9.6030264 -0.88640213 0.35897151
9.4932032 -0.41087526 0.11756744
10.384793 -2.0009651 -0.12863231
9.8738289 -1.4022076 -0.37206197
9.6377649 -0.88807118 -0.59853172
9.594902 -0.41202563 -0.83892262
10.846247 -2.0949783 -1.2425886
10.346107 -1.4752308 -1.4398692
10.185349 -0.9400602 -1.6709561
10.284702 -0.44192702 -1.943403
22.059214 -4.2539649 -4.8247681
21.571295 -3.0801928 -5.2484899
21.31938 -1.9630755 -5.7158923
21.261398 -0.91544938 -6.270812
27.218723 -2.5310819 -10.31127
26.402136 -1.1317919 -10.736512
21.302273 -2.0970142 5.1497884
10.983526 -0.53858906 2.3572209
21.897274 -4.3601618 4.2153206
10.90712 -1.6208693 1.8018183
10.070607 -0.99043298 1.3926198
9.7229109 -0.47909915 1.0937492
10.800507 -2.1487432 0.9558984
9.991292 -1.4836346 0.62808341
9.6174421 -0.94728202 0.35972092
9.491972 -0.46918935 0.11758564
10.489386 -2.0879495 -0.1300841
9.9261904 -1.4718331 -0.37436828
9.6571016 -0.94964588 -0.60008311
9.604763 -0.47150818 -0.84002197
10.999063 -2.1945863 -1.2616147
10.407925 -1.549264 -1.4497682
10.235519 -1.0080667 -1.6801699
10.306778 -0.50625151 -1.9481248
22.168905 -4.4163723 -4.8545957
21.647894 -3.226789 -5.2718458
21.356146 -2.0986881 -5.729094
21.270695 -1.046643 -6.2753296
27.369484 -2.7145891 -10.374497
26.466681 -1.2972995 -10.765794
21.353498 -2.2344313 5.1653891
11.007869 -0.60750991 2.3632009
22.017082 -4.5246425 4.243649
10.129507 -1.0590197 1.401637
9.7403584 -0.53988898 1.0960639
10.042351 -1.5542525 0.63188076
9.6364441 -1.0088927 0.36065641
9.4989262 -0.5279786 0.1177097
10.598343 -2.1773288 -0.13132894
9.9768686 -1.5419686 -0.37795234
9.717082 -1.015781 -0.60632944
9.6160927 -0.53122872 -0.84287632
11.159355 -2.2978559 -1.2800268
10.485678 -1.6266637 -1.4621451
10.27976 -1.0761508 -1.6853887
10.334714 -0.57120967 -1.9525616
22.276432 -4.5856695 -4.8837781
21.728127 -3.3672657 -5.3029366
21.408669 -2.2434669 -5.7542124
21.297419 -1.178995 -6.2812805
27.610189 -2.9096501 -10.472308
26.500694 -1.4620147 -10.783075
21.383101 -2.3702576 5.1759706
11.029989 -0.6766398 2.3687963
22.10191 -4.6835985 4.2654576
11.117765 -1.791883 1.8401105
10.148164 -1.1239604 1.4051464
9.7605104 -0.60110092 1.0987259
11.093174 -2.3488441 0.98427796
10.126458 -1.6309545 0.63779062
9.664607 -1.0718316 0.36194974
9.506114 -0.58690786 0.11784117
10.732016 -2.2735081 -0.13315569
10.042855 -1.6153219 -0.38082039
9.7280121 -1.0773058 -0.60741246
9.6327925 -0.59145862 -0.84464234
11.382257 -2.4166491 -1.307271
10.581601 -1.708099 -1.4769545
10.322114 -1.1446564 -1.6934524
10.332344 -0.63469321 -1.9528128
22.405756 -4.7557802 -4.9184361
21.852087 -3.5239117 -5.3383665
21.434273 -2.3792005 -5.7649097
21.299587 -1.3102543 -6.284173
27.840656 -3.1067767 -10.566754
26.626276 -1.6328745 -10.838047
21.417337 -2.5071747 5.1878843
11.070958 -0.74736571 2.378535
22.200583 -4.847033 4.2901597
10.196782 -1.192723 1.412865
9.7685223 -0.66178405 1.1000643
11.294991 -2.4640841 1.0035075
10.190802 -1.7055341 0.64249021
9.6952324 -1.1354908 0.36335081
9.530282 -0.64712286 0.11818777
10.850821 -2.368336 -0.13480754
10.100627 -1.6882577 -0.38339666
9.7615757 -1.1416954 -0.60993403
9.6336756 -0.65087026 -0.84505409
10.372583 -1.2147259 -1.7029231
10.370472 -0.70093268 -1.9607949
21.90131 -3.6698673 -5.3557916
21.479433 -2.5177259 -5.7811017
21.326496 -1.4433138 -6.2946062
28.258852 -3.3291194 -10.733028
26.676136 -1.8002944 -10.862635
21.477625 -2.6479208 5.2063251
11.125416 -0.81964719 2.3912704
22.307055 -5.0138721 4.3165989
10.252635 -1.2630728 1.4216511
9.784276 -0.72318828 1.1023173
11.543983 -2.5927081 1.0270234
10.243343 -1.7790074 0.64647877
9.7394934 -1.2012994 0.36527893
9.5410576 -0.70669299 0.11837295
10.172997 -1.7645853 -0.38654736
9.7912388 -1.2061094 -0.61223841
9.659771 -0.712201 -0.84771049
10.784894 -1.8769906 -1.5084312
10.416024 -1.284649 -1.7113169
10.400365 -0.76708794 -1.9672998
21.981705 -3.8221483 -5.3810859
21.555073 -2.660768 -5.8057456
21.35475 -1.5769135 -6.3056827
26.773222 -1.9719437 -10.906891
21.509918 -2.7859948 5.2181988
11.185694 -0.89312726 2.405359
22.448538 -5.1905756 4.3500581
11.643752 -2.0972402 1.9332297
10.30852 -1.3342192 1.4305085
9.8212385 -0.78654021 1.1070045
11.850023 -2.7379274 1.0557253
10.353015 -1.8635665 0.65410966
9.7832546 -1.2676866 0.36720505
9.542861 -0.76572961 0.11845138
10.262586 -1.8450599 -0.39037433
9.8331079 -1.2725649 -0.61533314
9.6726685 -0.77285302 -0.84924257
12.463233 -2.8868892 -1.4372833
10.476114 -1.3573688 -1.7225255
10.421827 -0.83299619 -1.9722892
22.131603 -3.9882669 -5.4236693
21.596064 -2.8004625 -5.8213043
26.940899 -2.1557014 -7.95893
26.925497 -2.1493452 -10.97409
21.57036 -2.9285066 5.2371225
11.255258 -0.96821815 2.4215498
22.484375 -5.344409 4.3632755
11.934861 -2.2253659 1.9837928
10.379861 -1.4082621 1.4415804
9.8367901 -0.84856111 1.1093234
12.272052 -2.9148703 1.0948969
10.424939 -1.9426262 0.65939462
9.8261337 -1.3345969 0.36911488
9.5647793 -0.82658482 0.11878416
11.440277 -2.7185297 -0.14272836
10.321178 -1.9210441 -0.39304411
9.8823404 -1.3406389 -0.61891711
9.6826887 -0.83347529 -0.85055536
15.959624 -3.800096 -1.8431478
10.545802 -1.4322461 -1.7353963
10.457446 -0.9004516 -1.9800382
22.255033 -4.1516576 -5.4600577
21.67 -2.9453609 -5.8459964
27.131113 -2.3385465 -8.0192118
27.043392 -2.325834 -11.02775
21.627392 -3.0715134 5.255446
11.326447 -1.0443926 2.4381993
10.431957 -1.4805733 1.4500501
9.8665257 -0.91215003 1.1132871
15.761143 -3.8459182 1.4082682
10.509927 -2.0252678 0.66554368
9.8775311 -1.4033558 0.37136209
9.5990458 -0.88891721 0.11927521
11.742097 -2.8664796 -0.14671053
10.437144 -2.008965 -0.39792219
9.9251957 -1.4085262 -0.62213069
9.7098179 -0.89586318 -0.85340524
16.197474 -3.9619057 -1.8733889
11.211489 -2.1645718 -1.573404
10.657121 -1.5140182 -1.7552104
10.521869 -0.97107416 -1.9933269
22.361801 -4.3137245 -5.4926424
21.753086 -3.0927095 -5.8734193
27.235937 -2.5160322 -8.0546074
27.177322 -2.5054348 -11.088425
21.6887 -3.216105 5.2750401
21.745916 -4.3315167 3.6231334
9.9021883 -0.97676092 1.1179662
15.825263 -3.9646044 1.4161443
10.643773 -2.1188757 0.6748302
9.9266653 -1.4725305 0.37354207
9.5959101 -0.94804603 0.11930629
12.100115 -3.0326679 -0.1514134
10.532203 -2.0943613 -0.40202871
9.9675446 -1.4769831 -0.62534148
9.7457228 -0.95951879 -0.85706228
16.343704 -4.1041183 -1.8931788
11.433231 -2.2802384 -1.6064563
10.712655 -1.5890257 -1.7659293
10.578912 -1.0418409 -2.005307
22.490227 -4.4818044 -5.530838
21.834803 -3.2411335 -5.9007421
27.444502 -2.7052321 -8.1210432
27.372768 -2.6929352 -11.174698
21.762995 -3.3637202 5.2980304
11.520721 -1.2050574 2.4830163
21.824884 -4.4866476 3.6408086
10.584276 -1.6349342 1.4739006
9.9230947 -1.040341 1.1210262
15.888511 -4.0842199 1.4240199
10.749536 -2.2085869 0.68238205
9.9717855 -1.541814 0.37558886
9.6275225 -1.0108565 0.11977419
10.036342 -1.5501698 -0.63024259
9.7715988 -1.0226427 -0.85987347
11.668741 -2.401747 -1.641587
10.627625 -1.1125216 -2.0157967
22.655277 -4.6594052 -5.5783534
21.905628 -3.3891466 -5.9253902
27.67326 -2.8993378 -8.1938438
27.563112 -2.8825285 -11.259413
21.833839 -3.5119731 5.3204222
11.641645 -1.2899671 2.5107372
21.945999 -4.6520743 3.6657059
10.671677 -1.7155421 1.4875091
9.9592934 -1.1059577 1.125861
15.949116 -4.2042937 1.4317368
10.905571 -2.3104751 0.69317406
10.047614 -1.6167245 0.37881148
9.6553726 -1.0737176 0.12020036
15.218775 -4.0134177 -0.19104034
10.766136 -2.2785676 -0.41199467
10.10314 -1.6240191 -0.63505101
9.7958317 -1.0859834 -0.86257601
12.003342 -2.5474868 -1.6908267
10.934439 -1.7593184 -1.8059124
10.689607 -1.1853629 -2.0288947
22.024755 -3.546088 -5.9633875
27.900145 -3.0962944 -8.2664919
27.808996 -3.0808558 -11.367364
21.894829 -3.6597424 5.3406558
11.809873 -1.3820128 2.5487998
22.038639 -4.8132019 3.6860435
10.764519 -1.7982922 1.5019602
10.013429 -1.1742119 1.132774
16.557335 -4.4734559 1.4887722
11.067088 -2.4157429 0.70436931
10.11314 -1.6909915 0.38166589
9.6853771 -1.13726 0.1206585
15.248693 -4.1215434 -0.19172974
10.889866 -2.3746579 -0.41727921
10.170222 -1.6988826 -0.63991082
9.8269072 -1.1505091 -0.8659178
12.559484 -2.7461591 -1.7715068
11.076647 -1.8519939 -1.8312415
10.773129 -1.2615871 -2.0461781
22.107151 -3.6986575 -5.9917288
28.302778 -3.3169024 -8.3916607
28.151373 -3.2937624 -11.515361
21.968323 -3.8069236 5.3677688
12.006335 -1.4830606 2.5999217
22.090267 -4.9546652 3.6981044
10.881047 -1.8823935 1.5192969
10.041899 -1.2375184 1.1394416
16.56646 -4.5822678 1.4976881
11.270447 -2.5359905 0.71800816
10.174895 -1.7632006 0.3883228
9.7229576 -1.2019149 0.11895377
15.263316 -4.226511 -0.19254819
11.100328 -2.495333 -0.42728001
10.232604 -1.7779114 -0.64260495
9.8657408 -1.2172179 -0.86769283
21.885887 -4.9267154 -3.0880902
10.817308 -1.3282629 -2.057404
22.21842 -3.8532264 -6.0305586
28.675028 -3.5415649 -11.73409
22.0429 -3.9593127 5.3918257
12.27214 -1.5924023 2.6595464
22.226204 -5.1285925 3.7260594
10.089491 -1.3062804 1.1457297
16.59605 -4.7002625 1.5029421
11.502977 -2.6625712 0.73384899
10.235464 -1.8384562 0.39105758
9.7538891 -1.2665492 0.11942503
15.584035 -4.4184504 -0.19693239
10.327485 -1.8597493 -0.64926791
9.9104586 -1.2845181 -0.87230259
22.000254 -5.0944905 -3.1085794
11.412086 -2.0527647 -1.8947165
22.380198 -4.0228882 -6.0810542
22.127935 -4.1148987 5.4186997
12.647999 -1.7201507 2.7432361
22.364687 -5.3052888 3.7546618
11.142254 -2.0687168 1.5591961
10.142199 -1.3764304 1.1526524
16.586887 -4.8078003 1.5047559
11.816685 -2.8116851 0.75494885
10.345399 -1.923802 0.39570132
9.7990017 -1.3335962 0.12007532
15.562309 -4.5156369 -0.19700426
11.510328 -2.7363091 -0.44432116
10.399858 -1.9387374 -0.65455335
9.9582376 -1.3528906 -0.87722212
22.145813 -5.2715745 -3.1336582
11.043438 -1.4938105 -2.1037412
22.458239 -4.1793294 -6.1091118
22.211161 -4.2715373 5.4453959
21.450468 -3.0514691 4.6563854
11.332542 -2.1760621 1.5876628
10.185274 -1.4459773 1.1585345
16.612942 -4.9260507 1.509833
10.422415 -2.0043628 0.39911002
9.8552618 -1.4028964 0.12086793
15.559199 -4.6184292 -0.19731994
11.848907 -2.8937242 -0.45806772
10.490175 -2.0222554 -0.66100639
10.010824 -1.4226472 -0.88260686
22.259903 -5.4432697 -3.1544688
11.905682 -2.2927241 -1.9811894
11.130987 -1.5752603 -2.1222205
22.605873 -4.3504806 -6.1564169
22.286087 -4.4279189 5.4703231
21.506929 -3.1942561 4.6728086
10.25494 -1.5201161 1.1674975
16.601084 -5.0335565 1.5115337
12.949772 -3.2497089 0.82982546
10.555993 -2.0972979 0.40471035
9.9074316 -1.4724008 0.12161626
15.585808 -4.7305779 -0.19802175
12.265093 -3.0752316 -0.4748776
10.605588 -2.1120787 -0.66908282
10.070643 -1.4942445 -0.88867241
11.248361 -1.6623346 -2.146503
22.766243 -4.5262432 -6.207531
22.411356 -4.5959272 5.5078902
21.56859 -3.3388016 4.6905684
10.346085 -1.5985643 1.1789688
16.621614 -5.1513567 1.5162528
15.493639 -3.9892972 0.99438715
10.646142 -2.1831954 0.40867257
9.961441 -1.5429581 0.12239316
15.55732 -4.8263793 -0.19803233
12.969982 -3.3366857 -0.50295264
10.716103 -2.2025328 -0.67689478
10.137504 -1.5677961 -0.89540452
13.092264 -2.6882567 -2.1839707
22.486822 -4.7553663 5.533504
21.621176 -3.4829173 4.706563
10.404985 -1.6730962 1.1868281
16.624004 -5.264112 1.5193886
15.51798 -4.0972562 0.99754417
10.027812 -1.6163051 0.12332816
15.583263 -4.9394493 -0.19874467
15.285457 -4.0325274 -0.59369093
10.86161 -2.3019898 -0.68696529
10.179627 -1.6383275 -0.89999616
21.842863 -4.624887 -3.6483564
11.586099 -1.8578064 -2.215137
22.604376 -4.9253173 5.5697632
21.689438 -3.6305885 4.7261829
16.628973 -5.3781705 1.5228301
15.563677 -4.2116437 1.0021241
10.923962 -2.3802218 0.42042685
10.099215 -1.6914558 0.12433163
15.588865 -5.0466938 -0.19920729
15.304635 -4.1381941 -0.59541082
11.029769 -2.4084396 -0.69852227
10.27065 -1.7176939 -0.90895832
21.948643 -4.7881823 -3.6708632
11.837027 -1.9726151 -2.2653832
22.71928 -5.0965738 5.6056757
21.7876 -3.784596 4.7525439
21.979647 -4.9240623 3.0990093
10.587331 -1.8359724 1.210106
16.638136 -5.4941292 1.5267278
15.938166 -4.4181156 1.0279632
11.092175 -2.4882619 0.42748034
10.146549 -1.7634549 0.12504523
15.569006 -5.1460185 -0.19935325
15.326849 -4.2452903 -0.59727722
11.216246 -2.5213594 -0.71129835
10.35474 -1.7971383 -0.91735893
22.039747 -4.9499187 -3.6911101
22.805023 -5.2629843 5.6346941
21.848822 -3.9334872 4.7710729
22.074127 -5.0876698 3.1166737
10.677572 -1.9191812 1.2217433
16.645357 -5.6100168 1.5305204
15.957176 -4.5290022 1.0309621
11.31182 -2.6105366 0.43655434
10.222267 -1.8413019 0.12611523
15.576551 -5.2547479 -0.19985896
15.650269 -4.4384456 -0.61093044
11.443676 -2.6463532 -0.72673732
10.434761 -1.8770533 -0.92545116
22.135353 -5.1142612 -3.7123072
12.716733 -2.2799447 -2.4389136
21.915724 -4.0845184 4.7910647
22.209898 -5.2626853 3.1403432
10.777278 -2.0054436 1.2345366
16.638285 -5.7215576 1.5330691
15.963216 -4.6367416 1.0331711
11.562661 -2.7432592 0.44687626
10.314179 -1.9232715 0.12739238
15.584393 -5.3641224 -0.20037812
15.661464 -4.545629 -0.6124447
11.737172 -2.7902026 -0.74644917
10.524925 -1.9600168 -0.93449688
22.282915 -5.2925858 -3.7424309
13.308927 -2.4704988 -2.5553484
22.015543 -4.243062 4.8184876
22.321135 -5.4339056 3.1607263
10.931211 -2.1035633 1.2536248
16.674246 -5.848578 1.5396603
15.975238 -4.7467179 1.0358148
10.390567 -2.0035644 0.12848528
15.586518 -5.4720502 -0.20083338
15.664864 -4.6510186 -0.61368215
10.635168 -2.0481446 -0.94538325
21.730837 -4.1719265 -4.1772132
22.104183 -4.4009809 4.8437071
11.091801 -2.2051296 1.2735693
16.675169 -5.964057 1.5430958
15.963359 -4.8499818 1.0369546
10.490488 -2.0896735 0.12987697
15.573011 -5.574873 -0.20109633
15.64819 -4.7507405 -0.61415941
12.689454 -3.1815956 -0.80943376
10.742854 -2.1373267 -0.9561035
21.826551 -4.32933 -4.2006392
22.191685 -4.560142 4.8689213
11.260173 -2.310514 1.2945054
16.695349 -6.0870757 1.5483903
15.940326 -4.9500217 1.0374118
15.281885 -3.9241271 0.5933091
10.599853 -2.1791627 0.13139403
15.549662 -5.6743913 -0.20124061
15.672316 -4.8632903 -0.61626589
15.401307 -3.9621301 -0.98394942
10.879182 -2.2339315 -0.9694382
21.934917 -4.4908829 -4.2267184
22.303396 -4.7259102 4.8997011
11.467715 -2.4265215 1.3200519
16.69805 -6.2044001 1.5521425
15.959434 -5.0635309 1.0406579
15.349248 -4.041976 0.59687608
10.734111 -2.2754993 0.13322884
15.582762 -5.7950621 -0.20212539
15.655949 -4.9637275 -0.6168083
15.440772 -4.0734572 -0.98804897
11.035397 -2.3366661 -0.98461753
22.027666 -4.6508765 -4.25001
22.404306 -4.8911242 4.9283705
11.754056 -2.5625598 1.3547972
16.690773 -6.3185163 1.5550405
15.949369 -5.1682644 1.0420499
15.367234 -4.1477079 0.5985539
10.864465 -2.3728836 0.13502492
15.580284 -5.9032116 -0.20255928
15.64585 -5.0663853 -0.61762363
15.47331 -4.1837587 -0.99175525
11.229751 -2.449908 -1.0032809
22.141687 -4.8170528 -4.2776313
22.482552 -5.0529275 4.9523087
12.116673 -2.7196016 1.3984903
16.723524 -6.4485092 1.561749
15.932261 -5.267911 1.0392572
11.04006 -2.4822788 0.13739389
15.555026 -6.0030437 -0.20270596
15.647148 -5.1730947 -0.61891621
11.460593 -2.5740371 -1.0252964
22.256519 -4.9852562 -4.3056445
22.594652 -5.2239671 4.9839687
16.728788 -6.5687284 1.565975
15.956712 -5.3848305 1.0429878
15.697478 -4.444211 0.61349511
11.238239 -2.5993819 0.1400561
15.564222 -6.1165791 -0.20331107
15.662966 -5.2851539 -0.62081295
15.897389 -4.5084839 -1.0224057
11.755367 -2.7161169 -1.053139
22.384621 -5.158392 -4.3364682
22.759172 -5.4093294 5.0274858
16.76757 -3.9802446 1.9407824
16.7493 -6.6956892 1.5717115
15.94724 -5.4908566 1.0445513
15.669585 -4.5403495 0.6134823
11.451392 -2.7228141 0.14291804
15.555354 -6.2235498 -0.20369023
15.659895 -5.3913693 -0.62199068
15.910242 -4.6177893 -1.0250353
22.503736 -5.3314629 -4.3657994
22.223616 -5.4196453 2.5760996
16.777517 -6.8266611 1.5782603
15.945371 -5.5998845 1.0466597
15.686805 -4.6498609 0.61526185
11.77202 -2.8754783 0.14713703
15.556015 -6.3348169 -0.20420404
15.627306 -5.4876308 -0.62202203
15.915945 -4.7255206 -1.0272515
12.791161 -3.1212702 -1.1492786
16.794989 -6.9541869 1.5838883
15.966 -5.7174172 1.0502968
15.679734 -4.7526202 0.61611682
12.135846 -3.043375 0.15191498
15.565418 -6.4502726 -0.20484316
15.660285 -5.6073866 -0.6246925
15.917204 -4.832366 -1.0292271
15.65488 -3.9219992 -1.408718
16.822453 -7.0867863 1.5905491
15.950996 -5.8227139 1.0516404
15.686788 -4.8600507 0.61755407
12.748507 -3.2802877 0.15983315
15.538857 -6.55127 -0.20501879
15.645065 -5.7104807 -0.62547135
15.905415 -4.935576 -1.0304036
15.713937 -4.0394249 -1.4162359
16.825413 -7.2099118 1.594982
15.946849 -5.9323382 1.0537471
15.650314 -4.9541998 0.61730331
15.208239 -4.0128489 0.1909769
15.55721 -6.6717262 -0.20579717
15.657753 -5.8242326 -0.62739551
15.916006 -5.0461321 -1.0330762
15.768495 -4.1567612 -1.423425
16.826014 -7.3326931 1.5992738
15.955906 -6.0474167 1.0567776
15.684642 -5.071157 0.61987299
15.254466 -4.1253271 0.19187166
15.5579 -6.7853417 -0.2063532
15.644778 -5.9289346 -0.62832147
15.923434 -5.1562243 -1.0355926
15.842694 -4.2804561 -1.432467
15.932354 -6.1505542 1.0576973
15.676032 -5.1748281 0.62077588
15.285513 -4.2345414 0.19258536
15.540966 -6.891758 -0.20668559
15.655165 -6.0429831 -0.63021594
15.922346 -5.2640309 -1.0376029
16.459198 -4.555572 -1.4907095
15.928836 -6.2617688 1.0599947
15.664767 -5.2779193 0.62160063
15.610703 -4.4279428 0.1970211
15.549414 -7.0099907 -0.20736608
15.635535 -6.1459026 -0.63093197
15.913062 -5.3694968 -1.0391253
16.476898 -4.6695042 -1.4948796
17.157761 -7.8561673 1.6442738
15.96056 -6.3875809 1.0646938
15.669035 -5.3866391 0.62306982
15.605701 -4.5301657 0.1973051
15.557054 -7.1286116 -0.20804736
15.642317 -6.2596469 -0.6327436
15.90064 -5.4742045 -1.0404879
16.482513 -4.7805448 -1.4980221
16.959192 -7.8914809 1.6298543
15.960099 -6.5012937 1.0673041
15.67402 -5.4961214 0.62459725
15.595419 -4.6311231 0.19753064
15.566804 -7.2489796 -0.20876867
15.640029 -6.3703408 -0.6342203
15.915566 -5.5888085 -1.0436891
16.476023 -4.8884592 -1.5001302
16.9844 -8.0303555 1.6369816
15.935689 -6.6056418 1.068362
15.684022 -5.6079321 0.62635529
15.601561 -4.7373104 0.19797288
15.55459 -7.3597641 -0.20920658
15.657715 -6.4898391 -0.63654029
15.907104 -5.695715 -1.0454063
16.488035 -5.0023007 -1.5039901
17.004583 -8.1679344 1.6437265
15.968848 -6.7345009 1.0733353
15.664211 -5.7094908 0.6269514
15.601508 -4.8420463 0.1983455
15.79677 -7.5933275 -0.21308649
15.637605 -6.5942273 -0.63735569
15.927241 -5.8134274 -1.0490543
16.466644 -5.1063557 -1.5048686
17.031292 -8.3097591 1.6512057
15.965749 -6.8488832 1.0759314
15.667683 -5.8199091 0.62850785
15.604507 -4.9481497 0.19876589
15.778689 -7.7041788 -0.21347626
15.645899 -6.7110934 -0.63936007
15.91417 -5.9195638 -1.0505661
16.493961 -5.2259779 -1.5102673
17.074978 -8.4611778 1.6604434
15.960913 -6.9630718 1.0784645
15.659583 -5.926496 0.62962985
15.572459 -5.0433531 0.19874811
15.793074 -7.8315706 -0.21431698
15.654238 -6.8286972 -0.64140099
15.920933 -6.0335407 -1.0534365
16.506891 -5.3417463 -1.514424
17.094547 -8.601923 1.6674479
15.95238 -7.0794706 1.0808842
15.66013 -6.0368118 0.63112926
15.587261 -5.1540322 0.1993369
15.63593 -7.8735452 -0.21283609
15.634276 -6.9344826 -0.64231443
15.901139 -6.1378818 -1.0545989
16.514198 -5.4562764 -1.5181372
17.13982 -8.7569113 1.6770734
15.947906 -7.1949334 1.083552
15.668801 -6.150847 0.63298792
15.587533 -5.2604403 0.1997494
15.557352 -7.9540129 -0.21242684
15.650967 -7.0571265 -0.64476705
15.924514 -6.2594433 -1.0586766
16.499329 -5.5638828 -1.5198801
17.182209 -8.9119368 1.6886674
15.984452 -7.329793 1.0920583
15.624318 -6.244297 0.63261658
15.571199 -5.3615751 0.20125641
15.564342 -8.078433 -0.21319512
15.631107 -7.1639051 -0.64574766
15.893845 -6.3602529 -1.0592123
16.503551 -5.6783223 -1.5234501
15.96266 -7.4386768 1.0936673
15.674015 -6.3759694 0.63620079
15.591974 -5.4759707 0.20195541
15.537208 -8.1857557 -0.21350743
15.634619 -7.2819266 -0.64772642
15.946202 -6.4949985 -1.0653374
16.515642 -5.7960591 -1.5278203
16.318878 -7.7269034 1.1192393
15.666961 -6.4854202 0.62869924
15.585106 -5.5812159 0.20237757
15.534106 -8.3062906 -0.21416116
15.632078 -7.3978043 -0.64948952
15.920273 -6.5986156 -1.06629
16.505339 -5.9064384 -1.5301912
16.310934 -7.8460221 1.1219754
15.657491 -6.5943251 0.62993109
15.576739 -5.6862941 0.20271818
15.561987 -8.4443941 -0.21525583
15.935626 -7.6614847 -0.66404217
15.915213 -6.7112427 -1.0686891
16.497768 -6.0181746 -1.5328839
16.081511 -7.8575306 1.1084915
15.668023 -6.7122459 0.64097649
15.573185 -5.7935305 0.20174897
15.538848 -8.5556707 -0.21565785
15.926181 -7.7776113 -0.66562474
15.939823 -6.8371181 -1.0731385
16.51668 -6.1401629 -1.5381128
15.971222 -7.9254041 1.1042207
15.651297 -6.8190413 0.64199179
15.554201 -5.8953662 0.20196788
15.548917 -8.6859684 -0.2165332
15.890383 -7.881249 -0.66613722
15.916864 -6.9432106 -1.074441
16.542784 -6.2656665 -1.5440948
15.9633 -8.0439157 1.1070646
15.663248 -6.9389091 0.64421636
15.581945 -6.0154824 0.2028036
15.561611 -8.8187742 -0.21745946
15.631312 -7.8726287 -0.65728945
15.937424 -7.0688915 -1.0787363
16.518057 -6.3724661 -1.5454075
15.93834 -8.1543493 1.1087828
15.670385 -7.0574083 0.64627886
15.57789 -6.1240096 0.20323606
15.554504 -8.9412794 -0.21812269
15.626177 -7.9906187 -0.65912277
15.935514 -7.1853805 -1.081571
16.53837 -6.4971614 -1.5510086
15.96209 -8.2904692 1.1139529
15.655157 -7.1664138 0.64745206
15.575836 -6.2338133 0.20370448
15.543815 -9.0624771 -0.21874847
15.647262 -8.1228991 -0.66210204
15.943144 -7.3068643 -1.0851114
16.551689 -6.6199131 -1.5560379
15.967162 -8.4179058 1.1178906
15.674742 -7.2920413 0.65010029
15.569421 -6.3423543 0.20412569
15.555274 -9.1975098 -0.21969983
15.653922 -8.2486849 -0.66451311
15.939665 -7.4239526 -1.0879545
16.537626 -6.7322855 -1.55857
15.944223 -8.5312433 1.1199284
15.677964 -7.4108953 0.65210766
15.578801 -6.4579096 0.20476434
15.529068 -9.3110809 -0.2201325
15.680025 -8.385766 -0.66779286
16.269112 -7.6992245 -1.1136444
16.537014 -6.8506198 -1.5624444
15.972373 -8.6727867 1.1256224
15.951985 -7.6605239 0.66544789
15.570709 -6.5668001 0.20518371
15.539884 -9.4476776 -0.22110341
15.653441 -8.4954767 -0.66886818
16.304113 -7.8385925 -1.1193116
16.568558 -6.9831018 -1.5694436
15.952374 -8.789094 1.1279924
15.937276 -7.7741594 0.66681165
15.573211 -6.6807013 0.205753
15.540263 -9.5789986 -0.2219409
15.662352 -8.6251392 -0.6714977
16.142025 -7.8829675 -1.1114837
16.603842 -7.1182623 -1.5768934
15.985369 -8.9355679 1.1341809
15.872464 -7.8634734 0.66610616
15.557899 -6.7874622 0.20609707
15.554973 -9.720274 -0.2229986
15.67334 -8.7569523 -0.67425978
15.957561 -7.9145155 -1.1021053
16.663822 -7.2653379 -1.5867939
15.963779 -9.0525036 1.140625
15.681778 -7.8892112 0.66012287
15.567386 -6.9056473 0.20678034
15.55496 -9.8534937 -0.22386101
15.648375 -8.8694296 -0.67551434
15.954938 -8.0355692 -1.1053087
16.696465 -7.4018207 -1.5941969
15.956234 -9.1780663 1.1440881
15.624283 -7.980792 0.65975159
15.567345 -7.0202589 0.20734809
15.553178 -9.9866171 -0.224713
15.667188 -9.0075541 -0.67869961
15.944237 -8.1532097 -1.1080121
15.961767 -9.3120565 1.1485603
15.674844 -8.1282749 0.66398013
15.559784 -7.1320596 0.20782638
15.560805 -10.126895 -0.22571674
15.674604 -9.1402416 -0.68143761
15.940459 -8.2750521 -1.1112573
17.222807 -7.8894467 -1.6535729
15.965174 -9.4458199 1.1529541
15.667625 -8.2469101 0.66580534
15.557047 -7.2466445 0.20837979
15.545832 -10.253484 -0.2264079
15.652704 -9.2566366 -0.68294197
15.961925 -8.4109297 -1.1163305
16.913731 -7.8737793 -1.6285064
15.990205 -9.5935736 1.1589911
15.675466 -8.3742676 0.66830957
15.556591 -7.3629322 0.2089749
15.535083 -10.383741 -0.227175
15.666469 -9.3949986 -0.68604487
15.933853 -8.5214605 -1.1180031
16.894564 -7.9913487 -1.6313516
15.949572 -9.7027817 1.1603394
15.65985 -8.4898453 0.6698522
15.810234 -7.6020703 0.21300472
15.539575 -10.525262 -0.2281808
15.663686 -9.5244884 -0.68846929
15.9742 -8.6695051 -1.1245455
15.979417 -9.8557777 1.1668884
15.647515 -8.6078043 0.67157114
15.791503 -7.7127156 0.21338594
15.570756 -10.686336 -0.22959718
15.670414 -9.6607771 -0.69135743
15.953513 -8.7854252 -1.1268629
17.009317 -8.3025723 -1.6521467
15.975692 -9.9893122 1.1710702
15.674356 -8.7482777 0.67501432
15.791027 -7.8328514 0.21402495
15.576723 -10.831624 -0.23066084
15.663839 -9.7898722 -0.69370455
15.941801 -8.9068909 -1.1298747
15.97504 -10.125777 1.1755548
15.655376 -8.8641014 0.67652649
15.634094 -7.8749075 0.21254888
15.557261 -10.960317 -0.23136418
15.680923 -9.9348669 -0.69714773
15.975765 -9.0549374 -1.1361984
15.97035 -10.260706 1.1798205
15.670926 -9.0003319 0.67957222
15.559787 -7.9575477 0.21219847
15.556594 -11.103301 -0.23236312
15.686355 -10.073722 -0.70012414
15.971083 -9.1822166 -1.139851
15.961278 -10.39379 1.1838396
15.663574 -9.1243763 0.68166846
15.544622 -8.0705004 0.21266299
15.555285 -11.247069 -0.23336998
15.674859 -10.202725 -0.7023921
15.964754 -9.3093777 -1.1434546
16.004168 -10.562123 1.191805
15.664997 -9.254405 0.68418872
15.577918 -8.2095261 0.21380365
15.5504 -11.389484 -0.23434073
15.667021 -10.335032 -0.70486921
15.980657 -9.4505234 -1.1487252
16.01066 -10.708013 1.1971589
15.656653 -9.3795452 0.68632501
15.576212 -8.3311424 0.21447781
15.549801 -11.536307 -0.23539402
15.690221 -10.489068 -0.70879525
15.970418 -9.5772161 -1.1521918
15.971854 -10.824485 1.1992011
15.658888 -9.5119314 0.68896854
15.571101 -8.4516907 0.21511744
15.543878 -11.680461 -0.23638485
15.703676 -10.63806 -0.71233851
15.97777 -9.7154131 -1.1570014
15.981005 -10.974381 1.2049214
15.669117 -9.6502609 0.69201094
15.541924 -8.5597277 0.21543592
15.555495 -11.839228 -0.23766182
15.696706 -10.774438 -0.71500772
15.99067 -9.8581581 -1.1622939
15.984197 -11.121514 1.2102844
15.666103 -9.781496 0.69451541
15.560067 -8.6945791 0.21642286
15.558385 -11.992904 -0.2388258
15.686814 -10.909853 -0.71759295
16.010172 -10.00627 -1.1681522
15.989965 -11.263751 1.2113254
15.645598 -9.9026327 0.6962871
15.534683 -8.8058643 0.21681698
15.556374 -12.144248 -0.23993428
15.694886 -11.058965 -0.72105283
15.988258 -10.129526 -1.1710663
15.999582 -11.41805 1.2173386
15.65544 -10.043933 0.69945461
15.556557 -8.9448299 0.21788421
15.56189 -12.302974 -0.24117914
15.70306 -11.209543 -0.72457469
15.990153 -10.268761 -1.1757979
16.022028 -11.5831 1.2244309
15.675061 -10.192829 0.70311236
15.551337 -9.0692501 0.21858642
15.561788 -12.458817 -0.24235779
15.676175 -11.336195 -0.72653008
15.956413 -10.385928 -1.1779809
15.989491 -11.709635 1.2274121
15.643075 -10.309148 0.70450175
15.553528 -9.1988821 0.21940646
15.537414 -12.596521 -0.24317734
15.695379 -11.497405 -0.73067594
15.99344 -10.550302 -1.1854713
15.994764 -11.864958 1.2333825
15.66865 -10.46446 0.70853192
15.564738 -9.3348932 0.22036844
15.535348 -12.753616 -0.24436522
15.703127 -11.651809 -0.73435122
16.023064 -10.711517 -1.1925164
16.009161 -12.028618 1.2401607
15.653982 -10.594133 0.71079487
15.546815 -9.4543314 0.22093186
15.546913 -12.923607 -0.24578984
15.696658 -11.797035 -0.7374199
16.015053 -10.84893 -1.196852
16.030455 -12.199224 1.2475854
15.666309 -10.743216 0.71433431
15.537704 -9.5798779 0.22163357
15.52229 -13.065023 -0.24666333
15.709888 -11.958521 -0.74147469
16.014946 -10.992821 -1.2018623
16.026896 -12.352537 1.2531836
15.646729 -10.871542 0.71646965
15.530345 -9.7073584 0.22237404
15.528236 -13.233657 -0.24804354
15.721803 -12.120672 -0.74553323
16.036747 -11.153162 -1.2086115
16.007635 -12.495006 1.2576488
15.657255 -11.021919 0.72003502
15.554006 -9.8553858 0.2235745
15.514993 -13.387577 -0.24913944
15.707374 -12.263944 -0.74840343
16.046398 -11.306584 -1.2145447
16.03289 -12.6738 1.2657191
15.666733 -11.172984 0.72361004
15.525724 -9.9715014 0.22404325
15.514307 -13.553945 -0.25045922
15.702682 -12.416117 -0.75179571
16.064356 -11.467388 -1.2212067
16.02327 -12.826729 1.271149
15.678415 -11.327085 0.72734606
15.536919 -10.113882 0.22509609
15.509394 -13.718358 -0.25173408
15.706123 -12.576226 -0.7556408
16.090899 -11.636037 -1.228629
17.126951 -15.328644 2.0027347
16.019869 -12.986091 1.2771765
15.667785 -11.466373 0.73010314
15.543379 -10.25442 0.226097
15.503241 -13.883392 -0.25301212
15.708831 -12.737366 -0.75951695
16.077662 -11.777376 -1.2331131
16.997776 -15.401915 1.998643
16.004807 -13.137431 1.2823782
15.672276 -11.617998 0.7336207
15.539515 -10.389279 0.22696385
15.510221 -14.062083 -0.25452942
15.705885 -12.895509 -0.76318598
16.093994 -11.941769 -1.2399622
16.877838 -15.482881 1.9956735
16.013058 -13.309497 1.2895585
15.673808 -11.76884 0.73705876
15.539427 -10.52776 0.22790176
15.525025 -14.250042 -0.25620246
15.68881 -13.043469 -0.76623088
16.114624 -12.111097 -1.2472538
16.723248 -15.531103 1.9886254
16.000978 -13.466317 1.2952157
15.643913 -11.897199 0.73907191
15.55053 -10.675076 0.22902094
15.476865 -14.381804 -0.25685915
15.710083 -13.225018 -0.77121854
16.107225 -12.260912 -1.2524804
16.609898 -15.616746 1.9865038
16.008574 -13.641381 1.3025814
15.692201 -12.086609 0.74484289
15.520218 -10.79497 0.22954571
15.485949 -14.568332 -0.25848863
15.699807 -13.381824 -0.77473044
16.128866 -12.434428 -1.2600722
16.532837 -15.736526 1.9887985
15.997322 -13.81147 1.3089106
15.687123 -12.236788 0.74815178
15.537107 -10.948829 0.23078512
15.502175 -14.763942 -0.26026672
15.698472 -13.547869 -0.77875203
16.152687 -12.611567 -1.2679551
16.489382 -15.889142 1.9952618
16.000158 -13.986189 1.3161397
15.65883 -12.370008 0.75040823
15.53766 -11.092523 0.23179999
15.489081 -14.933784 -0.26158041
15.686159 -13.706071 -0.78229845
16.126957 -12.751523 -1.2720535
16.447449 -16.044521 2.0020626
16.008383 -14.167598 1.3239423
15.662281 -12.529572 0.75424379
15.545868 -11.243024 0.23294726
15.468634 -15.098305 -0.26279467
15.69448 -13.884081 -0.78694731
16.131033 -12.916391 -1.2786022
16.40947 -16.20516 2.0095053
16.003239 -14.339108 1.3307685
15.666001 -12.690971 0.75815868
15.528405 -11.376159 0.23372714
15.514481 -15.330066 -0.26516664
15.657522 -14.023585 -0.78939402
16.132133 -13.080526 -1.2850271
16.352806 -16.348608 2.0148132
16.007246 -14.520754 1.3384857
15.677457 -12.860373 0.76251763
15.540105 -11.531923 0.23496388
15.468778 -15.47364 -0.26600328
15.6761 -14.214528 -0.7947129
16.130638 -13.244187 -1.2913572
16.30905 -16.506193 2.0218627
15.99367 -14.688333 1.3448613
15.645452 -12.995531 0.76482493
15.536325 -11.677623 0.23598568
15.506875 -15.703286 -0.26831031
15.655695 -14.372054 -0.79813415
16.120905 -13.402636 -1.2971371
16.277033 -16.677233 2.0305414
15.994331 -14.870883 1.3525642
15.645404 -13.158558 0.7687552
15.553617 -11.840666 0.23734744
15.495066 -15.885111 -0.2697874
15.652936 -14.547513 -0.80252904
16.129475 -13.577994 -1.3045058
16.226824 -16.831175 2.0371232
15.961024 -15.023561 1.3575176
15.640987 -13.319555 0.7725395
15.553486 -11.99202 0.23846382
15.492307 -16.078482 -0.27145198
15.693369 -14.765589 -0.809232
16.132889 -13.750891 -1.3115814
16.186535 -16.99688 2.0451198
15.951715 -15.200472 1.3646331
15.657988 -13.500652 0.77745605
15.549767 -12.142008 0.23954457
15.477329 -16.261465 -0.27293277
15.689044 -14.944063 -0.81372207
16.125858 -13.91663 -1.3179274
16.115227 -17.131268 2.0493529
15.92309 -15.360711 1.3702215
15.609056 -13.626331 0.7791633
15.540317 -12.288865 0.24055606
15.493938 -16.480232 -0.2750037
15.688303 -15.128039 -0.81848264
16.145439 -14.107301 -1.3265772
16.127459 -17.356443 2.0644131
15.923899 -15.551255 1.3784766
15.624562 -13.809714 0.78415245
15.528877 -12.435442 0.24155557
15.483777 -16.67325 -0.27663401
15.706448 -15.332633 -0.82432222
16.150225 -14.287179 -1.3341483
16.109797 -17.552191 2.0758994
15.90478 -15.724401 1.3851479
15.629876 -13.986166 0.78871131
15.525984 -12.590258 0.24270771
15.477111 -16.872524 -0.27835932
15.719746 -15.535122 -0.83000731
16.137316 -14.453232 -1.3403827
16.11957 -17.780617 2.0911779
15.866289 -15.880037 1.3902555
15.635651 -14.165051 0.79337376
15.515117 -12.740038 0.24375527
15.465443 -17.068874 -0.28002787
15.678353 -15.685536 -0.83288801
16.119629 -14.616627 -1.3463377
16.12051 -18.002419 2.1055908
15.854242 -16.063915 1.3978105
15.60077 -14.308718 0.79604399
15.519216 -12.903644 0.24505897
15.474531 -17.290955 -0.28210819
15.693097 -15.894152 -0.83883631
16.15313 -14.828625 -1.3567097
16.134804 -18.242386 2.1220381
15.857224 -16.26536 1.4068462
15.614259 -14.498493 0.80125654
15.503909 -13.052642 0.24607733
15.472755 -17.503923 -0.2840285
15.701736 -16.0993 -0.84456265
16.188629 -15.045297 -1.3674196
16.123175 -18.456205 2.1353626
15.862085 -16.471346 1.4162176
15.600921 -14.665391 0.80517465
15.50754 -13.219142 0.24741773
15.488826 -17.740288 -0.28631634
15.720772 -16.31794 -0.85095608
16.204702 -15.246614 -1.3766537
16.101902 -18.661737 2.1476705
15.846919 -16.658979 1.4290448
15.603617 -14.849321 0.81000102
15.506007 -13.382978 0.24869876
15.500788 -17.97543 -0.28857088
15.730325 -16.529655 -0.85694718
16.197243 -15.428049 -1.3840359
16.09552 -18.887421 2.1622367
15.817668 -16.833872 1.4356949
15.589978 -15.019709 0.81406194
15.501116 -13.545609 0.2499487
15.505614 -18.205715 -0.29073492
15.733251 -16.737188 -0.86268508
16.204578 -15.625796 -1.3928297
16.093618 -19.12162 2.1777017
15.806849 -17.030563 1.4441706
15.582708 -15.198163 0.8185364
15.502116 -13.715145 0.25131708
15.51733 -18.447592 -0.29307154
15.745063 -16.957052 -0.86902159
16.211399 -15.825481 -1.4017358
16.107443 -19.378157 2.1956208
15.804924 -17.239439 1.453632
15.57958 -15.38277 0.82331467
15.492489 -13.877023 0.25253665
15.514489 -18.675644 -0.2951766
15.775138 -17.199903 -0.87649006
16.228804 -16.03812 -1.4117234
16.094778 -19.606413 2.2102516
15.803445 -17.451599 1.4633172
15.56444 -15.557579 0.82754374
15.480423 -14.038359 0.2537393
15.559846 -18.965803 -0.29824808
15.753726 -17.389561 -0.88121235
16.244793 -16.25215 -1.4217623
16.099386 -19.859257 2.2275767
15.773579 -17.634895 1.4705434
15.576375 -15.761756 0.83330482
15.502024 -14.232264 0.25551999
15.547985 -19.190275 -0.30027211
15.786155 -17.641712 -0.88906479
16.264757 -16.473049 -1.4323292
16.108625 -20.121796 2.2458961
15.789865 -17.872597 1.4822578
15.573841 -15.953812 0.83839059
15.460101 -14.369587 0.2562775
15.591141 -19.486792 -0.30340907
15.781379 -17.85565 -0.89494932
16.282501 -16.694683 -1.4428858
16.104311 -20.371365 2.2626798
15.778373 -18.081991 1.4915664
15.553081 -16.129364 0.84258497
15.45147 -14.539293 0.25760841
15.590326 -19.732767 -0.30574372
15.816804 -18.11857 -0.90324593
16.290024 -16.908728 -1.452719
16.105824 -20.632248 2.280637
15.777111 -18.306078 1.5020372
15.539804 -16.314764 0.84727299
15.451385 -14.719007 0.25910786
15.603125 -20.000034 -0.30839559
15.828268 -18.357862 -0.91031623
16.309645 -17.138325 -1.4638194
16.090908 -20.875967 2.2966201
15.768252 -18.524441 1.5119867
15.539671 -16.516373 0.85277534
15.454358 -14.903783 0.26068637
15.645086 -20.309559 -0.31168222
15.836854 -18.597345 -0.9173556
16.340374 -17.382961 -1.4761225
16.099955 -21.154902 2.3163946
15.758172 -18.74441 1.5220202
15.52636 -16.706448 0.85765421
15.464693 -15.097983 0.26241845
15.622272 -20.539402 -0.31373253
15.82107 -18.811434 -0.92311001
16.355595 -17.614489 -1.4872332
16.120544 -21.453844 2.3382528
15.731224 -18.947174 1.5306178
15.518675 -16.905016 0.86294335
15.447073 -15.26702 0.26370409
15.647298 -20.836412 -0.31679675
15.867399 -19.103258 -0.93263507
16.363386 -17.841185 -1.4978682
17.199585 -17.196104 2.739001
16.120676 -21.730389 2.357568
15.748355 -19.206381 1.543722
15.523144 -17.119564 0.86901677
15.417564 -15.426009 0.26481125
15.68921 -21.161402 -0.32026818
15.858978 -19.33325 -0.93909502
16.407261 -18.110863 -1.5120283
17.118052 -17.325914 2.7428956
16.093006 -21.973585 2.3731952
15.751401 -19.452314 1.5556916
15.511935 -17.319584 0.87432212
15.419074 -15.618016 0.26647815
15.7047 -21.456232 -0.32326579
15.891528 -19.617182 -0.9481324
16.419453 -18.349352 -1.5234991
17.04525 -17.465284 2.7483501
16.066408 -22.222031 2.3893356
15.729698 -19.671093 1.5654397
15.507626 -17.530029 0.88012546
15.387921 -15.77895 0.26760802
15.697834 -21.7253 -0.32586232
15.888112 -19.860891 -0.95518154
16.411846 -18.568884 -1.5333365
17.177883 -19.648636 3.590785
16.956184 -17.588652 2.751339
16.101633 -22.561026 2.4151161
15.744617 -19.939362 1.5790709
15.48899 -17.726963 0.88522452
15.389601 -15.975619 0.26933691
15.693439 -22.002357 -0.32856742
15.920942 -20.154209 -0.96457177
16.450764 -18.844688 -1.5477465
17.096561 -19.799488 3.5991142
16.861069 -17.706148 2.7534826
16.17317 -22.957878 2.4469292
15.708748 -20.139715 1.5818454
15.48241 -17.940416 0.89112306
15.391038 -16.174509 0.27109328
15.698062 -22.296976 -0.33152238
15.95656 -20.4561 -0.97431588
17.108625 -20.060991 3.6274989
16.79833 -17.858412 2.7610803
16.179583 -23.268934 2.4694545
15.695858 -20.379824 1.59311
15.484365 -18.166862 0.89763463
15.397981 -16.381922 0.27298093
15.705882 -22.601435 -0.33461004
15.985512 -20.754566 -0.9838413
16.557404 -19.443388 -1.5801107
17.045399 -20.237047 3.640353
16.718483 -17.993484 2.7660511
16.199816 -23.605745 2.4946032
15.685566 -20.627045 1.6048816
15.454591 -18.358927 0.90242201
15.37875 -16.563959 0.27443671
15.713431 -22.91102 -0.33775958
16.02459 -21.071497 -0.99418509
16.661283 -19.810352 -1.6015946
17.005665 -20.443148 3.6585877
16.666964 -18.160233 2.7759111
16.24354 -23.983568 2.5239503
15.647291 -20.840889 1.6140192
15.454279 -18.588881 0.90904695
15.396515 -16.788521 0.27658686
15.700996 -23.196766 -0.34054542
16.033155 -21.353432 -1.0028267
16.727161 -20.138243 -1.6197747
16.967239 -20.65341 3.6775162
16.638493 -18.354017 2.7898741
16.266338 -24.337532 2.5506487
15.640915 -21.100819 1.6266861
15.433052 -18.796778 0.91456556
15.383226 -16.982044 0.27821481
15.69352 -23.495005 -0.34350362
16.053759 -21.656353 -1.0124078
16.829777 -20.516617 -1.6418713
16.92717 -20.86434 3.6965101
16.61912 -18.560247 2.8056684
16.297813 -24.711498 2.5793118
15.642009 -21.375219 1.6404098
15.389794 -18.980371 0.91888642
15.38456 -17.194386 0.28014174
15.711324 -23.837038 -0.34708825
16.071608 -21.960827 -1.022012
16.873503 -21.061016 3.7129416
16.560923 -18.725189 2.8151877
16.336466 -25.103907 2.6097584
15.66096 -21.678988 1.6563164
15.383932 -19.212931 0.92555791
15.380106 -17.403128 0.28199983
15.740027 -24.20248 -0.35099649
16.047619 -22.212759 -1.0291346
16.853865 -21.30307 3.737313
16.539194 -18.933464 2.8311896
16.318573 -25.416191 2.6317639
15.623044 -21.908453 1.6664925
15.37274 -19.44227 0.93204439
15.413485 -17.658075 0.28459311
15.75234 -24.549692 -0.3546235
16.820805 -21.531492 3.7592084
16.521309 -19.148872 2.8481877
15.628867 -22.203571 1.6816145
15.354568 -19.666121 0.93824124
15.403569 -17.866827 0.28642884
15.744574 -24.872046 -0.35787767
16.113144 -22.890045 -1.0512727
16.809418 -21.791216 3.7864745
16.488672 -19.349831 2.8629756
16.401823 -26.248871 2.6969392
15.352676 -19.914412 0.94557464
15.386264 -18.069771 0.28816336
16.116554 -23.195972 -1.0607615
16.78998 -22.044395 3.812494
16.451252 -19.547621 2.8772504
16.385897 -26.584986 2.721092
15.629779 -22.7941 1.7116828
15.368725 -20.190226 0.95417529
15.41595 -18.331327 0.29082051
15.763326 -25.591263 -0.36541522
16.121616 -23.509798 -1.070569
16.826273 -22.375555 3.8518384
16.43066 -19.768099 2.894809
15.637922 -23.108725 1.7280709
15.377609 -20.461191 0.96250355
15.404303 -18.547329 0.29274222
15.745177 -25.916586 -0.36867401
16.141785 -23.851683 -1.0816067
16.826223 -22.66366 3.8835881
16.404743 -19.985115 2.9117932
16.457876 -27.450321 2.7887793
15.684426 -23.486647 1.7491022
15.379368 -20.727127 0.9705559
15.40851 -18.785727 0.29500717
15.776586 -26.331028 -0.37318552
16.166542 -24.206944 -1.0931978
16.883165 -23.034327 3.9292784
16.397089 -20.227606 2.9324098
16.478811 -27.871599 2.8212531
15.714172 -23.84672 1.7687036
15.40362 -21.028223 0.98021066
15.409111 -19.023321 0.29724789
15.771358 -26.692429 -0.37692893
16.919722 -23.383776 3.9711046
16.398285 -20.484762 2.9550469
16.50049 -28.303249 2.8546433
15.722692 -24.181293 1.7863297
15.405285 -21.303471 0.98861617
15.449323 -19.314072 0.30030409
16.171011 -24.869087 -1.1140543
16.963211 -23.749367 4.0154386
16.406395 -20.754646 2.9794011
16.53359 -28.764221 2.8908503
15.752635 -24.555733 1.8068161
15.409869 -21.587543 0.99739218
15.447357 -19.556414 0.30259269
15.784989 -27.48 -0.38528579
16.196791 -25.246361 -1.1264815
16.434551 -21.054537 3.0079188
15.798895 -24.973104 1.8301561
15.404223 -21.86208 1.0056903
15.429413 -19.782129 0.30461404
15.802096 -27.904825 -0.38987529
16.225876 -25.636446 -1.1394233
17.061653 -24.517851 4.1096582
16.41869 -21.30242 3.0288823
16.573977 -29.671394 2.9613576
15.38347 -22.11964 1.0131773
15.451702 -20.063358 0.30747876
15.790859 -28.288395 -0.39387324
16.211821 -25.965443 -1.1496027
16.427053 -21.585917 3.0548019
16.629833 -30.205236 3.0043967
15.375842 -22.400656 1.0217084
15.47693 -20.353243 0.31046012
15.796404 -28.710854 -0.39839825
16.249468 -26.384748 -1.1637307
17.130379 -25.272539 4.200603
16.447063 -21.889626 3.0834422
16.640865 -30.669189 3.0403309
15.882961 -26.159637 1.8953615
15.400108 -22.733732 1.0325708
15.460215 -20.592289 0.31265351
15.825259 -29.185898 -0.40363505
16.281536 -26.803776 -1.177784
16.431606 -22.150772 3.1059673
16.680851 -31.19805 3.0825534
15.944185 -26.627409 1.9221287
15.401669 -23.039232 1.0421346
15.481755 -20.886679 0.31567499
15.815085 -29.599125 -0.40800017
16.273817 -27.165337 -1.1892611
16.449316 -22.46137 3.1353076
16.710032 -31.719168 3.1238534
15.965326 -27.037745 1.9446409
15.413143 -23.365437 1.052592
15.477533 -21.151049 0.31822923
15.816725 -30.044273 -0.41279066
16.292206 -27.578476 -1.2029486
16.491711 -22.811584 3.1700079
16.00263 -27.484722 1.9696897
15.399526 -23.659361 1.0615563
15.488225 -21.440477 0.32114795
15.818297 -30.499811 -0.41770807
16.295238 -27.974157 -1.2158237
16.49707 -23.116423 3.1982424
16.82579 -32.912102 3.2207606
16.029463 -27.923441 1.9940439
15.414707 -24.003555 1.0727357
15.473419 -21.69924 0.32359561
15.852528 -31.030205 -0.42363185
16.343094 -28.456335 -1.2323986
16.514303 -23.44347 3.2294102
16.885925 -33.535854 3.2715993
16.079737 -28.413395 2.0219483
15.477655 -21.98937 0.32649985
15.867312 -31.535273 -0.42918989
16.345781 -28.869757 -1.245936
16.540472 -23.789331 3.2630115
16.958048 -34.199913 3.3261681
16.121469 -28.899393 2.0494549
15.422216 -24.67609 1.0942508
15.500918 -22.31204 0.3298724
15.861754 -32.01194 -0.43434441
16.376638 -29.342739 -1.2619882
16.571495 -24.148746 3.2983005
16.98966 -34.798542 3.3741863
16.155954 -29.383547 2.0767205
15.420051 -25.012808 1.1049659
15.863269 -32.514988 -0.43984091
16.408899 -29.829174 -1.2785547
16.572348 -24.470484 3.3282928
17.076567 -35.527836 3.4346764
16.190447 -29.879068 2.1046813
15.44284 -25.39732 1.117745
15.479083 -22.874657 0.33535659
15.870256 -33.042252 -0.44564775
16.415693 -30.280008 -1.2935368
16.594332 -24.829737 3.3632431
16.233461 -30.402332 2.1344831
15.452784 -25.768528 1.1298878
15.491329 -23.19816 0.33869943
15.891542 -33.613506 -0.45202869
16.420591 -30.737701 -1.3087602
16.618908 -25.199841 3.3994985
17.19396 -36.925903 3.5491686
16.275091 -30.935661 2.1648753
15.450914 -26.127562 1.141452
15.484426 -23.498756 0.34169456
16.470043 -31.290733 -1.3279794
16.678797 -25.631477 3.443856
15.465755 -26.522755 1.1545495
15.482038 -23.811863 0.3448596
16.716122 -26.036924 3.4844849
16.375582 -32.075897 2.2304368
15.460902 -26.892286 1.1664836
15.496375 -24.156979 0.34847414
15.911353 -35.323856 -0.47101018
16.484299 -32.272579 -1.3609607
16.769621 -26.476196 3.5294352
16.381367 -32.579304 2.25841
15.455846 -27.269369 1.1787043
15.522443 -24.527473 0.35243806
15.92842 -35.949188 -0.47803617
16.505804 -32.810108 -1.3793318
16.811111 -26.905508 3.5728467
16.409912 -33.141201 2.2903378
15.477843 -27.703056 1.1933228
15.499533 -24.827093 0.35537004
15.944354 -36.589699 -0.48524326
16.541683 -33.390194 -1.399425
16.878464 -27.385811 3.6228061
16.417772 -33.675121 2.3202307
15.467361 -28.087679 1.2057796
15.523185 -25.207991 0.35945198
16.556503 -33.942104 -1.4182718
16.910789 -27.818987 3.6663141
15.505136 -28.569754 1.2223674
15.525815 -25.562231 0.36313799
15.956273 -37.879681 -0.49971613
16.645386 -34.662483 -1.444078
16.960501 -28.290398 3.7146566
16.503391 -34.932621 2.3927379
15.525928 -29.031572 1.238027
15.538165 -25.939964 0.36714277
15.951611 -38.527714 -0.50696433
16.744999 -35.425308 -1.4715499
17.007505 -28.767595 3.7635415
16.547094 -35.588894 2.4306891
15.579459 -29.566496 1.2567382
15.544265 -26.315094 0.37109521
15.978589 -39.272953 -0.51547074
16.862663 -36.248257 -1.5014083
17.051056 -29.249456 3.8128221
16.584858 -36.250275 2.4688642
15.592109 -30.03594 1.2726015
15.558343 -26.711866 0.37533718
15.99089 -40.004635 -0.52377653
17.119978 -29.786255 3.8690298
15.553692 -27.084652 0.37922713
16.018089 -40.797287 -0.53285766
17.137403 -30.244614 3.914835
16.634542 -37.570831 2.5447068
15.691663 -31.15687 1.3118366
15.566807 -27.496813 0.38365343
16.031366 -41.579277 -0.54177624
16.673866 -38.292648 2.5866179
15.710641 -31.676889 1.3296477
15.547988 -27.860945 0.38739559
16.022135 -42.327263 -0.55023116
16.71018 -39.028564 2.6293526
15.753154 -32.258362 1.3499724
15.571538 -28.309965 0.39230314
16.04394 -43.183319 -0.56006914
15.800158 -32.864506 1.3712558
15.598898 -28.776436 0.39743343
16.805176 -40.621033 2.7225375
15.817372 -33.423958 1.3905227
15.582029 -29.171131 0.40155649
16.059977 -44.906956 -0.57982403
16.886757 -41.53793 2.7769938
15.874835 -34.084736 1.4139339
15.581557 -29.605949 0.40621826
16.099085 -45.902668 -0.59139377
15.918884 -34.734608 1.4368135
15.586011 -30.06052 0.41113541
15.971132 -35.420837 1.4611182
15.585919 -30.517132 0.41606459
17.146376 -44.507694 2.9644732
16.013691 -36.104816 1.4852513
15.621247 -31.055252 0.42208651
16.050167 -36.794571 1.5095462
15.60976 -31.512604 0.42699271
16.172863 -50.010506 -0.63901007
16.114986 -37.570541 1.5372958
15.635344 -32.057289 0.43306503
16.1749 -51.085358 -0.65146357
16.145632 -38.288799 1.5626018
15.6391 -32.570721 0.43869638
16.2054 -52.294559 -0.66560334
16.203039 -39.093224 1.5913438
16.217199 -53.491322 -0.67955631
15.662377 -33.672047 0.45090732
16.242903 -54.784538 -0.69470614
16.328062 -40.803429 1.6526787
15.664384 -34.223946 0.45700216
16.267141 -56.127708 -0.71045941
16.388105 -41.693344 1.6846187
15.677342 -34.815182 0.46360382
16.432123 -42.570724 1.7159629
15.685759 -35.412666 0.47026956
16.31501 -58.991066 -0.74411303
15.697165 -36.033913 0.47723141
16.330431 -60.489052 -0.76173031
16.516731 -44.40443 1.7815721
15.694441 -36.640057 0.48397464
15.709472 -37.312668 0.50881261
16.402386 -63.927349 -0.83736336
16.634733 -47.410522 1.8889295
15.721062 -38.660046 0.51545227
16.69463 -48.532421 1.9295104
15.771703 -39.477032 0.52504498
16.53293 -69.744804 -0.90942341
16.711363 -49.567783 1.9665596
15.76363 -40.170513 0.54234314
16.547066 -71.763535 -0.93440473
16.791044 -50.832317 2.0126033
15.774806 -40.935879 0.55135918
16.61977 -74.154182 -0.96418649
16.872433 -52.150986 2.0606756
15.807484 -41.78297 0.56145161
16.671238 -76.582771 -0.99441528
15.821377 -42.60783 0.57122022
15.836786 -43.464745 0.58139473
17.137474 -56.500748 2.219708
15.840171 -44.317562 0.59149092
16.919697 -85.244736 -1.1026579
15.85376 -45.229321 0.60235018
15.884296 -46.223068 0.61427498
15.918465 -47.264107 0.62679994
15.934812 -48.290184 0.6390987
16.086439 -51.941879 0.67451674
16.160641 -53.337395 0.69133812
16.232935 -54.785091 0.70879817
16.379133 -57.876698 0.76489991
16.545557 -61.32729 0.78794742
16.62582 -63.163364 0.8102119
16.685797 -65.009071 0.83255816
16.765242 -67.023766 0.85702634
16.831039 -69.08477 0.882043
17.014078 -73.760422 0.93900305
17.152571 -76.501091 0.97253484
17.073545 6.4620996 7.4138465
16.547493 6.1471848 7.1689048
16.342466 5.9571633 7.0641117
16.202215 5.793664 6.9879894
16.086243 5.6411104 6.9229107
15.996243 5.4995632 6.8695269
15.917091 5.3633685 6.8212738
15.848393 5.2321568 6.7779469
15.781393 5.1028662 6.7357755
15.745135 4.9846401 6.7071185
15.68166 4.8588834 6.667254
15.670081 4.7501135 6.6498141
16.952459 6.0616536 6.7929859
17.155516 5.2041588 5.2735138
15.633778 4.6345592 6.6222153
16.587463 4.9208989 5.08952
15.594608 4.5190392 6.5937543
16.316498 5.6093955 6.5100756
16.571888 4.8009071 -5.5447192
15.584522 4.4126434 6.5779176
16.180435 5.4518356 6.4423203
16.208937 4.592958 4.955709
16.408772 4.6447115 -5.480504
15.576232 4.3072376 6.5631399
16.067169 5.3041172 6.3841434
16.115717 4.4599028 4.9187484
16.257576 4.4943514 -5.4206924
15.578677 4.2051873 6.553175
15.988628 5.1696115 6.3402128
16.020523 4.3279076 4.8814964
16.105974 4.3462429 -5.3611512
15.566854 4.0996876 6.5374956
15.914617 5.038034 6.2984862
15.959769 4.206593 4.8550282
16.003847 4.2135077 -5.3184505
15.643729 4.0174508 6.5593047
15.877467 4.9192939 6.2717199
15.863577 4.0773058 4.8180652
15.94603 4.0938263 -5.2907887
16.891369 5.2305112 -6.1754627
15.745042 3.9406481 6.5915217
15.778321 4.7826676 6.2208481
15.800495 3.9578989 4.79144
15.882997 3.9739256 -5.2616854
17.019428 5.1559377 -6.2105975
15.798146 3.8510873 6.6037364
15.741436 4.6662192 6.1948996
15.747596 3.8421149 4.7681594
22.117109 5.3952327 1.9761446
12.173951 2.9683998 -0.15240842
22.129805 5.3853302 -2.5619152
15.826862 3.8568461 -5.2351508
15.80635 3.7504895 6.5974226
15.836679 4.5889311 6.2211838
15.713449 3.7317798 4.7507977
22.511986 5.3415089 4.3682203
21.955555 5.2132998 1.9588146
21.997602 5.2104006 -2.542861
15.759556 3.7381539 -5.2052026
16.151756 4.6774697 -5.8725843
15.828496 3.6533017 6.5971851
15.901915 4.502255 6.2358403
15.67143 3.6203649 4.731288
16.828812 4.7644897 4.6668143
16.716213 3.8581355 3.238956
13.585249 3.1299241 -1.5681672
15.732781 3.6299834 -5.1889043
16.023268 4.5338845 -5.8156433
15.849028 3.5557554 6.5965247
15.875363 4.3896999 6.2147489
16.514065 5.4603591 6.0776038
15.646087 3.5135252 4.7170396
16.518595 4.5673709 4.5729303
16.423161 3.6845078 3.1777332
12.162447 2.7307265 1.082029
11.203929 2.514328 -0.13966134
16.890518 3.7877333 -3.7175343
15.664219 3.5130749 -5.1590848
15.960638 4.4105706 -5.7829804
15.889714 3.4626172 6.6044908
15.861897 4.2813835 6.1990762
15.632326 3.4098167 4.7064939
16.315424 4.4036121 4.50912
16.281906 3.548027 3.1461298
11.774557 2.5678508 1.0460991
11.027882 2.4038432 -0.13728039
15.656757 3.4106381 -5.1496377
15.893406 4.2872 -5.7489796
16.472437 5.3174272 -6.529161
15.923543 3.367779 6.6098385
15.816369 4.1651478 6.1711788
16.195866 5.1355453 5.9368567
15.600921 3.3028185 4.6908488
16.218126 4.2707629 4.4749031
16.152103 3.416065 3.1169395
10.840311 2.2933729 -0.1347677
11.873576 2.5063484 -1.3650286
15.619467 3.3022597 -5.1306114
15.856635 4.1730781 -5.7263098
16.332731 5.1618867 -6.4611101
15.701602 3.2203152 6.5093865
15.807327 4.0592136 6.1578174
16.246767 5.0421848 5.9440618
15.625173 3.2079098 4.6921344
16.088076 4.1311255 4.4319425
16.061554 3.2940857 3.0955067
11.28943 2.3173008 1.0003964
10.703382 2.195878 -0.1328954
13.825992 3.554369 -0.53258264
11.553562 2.3648419 -1.3265454
16.194328 3.3197703 -3.5502524
15.605636 3.199429 -5.1195235
15.76969 4.0468984 -5.6858358
16.177505 5.00386 -6.3874378
15.758025 3.1312554 6.5246897
15.572537 3.897227 6.0569239
16.322039 4.9559555 5.9603629
15.59248 3.1016147 4.6765137
15.993602 4.0024233 4.3990684
15.996718 3.178633 3.0791943
10.576801 2.1023633 -0.13116109
11.341584 2.2490368 -1.3005977
16.049404 3.1875734 -3.514127
15.589573 3.0965829 -5.1079245
15.705507 3.9278736 -5.6538987
16.165987 4.8918185 -6.3709188
15.797825 3.0385234 6.5333261
15.564137 3.7937975 6.0444889
16.212826 4.814343 5.9095821
15.627375 3.0089939 4.6813536
15.940234 3.8852925 4.3777499
10.959779 2.1098173 0.96881735
13.248873 3.2302535 0.84796458
10.480303 2.0164158 -0.12954263
12.419878 3.0309019 -0.47862521
11.137328 2.137593 -1.2740868
22.229267 5.411478 -3.1525135
15.987868 3.0695131 -3.4958186
15.590772 2.9975026 -5.1057854
15.652246 3.81266 -5.624722
16.288919 4.8201189 -6.407589
15.85152 2.9481068 6.5479274
15.558899 3.69153 6.0335436
16.141308 4.6855249 5.8729239
15.584616 2.9017055 4.6631236
15.866058 3.7642291 4.3509531
15.532072 2.888644 2.9827063
22.364452 5.304956 3.7558012
10.811826 2.0126169 0.95462912
10.374346 1.930094 -0.12808414
11.895607 2.825738 -0.45774454
11.006904 2.0426168 -1.2577091
22.082291 5.2323856 -3.1270578
15.91976 2.9552722 -3.476896
15.550184 2.890873 -5.0865889
15.625443 3.7047164 -5.6068158
16.19206 4.6835985 -6.3580632
16.520443 5.6854525 -7.0982766
15.934506 2.8625002 6.5748286
15.554775 3.5898817 6.0232897
15.797479 4.480804 5.7377129
15.594161 2.8045926 4.6607428
15.820656 3.6510663 4.3322773
15.449025 2.7752366 2.9634326
22.260628 5.1362615 3.7330024
10.699583 1.9238728 0.94365847
10.295587 1.8501554 -0.1269692
11.545315 2.6677973 -0.443627
10.859171 1.9463527 -1.2394403
21.966549 5.0628133 -3.10621
15.568841 2.7914193 -3.39645
16.402763 3.7831585 -4.0598702
15.543489 2.7910693 -5.078701
15.612728 3.6006637 -5.5942206
16.127808 4.5579638 -6.321732
16.373964 5.5229096 -7.0206466
15.996166 2.7723684 6.5931273
15.588557 3.4970744 6.0279484
15.749805 4.3630471 5.710566
15.620296 2.7104559 4.6634955
15.75393 3.5339968 4.3079863
15.377236 2.6650481 2.9464698
22.123104 4.9617581 3.7047651
10.598561 1.838647 0.93373632
11.614431 2.6062362 0.74015951
10.205092 1.7693239 -0.12571695
11.311227 2.5406981 -0.43402502
10.721515 1.8538539 -1.2224072
21.887638 4.903389 -3.0907388
15.466299 2.6751893 -3.3704352
16.247301 3.6424544 -4.0157838
15.536839 2.6915755 -5.0710368
15.612613 3.4998851 -5.5863795
15.790844 4.3582821 -6.1790514
16.228001 5.3630009 -6.9438219
16.07542 2.6846106 6.6188788
15.601534 3.3995748 6.0247865
15.704906 4.247025 5.684731
15.602931 2.6089251 4.6534438
15.725784 3.4264734 4.2944598
15.326142 2.5594304 2.933615
10.493281 1.7541291 0.92349541
10.12773 1.6919672 -0.12463368
11.098793 2.4215422 -0.42529556
10.633904 1.771576 -1.2111562
16.202847 3.5255835 -2.2848957
15.394051 2.5655122 -3.3511975
16.090523 3.5037551 -3.9716451
15.555871 2.5966616 -5.0719523
15.592093 3.3949428 -5.5714784
15.74047 4.240613 -6.1490417
16.066992 5.2006583 -6.8611431
16.183607 2.6007104 6.6567283
15.594744 3.297996 6.0142365
15.661414 4.132308 5.6597033
17.034454 5.3986564 5.7408214
15.620682 2.5134659 4.6540504
15.691626 3.3183105 4.2794905
15.284938 2.4562438 2.9227881
15.911892 3.3641727 2.6575129
10.435193 1.6786662 0.91745943
11.140265 2.356627 0.70804566
10.082749 1.6209233 -0.1239554
10.940505 2.3167741 -0.41867745
10.538785 1.6893367 -1.1991194
13.143607 2.7755675 -1.8510506
15.37097 2.4648283 -3.3428173
15.986956 3.3785932 -3.9408906
15.562845 2.4997721 -5.0691299
15.582183 3.2927732 -5.5606132
15.682865 4.1220498 -6.1165428
15.982194 5.065084 -6.811532
15.634834 3.2063785 6.021997
15.623373 4.0198975 5.6369362
17.187483 5.3313255 5.781261
15.643327 2.4187341 4.6562881
15.658986 3.2111578 4.2651348
16.444584 4.2274318 4.0849638
15.788001 3.2369046 2.6334548
11.001465 2.2568302 0.69833052
10.011534 1.5465183 -0.12296092
10.77962 2.213685 -0.41199309
12.557702 2.5714545 -1.7662807
15.283796 2.3547513 -3.3206544
15.956156 3.2699363 -3.928278
16.793907 4.3145342 -4.6350627
15.578854 2.4043818 -5.0694437
15.562031 3.1888916 -5.5463347
15.634917 4.0070491 -6.0881381
15.91398 4.9362183 -6.7694225
16.488138 2.4424815 6.7691498
15.662113 3.1119542 6.0250354
15.624239 3.9180644 5.6284685
16.289721 4.9434891 5.4689798
15.68186 2.326261 4.6634212
15.637726 3.1069353 4.2540712
16.274303 4.0773668 4.0363741
15.642917 3.1072652 2.6060252
10.275222 1.5238217 0.90168267
10.837649 2.1540146 0.68708032
13.310516 3.334043 0.51076162
9.9663057 1.4769785 -0.12229181
13.646631 3.4205358 -0.87311047
10.371764 1.5322622 -1.1778871
12.052792 2.3911033 -1.6931679
15.248661 2.2536418 -3.3099542
15.873813 3.1516972 -3.9031713
16.441599 4.1166472 -4.5307703
15.60876 2.3110332 -5.0744648
15.550641 3.0872569 -5.5354195
15.639409 3.9060943 -6.08044
15.869265 4.8158088 -6.7377052
16.761185 2.3779213 6.8751283
15.68455 3.016494 6.0264325
15.603413 3.811235 5.6124363
16.147846 4.7924266 5.4113727
15.70629 2.2314801 4.6665263
15.618133 3.0035479 4.2436481
16.137192 3.9379432 3.996299
12.1936 1.729875 2.3251781
15.568757 2.9933558 2.5905619
10.201566 1.4489831 0.89442205
10.711768 2.0607545 0.6782853
9.9062157 1.4060103 -0.12144633
10.528886 2.0278685 -0.4014287
13.019537 3.1785777 -0.83172548
10.296728 1.4566754 -1.1683284
11.743448 2.2549312 -1.6477368
15.151289 2.1443381 -3.2858999
15.830187 3.0421951 -3.8877811
16.342222 3.9853663 -4.4965611
15.624663 2.215502 -5.0751204
15.515341 2.9814148 -5.5162382
15.62336 3.8003964 -6.0650191
15.764123 4.6784611 -6.6807508
15.733202 2.9258595 6.038115
15.593401 3.7075515 5.6005464
16.031193 4.650969 5.3626165
15.735104 2.1371601 4.671103
15.584465 2.8980272 4.2295885
16.021782 3.8057718 3.9618607
15.488111 2.8794184 2.5741544
22.223162 5.2809696 3.1435547
10.147101 1.3777837 0.8888889
10.589905 1.9700052 0.66979074
9.8704786 1.3392065 -0.1209052
12.32502 2.9290049 -0.78619486
10.223971 1.3824484 -1.1590887
11.476723 2.1307838 -1.6084474
22.248642 5.2838073 -3.7287924
13.280651 1.7965394 -2.8777652
15.783814 2.9329753 -3.8718996
16.153402 3.8344638 -4.4380503
15.665194 2.1232803 -5.0839577
15.55702 2.8905575 -5.5246468
15.587955 3.6906283 -6.0423708
15.736401 4.5653625 -6.6570058
15.787393 2.8358295 6.0521202
15.58746 3.6052344 5.5903621
15.974735 4.5285068 5.3343353
15.794166 2.0465634 4.6848202
15.600748 2.8021317 4.2292614
15.97523 3.6913097 3.9446745
12.685652 2.2779713 2.1060174
22.096067 5.1077385 3.1210847
10.102238 1.3086147 0.88423884
10.475649 1.882323 0.66182125
11.62272 2.684927 0.44402424
9.8190098 1.2709156 -0.12017696
10.32476 1.8574532 -0.39274746
10.175361 1.3123506 -1.1526431
11.321366 2.0301597 -1.5848988
22.116543 5.109282 -3.701329
12.854164 1.6585965 -2.7830925
15.712865 2.8201616 -3.8501778
16.034174 3.7023833 -4.3989687
15.652218 2.0237963 -5.0756207
15.551108 2.7908556 -5.5163622
15.552798 3.5816693 -6.0201106
15.677447 4.44415 -6.6204062
15.825845 2.7426064 6.0602961
15.557142 3.4977994 5.5716863
15.88514 4.3979874 5.2953062
15.825055 1.9519116 4.6903415
15.572941 2.6986072 4.217155
15.898664 3.5710006 3.920284
11.590682 1.4272304 2.2048249
12.30915 2.1324837 2.0413015
10.06586 1.2411516 0.88037151
10.41456 1.8054519 0.65724957
11.35522 2.5498426 0.43319899
9.779768 1.2048709 -0.11960393
10.248279 1.778847 -0.38941559
11.50534 2.5854709 -0.73182958
10.118836 1.2419884 -1.1453553
11.143703 1.9278021 -1.5583421
22.052456 4.9521432 -3.6854489
12.521087 1.5375721 -2.708883
15.661483 2.7118542 -3.8334379
15.967186 3.583863 -4.374475
15.71777 1.934293 -5.0929327
15.566049 2.6950557 -5.5156918
15.559424 3.4828012 -6.0142908
15.813973 4.378202 -6.6665888
15.877507 2.6513155 6.0737348
15.55638 3.3974872 5.5638428
15.814697 4.2741838 5.2629828
15.886867 1.8606455 4.7051892
15.584958 2.6022935 4.2160058
15.843736 3.456682 3.9014363
11.462794 1.3401345 2.1788921
12.002503 2.003582 1.9883722
10.003918 1.1712439 0.874309
10.322185 1.7242671 0.65073997
11.128109 2.4272182 0.4239586
9.7474518 1.1402172 -0.1191209
10.16817 1.7007387 -0.38596779
11.266747 2.4593303 -0.71567976
10.085405 1.1751159 -1.1407337
11.006783 1.8346304 -1.5375919
21.927971 4.7830482 -3.6596711
12.259841 1.4291884 -2.6504169
15.679974 2.6160641 -3.8339624
15.908043 3.4682002 -4.3523598
16.517187 4.460598 -5.0382395
15.766133 1.842113 -5.1048455
15.587909 2.6004307 -5.5176797
15.550524 3.3807473 -6.0027184
15.851431 4.2840304 -6.6711726
15.907179 2.5560448 6.0789709
15.5951 3.3058219 5.5703321
15.771741 4.1589022 5.2400961
15.944222 1.7682583 4.718874
15.591458 2.5051429 4.2135272
15.79058 3.3437176 3.8832214
11.780152 1.8922436 1.9495766
15.963883 3.3819344 2.2457347
9.9553728 1.1036812 0.86945808
10.244987 1.6468202 0.64522403
10.96601 2.3214672 0.41723239
9.7185144 1.0764267 -0.11868431
10.117462 1.6285051 -0.3836565
11.077128 2.3468275 -0.70270699
10.042513 1.1077055 -1.1350921
10.87795 1.7446247 -1.5180706
16.284698 3.4475698 -2.7142549
15.640674 2.5109656 -3.8205142
15.853878 3.3546243 -4.3318267
16.349087 4.3077445 -4.978807
15.831368 1.7513382 -5.1223917
15.605686 2.5050757 -5.5184278
15.505997 3.271558 -5.9776688
15.838591 4.1764488 -6.6548586
16.018793 2.4732499 6.1157098
15.579911 3.2028379 5.5577817
15.718526 4.0418811 5.214077
16.004469 1.6755964 4.7335725
15.5975 2.4080334 4.2110872
15.75714 3.2357464 3.8700426
11.230842 1.1735027 2.1319039
9.911828 1.0373291 0.86508292
10.16052 1.5693498 0.6392858
10.787249 2.2145569 0.40990621
9.6577406 1.0097494 -0.11786425
10.048582 1.554225 -0.3806757
10.911802 2.2419319 -0.69133335
9.9929829 1.0402212 -1.128751
10.742011 1.6552807 -1.497654
11.821157 1.2312126 -2.5521202
15.622852 2.4098687 -3.8124771
15.783873 3.2387567 -4.3071885
16.193571 4.1606784 -4.9235806
15.890859 1.6592865 -5.1382494
15.625257 2.4099669 -5.5200157
15.545468 3.1803813 -5.98525
15.824068 4.0689397 -6.6381412
16.098156 2.3844659 6.1403079
15.591067 3.1055472 5.5548596
15.690906 3.9322946 5.1968136
16.110056 1.5867801 4.7618322
15.636296 2.3158846 4.2176456
15.688785 3.12151 3.8484774
17.01841 4.2645273 3.7607989
11.149535 1.0958909 2.1151533
11.409082 1.6892909 1.8845929
9.8991795 0.97463816 0.86344075
10.112765 1.4985018 0.63569069
10.686413 2.1256063 0.40557125
12.915827 3.2310941 0.16472955
9.6632519 0.95042211 -0.11785813
9.9947433 1.4831623 -0.37828422
10.752285 2.1404834 -0.68038207
9.9620295 0.97524911 -1.1245576
10.667177 1.5768045 -1.4858438
15.726956 3.1266403 -4.2863407
16.075832 4.0254397 -4.8801813
15.950478 1.5666358 -5.1543212
15.645951 2.3149643 -5.5222044
15.575542 3.0870874 -5.9894228
15.807218 3.9613631 -6.6207514
16.212986 2.2999012 6.1786084
15.630977 3.0139012 5.5623851
15.665502 3.8146865 5.1798282
16.211361 1.4963809 4.7889719
15.624015 2.2161825 4.2105856
15.677798 3.0194387 3.8411655
11.050925 1.0177761 2.0952222
12.097332 2.3310077 1.6954795
22.222965 5.4183707 2.5700202
9.8434954 0.9082073 0.85808158
10.062946 1.4279765 0.63199544
10.569522 2.0350177 0.40065357
9.6227798 0.88686079 -0.11753672
9.9233885 1.4103994 -0.37393546
10.632058 2.0488083 -0.66959089
13.822074 3.3727765 -1.2428356
9.9382343 0.91139114 -1.1225916
10.575077 1.4969441 -1.4715232
13.252208 2.5516567 -2.2046533
11.53954 1.0589093 -2.488668
15.324192 2.1716228 -3.727953
15.700884 3.0214303 -4.2687063
15.996776 3.9014926 -4.8518715
15.992455 1.4717422 -5.1612382
15.658235 2.2186885 -5.5230784
15.563735 2.9856169 -5.9777255
15.580302 3.8030484 -6.5158124
16.361071 2.2185855 6.2297373
15.637092 2.9156811 5.5580897
15.614976 3.7010396 5.1555161
16.343813 1.407524 4.8254571
15.65419 2.1225615 4.2151284
15.665765 2.9175482 3.8337591
16.367613 3.8886192 3.6061656
10.970511 0.94252247 2.0788403
11.116572 1.5068146 1.8330823
22.076267 5.2393045 2.5492895
9.8290796 0.84608692 0.85635626
10.021035 1.3593565 0.62882763
10.47804 1.9508059 0.39672461
11.768163 2.7898102 0.14964063
9.5977268 0.82519358 -0.11716665
9.8873138 1.3434321 -0.37225851
10.530305 1.9622663 -0.66241193
13.151012 3.123657 -1.1807504
9.8948374 0.84622061 -1.1170821
10.499374 1.42057 -1.4597489
12.657388 2.3566766 -2.1032531
22.536476 5.3522658 -4.3729191
15.312901 2.0742595 -3.7220402
15.663333 2.9146523 -4.2535543
15.929799 3.7817533 -4.8244286
16.092148 1.3813952 -5.1905794
15.759419 2.1344702 -5.5540447
15.595549 2.8926208 -5.9830141
15.535448 3.6912458 -6.4874601
16.511953 2.1359506 6.2820792
15.673922 2.8231432 5.5649185
15.605858 3.5978885 5.1451192
16.563414 1.3241031 4.8878026
15.680454 2.0282199 4.2187696
15.616101 2.8092682 3.8173149
16.241426 3.7535107 3.5732224
10.918833 0.87062562 2.0679963
11.030969 1.426339 1.8174893
11.577396 2.0838113 1.6189026
21.956505 5.0687752 2.5318203
9.7830381 0.78168219 0.85191101
9.9655638 1.2896096 0.62483841
10.388944 1.868337 0.39290974
11.452774 2.6409268 0.14542143
9.5773458 0.7642715 -0.1168584
9.8370056 1.2751735 -0.3700628
10.422769 1.8761282 -0.6549108
9.8688917 0.78303522 -1.1135895
10.430432 1.3461233 -1.448988
12.238237 2.2010267 -2.031321
22.41404 5.1781092 -4.3429151
11.32985 0.89960897 -2.4408803
15.274961 1.9737523 -3.7098041
15.65436 2.8137147 -4.2463493
15.856887 3.6618116 -4.7954516
16.243702 1.2940521 -5.2368035
15.809498 2.0425482 -5.5671716
15.599395 2.794436 -5.9777994
15.532895 3.590095 -6.4770722
16.883614 2.0787802 6.4185066
15.686679 2.7261748 5.5634041
15.598873 3.4956183 5.1356483
15.717257 1.9350034 4.2253976
15.606585 2.7088044 3.8108537
16.105877 3.6182272 3.538449
10.830961 0.79677051 2.0503893
11.400375 1.9798104 1.5924207
9.7478561 0.71870577 0.84844726
9.9222183 1.2221473 0.62163877
10.288786 1.785223 0.38870016
9.5649605 0.70424771 -0.11665236
9.8111458 1.2106572 -0.36880359
10.332247 1.7944534 -0.6485188
9.8398733 0.72000474 -1.1097958
10.373107 1.2740668 -1.4399111
22.271828 5.0015054 -4.3093324
11.232974 0.82259071 -2.4188764
15.258773 1.876545 -3.7030067
15.63358 2.7110624 -4.2361207
15.788714 3.544167 -4.7681684
16.395412 1.2049469 -5.2832308
15.867687 1.9511553 -5.5833421
15.634413 2.7018063 -5.9847531
15.548061 3.4932435 -6.4743371
15.737644 2.6356554 5.5756388
15.599504 3.3953726 5.1289001
15.759494 1.8421113 4.233634
15.610771 2.6109629 3.8078926
16.009552 3.4935374 3.5125108
10.782622 0.72672427 2.0403557
10.85378 1.2682128 1.7855964
9.7225285 0.65688378 0.8458761
9.8694315 1.1542141 0.61787623
10.211713 1.707373 0.38538539
11.032708 2.4018672 0.13970286
9.56493 0.64526361 -0.11660151
9.7731056 1.1451284 -0.36710259
10.248516 1.7151986 -0.6425907
9.8195086 0.65796679 -1.1070228
10.309287 1.2020644 -1.4300014
11.649386 1.947857 -1.9294697
22.156223 4.8329344 -4.2811465
11.142514 0.74726003 -2.3983645
15.224635 1.7775868 -3.6920054
15.606814 2.6078825 -4.2244525
15.746739 3.4333937 -4.7490401
16.558281 1.1148124 -5.3334088
15.910315 1.8573697 -5.5942254
15.634143 2.6030684 -5.9784226
15.541212 3.3916678 -6.4626975
15.775081 2.5425165 5.5832701
15.585015 3.2921922 5.1173987
15.791566 1.7477096 4.2392893
15.599916 2.5108488 3.8014145
15.950778 3.3783147 3.4950023
11.077274 1.7839527 1.5441149
9.6936769 0.59520733 0.8430323
9.8279266 1.0882751 0.61484814
10.134972 1.6306809 0.38210443
10.855949 2.2937098 0.13728383
9.5351543 0.58450514 -0.11619262
9.7280998 1.0793873 -0.36515641
10.17373 1.6385736 -0.63725907
11.341496 2.4014363 -1.0126868
9.7912188 0.59574729 -1.1034006
10.257043 1.1322256 -1.4217644
22.068159 4.6720614 -4.2585106
11.093669 0.67563552 -2.3869138
15.225037 1.6830071 -3.6895292
15.585599 2.5061345 -4.2144685
15.683936 3.3190231 -4.7238684
26.666042 1.6310364 -8.5857248
15.981973 1.7664046 -5.6155043
15.667539 2.5099287 -5.9851913
15.549903 3.2937398 -6.4577851
15.845161 2.4541585 5.6026382
15.578725 3.1911361 5.1088076
15.848758 1.6556671 4.2518353
15.589838 2.4111865 3.7952821
15.850164 3.2555177 3.4685142
10.697075 0.58919168 2.0226471
10.6941 1.1167108 1.75694
10.985273 1.7000505 1.5298077
11.844203 2.4297681 1.3584763
9.6890574 0.53526998 0.84232903
9.7987766 1.0242261 0.61261982
10.076065 1.5578383 0.37951601
10.735554 2.1995468 0.13558808
9.5260983 0.52530026 -0.1160408
9.709527 1.0170563 -0.36421815
10.124387 1.5669546 -0.63355422
11.150906 2.2896841 -0.99439573
9.7747736 0.53456908 -1.1011569
10.214043 1.0640849 -1.4148722
11.290033 1.7456319 -1.8662617
15.998669 3.2846518 -3.0833287
11.034022 0.60407233 -2.3732381
15.217021 1.5876725 -3.6851566
15.561705 2.4044333 -4.2039385
15.628572 3.2072453 -4.7011776
26.530413 1.4594022 -8.539012
16.03635 1.6728811 -5.6308985
15.718616 2.4192836 -5.9989195
15.565391 3.197355 -6.4559479
15.863809 2.3574657 5.6040115
15.588024 3.0935051 5.1055365
15.933162 1.565715 4.271821
15.594373 2.3140047 3.7928581
15.827848 3.1498446 3.4593363
10.645887 0.52087307 2.0123262
10.638886 1.0449953 1.7467825
10.862685 1.6128942 1.5113295
11.565761 2.2987862 1.3248975
9.6702518 0.47473338 0.84042507
9.7762394 0.9612667 0.61083055
10.02282 1.4866958 0.3771598
10.587632 2.1016321 0.13355447
9.4968729 0.46525848 -0.11564784
9.6770601 0.95366418 -0.36277393
10.037768 1.4905417 -0.62754971
11.000568 2.1885571 -0.97977316
9.7441969 0.47294781 -1.0973648
10.152643 0.9947558 -1.4054949
11.132931 1.6514628 -1.8385828
15.822754 3.1474814 -3.0456462
10.963289 0.53275025 -2.3572772
15.165749 1.4883131 -3.670459
15.58415 2.310087 -4.2060938
15.642544 3.1102138 -4.6995511
26.515825 1.2954613 -8.5315971
16.17201 1.5867859 -5.6750073
15.748882 2.3251109 -6.0049129
15.589848 3.1028092 -6.4580741
15.958629 2.2715633 5.6324773
15.589655 2.994524 5.0999565
15.978347 1.471225 4.281435
15.617331 2.2195623 3.7950583
15.772831 3.0384037 3.443172
10.607569 0.45377401 2.0045192
10.57311 0.97307128 1.7349696
10.75294 1.5292258 1.494727
11.371687 2.1877675 1.3011034
9.6590805 0.41479191 0.83921719
9.7261314 0.89611959 0.60734475
9.9581785 1.4147164 0.37439364
9.4956932 0.40681282 -0.11560089
9.6680021 0.89290857 -0.36222214
9.9941883 1.4214507 -0.62426805
9.7396078 0.41283989 -1.0965421
10.1165 0.92858148 -1.3996763
15.716294 3.0261755 -3.0215235
13.485176 1.2398959 -3.2618191
15.577154 2.211457 -4.2004638
15.621111 3.0064332 -4.6874814
26.448225 1.1295338 -8.5074558
16.349457 1.5029715 -5.7339315
15.823749 2.2370429 -6.0281115
15.600941 3.005619 -6.4549079
16.039553 2.1827567 5.6562057
15.608525 2.898958 5.100214
16.05958 1.3793837 4.3008518
15.61644 2.121763 3.7916062
15.72438 2.9291232 3.4286072
10.592544 0.38803354 2.0011923
10.517679 0.90292364 1.7249323
10.684702 1.4526924 1.4839743
11.173642 2.078651 1.2769605
9.6450405 0.35491353 0.8377924
9.7086229 0.83446258 0.60592031
9.8983459 1.3443083 0.37182704
10.393305 1.9308033 0.13079444
9.5034752 0.34874117 -0.11566741
9.6261883 0.82951051 -0.36045808
9.9518442 1.3531827 -0.6210928
10.723652 1.9969834 -0.95285487
9.7150974 0.35209751 -1.0935187
10.081663 0.86303663 -1.3940977
10.932793 1.4848987 -1.802385
15.605828 2.9057148 -2.9968016
10.872156 0.39465824 -2.3364649
15.542198 2.1092904 -4.187469
15.61611 2.9062181 -4.6805415
26.413845 0.96573693 -8.4943314
16.487679 1.4137121 -5.7792568
15.861649 2.1432147 -6.037426
15.64737 2.9151056 -6.4665956
16.14361 2.0961103 5.6882577
15.59899 2.7982826 5.0913925
16.174179 1.2893025 4.3293424
15.646445 2.0281425 3.7957988
15.68314 2.8219838 3.4157753
10.52207 0.32081637 1.9874686
10.467128 0.83391833 1.7157702
10.592738 1.3740457 1.470003
11.03247 1.9824303 1.259413
9.6234655 0.29500341 0.83574533
9.6834269 0.77247208 0.60404062
9.8679657 1.2785668 0.37038413
10.307105 1.8494371 0.1295644
9.4838648 0.28976333 -0.11540491
9.6194086 0.76949471 -0.36002061
9.9105816 1.285688 -0.61801362
10.591788 1.905259 -0.9400816
9.7051172 0.29212025 -1.0921731
10.0474 0.79803354 -1.3886564
10.824443 1.4025948 -1.78307
15.472825 2.78283 -2.967926
10.82999 0.32660204 -2.3269286
12.879674 1.025001 -3.112082
15.584491 2.0177233 -4.1954489
15.598537 2.8040333 -4.6700301
26.356684 0.80174261 -8.4742079
17.073681 1.3584793 -5.9816275
15.962358 2.0571721 -6.0708408
15.662522 2.8186011 -6.4655886
16.248283 2.0084014 5.7206893
15.620595 2.7033343 5.0929341
16.270721 1.1965758 4.353137
15.649868 1.9310226 3.7936831
15.67739 2.7217474 3.4108212
10.517772 0.25610039 1.9863226
10.427019 0.76636791 1.7083925
10.522169 1.2992936 1.4590759
10.908823 1.8911906 1.2439499
9.6340618 0.23616922 0.83652407
9.6520681 0.71039772 0.60180122
9.8389711 1.2134734 0.36900944
10.2076 1.7670031 0.12817487
9.4898081 0.23167202 -0.11545777
9.5874033 0.70775872 -0.35865352
9.8669586 1.2185153 -0.61481553
10.496156 1.8216417 -0.93058407
9.7066431 0.23256326 -1.0921636
10.020198 0.73403132 -1.3842483
10.717938 1.3219781 -1.7641566
13.901155 2.4122012 -2.6635664
10.794699 0.2592535 -2.3189604
12.657937 0.9292317 -3.0570693
15.599067 1.9223673 -4.1961188
15.563145 2.699198 -4.6543875
26.321545 0.63904542 -8.4614897
26.832169 1.9693162 -9.3960247
16.013021 1.9638921 -6.0854115
15.698176 2.7256835 -6.4732804
16.377865 1.922466 5.7620511
15.656856 2.6107671 5.0994372
16.442158 1.1077945 4.3971024
15.689127 1.8382065 3.8003941
15.65275 2.6186349 3.4019008
10.504324 0.19128981 1.9835238
10.375825 0.69862419 1.6992706
10.458473 1.2263259 1.4491727
10.791224 1.8026705 1.2292553
9.6124115 0.17663015 0.83453435
9.6346264 0.64970243 0.60045391
9.7989569 1.1475435 0.36723772
10.128687 1.6893988 0.12705143
9.4863091 0.17335264 -0.11540009
9.5833597 0.64836311 -0.35834667
9.8270521 1.152415 -0.61187685
10.390692 1.7377301 -0.92027098
9.6944962 0.17276141 -1.0906571
9.988349 0.67010844 -1.3792543
10.672188 1.2499045 -1.7553307
10.7604 0.19237557 -2.311295
12.444976 0.83685869 -3.0043395
15.618227 1.8275129 -4.1981769
15.554457 2.5994828 -4.6469316
26.311369 0.47728074 -8.457118
26.732021 1.7971293 -9.3569183
16.143085 1.8793755 -6.1303415
15.73883 2.6333632 -6.4832597
15.675346 2.5150933 5.100337
15.438105 1.712836 3.7369728
15.611463 2.513356 3.3895118
10.445687 0.12611318 1.9722685
10.355887 0.63347626 1.6953367
10.410247 1.1559621 1.4414804
10.673388 1.7157356 1.2146105
9.5985155 0.11746506 0.83324963
9.6197519 0.58942866 0.59929019
9.7551346 1.0817766 0.36533973
10.072751 1.6166081 0.126223
9.4874878 0.11514603 -0.11540365
9.5645456 0.58815795 -0.35750145
9.7902927 1.0872487 -0.60916114
10.315862 1.6602139 -0.91272414
9.6790972 0.11308368 -1.0888262
9.9661169 0.60721481 -1.3756441
10.596022 1.1751224 -1.7415842
10.769625 0.12644422 -2.3130662
12.259468 0.74885118 -2.958391
15.648334 1.7337729 -4.203331
15.548432 2.5005064 -4.640461
26.278694 0.31540683 -8.4458342
26.606293 1.6247504 -9.3092451
15.792809 2.5428796 -6.4989457
15.722243 2.4237597 5.110661
15.437301 1.6169229 3.7343061
15.363953 2.3768871 3.3325441
10.451082 0.062045865 1.9731779
10.31616 0.56753314 1.6882312
10.345038 1.0845052 1.4315027
10.613257 1.6393298 1.2066003
9.5831804 0.058470607 0.83187151
9.6079721 0.52955329 0.59834266
9.7264252 1.0182189 0.36402369
10.01731 1.5447228 0.12540711
9.4924498 0.056956351 -0.11545758
9.5367908 0.52773428 -0.3563363
9.7597866 1.0232774 -0.60686088
10.231774 1.5823364 -0.90440816
9.6762962 0.053673338 -1.0884534
9.9340401 0.54410177 -1.3707299
10.519072 1.101294 -1.7277935
12.314681 1.9041137 -2.3524704
10.725801 0.060111836 -2.3035312
12.096866 0.66444349 -2.9181139
15.651885 1.6370134 -4.201508
15.548973 2.4028139 -4.6361341
26.307497 0.15431838 -8.454628
26.537487 1.4571686 -9.281868
16.446449 1.7104108 -6.2371025
15.887295 2.45818 -6.531497
15.778738 2.3334434 5.1242747
15.4282 1.5203251 3.7297778
15.339577 2.2768309 3.3241639
10.423925 -0.0020764924 1.9680161
10.280734 0.50233203 1.6818978
10.308498 1.0167676 1.4255563
10.50988 1.5573972 1.1937386
9.5885239 -0.00033196519 0.83231992
9.5968914 0.46989715 0.59746182
9.6960058 0.95492631 0.36265907
9.9623041 1.4737176 0.12460294
9.4746981 -0.001286865 -0.1152396
9.52915 0.46868148 -0.35593662
9.7388973 0.96071148 -0.60518414
10.163323 1.5079573 -0.89752281
9.6697969 -0.0056963935 -1.0877059
9.9253855 0.48256338 -1.3691013
10.458055 1.0300735 -1.7167009
12.007597 1.7812632 -2.2916772
10.716994 -0.0056968005 -2.3016043
15.423017 1.5174669 -4.1374941
15.578733 2.3096318 -4.6406946
26.243687 -0.0070869648 -8.4339762
26.490784 1.2916213 -9.2625856
16.797819 1.6428331 -6.3664126
15.939119 2.3661497 -6.5467105
15.814894 2.2486973 5.1377721
15.437453 1.4256506 3.7298298
15.283304 2.1727211 3.3090179
10.422843 -0.066030927 1.9678512
10.257976 0.43814573 1.677703
10.268276 0.94921976 1.4191618
10.440838 1.4817539 1.1848415
9.5848665 -0.059144598 0.83201826
9.5833902 0.41040114 0.59645349
9.6513004 0.89076477 0.36077574
9.9159069 1.4056993 0.12391416
9.4932499 -0.059540018 -0.11784773
9.5264683 0.40997148 -0.35702041
9.7162104 0.8983109 -0.6063444
10.10234 1.4356141 -0.88921559
9.6701317 -0.065032758 -1.0891154
9.8855991 0.4198457 -1.3613827
10.415232 0.96136677 -1.7086709
11.778879 1.6735358 -2.2460239
10.701822 -0.07135535 -2.2983966
11.894473 0.50701046 -2.867574
15.406251 1.4204271 -4.1305809
15.611547 2.2166877 -4.6436787
26.281477 -0.16836061 -8.4471445
26.459087 1.1273857 -9.2440948
27.200279 2.4918015 -10.302981
15.985079 2.2728179 -6.5597367
15.859564 2.155854 5.1478901
15.437551 1.3301809 3.7278111
15.283407 2.0771449 3.3062184
10.422523 -0.12998657 1.9679044
10.223462 0.37384248 1.6716517
10.213866 0.88101798 1.4108682
10.368321 1.4066178 1.1756107
9.577054 -0.11786564 0.83138716
9.5700483 0.35101575 0.59547788
9.6353016 0.82969606 0.35998061
9.8585815 1.3359184 0.12309304
9.4927568 -0.11778902 -0.11784836
9.5050135 0.35063282 -0.35612902
9.6893368 0.83589846 -0.60433584
10.067698 1.3677232 -0.88541102
9.6654663 -0.1243138 -1.0886554
9.8824844 0.35898101 -1.3606249
10.352193 0.89152199 -1.6973996
11.592996 1.5746182 -2.2086952
10.691523 -0.13689546 -2.2963219
11.816757 0.43107733 -2.8481467
15.39303 1.3240075 -4.1247802
15.564239 2.1126273 -4.6256633
26.291807 -0.3297663 -8.4509573
26.387814 0.96218163 -9.216958
27.054823 2.3111687 -10.24232
16.076494 2.1852634 -6.5916233
15.943 2.0676446 5.1707568
15.459289 1.2365422 3.7311578
15.226661 1.9743553 3.2912602
10.433034 -0.1941496 1.9700768
10.191532 0.31007004 1.6660885
10.172688 0.81461525 1.4044632
10.314886 1.3349649 1.1686012
9.5939283 -0.17695504 0.83293062
9.5503693 0.29162726 0.59413093
9.6302214 0.76976085 0.35960758
9.810111 1.2681011 0.1223884
9.4918346 -0.17603287 -0.1178481
9.506917 0.29230246 -0.35612646
9.6659536 0.77416098 -0.60256982
10.005664 1.2968199 -0.87923902
9.6644287 -0.18361591 -1.0886449
9.846633 0.29719347 -1.3554122
10.323348 0.82525772 -1.6918079
11.42686 1.4807035 -2.175271
10.71704 -0.20299791 -2.3020267
15.461075 1.2343396 -4.1409063
15.641719 2.0254798 -4.6449094
26.301954 -0.49132013 -8.4550266
26.343018 0.79872876 -9.1994257
26.902927 2.131999 -10.179671
16.244215 2.1066301 -6.6549668
15.963156 1.9707407 5.173275
15.477793 1.1424897 3.7338614
15.226374 1.8793938 3.2886434
10.418978 -0.25784835 1.9676841
10.196223 0.24760251 1.6665756
10.148708 0.750054 1.4004909
10.259875 1.263887 1.1614684
9.5882616 -0.23571075 0.83254856
9.5485764 0.2329388 0.59391928
9.5992422 0.70803642 0.35828182
9.7855692 1.2039295 0.12198775
9.4763336 -0.2339188 -0.11767126
9.4879036 0.23345603 -0.3553538
9.6231918 0.71133864 -0.5996207
9.973588 1.230486 -0.87574041
9.6689129 -0.24305789 -1.0892974
9.8393764 0.23655623 -1.3541881
10.275226 0.75799018 -1.6831274
11.298646 1.3936528 -2.1491954
10.699543 -0.26835003 -2.2985787
11.632843 0.28147846 -2.8027747
15.470028 1.139572 -4.1413531
15.632413 1.9268233 -4.6385479
26.339827 -0.65372378 -8.4683323
26.289291 0.63567036 -9.1791286
26.809458 1.9591361 -10.139565
16.378386 2.0219233 -6.7047253
16.088451 1.8860614 5.210031
15.521186 1.0499792 3.7427051
12.890984 1.5108927 2.7821832
10.417909 -0.32179502 1.9678181
10.159573 0.18434589 1.6603687
10.099538 0.68413895 1.3930998
10.187305 1.1915375 1.1524038
9.590456 -0.29465622 0.83288044
9.5383968 0.17413679 0.59320849
9.5717144 0.64698112 0.35709947
9.7529659 1.1392142 0.12149189
9.4811535 -0.29225841 -0.11775116
9.4971113 0.17538184 -0.35565171
9.6050701 0.65076721 -0.59823149
9.9201679 1.1621455 -0.87040728
9.6725626 -0.30254713 -1.0898973
9.8310242 0.17600629 -1.3528644
10.241736 0.69236302 -1.6769143
11.177771 1.3091656 -2.1246347
10.707903 -0.33431488 -2.300772
11.600017 0.20947535 -2.7945035
15.489006 1.045457 -4.144639
15.657771 1.8324869 -4.6426482
26.362932 -0.81618452 -8.477211
26.259264 0.47374719 -9.1674566
26.737001 1.7889808 -10.107819
16.513006 1.9357523 -6.7548442
16.16622 1.7946917 5.2315512
15.548985 0.95605433 3.7479234
10.448889 -0.38693967 1.9740813
10.144424 0.12181126 1.6577398
10.073883 0.62032992 1.3890101
10.155783 1.1247272 1.1480355
9.5960836 -0.35377738 0.83354199
9.5320816 0.1155197 0.59276044
9.5471592 0.58649671 0.35604239
9.722127 1.0751863 0.12102327
9.4825659 -0.35055327 -0.11779319
9.5047798 0.11718883 -0.35590521
9.6058493 0.59163254 -0.59804255
9.9063435 1.0989506 -0.8685863
9.6654158 -0.3617 -1.0893215
9.8176022 0.11551249 -1.3508943
10.177738 0.62532657 -1.6657761
11.082569 1.2291294 -2.1050661
10.721535 -0.40060458 -2.3041859
15.50678 0.95111305 -4.1477547
15.68799 1.7385134 -4.6483579
26.392084 -0.97921485 -8.4883575
26.281311 0.31284821 -9.1743107
26.635443 1.6180862 -10.065482
27.806051 3.0867517 -11.366439
16.292219 1.7075471 5.2688355
12.79455 0.70791906 3.08289
12.28453 1.2872003 2.6476872
10.449277 -0.45117337 1.9746404
10.120977 0.059423018 1.6538177
10.046776 0.55680335 1.3847753
10.106124 1.0564986 1.1416677
9.5972986 -0.4128046 0.83385187
9.5213423 0.056962349 0.59205973
9.5519791 0.52798283 0.3560946
9.6766386 1.0100944 0.12037762
9.4970369 -0.40945497 -0.11800194
9.4972458 0.058816388 -0.35560292
9.5747004 0.53076309 -0.59588933
9.8642883 1.0330548 -0.86432689
9.6900463 -0.42217678 -1.0923688
9.8089905 0.055219214 -1.3496375
10.175664 0.56254929 -1.6648405
10.976717 1.1492544 -2.0835812
10.753676 -0.46789733 -2.3116667
11.535587 0.066727035 -2.7785757
15.556397 0.8583793 -4.1595392
15.736972 1.64626 -4.6597905
26.479864 -1.1452129 -8.5186892
26.222076 0.15123335 -9.1531372
26.483276 1.4458019 -10.004438
27.558784 2.8882344 -11.257906
16.477621 1.6248269 5.3254695
12.549947 0.61716926 3.0229826
12.068262 1.1897235 2.5994525
10.464061 -0.51615584 1.9779954
10.118682 -0.0026785994 1.653414
10.025051 0.49391758 1.3813372
10.092902 0.99254978 1.1394646
9.5993366 -0.47191831 0.83426481
9.5304527 -0.0014619532 0.5926156
9.5493393 0.46908313 0.3558822
9.6583147 0.94831073 0.12007501
9.5110216 -0.4685415 -0.11820921
9.4858437 0.00054061384 -0.35516921
9.579071 0.47206768 -0.59596992
9.827219 0.96825069 -0.860542
9.692915 -0.48190638 -1.0930051
9.8062458 -0.0049671899 -1.3492385
10.136523 0.49801877 -1.6579052
10.894382 1.0730968 -2.066664
10.75499 -0.53408968 -2.3126101
15.585077 0.76407313 -4.1658759
15.782135 1.5531485 -4.6702538
26.515852 -1.3098181 -8.532692
26.276501 -0.009685033 -9.1719828
26.460962 1.2817899 -9.9928493
27.369551 2.6987271 -11.173629
16.742365 1.5472656 5.4078631
11.924532 1.1017188 2.5669892
10.471334 -0.58094257 1.9800069
10.108524 -0.064701915 1.651788
9.9901876 0.43076995 1.3761433
10.02397 0.92370641 1.1310211
9.6258812 -0.53244829 0.83683997
9.5341616 -0.059964199 0.59285802
9.5420303 0.41005054 0.35550934
9.6321545 0.88610536 0.11967992
9.5057459 -0.52676809 -0.11818158
9.4811516 -0.057635985 -0.35500011
9.5589809 0.41229901 -0.59455138
9.7982416 0.90472662 -0.85750228
9.7101336 -0.54250932 -1.0953014
9.7906609 -0.065034993 -1.3471237
10.120428 0.43499789 -1.6548052
10.796497 0.99660546 -2.0468965
10.775408 -0.60140485 -2.3177505
11.475713 -0.074449271 -2.7641654
15.665311 0.67168224 -4.186142
15.853649 1.4620255 -4.6886735
26.581913 -1.4766355 -8.5567036
26.266195 -0.17085101 -9.1685781
26.39196 1.1161746 -9.964016
27.181028 2.5118356 -11.090163
10.492212 -0.64670128 1.9846675
10.098575 -0.12660806 1.6502581
9.9569197 0.3681424 1.3712236
9.9882212 0.85863888 1.1263719
9.6339741 -0.59221101 0.83784372
9.5191889 -0.11828436 0.59196097
9.5198441 0.35059097 0.35459593
9.5977516 0.82358378 0.11918743
9.5072756 -0.5853886 -0.11824304
9.4915562 -0.11594376 -0.35540962
9.5708103 0.35398909 -0.59514081
9.7692022 0.84162456 -0.85449278
9.7160292 -0.60266286 -1.0963628
9.805109 -0.12530024 -1.3491923
10.095516 0.37188298 -1.6503278
10.745879 0.92547202 -2.036185
10.81273 -0.67006433 -2.3266191
11.48485 -0.14498538 -2.7665286
15.684064 0.57609731 -4.1901298
15.918129 1.3695233 -4.7051692
26.677713 -1.6462129 -8.5906324
26.290554 -0.33234158 -9.1776209
26.33787 0.95203066 -9.9412031
27.020826 2.3299103 -11.018758
12.19441 0.3748484 2.9351828
11.65653 0.93284577 2.5066435
10.536922 -0.71438169 1.9939163
10.103573 -0.18868077 1.651233
9.9394588 0.30643874 1.3685342
9.937191 0.79285932 1.1200475
9.6562681 -0.65307868 0.84011525
9.5272322 -0.17685688 0.59251744
9.5207691 0.29213956 0.35455695
9.5848026 0.76325846 0.11896624
9.5281219 -0.64538044 -0.11854931
9.4886036 -0.17414282 -0.35533237
9.5417013 0.29429778 -0.5932073
9.7382975 0.77879626 -0.85135567
9.7322388 -0.66363788 -1.0986308
9.7999315 -0.185381 -1.3486108
10.073588 0.30919376 -1.6464019
10.704304 0.85575753 -2.0272739
10.851465 -0.73933047 -2.335886
11.468279 -0.2151622 -2.7628028
15.715825 0.48072326 -4.1977477
15.960405 1.2745546 -4.7152648
26.736805 -1.8146033 -8.6130848
26.265676 -0.49323156 -9.1698198
26.358393 0.79086202 -9.9469299
26.878654 2.1515856 -10.955193
