# .PCD v0.7 - Point Cloud Data file format
VERSION 0.7
FIELDS x y z
SIZE 4 4 4
TYPE F F F
COUNT 1 1 1
WIDTH 1586
HEIGHT 1
VIEWPOINT 0 0 0 1 0 0 0
POINTS 1586
DATA ascii
-7.1733737 24.745029 10.470773
-6.9418678 24.507765 10.352157
-6.7454491 24.383938 10.282175
-6.5676217 24.320871 10.238396
-6.3770103 24.204121 10.172583
-6.2064157 24.157316 10.136714
-6.0404129 24.124414 10.107166
-5.870893 24.073362 10.070496
-5.7108555 24.057476 10.049001
-5.5517778 24.042887 10.028488
-5.401175 24.06325 10.02297
-5.2419348 24.043243 10.001051
-5.085494 24.033283 9.9837399
-4.9519763 24.132473 10.012135
-6.3445306 24.687172 9.6149845
-4.8098183 24.192631 10.02466
-6.1352997 24.495531 9.5255051
-4.665277 24.242435 10.033247
-5.9341822 24.32489 9.4448109
-4.5348372 24.369473 10.074117
-5.7617402 24.263659 9.4071312
-4.4121337 24.546551 10.135938
-5.5846071 24.17671 9.3599586
-5.4233437 24.15346 9.3378992
-4.3010225 24.761545 7.3933153
-5.2554221 24.09634 9.3064108
-4.1044602 24.521334 7.322329
-5.088841 24.040129 9.2724657
-3.9287956 24.39007 7.2757964
-4.9362803 24.046751 9.2599421
-3.7551398 24.259144 7.2214432
-4.7793899 24.030087 9.2420568
-3.5878346 24.157932 7.1846256
-4.6261044 24.029079 9.2305794
-3.4258456 24.083248 7.1560283
-4.4684296 24.002504 9.2096653
-3.271455 24.055624 7.1417212
-4.3258648 24.056143 9.2198877
-3.1147785 24.005787 7.1211176
-4.1786156 24.084759 9.2208557
-5.5114393 24.553568 8.7883139
-2.9609652 23.972168 7.1056213
-4.0342512 24.130857 9.2288523
-5.3188486 24.395075 8.719739
-2.8088796 23.947777 7.0931492
-3.893923 24.203716 9.247406
-5.1434698 24.306307 8.6765661
-2.6552422 23.904753 7.0754466
-3.7588961 24.314856 9.2808819
-4.9665313 24.202421 8.6284418
-2.5094554 23.929537 7.0780916
-3.6248186 24.439835 9.3199205
-4.8026052 24.155342 8.6009893
-2.3601172 23.919535 7.0707159
-3.6896222 24.853615 6.7208753
-4.636508 24.09189 8.5681057
-2.2146523 23.948135 7.0750208
-3.4894342 24.540884 6.6303926
-4.4753475 24.048698 8.5428171
-2.0679197 23.964199 7.0758848
-3.3155293 24.390728 6.5842032
-4.3151746 24.006008 8.5180864
-1.9229482 24.002768 7.0836554
-3.1474111 24.268764 6.5459428
-4.1571712 23.970779 8.4963751
-1.782383 24.105396 7.1105809
-2.9846849 24.176191 6.5159111
-4.0077786 23.982479 8.4916449
-1.6392137 24.1863 7.1313448
-2.8257759 24.104399 6.491766
-1.6620979 24.643219 4.6686449
-3.8561475 23.97925 8.4819641
-1.49589 24.278824 7.1557851
-2.6705186 24.055483 6.4740572
-1.4938909 24.376093 4.6162148
-3.7088597 24.001934 8.4817791
-1.3551393 24.436312 7.1996155
-2.5142684 23.989382 6.4519939
-1.338351 24.277008 4.5958085
-3.5585666 24.00432 8.4747467
-4.9052982 24.654009 8.0874109
-2.3599193 23.932302 6.4326262
-1.1835488 24.166018 4.5733366
-3.415746 24.05764 8.4860115
-4.7164874 24.489225 8.0237112
-2.2108378 23.922625 6.4262576
-1.0303061 24.057474 4.5515132
-3.2691584 24.086193 8.4888477
-4.5302114 24.324814 7.9605856
-2.0631444 23.925711 6.4235654
-0.88142091 24.029144 4.5450449
-3.1284995 24.161354 8.5084114
-4.3624983 24.250002 7.9271936
-1.9148173 23.919399 6.4185958
-0.73125422 23.945374 4.528266
-2.988585 24.248219 8.532382
-4.1955323 24.172102 7.8931642
-1.7659543 23.902817 6.4111176
-0.5825544 23.877291 4.5146294
-2.8578608 24.42091 8.5868158
-4.0289803 24.08884 7.8577552
-1.6185018 23.902027 6.4081216
-2.8788693 24.579695 5.9644847
-0.43555024 23.853882 4.5096135
-3.8711913 24.051561 7.8376989
-1.4714056 23.904924 6.4063573
-2.7073722 24.410936 5.9193912
-0.28874904 23.820803 4.5029397
-3.7095172 23.984196 7.8081818
-1.3299521 24.008322 6.4317584
-2.5420189 24.278864 5.8834724
-0.14236972 23.786739 4.4962506
-3.5571797 23.972113 7.7969961
-1.1805848 23.974817 6.4207215
-2.3810494 24.172668 5.8540874
0.0035897731 23.830647 4.5044699
-3.4053216 23.960396 7.7862415
-1.0372379 24.06938 6.4442205
-2.22773 24.13316 5.8410993
0.14973395 23.817726 4.5021167
-1.055181 24.602348 4.0205927
-3.2546899 23.954718 7.777761
-0.89272785 24.161812 6.4673796
-2.0696077 24.030247 5.8130074
0.29591715 23.819801 4.5027671
-0.8964144 24.396374 3.9859576
-3.1030042 23.938437 7.7661467
-0.74759036 24.26857 6.4946055
-1.9191703 24.005579 5.8040819
0.44285724 23.860085 4.5108109
-0.74355626 24.298555 3.9691558
-2.9589157 23.980152 7.7736435
-0.60542399 24.546553 6.5678797
-1.7659601 23.937227 5.7848268
0.58994126 23.884821 4.5160871
-0.5907613 24.151913 3.9445357
-2.8084967 23.970348 7.7647324
-1.6174004 23.923206 5.7789316
0.73842633 23.943697 4.5279903
-0.44114766 24.078194 3.9319792
-2.668334 24.049948 7.7850676
-1.4670128 23.874634 5.764915
0.88688946 23.980921 4.5359735
-0.29236472 23.995644 3.9181323
0.89744914 24.336279 2.1243775
-2.5216224 24.074522 7.7878666
-1.3205404 23.883997 5.765111
1.038853 24.087215 4.557199
-0.14476378 23.937374 3.9083991
1.0424261 24.229712 2.1155937
-2.3840036 24.19249 7.8211489
-1.1744257 23.901012 5.7673697
1.1921904 24.193222 4.5785527
0.0021097208 23.895254 3.9014506
1.1840564 24.080069 2.1031225
-2.2415743 24.272263 7.8423438
-1.0258622 23.863869 5.7567797
-2.2764394 24.657431 5.3063722
1.3512808 24.377865 4.6149788
0.14838631 23.839796 3.8924711
1.3292611 24.026691 2.0991335
-2.1043088 24.421448 7.8862252
-0.88135105 23.922222 5.7694435
-2.1037092 24.422556 5.2529497
0.29418343 23.799706 3.886147
1.4733269 23.963848 2.0943933
-0.73512238 23.945826 5.7739391
-1.9412916 24.278383 5.2192793
0.4408924 23.834311 3.8921659
1.6147647 23.871948 2.087188
-0.5885886 23.966549 5.777957
-1.7847743 24.188044 5.1974072
0.58662885 23.810854 3.88885
1.7581499 23.820127 2.0835614
-0.4425872 24.027586 5.7919083
-1.6284869 24.082624 5.1725106
0.73217767 23.789221 3.8859775
-0.45526215 24.584074 3.3869448
1.9033417 23.797226 2.0825403
-0.29614305 24.110634 5.8113794
-1.4760284 24.016354 5.1562343
0.87875676 23.801197 3.888741
-0.30201074 24.392773 3.3602705
2.0481935 23.772018 2.0813949
2.1724982 25.148489 -8.1141462
-0.14874379 24.200956 5.8328204
-1.3261342 23.979671 5.1465154
1.0256253 23.815004 3.8919523
-0.15139674 24.244171 3.3396089
2.1917329 23.734261 2.0792277
-1.1772754 23.952831 5.1391072
1.1754136 23.883057 3.9041789
-0.0026253781 24.1651 3.3286519
2.3369727 23.716814 2.0789163
1.2257913 24.74505 1.5472664
2.4136229 24.426043 -2.7566428
2.3928576 24.200891 -5.2272038
-1.0269705 23.882551 5.1225801
1.3239242 23.911314 3.9100521
0.14510773 24.075277 3.3163393
2.4881053 23.756001 2.0836501
1.3634676 24.483267 1.5313919
2.5564795 24.290918 -0.30997542
2.5103738 23.891359 -5.1635776
2.493696 23.757708 -7.6789236
2.7420211 24.765375 7.3298917
-0.87957245 23.865671 5.1177058
1.4744446 23.964954 3.9202292
0.29159954 23.972895 3.3024206
2.6315441 23.719742 2.0818472
1.5019231 24.284523 1.5195084
2.6712661 23.967836 -0.30605596
2.6451907 23.783218 -2.687557
2.6316812 23.648693 -5.1145244
2.6096618 23.47427 -7.5923438
2.8762276 24.539053 10.041288
2.8339503 24.235174 7.1779785
-0.73242861 23.848158 5.1128902
2.8212404 24.058386 4.5786781
1.6253486 24.012856 3.9296229
0.43805155 23.935801 3.2976186
2.7812583 23.739185 2.0850122
1.6427758 24.155357 1.5120287
2.7884679 23.697638 -0.2996681
2.7703745 23.590296 -2.6695614
2.7556839 23.452917 -5.0757451
2.73809 23.325277 -7.5494461
2.9831207 24.167543 9.8965712
2.9512072 23.962421 7.1024237
-0.58612728 23.853931 5.1132607
2.940033 23.807617 4.5343003
1.7825737 24.136686 3.9516025
0.58405775 23.897749 3.2928083
2.9153833 23.628597 2.0768313
1.7842035 24.05374 1.5063249
2.9129517 23.511631 -0.2975364
2.8950601 23.411039 -2.6512365
2.8830116 23.302 -5.0468168
2.8592465 23.13076 -7.4920259
3.1001236 23.907936 9.7978678
3.0775805 23.784643 7.0551958
-0.43989468 23.864882 5.1149325
3.0634351 23.614754 4.5010638
1.9426197 24.274986 3.9761217
0.72902429 23.839632 3.2853551
3.0424941 23.472826 2.0647418
1.9256396 23.96615 1.5015513
3.0421002 23.377569 -0.29918304
3.0206754 23.254433 -2.633641
3.0075057 23.142054 -5.0160775
2.9896157 23.024176 -7.463305
3.2217267 23.704285 9.7223263
3.1996047 23.589417 7.0029769
-0.29332256 23.856455 5.1126447
3.1894901 23.457354 4.474709
2.1182084 24.5721 4.0268402
0.87437075 23.809731 3.2819118
3.1714892 23.343496 2.0550387
2.0684404 23.90518 1.4984983
3.1636837 23.198595 -0.29713541
3.1457005 23.106165 -2.6189859
3.138025 23.03933 -4.9978914
3.1156542 22.89386 -7.4271202
2.1518884 24.902609 -8.7231321
3.3510242 23.570902 9.6758699
3.3281121 23.455362 6.9691124
-0.14707726 23.880713 5.1175537
3.3147008 23.306133 4.4496584
1.0184158 23.7565 3.2753744
3.2982361 23.20801 2.0448542
2.211704 23.855612 1.4962136
3.2993708 23.13249 -0.29654244
3.273958 22.991903 -2.6082625
3.2642863 22.914019 -4.9749589
2.2760065 24.625378 -5.9611135
3.2426751 22.78021 -7.3965659
2.2444036 24.238361 -8.4951172
3.4726233 23.39517 9.612299
3.4507678 23.291401 6.9265556
-0.00054823852 23.907248 5.1231432
3.4460888 23.207548 4.4347897
1.1661701 23.790726 3.281018
9.0980982e-05 24.914171 2.8043554
3.4234469 23.071896 2.0346739
2.3555095 23.816025 1.4946091
3.4222684 22.984346 -0.29490697
2.4438047 24.716158 -0.92955595
3.4056921 22.908957 -2.6011744
2.4155204 24.375462 -3.3786712
3.3940911 22.8214 -4.9592786
3.3754611 22.713253 -7.3814111
2.3619645 23.909109 -8.3846426
3.6042023 23.296463 9.5806494
3.5835149 23.204376 6.9070854
0.14655383 23.97426 5.137599
3.573771 23.091293 4.4166813
2.6123819 24.93207 4.0930195
1.3116713 23.774885 3.2798817
0.15094973 24.58597 2.7674651
3.5537896 22.9783 2.0283046
2.4998267 23.784273 1.493551
3.5522137 22.891914 -0.29399511
2.5462048 24.232365 -0.91193128
3.5350187 22.815493 -2.5929761
2.5320971 24.047321 -3.3352787
3.5194652 22.706001 -4.9388018
2.502845 23.878321 -5.7872715
3.5066311 22.639624 -7.3643374
2.486304 23.681574 -8.3100414
3.7403893 23.232357 9.5635443
3.7127957 23.100868 6.8829269
0.29433894 24.028763 5.149569
3.7062883 23.012421 4.4058623
2.7030342 24.354431 4.0008383
1.4559937 23.741388 3.2764311
0.29942149 24.390507 2.7456181
3.6895094 22.923714 2.0254464
2.6402879 23.719706 1.4904857
3.6821606 22.804976 -0.29316321
2.6630414 23.9305 -0.90116918
3.6588867 22.693769 -2.5816455
2.6493304 23.759853 -3.2976005
3.6529899 22.648449 -4.9310656
2.6199849 23.598352 -5.723206
3.6354015 22.555155 -7.3439789
2.60866 23.459887 -8.237711
3.8690097 23.12612 9.5294056
2.8634415 24.445971 9.2883511
3.8426235 23.006723 6.8617716
2.8349645 24.231205 6.5257406
0.44382045 24.137936 5.1734519
3.8392477 22.940413 4.3965034
2.8133783 24.00428 3.9460783
1.6081892 23.829031 3.2898264
0.44587836 24.21468 2.7260821
3.8208678 22.845457 2.0205657
2.7877185 23.719553 1.4915229
3.8114195 22.718763 -0.28715971
2.7847424 23.698154 -0.88907719
3.7942402 22.648064 -2.579046
2.7723165 23.549877 -3.2707577
3.7804685 22.557459 -4.916213
2.7466772 23.427828 -5.6858301
3.7665186 22.48937 -7.329946
2.7345045 23.289673 -8.1836805
4.0025768 23.054386 9.5097876
2.9786618 24.146452 9.1813192
3.9774606 22.946613 6.8509936
2.9508917 23.947979 6.4542193
0.5948813 24.255497 5.1993332
3.9735644 22.879753 4.3894682
2.9369295 23.794682 3.914511
1.7548995 23.825924 3.2908218
0.59273505 24.141685 2.7182229
3.9487145 22.750969 2.0143135
2.9229901 23.619444 1.4863276
1.8221935 24.716875 0.92315114
3.9476476 22.677139 -0.28693438
2.9065347 23.490175 -0.88192689
3.9280934 22.595356 -2.5757401
2.8980145 23.381151 -3.2497325
3.9108248 22.487934 -4.906198
2.8747697 23.284153 -5.6551347
3.8967574 22.421629 -7.3155227
2.8609617 23.139853 -8.1370516
4.1387172 23.00025 9.4977531
3.0938878 23.874016 9.0847778
4.1124525 22.889874 6.8414588
3.0712764 23.724699 6.3990016
0.74968565 24.446596 5.2411838
4.1026683 22.792667 4.3775082
3.0580952 23.585115 3.8830488
1.9061481 23.878445 3.2996294
0.73846763 24.059816 2.7094638
4.0811329 22.686815 2.0108128
3.0486574 23.453348 1.4770249
1.9518235 24.429953 0.91286492
4.0803118 22.616982 -0.2864846
3.0270967 23.290979 -0.87512916
4.0609441 22.539104 -2.5721197
3.0245459 23.233276 -3.231698
4.0497398 22.469107 -4.9074197
2.9982984 23.117374 -5.6189909
4.0337529 22.394476 -7.3146014
2.9870639 22.999992 -8.0941629
4.2722569 22.934111 9.4810886
3.2143829 23.663652 9.012063
4.245985 22.827452 6.8304601
3.2039263 23.610603 6.3734107
4.2354922 22.729755 4.3703346
3.1859574 23.442322 3.862685
2.0568862 23.91581 3.3064747
0.88283855 23.96677 2.6995449
4.217195 22.64489 2.0093524
3.1746829 23.30336 1.4687783
2.0877178 24.255228 0.90679765
4.2173457 22.582603 -0.28637156
3.1536667 23.152418 -0.87063354
4.1903386 22.46644 -2.5667133
3.1497765 23.087717 -3.2140787
4.1787095 22.396549 -4.8970809
3.1272373 23.004011 -5.5959949
4.1612391 22.31649 -7.2973313
3.113991 22.877352 -8.0575752
2.1391232 24.673063 -9.3494806
4.4129181 22.90757 9.4811316
3.3409288 23.512644 8.9621916
4.388968 22.816542 6.8351254
3.3228977 23.408484 6.3242354
4.3743711 22.700697 4.3698258
3.307807 23.268066 3.8372445
2.2126148 24.000607 3.3200126
1.0263532 23.878925 2.690309
4.3536382 22.605999 2.008234
3.3014059 23.169718 1.4616044
2.2269897 24.138811 0.9029392
4.3465886 22.50844 -0.28576392
3.289362 23.088364 -0.86896753
4.3306451 22.453438 -2.5682156
3.2788913 22.980419 -3.2018821
2.3166361 25.07851 -4.1088204
4.3150001 22.365025 -4.8958845
3.2530067 22.876638 -5.5697613
2.2603261 24.535706 -6.583169
4.2976379 22.288177 -7.2965593
3.23915 22.751364 -8.020051
4.5464821 22.845333 9.4667406
3.4666092 23.366831 8.9145527
4.5146093 22.717346 6.8135796
3.4502592 23.278301 6.2946658
4.5152369 22.681763 4.3714323
3.4343114 23.138163 3.8192248
2.3676801 24.066284 3.3310449
1.1713454 23.841496 2.686851
4.499125 22.61334 2.011301
3.4302216 23.059687 1.4559636
2.366092 24.033588 0.89952934
4.4859114 22.487854 -0.28584662
3.4195979 22.991301 -0.86608779
4.4744043 22.456902 -2.5717034
3.409344 22.889431 -3.1920598
2.4003987 24.352909 -3.9922767
4.4561067 22.357988 -4.9002376
3.3803401 22.768856 -5.5484653
2.3718023 24.124386 -6.4765906
4.4279094 22.229242 -7.2860227
3.369437 22.668814 -7.9980888
2.3638666 23.858995 -9.0513124
4.6880407 22.82415 9.4697046
3.60074 23.285749 8.8918819
4.6647944 22.742252 6.8295064
3.5793211 23.167973 6.2706528
4.6498928 22.632059 4.3672695
3.5712407 23.084465 3.8139067
2.5326741 24.217396 3.354048
1.3158472 23.801929 2.6832516
4.629735 22.546064 2.0078063
3.5626502 22.980162 1.4522953
2.5067105 23.953592 0.89709413
4.6233997 22.457911 -0.28796011
3.5461271 22.876482 -0.86755103
2.5380664 24.182289 -1.5137501
4.610456 22.420965 -2.5726435
3.5364645 22.78264 -3.176125
2.5119264 23.976429 -3.9330115
4.5844998 22.287882 -4.8909459
3.5138006 22.707727 -5.5387187
2.4904089 23.828331 -6.4010911
4.5682898 22.221439 -7.2925158
3.5013564 22.60181 -7.9818778
2.4880936 23.633883 -8.9715357
4.8295031 22.802055 9.4726543
3.7275267 23.163639 8.8538198
4.811275 22.74641 6.8394918
3.7103157 23.076572 6.2519588
2.7220438 24.547754 5.9525552
4.7933912 22.62537 4.371572
3.6979635 22.969852 3.7986481
1.4602813 23.767569 2.6803379
4.7703223 22.528254 2.0087891
3.6928699 22.891436 1.4480928
2.6462843 23.871405 0.89460737
4.770885 22.475157 -0.28855118
3.6783061 22.80394 -0.86563957
2.6526446 23.862617 -1.4947302
4.7509084 22.406244 -2.5742512
3.6677859 22.708481 -3.1688643
2.6345477 23.740255 -3.8968492
4.732738 22.313877 -4.9029303
3.6418736 22.616228 -5.5217476
2.6108608 23.580404 -6.3386745
4.7061801 22.200668 -7.2950387
3.6320622 22.530828 -7.9645314
2.6135116 23.442806 -8.9049215
4.9753904 22.799809 9.4842243
3.8593893 23.079351 8.8304873
2.8574946 24.380913 8.5729275
4.9487596 22.707308 6.8367352
3.8359272 22.958124 6.2261281
2.8273683 24.144232 5.8588018
4.9380612 22.622725 4.376833
3.8352792 22.925478 3.7951303
2.8061743 23.983715 3.3262031
1.6066231 23.76606 2.6812289
4.9179306 22.541967 2.0126648
3.8224351 22.803766 1.4440035
2.7876101 23.811178 0.8929745
4.9108176 22.455141 -0.28653145
3.8063111 22.710262 -0.85799533
2.7757444 23.647654 -1.4787939
4.8874078 22.37258 -2.5719151
3.8010795 22.649948 -3.1678841
2.761225 23.562019 -3.8703005
4.8721676 22.296328 -4.905551
3.7740064 22.554213 -5.512156
2.7355652 23.393499 -6.2928257
4.8483648 22.199085 -7.3041563
3.7595863 22.444511 -7.9420242
2.7356393 23.242254 -8.8349504
5.1200223 22.790342 9.4931774
3.9921107 23.004421 8.8110247
2.9693699 24.057722 8.4655333
5.090723 22.688667 6.8403997
3.970077 22.895823 6.2157216
2.9455919 23.88423 5.7999873
5.084981 22.628498 4.383904
3.9584484 22.801147 3.7784979
2.9246807 23.733934 3.2939889
1.7512729 23.740217 2.6794751
5.0576072 22.517839 2.0132434
3.9525359 22.723848 1.4404515
2.9097617 23.599815 0.88570082
5.0498605 22.430595 -0.28660819
3.9345574 22.62306 -0.85559672
2.9048002 23.500822 -1.4706987
5.0362697 22.39411 -2.5778942
3.9277985 22.55621 -3.1580851
2.8830318 23.360573 -3.8400445
5.0179763 22.306444 -4.9144588
3.9041708 22.483667 -5.5006661
2.8623052 23.240282 -6.2562175
4.989532 22.191366 -7.3115525
3.8972952 22.421381 -7.9421511
2.8630116 23.102472 -8.7883282
5.2748361 22.823708 9.5203781
4.1302557 22.963186 8.8047733
3.0871158 23.809111 8.3845587
5.243268 22.715181 6.857964
4.1080613 22.857527 6.2120514
3.0711207 23.703878 5.7606583
5.228622 22.618027 4.3880086
4.1001058 22.786579 3.7801814
3.0528708 23.581263 3.2753384
1.896472 23.723574 2.6788597
5.2052546 22.527822 2.0169535
4.0902629 22.690128 1.4398779
3.0365202 23.442612 0.88048357
5.2058587 22.478903 -0.2876282
4.0692267 22.575914 -0.85474193
3.0261016 23.306622 -1.4596801
5.1802745 22.39171 -2.5812285
4.059866 22.497004 -3.153224
3.0090213 23.209049 -3.8180997
5.151648 22.261822 -4.9114995
4.0353932 22.422274 -5.4916015
2.9913473 23.117918 -6.2281013
5.1378341 22.213219 -7.3290014
4.0244155 22.339432 -7.9217215
2.9904363 22.974792 -8.7465734
5.4281106 22.847017 9.5438147
4.2648883 22.904169 8.7920132
3.2154794 23.659714 8.3387384
5.4032698 22.769905 6.8843651
4.2456131 22.81781 6.2082205
3.1920464 23.504469 5.7168493
5.3821096 22.647814 4.4001112
4.2361035 22.740908 3.7768462
3.1759808 23.403475 3.2532895
2.0449808 23.746117 2.6827714
5.3635221 22.580236 2.0245547
4.22823 22.658279 1.439476
3.1605792 23.278255 0.87502241
5.3588862 22.510374 -0.28844619
4.2124667 22.57621 -0.85571563
3.1524842 23.165871 -1.4520489
5.328763 22.406567 -2.5866616
4.205965 22.515224 -3.1593359
3.1357937 23.075504 -3.7992244
5.2996988 22.278351 -4.9222279
4.171134 22.387623 -5.4892793
3.1157377 22.970831 -6.1935091
5.2791672 22.202854 -7.336132
4.158452 22.298443 -7.9160857
3.118542 22.862125 -8.7108021
2.1167624 24.654449 -10.051327
5.5894275 22.90027 9.5802059
4.3982024 22.84049 8.7777624
3.3389494 23.487314 8.2850418
5.5648346 22.826374 6.9116316
4.3793087 22.758942 6.199398
3.3180077 23.356327 5.6856627
5.5441728 22.709393 4.4186015
4.3701062 22.686178 3.7721384
3.3007746 23.25148 3.2349157
2.1938288 23.767603 2.6866693
5.51297 22.591976 2.0286019
4.3580742 22.584724 1.4364749
3.2921641 23.179647 0.87205875
5.5085945 22.524872 -0.28905964
4.3449841 22.519209 -0.85454959
3.2828152 23.063522 -1.446869
5.4788074 22.425266 -2.5926523
4.3275094 22.403429 -3.1473153
3.2628419 22.953951 -3.7824368
2.2945139 24.846567 -4.7062278
5.4599648 22.342262 -4.9436574
4.3091989 22.365629 -5.4902668
3.2449055 22.868679 -6.1712189
2.2546754 24.434635 -7.2165694
5.4322519 22.239449 -7.3590975
4.2920408 22.256153 -7.9102731
3.2445688 22.743067 -8.6728611
2.2240577 24.163582 -9.8565826
5.7447581 22.925091 9.6051559
4.5384812 22.814152 8.7781782
3.4709592 23.385244 8.2563944
5.7155032 22.834597 6.9246111
4.5243707 22.759298 6.2069402
3.4442351 23.220766 5.6577005
5.6962209 22.726055 4.4285607
4.5023379 22.624332 3.7663782
3.4292004 23.135118 3.2215934
2.3434072 23.79211 2.6910145
5.6712327 22.63653 2.0356891
4.4979687 22.564571 1.4369216
3.4172673 23.043945 0.86772603
2.4301732 24.63065 0.30443859
5.6625042 22.553593 -0.28986862
4.4791694 22.472513 -0.85380447
3.4108937 22.952936 -1.4412174
2.4196377 24.562971 -2.1499038
5.6335969 22.460173 -2.6006355
4.4746099 22.425152 -3.154165
3.391855 22.854219 -3.7693608
2.390739 24.26181 -4.5981603
5.6060805 22.344725 -4.9517207
4.4420538 22.317181 -5.484961
3.3721099 22.760225 -6.1474204
2.3681419 24.050467 -7.1072669
5.5760694 22.235449 -7.3689575
4.428133 22.227448 -7.9095783
3.3759863 22.668537 -8.6521769
2.3445306 23.866982 -9.7412815
5.9217925 23.031273 9.6646862
4.6796021 22.791821 8.7804689
3.5963798 23.247129 8.2152681
5.8788223 22.889877 6.9521832
4.6689119 22.755365 6.2135639
3.5783498 23.145504 5.6446066
5.8585086 22.779913 4.4459767
4.6506376 22.642845 3.7741396
3.5605166 23.045202 3.212054
2.4954035 23.835114 2.6975594
5.8294683 22.676968 2.0425038
4.6333189 22.521875 1.435986
3.5498583 22.966003 0.86559492
2.5554209 24.368906 0.30139154
5.8218822 22.600321 -0.29092285
4.6220145 22.46911 -0.85473663
3.5380342 22.843557 -1.4356856
5.7947035 22.516102 -2.6111796
4.6080618 22.377546 -3.1513867
3.5226967 22.77269 -3.7594087
2.5097466 23.962019 -4.5441761
5.7674098 22.404417 -4.9726977
4.5724282 22.257967 -5.477201
3.5014048 22.672436 -6.129396
2.4881296 23.772367 -7.0294638
5.7429328 22.319481 -7.4083447
4.5660443 22.207684 -7.9123669
3.500668 22.55496 -8.6168633
2.4675827 23.628565 -9.6499701
6.0931144 23.108734 9.712697
4.8209867 22.770351 8.7834282
3.7291811 23.163921 8.1937952
2.7585433 24.88623 8.0556831
6.0582132 23.001644 6.9972878
4.8030858 22.700943 6.2066336
3.7062874 23.036028 5.6233482
2.712115 24.461092 5.2739487
6.0303507 22.865553 4.4698291
4.7921405 22.626425 3.7762325
3.6907065 22.953615 3.2023849
2.6501291 23.896202 2.7062626
6.0065207 22.78499 2.0555143
4.7769341 22.519009 1.4376451
3.6758382 22.851345 0.86210728
2.6624267 23.970392 0.29665923
5.9881196 22.668936 -0.29227361
4.7597661 22.440201 -0.8547318
3.6712735 22.778856 -1.4330081
2.6448629 23.846045 -2.0898376
5.9469132 22.533785 -2.6174128
4.745626 22.350471 -3.1516154
3.653996 22.698681 -3.7508218
2.6257751 23.667177 -4.4912329
5.9240994 22.44182 -4.9889736
4.7147799 22.257193 -5.484026
3.6305172 22.588713 -6.1126695
2.6112301 23.551756 -6.9688358
5.8988938 22.356285 -7.4324346
4.7016177 22.176397 -7.9113488
3.6333108 22.497845 -8.6033983
2.5873036 23.385099 -9.5568419
6.2800431 23.238354 9.7831888
4.9648628 22.769012 8.7943411
3.8576264 23.059212 8.1649761
2.8490031 24.337622 7.8836093
6.2389741 23.111246 7.0421429
4.9414158 22.667053 6.2055411
3.8423877 22.981892 5.6157827
2.8231263 24.110668 5.2020321
6.2039766 22.951828 4.494051
4.9286819 22.586515 3.7745483
3.8274105 22.906195 3.1989853
2.7991619 23.90048 2.7086411
6.1722593 22.844099 2.0642245
4.9163542 22.495388 1.4380358
3.8093383 22.788628 0.86060679
2.7901881 23.78932 0.2946246
6.1596355 22.751938 -0.28663152
4.9007998 22.42547 -0.85806227
3.8041968 22.715454 -1.4360329
2.7697299 23.646662 -2.0751083
6.1160536 22.611444 -2.6372688
4.8888707 22.34926 -3.1511457
3.7839756 22.620665 -3.7416964
2.7509418 23.483885 -4.4664588
6.0928049 22.520073 -5.014586
4.8849216 22.287802 -5.4951968
3.7670662 22.554129 -6.1094503
2.7374179 23.379215 -6.9226217
6.054184 22.387058 -7.4548759
4.8435936 22.174562 -7.9211488
3.7630081 22.425791 -8.5845118
2.7121525 23.209688 -9.4917793
6.4813843 23.412035 9.8728647
5.1186085 22.801077 8.8186903
3.990402 22.985332 8.1473331
2.9621634 24.026712 7.7886376
6.4223723 23.223356 7.0881777
5.0906405 22.68191 6.2180429
3.9729981 22.898335 5.6012168
2.9432523 23.867767 5.1534243
6.3940954 23.091753 4.5290461
5.0787072 22.607172 3.7831366
3.9545538 22.80538 3.1882346
2.9285171 23.743055 2.692786
6.3511491 22.946114 2.076925
5.067173 22.522055 1.4417009
3.9446123 22.738981 0.85962981
2.9098206 23.558947 0.29198715
6.3345995 22.841639 -0.28824586
5.0522327 22.456873 -0.86043376
3.9340661 22.637371 -1.4325956
2.89378 23.459074 -2.0601659
6.2937207 22.71439 -2.6537304
5.0302672 22.338182 -3.1538763
3.9129682 22.540945 -3.7324107
2.8800743 23.345699 -4.4434547
6.2625704 22.596638 -5.0400968
5.0259399 22.276712 -5.4999619
3.8951194 22.471363 -6.0933909
2.8615439 23.205669 -6.8763041
6.2315698 22.494368 -7.5032015
4.9898386 22.190134 -7.9374986
3.8955042 22.373358 -8.5734291
2.8409588 23.082478 -9.4467068
6.7140484 23.686274 10.005695
5.2615185 22.782671 8.8238926
4.1253157 22.926813 8.1354094
3.0802882 23.78229 7.7153864
5.2366409 22.680239 6.2262764
4.1100879 22.854967 5.5966721
3.067867 23.681133 5.1170955
6.6006112 23.281164 4.5740533
5.2222624 22.596937 3.786715
4.0920124 22.76734 3.1863668
3.0470231 23.515331 2.669029
6.554038 23.126232 2.0968287
5.2083554 22.503866 1.4425554
4.0763707 22.671572 0.85801083
3.0386488 23.419859 0.29048893
6.5166564 22.950333 -0.29011664
5.1977024 22.459034 -0.86256915
4.0713053 22.603992 -1.4320371
3.0211129 23.313124 -2.048938
6.4770613 22.830742 -2.6719167
5.1736684 22.334661 -3.1578019
4.0491834 22.505285 -3.7305501
3.003788 23.177309 -4.412828
6.4397516 22.693987 -5.070528
5.1628218 22.246696 -5.5002699
4.0285711 22.422791 -6.0868073
2.9857774 23.047953 -6.8348694
6.4013619 22.568125 -7.5407634
5.1367168 22.205854 -7.9542465
4.0228982 22.294664 -8.5525713
2.9671955 22.945971 -9.3981133
5.4222064 22.838387 8.8581905
4.2592802 22.865465 8.1227608
3.204443 23.603008 7.6634593
5.395659 22.731743 6.2493863
4.2431374 22.791134 5.5873117
3.1958182 23.534515 5.0895548
6.8236351 23.516958 4.6285191
5.3736472 22.618475 3.7957785
4.2297072 22.731451 3.1849165
3.1724911 23.358049 2.6533372
5.3609672 22.53297 1.4465024
4.209785 22.615944 0.85686707
3.1645398 23.27022 0.28886828
6.7263923 23.147505 -0.2931253
5.3456182 22.469622 -0.86421931
4.1979403 22.514313 -1.4279608
3.1451104 23.154325 -2.0366395
6.6749997 22.990242 -2.6953256
5.3329263 22.396194 -3.1710689
4.1861944 22.47463 -3.7296562
3.1332273 23.064821 -4.3949885
6.6262999 22.817339 -5.1070771
5.3123188 22.269487 -5.5138597
4.1669483 22.402323 -6.0880775
3.1153827 22.942623 -6.809175
6.5808692 22.670193 -7.5882173
5.2728081 22.173645 -7.9541483
4.1601596 22.272446 -8.5536795
3.0912576 22.804308 -9.3476858
5.5848455 22.897375 8.8941936
4.3995805 22.839317 8.1229086
3.334888 23.482065 7.6306915
5.5471196 22.747755 6.2630281
4.382885 22.764582 5.5872898
3.3174026 23.354227 5.0548725
7.1309128 24.024162 4.7368674
5.5331984 22.670576 3.810148
4.3599281 22.657377 3.1782262
3.3056169 23.266794 2.645225
5.5169425 22.572546 1.4511888
4.341763 22.554819 0.85554445
3.2913873 23.138748 0.28748155
6.9494457 23.378792 -0.29658857
5.4928989 22.475311 -0.86571813
4.3408599 22.5133 -1.429559
3.2783589 23.072905 -2.0312088
6.8789029 23.160847 -2.7202244
5.4864931 22.42947 -3.1804869
4.3138218 22.395601 -3.7208638
3.2576492 22.925226 -4.3721151
6.834455 23.006077 -5.1586108
5.4676504 22.313148 -5.5328722
4.2955122 22.3305 -6.0756078
3.241962 22.823561 -6.7796144
6.7789884 22.828548 -7.6550007
5.4333735 22.241613 -7.9903393
4.2953682 22.239384 -8.5509443
3.2276151 22.760166 -9.337533
5.7376065 22.912075 8.9134121
4.536653 22.796892 8.117569
3.4552486 23.301601 7.578795
5.7130709 22.819046 6.2921901
4.5122375 22.685747 5.5746312
3.4399192 23.193726 5.0246072
5.6910272 22.711336 3.8227952
4.4987068 22.629381 3.1781113
3.4308519 23.128334 2.6318274
5.6780963 22.628952 1.4570276
4.4804702 22.529741 0.85561985
3.4160717 23.002113 0.28603896
7.2374377 23.811695 -0.30263817
5.6489053 22.513744 -0.86851728
4.477582 22.479536 -1.4291326
3.4003437 22.920731 -2.0196109
7.1281505 23.471399 -2.7617836
5.6305766 22.421511 -3.1841974
4.4581838 22.404018 -3.726737
3.3897941 22.84778 -4.3612304
7.0599499 23.241758 -5.2210722
5.6174622 22.33087 -5.5457091
4.4304814 22.293819 -6.0729103
3.3686979 22.713924 -6.7530608
6.9904981 23.022207 -7.7341776
5.5723581 22.218281 -7.9940906
4.4350185 22.229012 -8.5572577
3.352164 22.638332 -9.2958136
5.9033809 22.974882 8.9517689
4.6811547 22.79155 8.125741
3.5905676 23.230841 7.5628037
5.8845944 22.90663 6.3261776
4.6587133 22.693516 5.5834599
3.5766618 23.136559 5.0168829
5.8534527 22.766148 3.8379943
4.6373701 22.600859 3.1780422
3.5628536 23.043159 2.6245732
5.8346901 22.663036 1.4614998
4.6246295 22.531073 0.85673201
3.5468543 22.914232 0.28521141
5.8129106 22.579535 -0.87241483
4.6161785 22.455282 -1.4293646
3.5310912 22.835878 -2.0140054
5.7869449 22.459887 -3.1946299
4.595336 22.375111 -3.7265487
3.5128188 22.71595 -4.3400989
7.3281941 23.603092 -5.3122439
5.7765946 22.382067 -5.567122
4.5681052 22.270689 -6.0741301
3.5022407 22.655539 -6.7419643
7.228703 23.291664 -7.8394537
5.7321782 22.275362 -8.027132
4.565587 22.173489 -8.5465069
3.483696 22.569986 -9.2763519
6.0770712 23.062819 9.000392
4.819066 22.753674 8.1226263
3.7197058 23.125475 7.5357904
6.0500598 22.965075 6.3524513
4.7997499 22.673378 5.5856462
3.6998379 22.997814 4.9916263
6.023921 22.846951 3.857775
4.7784123 22.58357 3.1796744
3.6945455 22.961006 2.617749
6.0000601 22.726889 1.4679642
4.7624664 22.500751 0.85667413
3.6791804 22.841087 0.28457662
5.9691863 22.611015 -0.87502992
4.7503285 22.409817 -1.428299
3.6587472 22.736746 -2.0072048
5.9530883 22.531609 -3.2099667
4.7341146 22.35392 -3.7277875
3.6485031 22.671396 -4.3357821
5.9351492 22.426796 -5.5872002
4.7056761 22.246998 -6.075429
3.6360681 22.601803 -6.7324862
7.5229158 23.724438 -8.0005016
5.8923383 22.329161 -8.0593958
4.704782 22.160255 -8.5523729
3.6099362 22.472355 -9.2451544
6.2609715 23.182486 9.0619135
4.9641218 22.749027 8.1316881
3.8527226 23.049517 7.5186
6.2280173 23.065138 6.3905811
4.9398494 22.648397 5.586854
3.8371944 22.952629 4.986836
6.2001696 22.943422 3.8804154
4.9208355 22.571911 3.182224
3.8271315 22.88868 2.6121314
6.1738224 22.81687 1.4761955
4.9111509 22.520224 0.85854661
3.8086548 22.754713 0.2837863
6.139081 22.689526 -0.87950945
4.8950744 22.413813 -1.4304411
3.7951548 22.695742 -2.0056031
6.1119995 22.571367 -3.2209132
4.8743858 22.339115 -3.7302358
3.7808852 22.608767 -4.3281598
8.0997963 25.000683 -5.6487412
6.1037245 22.504543 -5.6157947
4.8440089 22.226496 -6.0778332
3.7640347 22.515381 -6.7134962
7.690928 23.747561 -8.0240622
6.0491033 22.366049 -8.0859547
4.8510981 22.178661 -8.5708036
3.7396529 22.401241 -9.2251654
5.1087785 22.741131 8.1399183
3.9854078 22.975452 7.5022764
6.414957 23.191107 6.4362674
5.0878057 22.658102 5.5968432
3.9703095 22.884573 4.9772487
6.3806281 23.048706 3.9047704
5.0670791 22.57621 3.1871533
3.9533427 22.78318 2.6028106
6.3574862 22.936502 1.486431
5.0500851 22.493429 0.85869032
3.9435678 22.704226 0.28345308
6.3209205 22.805616 -0.88549608
5.0427985 22.42911 -1.4333651
3.9251037 22.61879 -2.0008934
6.2936964 22.6896 -3.2432349
5.0168705 22.333294 -3.7343338
3.9078488 22.517794 -4.3152533
8.1885223 24.755447 -5.6045785
6.2703433 22.569784 -5.6415696
4.9845066 22.215117 -6.0829701
3.8933725 22.441462 -6.6984529
7.8410873 23.713808 -8.0287638
6.2288132 22.482229 -8.1416216
4.9872732 22.149292 -8.5711174
3.8767269 22.376099 -9.2244329
5.2631783 22.774096 8.1631231
4.1248116 22.942242 7.4995561
6.6266346 23.396692 6.5044861
5.2395701 22.682011 5.6105847
4.1086636 22.848738 4.974844
6.5881872 23.242863 3.9444373
5.2174001 22.596193 3.1944339
4.090734 22.745541 2.6013293
6.551744 23.086075 1.4987016
5.2008476 22.517612 0.86081558
4.0788498 22.657631 0.28317851
6.5034018 22.916754 -0.89134401
5.1865177 22.424515 -1.4350783
4.0586224 22.565401 -1.9983361
6.4712844 22.786066 -3.2626379
5.1635642 22.344296 -3.7414007
4.0436192 22.480478 -4.3127756
8.2988214 24.58198 -5.5767293
6.4585223 22.706015 -5.6854205
5.1368241 22.25387 -6.1020975
4.0312858 22.418766 -6.698936
8.0345068 23.807674 -8.0770826
6.3852592 22.509205 -8.1654253
5.1347833 22.168777 -8.5906887
4.0044827 22.299162 -9.202673
5.4133029 22.7855 8.1789627
4.2582288 22.877407 7.486762
6.8730402 23.710821 6.6034169
5.3894072 22.694748 5.62181
4.2389932 22.770502 4.9633799
6.8015251 23.446222 3.9859562
5.3595839 22.579063 3.1966012
4.2238674 22.685884 2.5974219
6.7537856 23.253782 1.5122504
5.3452845 22.512098 0.86184239
4.2132421 22.607731 0.28287265
6.7092524 23.101461 -0.90011251
5.3315339 22.423895 -1.4371051
4.1951771 22.530256 -1.9974657
6.6722713 22.956823 -3.2928882
5.3115945 22.358614 -3.7491848
4.1782551 22.43792 -4.3094487
8.4148865 24.430109 -5.553885
6.6370711 22.801136 -5.7193279
5.2841964 22.267954 -6.1147346
4.1593208 22.342855 -6.6837535
8.2232838 23.882364 -8.1193886
6.575511 22.649607 -8.2308378
5.2748256 22.154131 -8.597393
4.1416388 22.276356 -9.2035761
5.573627 22.836325 8.2093287
4.3930178 22.822254 7.4773932
5.5504322 22.750912 5.6440525
4.3751526 22.725998 4.9594378
7.0817862 23.864109 4.0643091
5.5216885 22.642786 3.2103589
4.3575859 22.631493 2.5942068
5.5028467 22.558943 0.86491215
4.3463964 22.553005 0.28251627
6.9216633 23.29814 -0.90941346
5.4826369 22.446489 -1.4406822
4.3233576 22.452242 -1.9928637
6.8788958 23.13707 -3.3247344
5.4616661 22.37879 -3.7581172
4.3146262 22.405487 -4.3082232
8.5402689 24.308676 -5.5380878
6.8471704 22.996147 -5.7786736
5.4306769 22.275909 -6.1259546
4.2936454 22.302937 -6.6795669
8.4419699 24.037323 -8.1895266
6.769927 22.795931 -8.2989531
5.4213324 22.164972 -8.6143475
4.2760453 22.239075 -9.1988401
5.7320242 22.87505 8.2357378
4.5286851 22.773321 7.470325
5.7059488 22.780409 5.6599498
4.513979 22.69603 4.958849
5.6770401 22.67448 3.2197309
4.4953732 22.599327 2.5936327
5.6543145 22.577269 0.86692876
4.4859934 22.532419 0.2825979
7.2079139 23.727367 -0.92787671
5.636817 22.478437 -1.4449254
4.4648204 22.444288 -1.9945519
7.1217475 23.42671 -3.3725708
5.6168604 22.416626 -3.7701876
4.4436584 22.336546 -4.3001289
8.6766071 24.220497 -5.5300231
7.0530071 23.166756 -5.8323107
5.5847187 22.311939 -6.1451707
4.4311576 22.279913 -6.6806893
6.9838834 22.998341 -8.3880835
5.5777779 22.213112 -8.6461954
4.4036837 22.168446 -9.1806297
5.9032307 22.959845 8.2791519
4.6693726 22.750175 7.4719906
5.8705564 22.841997 5.6840944
4.6474051 22.639896 4.9527216
5.8474898 22.761553 3.237129
4.6340809 22.571928 2.5937028
5.8151097 22.62921 0.87027681
4.6298113 22.531946 0.28294292
5.8045993 22.559891 -1.4524232
4.6059942 22.433723 -1.996087
5.7743745 22.459816 -3.7833397
4.5900288 22.354637 -4.3089528
8.8114405 24.129511 -5.5214901
5.7382627 22.342451 -6.163156
4.5709696 22.267838 -6.6853523
7.2078476 23.222412 -8.4857788
5.7398629 22.278967 -8.6853752
4.5434842 22.159836 -9.1884356
6.075541 23.04282 8.3223581
4.8066149 22.710407 7.4684749
6.0452361 22.936954 5.7168469
4.8024039 22.687346 4.9694543
6.0058093 22.79648 3.2472763
4.7812376 22.584375 2.5984552
5.9766994 22.679806 0.87361658
4.7574296 22.453329 0.28231695
5.9596286 22.587194 -1.456508
4.7425842 22.40045 -1.9956781
5.9337935 22.506332 -3.7972372
4.7251167 22.316643 -4.307137
8.9547062 24.062563 -5.51864
7.7614198 24.414238 -6.1698837
5.8928809 22.373777 -6.1816549
4.7002168 22.204884 -6.6749854
7.511539 23.686499 -8.6720409
5.8919353 22.301922 -8.7082529
4.6879735 22.172234 -9.2053308
6.263236 23.176886 8.3845015
4.9598756 22.744696 7.4896188
6.2227073 23.03583 5.7508993
4.9383507 22.642914 4.9662662
6.1957812 22.945135 3.2738056
4.9182215 22.547739 2.5976634
6.1517515 22.776005 0.87875956
4.910048 22.492138 0.28317839
6.1306329 22.670469 -1.4642761
4.8870873 22.403685 -1.9986001
6.093812 22.551037 -3.8110166
4.8621225 22.287989 -4.309237
9.0959511 23.990726 -5.5148611
7.902503 24.339746 -6.163197
6.0623431 22.456806 -6.2147565
4.8447022 22.213804 -6.6864767
7.7621641 23.965471 -8.7914505
6.0521817 22.352205 -8.7422237
4.8219576 22.133987 -9.2015638
6.4590654 23.33214 8.4548445
5.1063662 22.745123 7.4999361
6.4091115 23.160465 5.7917233
5.0848594 22.646345 4.9737682
6.3594141 22.989691 3.2856681
5.067071 22.564304 2.6031048
6.3328738 22.887768 0.88455439
5.0486603 22.464682 0.28321743
6.3121147 22.785822 -1.4742005
5.0261836 22.380941 -1.999285
6.2665052 22.637625 -3.8320756
5.008841 22.302498 -4.317903
9.2313318 23.904289 -5.5079083
8.0174713 24.187542 -6.1369977
6.2333164 22.539581 -6.2481308
4.9822631 22.189688 -6.6882935
7.9902096 24.162769 -8.8816442
6.2246246 22.442301 -8.7922344
4.9654455 22.138613 -9.2159786
6.681757 23.573071 8.5568457
5.2536521 22.747223 7.5111165
6.620584 23.365927 5.8531513
5.2342138 22.660152 4.9837608
6.5575557 23.152185 3.3145802
5.2199755 22.59576 2.6103797
6.5049572 22.960602 0.88889503
5.1870933 22.436249 0.28325489
6.4977231 22.908543 -1.4846919
5.1758432 22.403469 -2.0040965
6.4535952 22.769186 -3.8609767
5.1523886 22.300758 -4.323606
9.391243 23.881298 -5.5157852
8.1580725 24.115252 -6.1312413
6.4105182 22.638704 -6.2863936
5.1367717 22.238567 -6.7124009
6.3960438 22.522821 -8.8389893
5.1037068 22.118626 -9.220521
6.9529305 23.968243 8.7156124
5.4047737 22.763611 7.5273361
6.8455272 23.606594 5.9238491
5.3858981 22.681271 4.9955792
6.7736239 23.367249 3.3512568
5.3630004 22.582159 2.6125607
6.7319627 23.217701 0.90043062
5.3413444 22.474203 0.28414249
6.6855836 23.031595 -1.4952974
5.3203583 22.401382 -2.0067925
6.6413212 22.895111 -3.8891664
5.3000412 22.314678 -4.3325281
9.5441694 23.839636 -5.5195842
8.2984734 24.043259 -6.1257682
6.5924873 22.747942 -6.3278408
5.2765107 22.220875 -6.7167063
6.5750542 22.623999 -8.8943605
5.2549391 22.152702 -9.2479944
5.5688868 22.83062 7.5606523
5.5409489 22.71331 5.0100303
7.0448303 23.75675 3.4132531
5.5192571 22.621769 2.621012
5.5025225 22.536762 0.28535491
6.9093943 23.268366 -1.5133935
5.471117 22.42326 -2.0117218
6.8494005 23.082148 -3.9280038
5.4553914 22.357676 -4.3472934
9.723525 23.862253 -5.5385303
8.4347467 23.960363 -6.1177192
5.4262462 22.243376 -6.7334456
6.7652707 22.756533 -8.9626169
5.4008141 22.16128 -9.2652349
5.7250056 22.86047 7.5820274
5.6977477 22.748898 5.0254974
5.6748767 22.655018 2.6288493
5.6584468 22.573364 0.28625259
7.1659546 23.600725 -1.5378413
5.6257625 22.457777 -2.0178776
7.0826912 23.342196 -3.9795783
5.6047759 22.372889 -4.3568568
9.8850393 23.838991 -5.5471048
8.58955 23.930288 -6.1233826
7.0026345 23.099077 -6.4489374
5.5805755 22.281322 -6.7551713
6.9696035 22.92786 -9.0467663
5.547132 22.169449 -9.2827053
5.8873196 22.911118 7.6106634
5.8648491 22.820997 5.0492797
5.8420749 22.729872 2.6416452
5.8183951 22.62199 0.28731656
5.7830234 22.498974 -2.0247293
7.3704758 23.764833 -4.059267
5.7620163 22.416149 -4.3720837
10.043302 23.806747 -5.5538373
8.7380571 23.882149 -6.1246681
5.7365537 22.322021 -6.7780542
5.6982183 22.194046 -9.3074694
6.0569429 22.985195 7.6474729
6.036118 22.903543 5.0756426
6.0034108 22.776979 2.6513512
5.9781389 22.665661 0.28833169
5.9518895 22.580385 -2.0353041
5.9225192 22.467896 -4.3891821
10.236275 23.854404 -5.5795026
8.8668852 23.781025 -6.1125727
7.6102695 24.036968 -6.7363505
5.8936868 22.363338 -6.8014536
7.4854517 23.580957 -9.3400068
5.8585954 22.250969 -9.346241
6.2498422 23.140049 7.7116084
6.2030253 22.964144 5.0974107
6.1740546 22.854467 2.6647308
6.1487875 22.745771 0.28982526
6.1132054 22.628119 -2.0429492
10.856833 24.882303 -3.0565195
6.0866451 22.528761 -4.4082851
10.42456 23.887636 -5.6021318
9.0490036 23.821918 -6.1372395
7.7541809 23.9792 -6.7333694
6.0528512 22.408419 -6.8263311
6.0207939 22.310127 -9.3864307
6.4362941 23.262405 7.7653999
6.3955631 23.112661 5.1389923
6.3593163 22.979286 2.6837833
6.3281279 22.851673 0.29166391
6.2945371 22.74412 -2.0568705
10.953664 24.6898 -3.0410717
6.2642097 22.633509 -4.4362192
10.63811 23.974611 -5.6377316
9.2102976 23.805481 -6.147449
7.889945 23.897175 -6.7238035
6.2260394 22.500257 -6.8658166
6.1865487 22.377573 -9.4306002
6.6598859 23.50831 7.8609805
6.5550833 23.133537 2.7064452
6.5178251 22.987349 0.29390052
6.4841399 22.882097 -2.0729079
11.050819 24.502104 -3.0262477
6.4441328 22.739904 -4.4647388
10.878744 24.116671 -5.6867275
9.3841963 23.819597 -6.1658483
8.0506201 23.89044 -6.7356811
6.3998733 22.58831 -6.9045377
6.3612318 22.471636 -9.4865131
6.9186149 23.862291 7.9933944
6.820313 23.520777 5.2479501
6.7577505 23.302692 2.7310348
6.7200232 23.158077 0.2966049
6.6675391 22.990561 -2.0864005
11.180714 24.389683 -3.0207794
6.6224251 22.834005 -4.4911089
9.5494041 23.809517 -6.1782899
8.1955986 23.836348 -6.7344818
6.5906129 22.728846 -6.9597254
6.5399809 22.57366 -9.5463428
7.1610193 24.140963 5.396028
6.9412289 23.383337 0.30002987
6.8829355 23.200178 -2.1092165
11.301115 24.258291 -3.0130374
10.163431 24.926157 -3.7077231
6.8333578 23.032084 -4.5382295
9.7480526 23.879658 -6.211895
8.3427591 23.788628 -6.7353354
6.7800283 22.8568 -7.0115128
6.7261515 22.694328 -9.6146469
7.2538867 23.898102 0.3072001
7.1383233 23.530548 -2.1431932
11.446019 24.180611 -3.0120559
10.230928 24.657848 -3.6770816
9.92906 23.902853 -6.2336602
8.5095129 23.795559 -6.751955
6.9923401 23.052776 -7.0846586
6.9378815 22.892202 -9.7163305
11.581011 24.082552 -3.0086362
10.34917 24.516756 -3.6654422
10.160672 24.042929 -6.2863321
8.6674204 23.775982 -6.7613635
7.1555004 23.098688 -9.8224211
11.739861 24.034176 -3.0115354
10.478571 24.404263 -3.6581676
8.8324118 23.774214 -6.776145
7.538506 23.798018 -7.3415685
7.414115 23.424051 -9.9799356
11.910382 24.008596 -3.0174305
10.603293 24.293253 -3.6518505
9.4744692 25.012064 -4.3635035
9.0147638 23.816378 -6.8038011
7.6818428 23.743454 -7.3391385
12.06465 23.949308 -3.0192266
10.744138 24.209669 -3.6491275
9.5582876 24.773392 -4.3320155
9.190773 23.838552 -6.8261175
7.8454685 23.750614 -7.3560934
12.229408 23.910091 -3.0236857
10.854923 24.060036 -3.636544
9.6555033 24.575279 -4.307652
9.3819771 23.896599 -6.8590937
8.0085201 23.753836 -7.3721724
12.429453 23.937771 -3.0367734
11.01196 24.013937 -3.6397212
9.7679682 24.420208 -4.2908955
9.6104059 24.043676 -6.9181056
8.1616907 23.726257 -7.3790169
12.615379 23.935581 -3.0462584
11.181362 23.993689 -3.6469822
9.8890047 24.289516 -4.278513
8.7975426 25.067619 -5.0181432
9.9289055 24.404942 -7.0394502
8.3418245 23.774643 -7.4098454
12.822459 23.970736 -3.060688
11.332931 23.934258 -3.6484497
10.031069 24.211998 -4.27562
8.8603535 24.759335 -4.9672194
8.5060711 23.774797 -7.4260201
13.045291 24.031595 -3.0786219
11.508445 23.924284 -3.657625
10.159198 24.101973 -4.267118
8.9676352 24.582592 -4.9427075
8.7013502 23.858044 -7.4685574
13.714841 24.88596 -0.36061007
13.331896 24.204172 -3.1111515
11.695445 23.935944 -3.6703098
10.31848 24.066206 -4.271915
9.0864401 24.441399 -4.925436
8.9035578 23.954817 -7.5158129
13.800838 24.682508 -0.35888225
11.868879 23.917707 -3.6786118
10.454309 23.975733 -4.2671618
9.2134485 24.325016 -4.9132829
9.1369095 24.128254 -7.5876756
13.904169 24.512987 -0.3576512
12.047675 23.908457 -3.6884892
10.606135 23.922209 -4.2691379
9.3340607 24.194227 -4.8983417
14.026237 24.378408 -0.35693666
12.266885 23.976252 -3.7104905
10.767897 23.890354 -4.2751637
9.4744749 24.116486 -4.89428
14.156385 24.259031 -0.3564539
12.965685 24.966789 -1.0582511
12.480151 24.028337 -3.7303321
10.936947 23.873306 -4.2840414
9.6190386 24.049818 -4.8926363
14.327955 24.210562 -0.35702679
13.022654 24.704683 -1.0505086
12.770885 24.223562 -3.7727346
11.10996 23.863171 -4.2943749
9.7621126 23.97975 -4.8904757
14.477856 24.12488 -0.3570666
13.145666 24.571363 -1.0482498
11.301801 23.891012 -4.3117838
9.9197435 23.945173 -4.8957453
14.647326 24.07128 -0.35759676
13.262031 24.427328 -1.0455569
11.487149 23.902302 -4.3264608
10.057775 23.863197 -4.891511
14.839165 24.052946 -0.35867029
13.396652 24.318245 -1.0443866
11.695654 23.958496 -4.3495402
10.224828 23.8496 -4.9014916
15.041595 24.049578 -0.35359833
13.529831 24.206779 -1.0409963
12.298705 24.79492 -1.7189991
11.933515 24.069977 -4.3829899
10.396511 23.84626 -4.9140792
15.240139 24.037682 -0.35479167
13.684877 24.135244 -1.0415115
12.393796 24.606188 -1.7111547
10.563392 23.828846 -4.9237547
15.462727 24.061018 -0.3565298
13.857428 24.093798 -1.0433725
12.508558 24.459312 -1.7062459
10.751474 23.856934 -4.9430971
15.727225 24.145552 -0.35920557
14.011481 24.019421 -1.0438551
12.635564 24.338108 -1.7031674
11.59165 25.306351 -2.4269612
10.93554 23.873228 -4.9602823
14.201006 24.004679 -1.0469817
12.764195 24.221283 -1.700441
11.575706 24.867393 -2.3916306
11.141363 23.93359 -4.9869347
14.40024 24.004124 -1.0507915
12.926643 24.168812 -1.7022936
11.657112 24.645872 -2.3771603
11.389951 24.080301 -5.0319724
16.877401 24.923952 2.6257811
14.608253 24.015589 -1.0551975
13.075624 24.090744 -1.7024142
11.778377 24.511988 -2.3711731
16.944687 24.695566 2.6126249
14.840598 24.063761 -1.0612952
13.248947 24.056829 -1.7057301
11.902964 24.38682 -2.3660855
17.061008 24.540947 2.6072931
15.108319 24.164734 -1.0698168
13.395786 23.974148 -1.7056636
12.03687 24.282055 -2.3630424
17.199257 24.418749 2.6054738
15.443378 24.366741 -1.082935
13.581681 23.960382 -1.7105812
12.169111 24.174911 -2.3598378
17.350592 24.315319 2.6057484
16.067347 25.009459 1.8564378
13.791266 23.985855 -1.7184088
12.310355 24.086361 -2.3585229
17.519617 24.241886 2.6055822
16.102219 24.737082 1.8277465
13.98945 23.993097 -1.7323898
12.468441 24.028727 -2.361387
17.716616 24.200294 2.6127467
16.189306 24.540205 1.8205054
14.220038 24.048244 -1.7426388
12.647154 24.011593 -2.3672853
17.935575 24.186611 2.6231019
16.332466 24.42977 1.819713
14.467916 24.12829 -1.7548393
12.810562 23.964056 -2.3703036
18.145626 24.158625 2.6320925
16.467018 24.306898 1.8180526
15.275421 25.134041 1.0967296
12.993616 23.95183 -2.3769355
18.381636 24.162664 2.6447711
16.640053 24.240654 1.8207004
15.284888 24.805389 1.0864609
13.190118 23.962088 -2.3859403
18.68531 24.251581 2.6670032
16.811255 24.170843 1.8231707
15.368219 24.601347 1.0816339
13.400335 23.994291 -2.397289
19.127707 24.513176 2.7086275
17.01038 24.139797 1.8286674
15.494471 24.468037 1.0799325
13.621957 24.043373 -2.4104984
17.209591 24.106991 1.8341469
15.646231 24.3755 1.080065
13.879493 24.151211 -2.4298024
17.442371 24.118732 1.8431486
15.775375 24.2481 1.0786889
14.4939 24.844584 0.35144126
17.693192 24.152071 1.853958
15.946913 24.185806 1.0802503
14.560552 24.610643 0.34938926
20.581287 25.071241 6.1221509
18.015682 24.278391 1.8721049
16.12376 24.130524 1.0821797
14.692214 24.489046 0.34893629
20.608883 24.793081 6.0849915
16.317146 24.098524 1.0852143
14.819911 24.361795 0.34841228
20.679953 24.570312 6.0613465
16.530552 24.093924 1.0895543
14.961864 24.258648 0.34824353
20.872366 24.492298 6.0735812
16.74901 24.094078 1.0941881
15.121496 24.184086 0.34849855
21.029203 24.371815 6.0755877
19.633026 25.156294 5.2035794
17.005386 24.145411 1.1012372
15.301907 24.141811 0.3492358
21.235689 24.307961 6.0920367
19.586735 24.781952 5.1509099
17.319708 24.273951 1.1119258
15.469291 24.077885 0.34967756
21.49971 24.307528 6.124876
19.695311 24.607437 5.1396589
15.667392 24.060299 0.35081172
21.757717 24.297167 6.1557894
19.829258 24.465557 5.1353416
15.875213 24.055367 0.35215345
20.013607 24.38559 5.1442361
16.100266 24.073761 0.35386232
20.202391 24.309904 5.1543231
18.642807 24.816513 4.2699642
16.363279 24.145098 0.35638005
20.43029 24.279509 5.1743608
18.752588 24.646276 4.2603908
16.683231 24.294872 0.3600949
20.655228 24.243299 5.1935568
18.894636 24.519295 4.2584019
20.927479 24.259718 5.2311525
19.034418 24.389685 4.2644424
21.286497 24.371931 5.2834139
19.192614 24.283697 4.2664213
17.751993 24.868126 3.4367175
19.407589 24.24836 4.2726755
17.827436 24.652515 3.4235559
19.637653 24.229553 4.290513
17.94883 24.502346 3.4179316
19.875172 24.217308 4.3098598
18.112787 24.410553 3.4205661
25.160505 24.853884 10.413316
20.182976 24.286938 4.3442087
18.277641 24.319468 3.4234536
25.252905 24.640854 10.388786
20.55529 24.428459 4.3920007
18.459845 24.250641 3.4296451
25.465912 24.545477 10.41426
18.665047 24.210526 3.4401047
25.705677 24.4741 10.450701
23.961695 25.145647 9.2879667
18.882015 24.18362 3.4526789
26.033422 24.483374 10.522673
23.917149 24.7925 9.2115593
19.138058 24.203907 3.4722757
26.419859 24.543056 10.617799
24.055561 24.631704 9.2064848
19.450787 24.291559 3.5019062
24.248335 24.526207 9.2224922
24.483265 24.461784 9.2545834
24.73855 24.415369 9.2942772
22.738337 24.793537 8.1102352
25.116177 24.485666 9.379528
22.839994 24.599649 8.0925026
25.653191 24.704016 9.5232859
23.022762 24.493359 8.103857
23.24333 24.425941 8.1285858
21.631907 25.065674 7.1107078
23.472214 24.365335 8.1561937
21.680256 24.812256 7.0764222
23.795786 24.399796 8.2164497
21.751295 24.587427 7.0502334
24.143 24.453823 8.2843733
21.946276 24.503212 7.0645657
22.122826 24.397442 7.0730748
22.379412 24.378126 7.1071515
22.607115 24.32486 7.1319294
22.936983 24.378099 7.1886683
23.35902 24.523394 7.2736421
29.57881 24.891634 14.577838
29.74085 24.717871 14.582675
28.004324 25.073421 13.125116
28.024281 24.783176 13.062951
28.234392 24.661917 13.090107
28.497871 24.585424 13.142074
28.885592 24.612389 13.25098
26.499346 24.906635 11.699543
26.642921 24.735449 11.695704
26.820581 24.595699 11.707221
27.05677 24.508371 11.744454
27.429092 24.540916 11.84048
27.913454 24.667578 11.984003
