# .PCD v0.7 - Point Cloud Data file format
VERSION 0.7
FIELDS x y z
SIZE 4 4 4
TYPE F F F
COUNT 1 1 1
WIDTH 975
HEIGHT 1
VIEWPOINT 0 0 0 1 0 0 0
POINTS 975
DATA ascii
1.5871639 28.641298 11.650531
1.7506462 28.43248 11.56974
1.9202459 28.349947 11.540734
2.0888438 28.265665 11.511425
2.26403 28.274673 11.520534
2.4375849 28.261488 11.521039
2.6180758 28.323103 11.552489
2.457145 28.463497 10.779303
2.6219285 28.34174 10.747522
2.7944636 28.311771 10.742457
2.9615266 28.231152 10.71856
3.1356764 28.221317 10.721931
4.5879803 28.57267 8.5099363
3.3142095 28.247816 10.739521
4.7323575 28.359076 8.4548092
3.5046098 28.365652 10.792295
4.8972301 28.277269 8.4392204
5.0680246 28.232094 8.4348602
5.2333112 28.158239 8.4222307
5.4128122 28.161098 8.4328604
5.5929265 28.164753 8.4440718
5.7800932 28.200432 8.4652433
3.1733627 28.532354 10.02147
3.3327312 28.379169 9.9746599
3.4942987 28.257088 9.9391012
3.6654341 28.218325 9.9331903
3.8422651 28.222881 9.9429054
5.3106003 28.484232 7.7550569
4.016603 28.207464 9.9459705
5.4652038 28.346998 7.7190228
4.1981063 28.239468 9.9661503
5.6204138 28.21945 7.6935363
5.7828279 28.132713 7.6794186
7.3463354 28.570717 5.5679893
5.9617205 28.126806 7.6876473
7.4705195 28.331745 5.5302467
6.1373973 28.104376 7.6916647
7.6287169 28.228008 5.5190306
6.3201599 28.112595 7.7043824
7.793026 28.149057 5.5128398
6.5129886 28.161716 7.7286515
7.955915 28.066545 5.5061374
3.8846226 28.523991 9.2571259
8.1252851 28.007929 5.5043154
4.0380278 28.348408 9.2080097
8.320405 28.036457 5.5198512
4.202569 28.260387 9.187623
8.5088997 28.039652 5.5306559
4.3702912 28.197924 9.1758614
5.9084177 28.751841 7.0799093
8.7130537 28.090939 5.5512123
4.5357599 28.170477 9.1718559
6.021791 28.480421 7.0158658
8.9655571 28.250521 5.5944095
4.7107549 28.155439 9.176198
6.165103 28.299149 6.9803987
4.894526 28.189939 9.1970568
6.3323679 28.232882 6.973506
8.0025902 28.902685 4.9000769
5.0974417 28.32629 9.2515717
6.4903221 28.127792 6.9572539
8.0679007 28.458384 4.8330536
6.6615338 28.082142 6.9576473
8.2056351 28.281746 4.8037953
6.8453031 28.08828 6.9694433
8.3605061 28.168507 4.7931838
10.065958 28.671362 2.654911
7.0211205 28.060133 6.9730172
8.5221138 28.080187 4.7869639
10.167832 28.402735 2.6357644
7.2304516 28.161758 7.0091653
8.7091112 28.075272 4.7951455
10.296124 28.214325 2.6240935
8.8703499 27.987028 4.7892799
10.452934 28.107283 2.620054
9.0723162 28.026018 4.8053875
10.61721 28.021536 2.6180844
9.2599459 28.017735 4.8042121
10.787773 27.952818 2.6260388
9.4642925 28.057055 4.8208213
10.966596 27.905209 2.6278384
6.7530808 28.440468 6.2773027
9.705677 28.200121 4.8650517
11.153657 27.877495 2.6233668
6.8957977 28.268709 6.2486138
11.36441 27.906532 2.632612
7.0532188 28.162367 6.2345567
8.6844597 28.647011 4.122128
11.585705 27.957602 2.6440861
7.2200518 28.095846 6.2295208
8.7941036 28.380293 4.0914364
11.820126 28.035635 2.6582754
7.40097 28.052584 6.2362418
8.9429026 28.246286 4.0767145
12.094861 28.202608 2.6676092
7.579711 28.031614 6.2418017
9.104867 28.156298 4.071713
10.810762 28.543007 1.90088
7.7649727 28.032976 6.2525969
9.2729959 28.08638 4.0697536
10.920016 28.305889 1.8895155
7.968061 28.094917 6.2771988
9.4304676 27.985374 4.063426
11.062816 28.160273 1.8842908
12.952225 28.732359 -0.38561654
8.2109833 28.289024 6.3317056
9.6053371 27.936674 4.064836
11.226521 28.069672 1.8828022
13.03095 28.43992 -0.38275766
9.7803383 27.887947 4.0664015
11.384867 27.966661 1.8805434
13.12686 28.191168 -0.3804867
10.002085 27.969501 4.0871649
11.571007 27.931896 1.8829443
13.287719 28.085007 -0.38014716
10.218019 28.029688 4.1050448
11.759132 27.900602 1.8856633
13.443421 27.96888 -0.37968466
11.941807 27.855215 1.8875126
13.618287 27.893042 -0.37978238
12.153376 27.875174 1.8938825
13.793674 27.81802 -0.37990618
9.4227896 28.505091 3.3847857
12.378294 27.922138 1.9021978
13.985797 27.775946 -0.38049638
9.5381346 28.270731 3.3638432
12.614447 27.990019 1.9120593
14.194573 27.765127 -0.38153416
9.693162 28.15863 3.3575184
11.492183 28.741138 1.1569136
14.42293 27.78977 -0.38308164
9.8553934 28.069103 3.353991
11.558075 28.399202 1.145983
14.680515 27.866539 -0.38537443
10.024175 27.999004 3.3529012
11.692602 28.232349 1.1421236
14.94061 27.943113 -0.38769388
10.200397 27.949604 3.3544176
11.842558 28.105358 1.1399045
13.715511 28.566946 -1.1909577
10.382176 27.911201 3.3498201
11.995019 27.986044 1.1380291
13.815203 28.264849 -1.1759574
10.581515 27.921581 3.3587949
12.166168 27.911127 1.1379968
13.968284 28.13908 -1.1742686
16.060436 28.713875 -3.692627
10.80687 27.996616 3.3757348
12.343791 27.850832 1.1386051
14.106791 27.985622 -1.1714548
16.094843 28.365452 -3.6604509
11.013587 28.019169 3.3865387
12.545665 27.843849 1.1414453
14.289359 27.920258 -1.1723667
16.21023 28.164768 -3.6473203
11.300263 28.238338 3.421345
12.737164 27.811954 1.1433202
14.454847 27.821356 -1.1719161
16.347002 28.003551 -3.6393642
12.961974 27.850161 1.1481388
14.656645 27.791603 -1.1744291
16.50923 27.887022 -3.6373167
13.20299 27.918913 1.1542913
14.844359 27.733776 -1.1758122
16.68977 27.801432 -3.6394413
13.475117 28.047743 1.1630143
15.080692 27.76449 -1.1810155
16.895111 27.756109 -3.6470108
12.237001 28.50416 0.3819859
15.309594 27.778172 -1.1855626
17.080605 27.67704 -3.6591763
12.349886 28.287024 0.38008443
15.540537 27.792427 -1.1902183
17.288536 27.633139 -3.6673284
12.491515 28.139292 0.37912217
15.833907 27.913618 -1.199555
17.523899 27.630816 -3.6723154
12.65437 28.040913 0.37883571
16.220299 28.190319 -1.2157001
14.530791 28.363977 -1.9828943
17.755184 27.619335 -3.6851997
12.818428 27.945827 0.37860659
14.674402 28.216303 -1.9788281
18.043289 27.692463 -3.7096598
12.995893 27.880018 0.37878823
14.807626 28.050653 -1.9735458
18.353498 27.794199 -3.7383039
13.188714 27.846197 0.37942109
14.962805 27.928175 -1.9713511
16.974489 28.305183 -4.5352755
13.369502 27.785894 0.37971005
15.128558 27.826036 -1.9706569
17.082195 28.092525 -4.517911
13.593359 27.813042 0.38740897
15.333308 27.794857 -1.9669501
17.257458 27.954887 -4.5163474
19.63608 28.60232 -7.4477215
13.828689 27.859917 0.38923648
15.523541 27.735949 -1.9694848
17.411629 27.821255 -4.5119333
19.662769 28.267895 -7.3919177
14.070936 27.916521 0.38496989
15.728234 27.701468 -1.973852
17.601286 27.74428 -4.5168805
19.793749 28.086977 -7.3762288
16.579468 23.216869 11.585495
14.361324 28.062901 0.38819632
15.936283 27.671064 -1.9786161
17.793976 27.671188 -4.5226717
19.921484 27.903044 -7.3598881
16.659195 23.028421 11.54225
16.200893 27.735607 -1.9903021
17.993309 27.607334 -4.5392914
20.116545 27.81378 -7.368763
16.827963 22.96368 11.561337
16.461878 27.789478 -2.0013788
18.233347 27.603872 -4.5570321
20.276648 27.675926 -7.3650646
16.982973 22.879427 11.571165
16.77474 27.925436 -2.0185452
15.266357 28.546206 -2.8348424
18.470388 27.593075 -4.5647073
20.499374 27.622799 -7.3842611
17.204256 22.882816 11.626049
15.349835 28.2836 -2.818064
18.736328 27.622194 -4.5884571
20.723125 27.569195 -7.4037843
18.939756 24.879145 9.1975946
15.488234 28.125582 -2.8117361
19.017881 27.67028 -4.6157422
20.946871 27.513733 -7.4232669
18.988575 24.62825 9.1477432
15.634963 27.98428 -2.8071477
17.772476 28.457798 -5.4786606
21.180092 27.468721 -7.4460464
19.089411 24.44734 9.1238823
15.805432 27.886158 -2.8069804
19.721363 27.952663 -4.702867
17.894625 28.265863 -5.4627457
21.478456 27.504999 -7.4914646
22.970417 29.422794 -11.992386
19.276869 24.377565 9.1418133
16.009647 27.846758 -2.81285
23.258823 29.387373 -4.2118778
18.015598 28.074305 -5.4469857
21.772057 27.531059 -7.5348063
22.881264 28.940731 -11.852905
17.131346 23.693893 11.036999
19.476652 24.321974 9.1656103
23.555504 29.421938 3.2763827
23.340437 29.155125 -0.45695046
16.169001 27.728775 -2.8109009
23.191502 28.935677 -4.1674562
18.159975 27.920885 -5.4387364
22.057262 27.542656 -7.5748792
20.594627 28.455957 -8.4615955
22.881348 28.57864 -11.761889
17.192629 23.473948 10.983479
19.715508 24.312981 9.2076359
21.625872 26.655647 6.478879
23.436323 28.907717 3.2350733
23.29682 28.737436 -0.45263588
16.391899 27.718771 -2.8200297
23.188208 28.570557 -4.1352839
18.323635 27.797829 -5.4365654
22.410597 27.634611 -7.6378446
20.653843 28.172192 -8.4147425
22.916042 28.26474 -11.690351
23.947037 29.155352 15.321687
17.300413 23.31959 10.960718
23.720211 28.887409 10.994945
21.619038 26.315536 6.4283338
23.445337 28.558828 3.2120678
23.334988 28.426176 -0.44998011
16.599436 27.680647 -2.8264604
23.212694 28.244755 -4.1086659
18.49777 27.690735 -5.437716
22.896782 27.882662 -7.7450881
20.78064 27.983427 -8.3962879
22.99744 28.012032 -11.643974
23.869066 28.699564 15.158843
17.462772 23.239079 10.973033
23.709263 28.515507 10.90856
21.721542 26.111998 6.4110518
23.485371 28.252321 3.1937423
23.343554 28.083454 -0.44681388
16.827366 27.674313 -2.8363032
23.28245 27.977882 -4.0905495
18.715399 27.647724 -5.4517188
23.172129 27.867556 -7.7802401
20.952616 27.856276 -8.396553
23.0487 27.725819 -11.583572
23.876352 28.352636 15.0527
17.648865 23.189079 10.995984
23.77669 28.242285 10.863656
21.880825 25.977596 6.4140291
23.568642 28.001184 3.1816409
23.453856 27.866531 -0.4456439
17.098848 27.735979 -2.8452263
23.358376 27.72139 -4.0739274
18.924648 27.590626 -5.463254
23.263905 27.631283 -7.7539835
21.138092 27.746807 -8.4024954
23.150131 27.502779 -11.549518
23.982977 28.12715 15.010831
23.833826 27.960123 10.811171
22.117985 25.934517 6.43678
23.642803 27.741983 3.1686137
23.565325 27.652781 -0.44452956
17.35647 27.770966 -2.8596861
23.48081 27.522196 -4.0657511
19.151745 27.557676 -5.4798956
23.366619 27.410135 -7.7320132
21.318483 27.630243 -8.4066515
23.283577 27.319302 -11.532247
24.048136 27.855549 14.944354
23.977816 27.781927 10.798954
19.578062 25.073391 8.5053921
22.412672 25.955782 6.476069
23.789268 27.569376 3.1655114
23.701412 27.469248 -0.44390875
17.664692 27.881998 -2.8904285
23.605404 27.326855 -4.0582147
19.427603 27.591791 -5.5102801
23.517088 27.246231 -7.7263384
21.530342 27.553595 -8.4233665
23.419188 27.139324 -11.516717
22.932842 29.37772 -13.022575
24.176968 27.659836 14.918662
24.119658 27.602043 10.786356
19.690258 24.900583 8.4875975
23.998758 27.450285 6.8855653
23.924738 27.384838 3.1611192
23.81345 27.259129 -0.44286615
23.748617 27.154043 -4.0541148
23.198792 29.30312 -5.1379876
19.694693 27.609667 -5.5378799
23.67408 27.090267 -7.7231588
21.761314 27.49971 -8.4475555
23.56839 26.975792 -11.508473
22.877533 28.93902 -12.890091
24.371567 27.539598 14.934188
24.269884 27.432409 10.778059
19.834389 24.76895 8.4840536
24.155254 27.289543 6.8822937
24.081671 27.225485 3.1597221
23.554634 29.428303 2.3475728
23.968336 27.099016 -0.44264594
23.31357 29.147682 -1.405961
23.897692 26.988506 -4.0512171
23.126549 28.84639 -5.0826902
19.960983 27.622887 -5.5649934
23.790316 26.888504 -7.7071095
22.018784 27.476908 -8.4818945
23.701296 26.794304 -11.492874
22.847437 28.539244 -12.774225
24.536272 27.385281 14.931866
17.803083 24.319626 10.521342
24.42087 27.26413 10.770615
20.028807 24.699579 8.5022268
24.346067 27.167397 6.8890338
24.237141 27.064781 3.1582718
23.396715 28.86615 2.3141372
24.143381 26.961733 -0.44281498
23.259455 28.716999 -1.3920448
24.04995 26.826984 -4.049047
23.131908 28.493061 -5.0453491
20.26647 27.686186 -5.602694
18.698311 28.372341 -6.4191208
23.991627 26.783075 -7.7189407
22.281435 27.457705 -8.5180101
23.868652 26.652163 -11.494509
22.889221 28.234583 -12.700484
24.746634 27.281387 14.957731
23.831594 29.029995 14.172296
17.74844 23.935452 10.402057
24.626667 27.156744 10.787684
20.306997 24.7309 8.5557394
24.539154 27.047092 6.8965797
23.549459 28.691547 6.0737062
24.433447 26.949413 3.1622443
23.40004 28.510838 2.2971199
24.30994 26.814829 -0.44284379
23.274452 28.37772 -1.382495
24.26593 26.736015 -4.057713
23.174498 28.190262 -5.0168166
20.692368 27.907106 -5.672987
18.779898 28.119102 -6.3877773
24.148733 26.627888 -7.7167749
22.536528 27.42639 -8.551033
24.076078 26.554111 -11.515717
22.95994 27.969234 -12.644259
24.963865 27.183805 14.987931
23.827604 28.664675 14.06506
17.830673 23.740492 10.364682
24.834692 27.05072 10.805897
23.676592 28.47649 9.9016123
24.72171 26.914587 6.9013414
22.273081 26.799452 5.7019925
24.628525 26.831865 3.1661243
23.457037 28.22533 2.2856703
24.545349 26.74288 -0.4441345
23.336941 28.100487 -1.3759392
24.439369 26.597334 -4.0593486
23.254551 27.93643 -4.9969435
18.944229 27.991743 -6.3851314
24.376812 26.550165 -7.737453
22.835611 27.445305 -8.6004553
24.263788 26.433369 -11.527705
23.05621 27.737703 -12.60331
25.211458 27.117533 15.0364
23.85507 28.342127 13.978354
17.98893 23.647627 10.372133
25.079351 26.982983 10.840107
23.70849 28.161549 9.8425016
24.974171 26.856791 6.9256854
22.344551 26.552307 5.6784735
24.856178 26.748554 3.1742308
23.525461 27.956898 2.2755795
24.78285 26.67127 -0.44546238
23.419117 27.849964 -1.3706828
24.692883 26.544458 -4.074327
23.33712 27.688324 -4.9780846
19.103699 27.85758 -6.3811464
24.570118 26.433287 -7.7471819
23.169596 27.50172 -8.6625223
21.632536 28.436977 -9.5530767
24.496609 26.360487 -11.561254
23.165239 27.523558 -12.570354
25.504585 27.097483 15.111774
23.932013 28.08198 13.92221
18.197489 23.619608 10.408625
25.369766 26.961777 10.893921
23.852486 27.982283 9.8308153
25.271084 26.843893 6.9622149
22.520697 26.430716 5.6819148
25.138569 26.721746 3.1892943
23.653629 27.761637 2.2714567
25.009541 26.586212 -0.44659635
23.520075 27.624132 -1.3666453
24.898218 26.438028 -4.0813632
23.468666 27.500191 -4.9700565
19.273363 27.738537 -6.380847
24.796862 26.351124 -7.7675481
23.386337 27.415813 -8.6804991
21.686031 28.147194 -9.5002499
24.714827 26.270197 -11.587947
23.264204 27.299364 -12.532923
25.918539 27.200922 15.257866
24.046284 27.867865 13.894464
18.376148 23.551178 10.42796
25.686331 26.964758 10.957234
23.927708 27.724138 9.7915382
25.549435 26.808064 6.9934278
22.738598 26.357115 5.6959858
25.403513 26.673523 3.2020824
23.735493 27.513931 2.2630634
25.281174 26.546684 -0.44852972
23.644331 27.427334 -1.3640609
25.202576 26.434334 -4.104588
23.586363 27.297113 -4.9594183
19.469563 27.657202 -6.3894982
25.04697 26.291782 -7.7952123
23.496891 27.205544 -8.6594095
21.854824 28.009106 -9.4987259
24.947382 26.193474 -11.621409
23.371677 27.087034 -12.501047
22.875944 29.291517 -14.024786
24.171602 27.668028 13.868515
26.143709 27.109856 11.081173
24.087637 27.565662 9.7875843
20.204571 25.578146 7.854301
25.94672 26.892572 7.0568738
23.003405 26.335606 5.7217326
25.752333 26.709682 3.225332
23.880342 27.340839 2.2608361
25.593248 26.546299 -0.45116809
23.808146 27.277121 -1.36383
23.412672 29.564934 -2.3368001
25.484154 26.403374 -4.1239839
23.725334 27.119783 -4.9535556
19.669399 27.579988 -6.3994222
25.347256 26.282179 -7.8383303
23.658699 27.055504 -8.6576967
21.978657 27.814224 -9.4781923
25.191618 26.127012 -11.660283
23.515974 26.918547 -12.489646
24.323383 27.499378 13.853026
24.229336 27.386841 9.7766771
20.251211 25.316273 7.8133917
26.603838 27.237181 7.1900263
26.187971 26.830076 3.259213
24.045242 27.191074 2.2606096
25.992495 26.631426 -0.4553169
23.955477 27.108351 -1.3627156
23.256128 28.999849 -2.3033719
25.802538 26.407038 -4.1492071
23.900291 26.983858 -4.9554219
23.083654 28.848886 -6.0331764
19.91695 27.567698 -6.4248066
25.655058 26.27673 -7.8835058
23.802813 26.885601 -8.6499023
22.164135 27.69787 -9.4847088
25.511267 26.13567 -11.733788
23.666349 26.757526 -12.482078
22.833986 28.509556 -13.783518
24.51458 27.375206 13.865991
24.39352 27.23386 9.7753143
20.414963 25.202394 7.8167591
24.34477 27.190474 5.9719195
23.505116 29.012594 5.1377301
24.203444 27.033878 2.2598453
23.353634 28.818115 1.3863723
26.533428 26.854023 -0.46189746
24.119711 26.959009 -1.3626224
23.197515 28.565851 -2.2801633
26.294132 26.581879 -4.201951
24.058792 26.829319 -4.9540586
23.114986 28.527449 -5.9955029
20.139072 27.517866 -6.4418702
26.051336 26.357117 -7.9554315
23.991777 26.766317 -8.6587248
22.364517 27.599422 -9.4978094
25.862595 26.172377 -11.821291
23.894188 26.683392 -12.515654
22.877819 28.2078 -13.705239
24.66979 27.210709 13.859081
23.833599 29.046597 13.116324
24.592278 27.119085 9.7880955
20.61302 25.130058 7.833405
24.509642 27.038921 5.9715519
23.515331 28.66382 5.1014233
24.402994 26.92251 2.2630098
23.380217 28.491722 1.3775461
24.298851 26.826159 -1.3634179
23.246401 28.269806 -2.2678754
24.250652 26.711695 -4.9597225
23.132681 28.193836 -5.9551086
20.416191 27.54034 -6.476336
24.133841 26.594666 -8.650939
22.592663 27.533848 -9.5227699
26.264969 26.255377 -11.931348
24.041739 26.518929 -12.507472
22.917852 27.905416 -13.62639
24.934021 27.165304 13.913619
23.774876 28.615158 12.987135
18.342701 24.407118 9.8087387
24.80847 27.022417 9.8079634
20.824301 25.072306 7.8550849
24.671984 26.884644 5.9708009
23.524036 28.318283 5.0655208
24.582584 26.788458 2.2643783
23.407578 28.170788 1.3689479
24.521574 26.740437 -1.3666826
23.33873 28.029722 -2.2600613
24.458574 26.610781 -4.9687576
23.242559 27.975924 -5.9390917
20.696003 27.562662 -6.5113254
24.335695 26.488672 -8.6648703
22.81909 27.464399 -9.546998
26.971886 26.633171 -12.17801
24.238493 26.408493 -12.525295
23.034506 27.699165 -13.594437
25.199383 27.118502 13.974127
23.784723 28.27227 12.897508
18.408211 24.188957 9.7703314
25.08185 26.985874 9.8433456
24.931564 26.831203 5.9780903
23.032789 27.383322 4.9259191
24.851419 26.725674 2.2716093
23.495375 27.926062 1.3640355
24.780954 26.645737 -1.3516527
23.430058 27.79084 -2.2544093
24.665621 26.53961 -4.9986238
23.295145 27.691757 -5.9122996
21.01228 27.611395 -6.5445604
24.583364 26.434551 -8.7083597
23.094807 27.451797 -9.5916967
24.469141 26.333738 -12.563696
23.106142 27.441053 -13.53124
25.454687 27.058382 14.023369
23.923046 28.085054 12.878824
18.541311 24.056126 9.7624483
25.345989 26.936708 9.8819551
23.809898 27.961575 8.8512678
25.183493 26.771015 5.9989967
23.070608 27.089109 4.8983665
25.1105 26.6742 2.2802875
23.613894 27.719872 1.3610159
25.006157 26.559219 -1.3550217
23.513172 27.544678 -2.2461019
24.87055 26.432983 -5.0071902
23.433371 27.511612 -5.9044261
21.353188 27.704956 -6.5976677
24.803911 26.345676 -8.7290564
23.339178 27.399223 -9.6231842
24.671946 26.227419 -12.584962
23.252678 27.273657 -13.518797
23.059669 29.927225 -15.342904
25.832628 27.124702 14.139622
24.023008 27.854353 12.840385
18.704916 23.962849 9.7709885
25.669304 26.947084 9.9433565
23.882427 27.700603 8.8148785
25.529911 26.807758 6.0422196
23.233234 26.94338 4.8977013
25.39982 26.65196 2.2916667
23.736223 27.519604 1.3583084
25.275187 26.517054 -1.3607575
23.661242 27.376167 -2.2441578
25.146336 26.399632 -5.0300064
23.559103 27.317875 -5.8937602
25.023466 26.254225 -8.749465
23.440786 27.178898 -9.596137
23.083126 29.574524 -11.035862
24.928349 26.176281 -12.633582
23.359545 27.060909 -13.484138
22.817947 29.24065 -15.062411
24.186674 27.698648 12.836782
18.938753 23.95788 9.8161621
26.071987 27.035686 10.034892
24.015045 27.511269 8.8013544
25.875851 26.83931 6.0850034
23.452511 26.862617 4.9090862
25.735901 26.674952 2.3071783
23.854641 27.316198 1.3554678
25.555595 26.48394 -1.3670794
23.792442 27.188948 -2.240736
25.428925 26.370399 -5.0540709
23.697123 27.139412 -5.8865175
23.129511 29.259907 -7.0350318
25.326067 26.247332 -8.7987909
23.580185 27.003719 -9.5851908
25.161451 26.098507 -12.670321
23.505877 26.895016 -13.473091
22.764751 28.806288 -14.910336
24.308031 27.49526 12.811406
19.242538 24.037519 9.8969831
24.201378 27.383738 8.8078966
20.868288 26.076042 7.1762123
23.667429 26.775381 4.919591
26.159161 26.782806 2.3303463
23.98719 27.130167 1.3535148
23.366144 29.162712 0.46764898
25.938725 26.552982 -1.3788328
23.977196 27.06319 -2.2424545
23.227129 29.008106 -3.2537849
25.777681 26.405874 -5.0910883
23.866512 26.997244 -5.8873348
23.056477 28.802465 -6.9589319
25.662004 26.270969 -8.859333
23.762106 26.87738 -9.5919209
22.723513 28.388536 -10.696562
25.461296 26.087257 -12.740466
23.663956 26.742929 -13.469389
22.76894 28.450974 -14.79846
24.443565 27.309044 12.794282
24.351759 27.215519 8.8016863
20.926701 25.822634 7.1416774
24.042311 26.865473 4.9631557
23.48522 28.963991 4.1964474
24.205492 27.040886 1.356445
23.326027 28.749348 0.46330678
26.491581 26.788111 -1.3994573
24.124899 26.895599 -2.2407916
23.197586 28.609629 -3.2249939
26.194832 26.505854 -5.1412568
24.034134 26.852993 -5.8879266
23.062017 28.449804 -6.9077859
25.995325 26.287561 -8.9185514
23.919689 26.723379 -9.58916
22.823563 28.157635 -10.662128
31.776779 29.147243 -13.864599
25.822229 26.134315 -12.840589
23.837616 26.60841 -13.47505
22.846596 28.191669 -14.736225
24.671328 27.225483 12.825816
23.751749 28.935276 12.032649
24.572777 27.125734 8.8212452
21.047812 25.648727 7.1291647
24.476114 27.014801 5.018394
23.456432 28.568371 4.159903
24.364706 26.884956 1.356097
23.32601 28.391481 0.45983756
24.326733 26.788095 -2.2442288
23.204346 28.261715 -3.2017651
24.216553 26.725 -5.8923326
23.117868 28.163664 -6.8726225
26.490559 26.461618 -9.0325804
24.084677 26.577728 -9.5897436
22.940516 27.949581 -10.636448
31.745916 28.762259 -13.77387
26.233137 26.226347 -12.96465
24.029123 26.493275 -13.491158
22.877649 27.878529 -14.645643
24.844913 27.081217 12.82943
23.757711 28.583101 11.946595
24.798147 27.039206 8.8424225
21.2416 25.563398 7.1415405
24.663687 26.888395 5.0229306
23.501354 28.26763 4.1370316
24.561655 26.770317 1.3578908
23.392414 28.118767 0.4577367
24.525915 26.676691 -2.2474611
23.300508 28.026413 -3.1912451
24.414375 26.613291 -5.9006209
23.19565 27.907482 -6.8447099
24.310892 26.498762 -9.6148949
23.08857 27.780609 -10.625858
31.810053 28.466925 -13.725653
26.818611 26.484644 -13.173435
24.205648 26.361038 -13.4992
23.002079 27.68203 -14.616285
25.116148 27.041891 12.883566
23.802698 28.282385 11.881728
24.995037 26.92041 8.8535614
21.430288 25.470892 7.152298
24.888975 26.801991 5.035224
23.585842 28.017744 4.121563
24.806166 26.705999 1.3623233
23.457617 27.847811 0.45566043
24.75268 26.593967 -2.2628498
23.367636 27.758896 -3.1662667
24.599985 26.487509 -5.9021106
23.288433 27.671928 -6.8289604
24.536133 26.417034 -9.6396856
23.161083 27.522543 -10.580201
31.958441 28.248503 -13.697475
24.430834 26.28075 -13.531196
23.093405 27.447548 -14.565956
25.393305 27.006069 12.940491
23.828503 27.962963 11.808739
25.249813 26.862356 8.8852558
21.732103 25.51022 7.2006507
25.202557 26.807896 5.0652905
23.688747 27.792059 4.1096683
25.051596 26.640524 1.366799
23.608606 27.680557 0.45528549
25.016247 26.54862 -2.2720096
23.487436 27.556229 -3.159529
24.828308 26.406542 -5.9179044
23.411379 27.474051 -6.8154497
24.71777 26.287266 -9.6474953
23.313797 27.361458 -10.57307
32.10498 28.029016 -13.686313
24.652983 26.195543 -13.564954
23.217222 27.253496 -14.538301
25.771296 27.073259 13.048213
23.981901 27.795673 11.800676
25.58259 26.883913 8.9441404
23.883677 27.689848 7.8603168
25.46475 26.755909 5.0848951
23.82313 27.604813 4.103519
25.333513 26.611231 1.3732455
23.726311 27.475313 0.44703078
25.267179 26.4874 -2.2703185
23.60096 27.347729 -3.1629038
25.084259 26.352865 -5.9442616
23.540541 27.284712 -6.7971077
24.995771 26.258196 -9.6929331
23.41827 27.144892 -10.545817
32.306736 27.857693 -13.716352
24.890577 26.124941 -13.610646
23.345497 27.065874 -14.515424
26.280359 27.270998 13.220984
24.136585 27.630356 11.793145
25.992064 26.980753 9.0292492
24.022129 27.507282 7.8501868
25.81312 26.790831 5.1215367
23.923859 27.38006 4.0918531
25.659861 26.624981 1.3820541
23.845913 27.273703 0.44612274
25.564119 26.471546 -2.2823617
23.738903 27.168737 -3.1589897
25.367832 26.325418 -5.9730687
23.642607 27.065453 -6.7784986
25.278913 26.23144 -9.7401304
23.575657 26.990694 -10.541913
32.56739 27.735863 -13.7545
30.718779 28.881956 -14.736507
25.143715 26.068464 -13.661342
23.490374 26.89835 -14.502606
24.29739 27.47238 11.788466
24.1656 27.331251 7.8389125
24.08564 27.226236 4.0908742
26.085451 26.736292 1.3961142
24.002409 27.11512 0.45317647
25.936945 26.529892 -2.3010707
23.92679 27.047014 -3.1618476
25.704926 26.349728 -6.0142579
23.844147 26.96048 -6.7887225
25.574097 26.213913 -9.791707
23.741951 26.846802 -10.542414
32.892857 27.666639 -13.820001
30.812349 28.61578 -14.696886
25.435678 26.049374 -13.732872
23.651684 26.749985 -14.500588
24.39291 27.241709 11.753489
24.353142 27.205133 7.8454509
24.270054 27.097818 4.0938778
24.178749 26.978954 0.45337173
26.445715 26.720316 -2.3316178
24.108829 26.918156 -3.1640177
26.102749 26.431118 -6.0692778
23.976812 26.777582 -6.7795868
25.945267 26.269943 -9.8719168
23.886505 26.678587 -10.533714
33.284725 27.649311 -13.913103
30.891201 28.337975 -14.651282
25.775656 26.075533 -13.829782
23.850988 26.644142 -14.522273
24.655403 27.197197 11.799336
24.529215 27.06579 7.8485241
24.469841 26.985859 4.0995703
24.365334 26.853783 0.45377213
24.271761 26.767754 -3.1637852
26.70253 26.708649 -6.1705141
24.16375 26.655424 -6.7860699
26.365219 26.369545 -9.9699507
24.071171 26.555147 -10.543095
31.043171 28.128574 -14.641225
26.202108 26.183638 -13.972125
23.982574 26.462593 -14.503255
24.861332 27.088457 11.81812
24.746822 26.971445 7.8650498
24.64633 26.847588 4.1014619
24.58658 26.765759 0.45482537
24.48867 26.676189 -3.1706634
24.370472 26.554188 -6.7982383
35.936073 29.106859 -9.9274082
24.30191 26.481323 -10.572789
31.233734 27.954172 -14.649926
26.741594 26.396803 -14.173167
24.203146 26.37886 -14.538484
25.099779 27.013649 11.853117
24.975998 26.888149 7.8885279
24.925562 26.819553 4.1204662
24.817478 26.686579 0.44876587
24.700329 26.577688 -3.1773589
24.585327 26.476982 -6.8255849
35.87944 28.698206 -9.8629313
24.460159 26.328291 -10.573642
31.457577 27.808617 -14.671169
29.789848 29.047028 -15.700779
24.387178 26.251505 -14.566938
25.413948 27.017412 11.922969
25.240484 26.840706 7.9198976
25.15592 26.736538 4.1313491
25.052536 26.610039 0.45005533
24.939468 26.506968 -3.1871386
24.801817 26.383604 -6.8406153
35.999466 28.433769 -9.8477812
24.717146 26.279673 -10.614826
31.709661 27.686716 -14.70923
29.764555 28.668205 -15.59444
24.611347 26.168945 -14.60465
25.717005 27.005629 11.987181
25.569103 26.858021 7.9711499
25.46792 26.737499 4.1555667
25.347944 26.594948 0.45242214
25.235901 26.4944 -3.2041855
25.041212 26.31286 -6.8619833
36.142075 28.188026 -9.8392916
24.95248 26.205812 -10.646635
32.01236 27.606676 -14.770787
29.851868 28.401281 -15.548589
24.826717 26.075481 -14.637233
26.227757 27.205744 12.147213
25.933544 26.908272 8.0331402
25.763872 26.718006 4.1770282
25.660172 26.593876 0.45507386
25.520882 26.466497 -3.2196887
25.370979 26.333906 -6.9079399
36.349876 27.99309 -9.848917
25.220236 26.163664 -10.692181
32.411091 27.605579 -14.876326
30.014986 28.20763 -15.543107
25.116693 26.057995 -14.71365
26.231121 26.870619 4.2259707
26.063036 26.681797 0.45930627
25.861374 26.492338 -3.2420759
25.655706 26.304485 -6.9413862
36.651089 27.868471 -9.8840113
25.562437 26.195066 -10.768911
30.167585 28.004444 -15.532851
25.40403 26.034487 -14.788116
26.304466 26.617527 -3.2770867
37.011681 27.785913 -9.9350891
34.819405 28.89868 -10.900096
25.919525 26.236977 -10.851319
30.392866 27.86834 -15.560507
25.709995 26.026627 -14.872979
26.583265 26.594625 -7.0895677
34.814079 28.535318 -10.843411
26.326368 26.323761 -10.953817
30.570518 27.687876 -15.564187
26.115538 26.114704 -14.992847
34.980785 28.314915 -10.841019
30.874571 27.620316 -15.63241
26.609781 26.28438 -15.183715
35.177101 28.118317 -10.848184
31.182747 27.553423 -15.702546
28.991522 28.287653 -16.467258
40.477062 28.837965 -5.5853601
35.361446 27.911793 -10.852013
31.615381 27.592113 -15.834851
29.165392 28.110044 -16.467735
40.435127 28.435671 -5.5553927
35.692627 27.819456 -10.901057
33.916054 29.261042 -11.976541
29.314735 27.909056 -16.455057
40.705833 28.254349 -5.5686607
36.031879 27.730165 -10.952497
33.757858 28.765144 -11.858129
29.531933 27.772394 -16.48101
40.929314 28.03891 -5.5755925
33.863995 28.498789 -11.833762
29.765722 27.650057 -16.516487
41.372787 27.971272 -5.6125183
34.001823 28.26021 -11.821108
30.007559 27.533638 -16.55662
34.168587 28.046127 -11.819033
30.340498 27.49814 -16.64691
39.264915 28.698841 -6.685987
34.366669 27.857536 -11.8282
39.332138 28.379358 -6.6810451
34.714165 27.787994 -11.888891
32.752857 28.958471 -12.863238
39.573414 28.185837 -6.6925254
35.05365 27.708561 -11.946705
32.761417 28.609802 -12.797415
39.779896 27.966587 -6.6848745
32.842037 28.326904 -12.760771
45.683014 28.528933 -0.6589846
40.266796 27.941284 -6.7377582
33.013542 28.123413 -12.760118
45.904812 28.27742 -0.6596688
38.136997 29.023357 -7.8256769
33.218983 27.948502 -12.772999
46.340843 28.155245 -0.66343957
38.109367 28.634779 -7.7838068
33.483562 27.822018 -12.808849
38.220596 28.353109 -7.7708445
33.787457 27.725851 -12.859779
38.417442 28.135338 -7.7756205
34.142467 27.66836 -12.93004
44.268082 28.818848 -1.9897449
38.732567 28.002625 -7.8044767
44.310814 28.461082 -1.9837787
39.076717 27.887943 -7.8391938
44.564709 28.239414 -1.9873507
36.934345 28.836542 -8.8520193
44.941208 28.093004 -1.9964156
37.019428 28.539095 -8.8302746
37.185047 28.304716 -8.828187
37.351597 28.071194 -8.8266687
42.955696 28.64179 -3.1991036
37.562672 27.870811 -8.835968
43.097187 28.355673 -3.1966228
38.002918 27.837543 -8.8991804
43.397301 28.173105 -3.2060003
38.62978 27.934141 -8.9879951
43.788799 28.04685 -3.2221482
50.300457 28.462132 3.6160457
41.745724 29.005449 -4.4332623
41.721855 28.61088 -4.4120002
41.834614 28.312378 -4.4054704
42.101482 28.117887 -4.4153218
48.567158 28.709661 2.1086743
42.499374 28.008068 -4.4389429
48.760319 28.421562 2.1094491
49.240929 28.298349 2.1226895
47.077736 28.57653 0.68919176
47.289768 28.309622 0.68973982
47.817368 28.228371 0.69489568
