# .PCD v0.7 - Point Cloud Data file format
VERSION 0.7
FIELDS x y z
SIZE 4 4 4
TYPE F F F
COUNT 1 1 1
WIDTH 1356
HEIGHT 1
VIEWPOINT 0 0 0 1 0 0 0
POINTS 1356
DATA ascii
-13.809072 0.85043252 -4.4506292
-13.711885 0.92893457 -4.4210601
-13.608466 1.0058483 -4.3896232
-13.545229 1.08478 -4.3712893
-13.452118 1.1604358 -4.3434567
-13.396094 1.2384571 -4.3277397
-13.83954 0.59789562 -4.8378677
-13.339859 1.3158582 -4.3120999
-13.74042 0.67810458 -4.8045821
-13.303743 1.3947721 -4.3031111
-13.634413 0.75676322 -4.7690487
-13.262583 1.4727836 -4.2926397
-13.530318 0.83429193 -4.7343402
-13.96809 1.6441791 -3.0228612
-13.193104 1.5470753 -4.2731438
-13.468687 0.91348141 -4.7146478
-13.796252 1.709841 -2.9878874
-13.165575 1.6258012 -4.2673783
-13.407029 0.99197817 -4.695107
-13.921889 0.34854499 -5.2549977
-13.697293 1.7829794 -2.9687693
-13.132258 1.7035575 -4.2598872
-13.353326 1.0704269 -4.6785121
-13.761119 0.42902437 -5.195209
-13.60012 1.8552626 -2.9501195
-13.085048 1.7791364 -4.248034
-13.305295 1.1487833 -4.6640658
-13.683014 0.51064622 -5.1668081
-13.515259 1.9282268 -2.9342227
-13.080966 1.8603985 -4.2503347
-13.264309 1.2272815 -4.6522503
-13.577027 0.59013486 -5.1280575
-13.461917 2.0049744 -2.9252579
-14.13677 1.3989044 -3.4234698
-13.026078 1.9342086 -4.2362771
-13.193826 1.3024571 -4.6302457
-13.501358 0.66986591 -5.100934
-13.376416 2.0762155 -2.9093924
-13.88018 1.4595689 -3.3634374
-13.003395 2.0124629 -4.2328362
-13.170329 1.3817878 -4.6248879
-13.429603 0.74893802 -5.0754647
-13.976705 0.085736752 -5.6718202
-13.336437 2.1538939 -2.9035165
-13.751919 1.5314484 -3.3345714
-12.988316 2.0918121 -4.2320261
-13.139512 1.4601189 -4.6171255
-13.373449 0.82814962 -5.0560679
-13.808022 0.16943464 -5.6036839
-13.287406 2.2297168 -2.895766
-13.671853 1.6075212 -3.3174863
-12.962317 2.1693056 -4.2278123
-13.123655 1.5399339 -4.6147871
-13.30766 0.90607589 -5.0332022
-13.692153 0.25204712 -5.5571842
-14.113361 2.4598401 -1.6120483
-13.252656 2.30758 -2.8912241
-13.566648 1.6796082 -3.2943971
-12.949442 2.2489183 -4.228034
-13.048495 1.6123413 -4.5917501
-13.262565 0.98479617 -5.0183372
-13.598162 0.33379316 -5.5197639
-13.888674 2.5085828 -1.5881125
-13.194982 2.3810463 -2.8817749
-13.494705 1.7548382 -3.2794802
-12.917957 2.3251932 -4.2223334
-13.034944 1.6919322 -4.590548
-13.233639 1.0643351 -5.0097685
-13.524099 0.41502181 -5.4906306
-13.753983 2.5714996 -1.5744858
-13.146077 2.4556048 -2.874331
-13.424415 1.82953 -3.2650647
-14.000761 1.2054571 -3.7599952
-12.908115 2.4052827 -4.2238612
-13.010281 1.769972 -4.5856013
-13.184853 1.1418775 -4.9938588
-13.464358 0.49589619 -5.4675088
-13.637547 2.6364317 -1.5629791
-13.125421 2.5351901 -2.8731618
-13.374249 1.906352 -3.2556474
-13.821461 1.275502 -3.7138748
-12.917055 2.4890537 -4.2317047
-12.990286 1.8485036 -4.5824656
-13.159132 1.2210435 -4.9868608
-13.400135 0.57588446 -5.4427624
-13.574952 2.7108426 -1.5576823
-13.075969 2.6089649 -2.865787
-13.319756 1.9820484 -3.2452815
-13.698864 1.3490086 -3.6830876
-12.896451 2.5672517 -4.2300353
-12.955369 1.9247099 -4.5742283
-13.112022 1.2978666 -4.9719319
-13.339675 0.65531135 -5.4197359
-13.497431 2.7815907 -1.5507162
-13.052264 2.6876144 -2.8641522
-13.271212 2.0581365 -3.2364702
-13.61379 1.4250264 -3.6624963
-12.894766 2.6492748 -4.234735
-12.969173 2.0081704 -4.5833664
-13.079643 1.3757542 -4.9627614
-13.297839 0.73507357 -5.4044695
-13.404661 2.8483255 -1.5420369
-14.021932 2.2664192 -1.9532572
-13.035456 2.7676361 -2.8641365
-13.207783 2.1313713 -3.2241304
-13.540747 1.5014312 -3.6452556
-12.88091 2.7289057 -4.2356038
-12.953481 2.0872064 -4.5822606
-13.067009 1.455544 -4.9612632
-13.237371 0.81323165 -5.3818212
-13.382375 2.9295242 -1.5415119
-13.825504 2.3218062 -1.9278431
-13.021103 2.8481967 -2.864769
-13.172577 2.2087042 -3.2187841
-13.461556 1.5763233 -3.6264727
-14.189577 0.96129668 -4.1821485
-12.885663 2.8126359 -4.2427621
-12.926218 2.164269 -4.5772281
-13.025847 1.531933 -4.949111
-13.216768 0.89340097 -5.3755722
-13.318128 3.0012114 -1.5362035
-13.707655 2.3885865 -1.9134177
-12.974608 2.9215605 -2.8584297
-13.15505 2.2888398 -3.2178726
-13.39522 1.6519355 -3.6112642
-13.884727 1.0262676 -4.0940776
-12.908208 2.9006436 -4.2559652
-12.881446 2.2381124 -4.5661507
-12.989039 1.6084657 -4.9387827
-13.153042 0.97020292 -5.3519735
-13.274558 3.0771008 -1.533327
-13.615817 2.4587595 -1.9026685
-12.968155 3.0038273 -2.8610146
-13.116154 2.3650782 -3.2118475
-13.327343 1.7266481 -3.5957539
-13.760044 1.1019835 -4.0592303
-12.900602 2.9822047 -4.2594109
-12.895208 2.3221016 -4.5759935
-12.988592 1.6893923 -4.942461
-13.140035 1.0503465 -5.3492031
-13.9538 3.3193409 -0.17795008
-13.208675 3.1473541 -1.5279189
-13.528925 2.5288844 -1.8926589
-12.948925 3.08321 -2.8608923
-13.088128 2.4430366 -3.208595
-13.297212 1.8057718 -3.5905461
-13.669347 1.1791748 -4.0345335
-12.924639 3.0714238 -4.273489
-12.887824 2.4025064 -4.5785184
-12.946838 1.7648088 -4.9306002
-13.076696 1.1260748 -5.3261313
-13.786134 3.3689654 -0.17607217
-13.16837 3.2232645 -1.5255158
-13.443993 2.5984781 -1.8829721
-12.923452 3.1610618 -2.8594959
-13.039135 2.5167823 -3.2003098
-13.243151 1.8812582 -3.5789983
-13.559979 1.2536081 -4.0044484
-12.954466 3.1626124 -4.2896872
-12.87178 2.4813354 -4.5781417
-12.935099 1.8441211 -4.9303465
-13.057251 1.2051564 -5.3211222
-13.675058 3.4308767 -0.17491914
-13.121951 3.2973714 -1.5224535
-13.378732 2.6711245 -1.8760921
-13.947083 2.0733385 -2.3018603
-12.932837 3.2475877 -2.8659277
-13.025753 2.5971985 -3.2008762
-13.178739 1.954677 -3.564765
-13.500122 1.3316667 -3.9891095
-12.976018 3.2523668 -4.3033504
-12.889141 2.5668063 -4.5898318
-12.916322 1.9223806 -4.9275928
-13.031827 1.2835003 -5.3138709
-13.59565 3.4997649 -0.17417482
-13.12371 3.3835576 -1.5250376
-13.340356 2.7486866 -1.8730404
-13.777761 2.1346552 -2.2760341
-12.904736 3.3248374 -2.8641672
-12.990466 2.6731429 -3.1961756
-13.173364 2.0365653 -3.5666242
-13.461493 1.4113107 -3.9801793
-13.008299 3.345422 -4.3207831
-12.894814 2.6502969 -4.5975561
-12.890608 1.9994764 -4.9223709
-12.973254 1.3581563 -5.2932858
-13.519539 3.5687659 -0.17347701
-13.08526 3.4594088 -1.5230076
-13.310682 2.8278224 -1.8712752
-13.663662 2.2029119 -2.2593758
-12.913624 3.4117594 -2.8707323
-12.976592 2.7533891 -3.1968586
-13.138841 2.1138535 -3.5607221
-13.36469 1.4841223 -3.9541752
-13.051446 3.4420345 -4.3420482
-12.913127 2.7367477 -4.6099863
-12.895308 2.0813122 -4.9289489
-12.9603 1.4372482 -5.2914996
-13.445172 3.6345613 -0.17385785
-13.053843 3.5392373 -1.5207553
-13.246415 2.8968625 -1.8713897
-13.587929 2.2719536 -2.2474232
-12.921028 3.4889388 -2.8737795
-12.964372 2.8351433 -3.194689
-13.09278 2.1921439 -3.5480576
-13.339368 1.5550616 -3.9550521
-13.119175 3.5465236 -4.3689485
-12.901598 2.8207481 -4.6124244
-12.890225 2.154284 -4.9307923
-12.954281 1.5191576 -5.2981935
-13.386457 3.7069774 -0.17338946
-13.892264 3.1203403 -0.52766705
-13.032269 3.6193757 -1.5208007
-13.203868 2.9725657 -1.8679205
-13.518481 2.3456945 -2.2382751
-12.899688 3.5682411 -2.8738489
-12.955126 2.9165277 -3.1967602
-13.057238 2.2686431 -3.5421317
-13.289851 1.6320032 -3.9432654
-13.14193 3.6393507 -4.3838801
-12.932412 2.9107437 -4.6297388
-12.874852 2.2330048 -4.9300594
-12.954426 1.5998145 -5.3021684
-13.336108 3.7812908 -0.17303458
-13.780101 3.1840906 -0.52413899
-13.008997 3.6990364 -1.5207049
-13.149835 3.0452955 -1.8628849
-13.450138 2.4189415 -2.2308979
-14.067711 1.8238945 -2.6791255
-12.921154 3.6596715 -2.8835795
-12.894756 2.9861846 -3.1863248
-13.035506 2.3473561 -3.540077
-13.234293 1.7076732 -3.9298155
-13.216154 3.7473674 -4.4162269
-12.951042 2.9985459 -4.6429076
-12.873497 2.3142245 -4.934885
-12.900114 1.6735306 -5.2840424
-13.295866 3.8581765 -0.17281635
-13.678963 3.2492623 -0.52104062
-12.974615 3.7754595 -1.5193652
-13.150892 3.1306832 -1.8657211
-13.390519 2.4931352 -2.2235048
-13.869144 1.884751 -2.6434624
-12.928539 3.747606 -2.8903053
-12.9235 3.0765116 -3.1980321
-12.997771 2.4229894 -3.5338001
-13.175032 1.7822797 -3.9153917
-13.268444 3.8503084 -4.4415112
-12.991634 3.0920539 -4.6641736
-12.883881 2.3977919 -4.9444127
-12.888682 1.7525278 -5.2836647
-14.016826 4.1616435 1.2791514
-13.218202 3.9237335 -0.17211659
-13.588909 3.3160865 -0.51837569
-12.977848 3.8629298 -1.5224909
-13.106938 3.2053261 -1.8622406
-13.347272 2.5699182 -2.2179427
-13.758547 1.9557748 -2.6255922
-12.961061 3.843399 -2.9027934
-12.913031 3.1578665 -3.2001762
-12.96987 2.5002315 -3.5303187
-13.125382 1.8576428 -3.9039509
-13.370828 3.9691298 -4.4838514
-13.018678 3.1830215 -4.6808066
-12.867935 2.4766104 -4.9440327
-12.891946 1.8336067 -5.289516
-13.826942 4.1977563 1.2641499
-13.20656 4.008615 -0.17228206
-13.494282 3.3808582 -0.51554763
-12.965203 3.9459281 -1.5238192
-13.07109 3.2816882 -1.8599731
-13.272321 2.6400452 -2.2081382
-13.654427 2.0265255 -2.6080468
-12.964334 3.931071 -2.9088736
-12.911864 3.2416732 -3.2047563
-12.961883 2.5812795 -3.5323896
-13.103778 1.9366721 -3.900986
-13.422867 4.0743618 -4.5096011
-13.065866 3.2796516 -4.7049198
-12.87768 2.5605273 -4.9537191
-12.867919 1.9108148 -5.2843685
-13.729841 4.2604599 1.2576387
-13.159159 4.0825758 -0.17198725
-13.411407 3.4476871 -0.5131799
-14.048122 2.887821 -0.88813895
-12.950599 4.0284715 -1.5249792
-13.063213 3.3650508 -1.8617555
-13.233946 2.7169313 -2.2044857
-13.557758 2.0972791 -2.5919917
-13.023098 4.0363097 -2.9275608
-12.899277 3.3227787 -3.2066319
-12.948847 2.6613896 -3.5332208
-13.066236 2.0131238 -3.8934143
-13.481331 4.1826196 -4.5377803
-13.130368 3.3816187 -4.7355289
-12.901699 2.6476955 -4.9691148
-12.872434 1.9922858 -5.2911429
-13.614069 4.3162899 1.2494366
-13.133989 4.1632829 -0.17198892
-13.384421 3.5284433 -0.51296616
-12.951703 4.1161427 -1.5280546
-13.026598 3.440989 -1.8595111
-13.200424 2.7945678 -2.2017167
-13.492912 2.1721025 -2.582094
-13.062739 4.1366158 -2.9421225
-12.896878 3.4066808 -3.2111716
-12.918324 2.7378361 -3.5294096
-13.05991 2.094265 -3.8952847
-13.538687 4.2916584 -4.5658641
-13.152056 3.4733946 -4.750948
-12.911127 2.7322938 -4.9791093
-12.871247 2.0730462 -5.295784
-13.545313 4.3861375 1.2455729
-13.093716 4.2391052 -0.1717989
-13.302044 3.594162 -0.51064461
-13.708537 2.9938009 -0.8689273
-12.930799 4.1970277 -1.528598
-12.991403 3.5171082 -1.8575327
-13.154434 2.8692746 -2.1969411
-13.396629 2.2410181 -2.5662518
-13.094804 4.2353497 -2.9551423
-12.916279 3.4967275 -3.2212837
-12.923699 2.8219454 -3.5355427
-13.021297 2.1701074 -3.8876665
-13.568119 4.392787 -4.5847936
-13.206217 3.5745242 -4.7783461
-12.928493 2.818959 -4.9923835
-12.852495 2.1510148 -5.2933998
-13.460086 4.4499731 1.2402233
-13.085578 4.3253565 -0.17203714
-13.2854 3.6772811 -0.51086229
-13.620841 3.0623302 -0.86454326
-12.935165 4.2863522 -1.5321944
-12.984627 3.6009295 -1.859688
-13.123048 2.9468961 -2.1946778
-13.367985 2.3206346 -2.5634439
-13.151685 4.3430653 -2.9739368
-12.935007 3.587126 -3.2313831
-12.899879 2.8997834 -3.5338273
-13.009701 2.2503035 -3.8882537
-13.635802 4.5073233 -4.6169233
-13.286623 3.6839328 -4.815527
-12.979609 2.9136457 -5.0189314
-12.866604 2.2346208 -5.3047581
-13.400683 4.5217342 1.2372831
-13.94626 3.9595623 0.90356636
-13.065733 4.4079084 -0.17212857
-13.241275 3.7526865 -0.51004136
-13.550612 3.1340113 -0.86129016
-12.948488 4.3791232 -1.5369264
-12.949258 3.6768346 -1.857819
-13.089662 3.0238838 -2.1921563
-13.319208 2.3964467 -2.5568621
-13.215128 4.4541297 -2.9944067
-12.958213 3.6793342 -3.2427592
-12.901763 2.9834871 -3.5392916
-12.968932 2.3252974 -3.8802602
-13.682642 4.6161227 -4.6422853
-13.367933 3.7949598 -4.8533454
-13.031202 3.0093319 -5.0459261
-12.87134 2.316891 -5.3124719
-13.352594 4.5969572 1.2354243
-13.779455 4.0037293 0.89433396
-13.038012 4.4878445 -0.1721229
-13.176401 3.8217976 -0.5084362
-13.474085 3.2035353 -0.85765928
-12.968808 4.4748588 -1.5425684
-12.936681 3.7591929 -1.8592887
-13.052778 3.0998495 -2.1891236
-13.249414 2.4679124 -2.5463231
-13.280072 4.5669508 -3.0154152
-12.969583 3.7687101 -3.2513304
-12.885599 3.0631621 -3.5399468
-12.961358 2.4061177 -3.8823385
-13.768614 4.7394223 -4.6812325
-13.405295 3.8946056 -4.875494
-13.062548 3.1011171 -5.0653372
-12.885715 2.4011977 -5.3243861
-13.299139 4.6700234 1.2331064
-13.684807 4.067451 0.88979405
-13.0097 4.567574 -0.17211589
-13.161635 3.905225 -0.50878149
-13.409766 3.2753043 -0.85482836
-12.997154 4.5740743 -1.5492493
-12.93871 3.8460321 -1.8629371
-13.0229 3.1772926 -2.187341
-13.240438 2.5503991 -2.5475578
-13.349249 4.6825323 -3.0375896
-13.011309 3.867568 -3.267678
-12.919178 3.1550188 -3.5544233
-12.943386 2.4850297 -3.8814495
-13.813682 4.8499403 -4.7065845
-13.479917 4.0061359 -4.9114809
-13.118263 3.1994987 -5.0944586
-12.903132 2.4864602 -5.3377862
-13.251772 4.7449269 1.2313908
-13.587514 4.1294379 0.88509887
-12.987608 4.6495261 -0.17219783
-13.12348 3.9816785 -0.50824142
-13.357007 3.3493962 -0.85275918
-13.792657 2.7490206 -1.2268865
-13.004175 4.6664152 -1.5534699
-12.939417 3.932812 -1.8664782
-13.017181 3.2606523 -2.1896999
-13.173244 2.6213856 -2.5376761
-13.403205 4.7940192 -3.0565031
-13.057687 3.9687145 -3.2853794
-12.914201 3.2378972 -3.5584531
-12.914072 2.5616605 -3.8772993
-13.871104 4.9659123 -4.7364421
-13.517767 4.1078215 -4.9343629
-13.15598 3.294353 -5.1168594
-12.914058 2.5708463 -5.348731
-13.890709 5.074863 2.7948406
-13.22146 4.8258033 1.2313026
-13.521481 4.2001696 0.88245964
-13.002713 4.7451425 -0.17278089
-13.077821 4.0556216 -0.50742733
-13.296791 3.4211497 -0.85023904
-13.680846 2.8141229 -1.2184538
-13.052864 4.7744927 -1.5627564
-12.933499 4.0178633 -1.8691456
-13.00126 3.3415761 -2.1904294
-13.145277 2.6997764 -2.5354321
-13.486413 4.917326 -3.0823007
-13.102825 4.0704241 -3.3029587
-12.93463 3.3275058 -3.5696414
-12.911668 2.6436274 -3.8813746
-13.967706 5.0974002 -4.7800183
-13.578599 4.2174902 -4.9659219
-13.240821 3.4020712 -5.1578798
-12.94455 2.6595931 -5.3680182
-13.756593 5.1217575 2.7741272
-13.17093 4.8991494 1.2293732
-13.446831 4.2676253 0.87928015
-12.999708 4.8346381 -0.1731319
-13.054924 4.1364975 -0.50751418
-13.244738 3.4945443 -0.84826571
-13.596737 2.8838918 -1.212516
-13.089958 4.8793321 -1.5707525
-12.924972 4.1023417 -1.8715158
-12.972162 3.4190841 -2.1890204
-13.109178 2.7762959 -2.5317073
-13.525242 5.0257182 -3.0981648
-13.167978 4.17943 -3.3257842
-12.93243 3.4116788 -3.5747442
-12.918381 2.7276962 -3.888351
-14.037433 5.2206707 -4.8147521
-13.645475 4.3302426 -5.0000024
-13.299194 3.5041981 -5.1888967
-13.009453 2.7562292 -5.401845
-13.639407 5.1736388 2.7568455
-13.150075 4.9834552 1.2302576
-13.382677 4.3326569 0.87289381
-13.890952 3.756737 0.5396204
-12.976387 4.9168086 -0.17321984
-13.055815 4.2251048 -0.50854713
-13.222538 3.5756094 -0.8482331
-13.517426 2.9538572 -1.2070369
-13.137661 4.9891348 -1.5801204
-12.951292 4.1983414 -1.8715119
-12.957833 3.5004778 -2.1911314
-13.078644 2.8537886 -2.5271385
-13.593846 5.1463532 -3.1210542
-13.236731 4.2908287 -3.3497353
-12.954199 3.5025783 -3.5866342
-12.913724 2.809592 -3.892065
-13.663081 4.4282899 -5.0163155
-13.362027 3.6085782 -5.2219529
-13.023877 2.8428955 -5.4149752
-13.576053 5.2451181 2.7504935
-13.10959 5.0603166 1.2293516
-13.329988 4.4061451 0.87120432
-13.774612 3.8161275 0.53600055
-12.96114 5.0021911 -0.17342277
-13.022347 4.3027234 -0.50826228
-13.178907 3.6507347 -0.84685528
-13.442509 3.0240242 -1.2019813
-13.182069 5.0987649 -1.5891945
-12.971552 4.2930422 -1.8782108
-12.948442 3.5833323 -2.1932199
-13.048705 2.9312477 -2.5247817
-13.645883 5.2620077 -3.1403553
-13.305975 4.4036803 -3.3740335
-12.962444 3.5902987 -3.5949488
-12.896735 2.8888869 -3.8922138
-13.746484 4.5487161 -5.0570889
-13.427599 3.7148345 -5.2563882
-13.072559 2.9376705 -5.4426088
-13.489587 5.3070655 2.7395217
-13.096079 5.1476517 1.2310236
-13.293427 4.484724 0.87059689
-13.642966 3.8699481 0.53179187
-12.988592 5.1045723 -0.1742059
-13.011335 4.3878188 -0.50887376
-13.145135 3.7283752 -0.84613925
-13.387804 3.098139 -1.1987669
-13.237025 5.2136183 -1.5996464
-12.99024 4.3878465 -1.8847797
-12.941269 3.6669824 -2.1957748
-13.015327 3.0077579 -2.521847
-13.688013 5.3749609 -3.1575811
-13.343606 4.507164 -3.3905246
-13.013914 3.6906805 -3.6154358
-12.884577 2.9693046 -3.89397
-13.793817 4.6584759 -5.0849209
-13.485232 3.8200095 -5.2880254
-13.129148 3.0351326 -5.4738188
-13.430253 5.3791161 2.7341235
-13.063209 5.2274952 1.2309257
-13.229572 4.553782 0.86822855
-13.564833 3.9378729 0.52967817
-13.005794 5.2036853 -0.17486158
-12.979824 4.4660778 -0.50870353
-13.107472 3.8047423 -0.84520179
-13.32391 3.1696093 -1.1947649
-13.334922 5.3469224 -1.6154114
-12.985004 4.475029 -1.8879685
-12.94441 3.7538259 -2.2001746
-13.002526 3.0889635 -2.5229914
-13.746736 5.4956121 -3.1788464
-13.421239 4.6253257 -3.4173977
-13.066427 3.7923481 -3.636421
-12.884354 3.0526283 -3.8994896
-13.894553 4.7876759 -5.1327896
-13.509431 3.9165659 -5.3068385
-13.178081 3.1317482 -5.5021286
-13.375184 5.4525304 2.7296722
-13.840788 4.8596168 2.393239
-13.036806 5.3099627 1.2314848
-13.209769 4.6378164 0.86878008
-13.485873 4.0048342 0.52754456
-13.02067 5.3025503 -0.17549574
-12.959579 4.5482349 -0.50899428
-13.060209 3.878068 -0.84367269
-13.299073 3.2500484 -1.1943035
-13.388607 5.4640446 -1.6259458
-13.03864 4.5832109 -1.8998201
-12.917768 3.8321824 -2.1996014
-12.983398 3.1687047 -2.5230052
-13.825485 5.6257277 -3.2049792
-13.493181 4.7429395 -3.4430611
-13.09817 3.8888576 -3.6518273
-12.897934 3.1395521 -3.9093568
-13.971047 4.9101419 -5.17208
-13.563943 4.0227509 -5.3378477
-13.233273 3.2307715 -5.5333443
-13.329804 5.5296545 2.7272842
-13.717254 4.9109921 2.3770442
-13.020227 5.3965893 1.2330235
-13.172192 4.7156067 0.86819535
-13.402634 4.0697699 0.52525532
-14.034994 3.5190523 0.17760159
-13.037851 5.4030495 -0.17617084
-12.986958 4.6475401 -0.51117998
-13.046511 3.9612713 -0.84434205
-13.244047 3.3228498 -1.1911706
-13.438987 5.5810432 -1.6361921
-13.07814 4.6874533 -1.9097304
-12.924367 3.9205813 -2.2047801
-12.959573 3.247273 -2.5221999
-13.891655 5.7522545 -3.2284396
-13.528349 4.8487697 -3.4595621
-13.152001 3.9928145 -3.6735971
-12.931601 3.2319226 -3.9254978
-14.04613 5.0335717 -5.2112112
-13.637158 4.1356688 -5.3765454
-13.323494 3.3395545 -5.5795331
-13.256513 5.5948339 2.7192614
-13.614909 4.9688082 2.3645477
-13.006607 5.4847016 1.2348975
-13.117409 4.7869987 0.86650425
-13.378817 4.1523633 0.52531052
-13.848475 3.5627415 0.17551468
-13.071296 5.5111284 -0.17707635
-12.951924 4.7248511 -0.51093256
-13.053493 4.0510316 -0.84638661
-13.210349 3.4006889 -1.1899941
-13.520586 5.7124496 -1.6503633
-13.143753 4.8021817 -1.9235783
-12.942513 4.0129704 -2.2120345
-12.942145 3.3274355 -2.5227344
-13.992298 5.894763 -3.260174
-13.596839 4.9676728 -3.4848061
-13.222846 4.1031017 -3.7003481
-12.947872 3.3205302 -3.9365482
-13.6921 4.2442431 -5.4083719
-13.363906 3.4369709 -5.6051826
-13.239576 5.6836433 2.7228899
-13.545268 5.0377841 2.3577771
-13.015773 5.5828772 1.2389967
-13.098155 4.8712511 0.8671906
-13.313362 4.2217798 0.5237478
-13.724401 3.6207464 0.17422044
-13.105515 5.620512 -0.17800376
-12.952781 4.8154211 -0.51212233
-13.006145 4.1239967 -0.84494144
-13.156331 3.4729965 -1.1870253
-13.565481 5.8297691 -1.6601783
-13.177196 4.9062552 -1.932842
-12.940218 4.0994596 -2.2158997
-12.932404 3.4096632 -2.5248659
-14.063553 6.0266547 -3.2853305
-13.628105 5.0740938 -3.5007331
-13.285737 4.2121587 -3.7251108
-12.964626 3.4097433 -3.9479289
-13.742761 4.3525515 -5.4388299
-13.41258 3.5373709 -5.6345949
-13.905145 6.0596581 4.4684358
-13.208457 5.7665172 2.7237151
-13.468141 5.1033859 2.3497584
-12.992653 5.6676002 1.2400831
-13.112713 4.9684634 0.87015647
-13.262303 4.2953238 0.52276611
-13.609775 3.6799734 0.17304875
-13.202634 5.758328 -0.17979939
-12.960209 4.9089012 -0.51359725
-12.988847 4.2063956 -0.84547853
-13.110495 3.5470884 -1.1848313
-13.626986 5.9555206 -1.6721463
-13.233682 5.0199571 -1.9456087
-12.968298 4.1960864 -2.2250752
-12.917522 3.4906487 -2.5260947
-13.68704 5.1918817 -3.5239892
-13.355449 4.3246226 -3.7520263
-12.990681 3.5019584 -3.9623315
-13.800616 4.4642324 -5.4724655
-13.48067 3.6439435 -5.6724863
-13.776854 6.1046095 4.4391632
-13.161134 5.8422647 2.7212977
-13.404171 5.1734228 2.3440919
-13.988687 4.6148591 2.0269427
-13.014542 5.7724566 1.2455294
-13.055758 5.0387077 0.86841232
-13.244819 4.3796353 0.52312642
-13.52669 3.7467241 0.1722814
-13.24895 5.875545 -0.1809177
-12.987166 5.0104465 -0.51587415
-12.978451 4.2911921 -0.8464998
-13.121507 3.6366191 -1.1878208
-13.680623 6.0792089 -1.6832736
-13.336773 5.1528916 -1.9653766
-12.986251 4.2900963 -2.2326303
-12.911201 3.5740902 -2.5290995
-13.757963 5.3155766 -3.5505805
-13.409061 4.4330688 -3.7746584
-13.075474 3.6110172 -3.9948773
-13.868157 4.580267 -5.5102887
-13.547843 3.7514527 -5.71033
-13.652416 6.1499634 4.4111428
-13.143556 5.9312668 2.7251372
-13.362371 5.2517195 2.3423734
-13.825786 4.6553741 2.0074399
-12.995343 5.8596287 1.2471097
-13.043608 5.1261935 0.86967993
-13.183992 4.4494467 0.52179247
-13.471479 3.820586 0.17187355
-13.307575 5.9995251 -0.18221751
-13.037418 5.1219563 -0.51910889
-12.960908 4.3737941 -0.84709013
-13.053926 3.7042878 -1.1837382
-13.742945 6.2081571 -1.6955968
-13.364273 5.2579846 -1.9741466
-13.00779 4.3859186 -2.2409179
-12.916281 3.6609695 -2.5344472
-13.824329 5.4389386 -3.5762534
-13.4754 4.5469098 -3.8011153
-13.094312 3.7028418 -4.0074992
-13.967742 4.708405 -5.5612316
-13.580788 3.8504496 -5.7340665
-13.588781 6.2218766 4.4028349
-13.115961 6.0159516 2.7270181
-13.318509 5.3290548 2.3403726
-13.685702 4.7018952 1.9912519
-13.012715 5.9638081 1.252265
-13.005795 5.2036858 0.86927134
-13.156222 4.5301833 0.52178377
-13.401762 3.8898165 0.17128538
-13.356905 6.1206546 -0.18340376
-13.031558 5.2121806 -0.52013922
-12.954761 4.4604459 -0.84846121
-13.039758 3.7868731 -1.1845382
-13.813343 6.3422971 -1.7090518
-13.443742 5.3847418 -1.9907289
-13.069507 4.4962254 -2.2562606
-12.923406 3.7488072 -2.5403111
-13.896567 5.5660658 -3.603708
-13.517113 4.6535611 -3.8208642
-13.152362 3.8065655 -4.0323381
-14.03755 4.8280573 -5.6007152
-13.634492 3.9562199 -5.7668824
-13.512611 6.2875791 4.390573
-13.084159 6.098814 2.7281351
-13.262574 5.4013143 2.3363233
-13.579863 4.7588916 1.9800636
-13.048758 6.0774846 1.2592983
-13.008439 5.2975693 0.87160426
-13.128193 4.6108279 0.52178431
-13.349494 3.9636176 0.17092496
-13.447395 6.2622428 -0.18517043
-13.060895 5.3171058 -0.5226025
-12.969686 4.55479 -0.85125309
-13.020787 3.8681529 -1.1849488
-13.891648 6.4817514 -1.7236285
-13.500937 5.5040164 -2.0041614
-13.119164 4.6035256 -2.2696669
-12.949232 3.8425953 -2.5499744
-13.973314 5.6965466 -3.6326067
-13.58623 4.7707996 -3.8486037
-13.223335 3.9151976 -4.0613861
-13.677318 4.0597987 -5.7954235
-13.449212 6.3587589 4.3825684
-13.085357 6.1973896 2.7362626
-13.236307 5.4855433 2.3375814
-13.526463 4.83357 1.9765648
-13.06256 6.1817322 1.2642674
-13.01389 5.3931193 0.8741703
-13.112064 4.6957393 0.52227867
-13.303744 4.0390244 0.1706533
-13.501001 6.3883023 -0.18644483
-13.110641 5.4313722 -0.52591664
-12.95383 4.6387024 -0.85206455
-12.995595 3.9476051 -1.1848382
-13.962827 6.6195908 -1.7374671
-13.55946 5.6251473 -2.0179346
-13.177023 4.7148309 -2.2846386
-12.946633 3.9284141 -2.5541611
-14.071719 5.8376107 -3.6674316
-13.649198 4.8871927 -3.8748627
-13.254308 4.0129876 -4.0783854
-13.744646 4.1717191 -5.8346887
-13.368661 6.4213333 4.3690772
-13.82312 5.8307605 4.0058188
-13.061201 6.2843561 2.739223
-13.183915 5.5588627 2.3343086
-13.442542 4.8968024 1.9686553
-13.108906 6.3024025 1.2724719
-13.009063 5.48489 0.87609023
-13.085343 4.7769589 0.52237201
-13.254776 4.1131516 0.17034569
-13.557122 6.5169649 -0.18776852
-13.157877 5.5457745 -0.52916646
-12.970055 4.7344999 -0.85502654
-12.964749 4.0252905 -1.1842556
-14.059265 6.7712722 -1.7546042
-13.614011 5.7459397 -2.0312617
-13.238564 4.8286843 -2.3004022
-12.982688 4.0265131 -2.5660999
-13.707149 5.0030413 -3.8999557
-13.36118 4.1350117 -4.119
-13.814864 4.2857819 -5.8755498
-13.318899 6.4983087 4.3657632
-13.681428 5.8701363 3.9751208
-13.047459 6.3766289 2.7444949
-13.157026 5.6428561 2.3356345
-13.383921 4.9686785 1.9644983
-13.874277 4.3997412 1.6400334
-13.161679 6.4274921 1.2813987
-12.987173 5.5697589 0.87690109
-13.057137 4.8576617 0.52242607
-13.223082 4.1924362 0.17026578
-13.616429 6.6486359 -0.18915142
-13.204281 5.6609945 -0.53241962
-12.988712 4.8318319 -0.85819489
-12.978896 4.1171651 -1.1878331
-13.666674 5.8672204 -2.0444522
-13.292571 4.9410048 -2.3150115
-12.98783 4.115634 -2.5720594
-13.727186 5.1060171 -3.9144971
-13.413454 4.241549 -4.1430602
-13.89602 4.4046092 -5.9214487
-13.285853 6.5834174 4.3680902
-13.581202 5.9260693 3.9564908
-13.022408 6.463676 2.7475169
-13.133068 5.7282405 2.3375771
-13.33548 5.0440121 1.9618942
-13.765688 4.4584479 1.6304004
-13.196033 6.5448513 1.2886287
-12.986773 5.6695876 0.87933856
-13.03525 4.9407825 0.52275348
-13.168532 4.2677259 0.1699103
-13.673143 6.7805419 -0.19051363
-13.28164 5.7908907 -0.5369615
-12.986363 4.9218774 -0.86001891
-12.961957 4.1994972 -1.1886187
-13.730281 5.9901371 -2.0591877
-13.379544 5.066988 -2.3355296
-13.026369 4.2133594 -2.584614
-13.804974 5.2315993 -3.9457593
-13.480007 4.3537555 -4.1717896
-13.958144 4.5187368 -5.9596248
-13.238997 6.6616883 4.3660417
-13.514773 5.9960642 3.9477828
-13.029983 6.5673895 2.757565
-13.118462 5.8179355 2.3412871
-13.298676 5.1235828 1.9610677
-13.657986 4.5163465 1.6208961
-13.26754 6.6820617 1.2995911
-13.026174 5.7822065 0.88439202
-13.02037 5.0267262 0.52338386
-13.143143 4.3487921 0.1699238
-13.704549 6.901207 -0.19153763
-13.360803 5.9232354 -0.54162115
-13.006151 5.0208597 -0.86335337
-12.957941 4.2862272 -1.1906397
-13.777707 6.1117287 -2.0718856
-13.434741 5.1823697 -2.3506711
-13.069422 4.3160448 -2.5983622
-13.887742 5.3606462 -3.9787428
-13.509 4.4548397 -4.1891432
-14.041763 4.6411872 -6.0073733
-14.025282 7.1692061 6.3975835
-13.213367 6.7507133 4.3711681
-13.4383 6.0610943 3.936234
-13.035686 6.6708813 2.7673826
-13.084579 5.8992496 2.3416564
-13.24719 5.1973181 1.9581412
-13.55619 4.5751495 1.6121165
-13.33011 6.816433 1.3097922
-13.034206 5.8817668 0.88737088
-12.996374 5.1093121 0.52366966
-13.123883 4.4319458 0.17002319
-13.770174 7.0405025 -0.19305497
-13.415482 6.0462408 -0.54533142
-13.05421 5.1316686 -0.86861736
-12.951884 4.3725719 -1.192526
-13.871054 6.2552762 -2.0916555
-13.48596 5.2974157 -2.3652759
-13.119959 4.4221997 -2.613755
-13.586642 4.5730648 -4.2218418
-13.829922 7.1767159 6.3284388
-13.162724 6.8270078 4.3681898
-13.400757 6.1433897 3.9362044
-13.867624 5.5456924 3.6003499
-13.045991 6.7774868 2.7783465
-13.059295 5.9845381 2.3436592
-13.217232 5.2793756 1.9584646
-13.479683 4.6416492 1.606375
-13.437647 6.9757643 1.3245394
-13.073667 5.9963975 0.89254552
-13.002425 5.2040272 0.52519023
-13.084416 4.5082464 0.16986707
-13.86097 7.1945477 -0.19494316
-13.493995 6.1815205 -0.55005443
-13.116152 5.2491608 -0.87486559
-12.932759 4.4546986 -1.1932595
-13.547784 5.4178891 -2.3819048
-13.156264 4.5245214 -2.6264691
-14.035365 5.6164837 -4.0404792
-13.618815 4.6771183 -4.2406769
-13.707074 7.2200637 6.2923794
-13.131021 6.9131384 4.3716645
-13.342889 6.2162194 3.9303367
-13.771551 5.6055303 3.5842695
-13.082415 6.898674 2.7950656
-13.040658 6.073092 2.3469579
-13.185274 5.3606539 1.9585663
-13.40898 4.7095313 1.6013627
-13.480774 7.103498 1.3330617
-13.106051 6.1088629 0.89729863
-12.972629 5.284677 0.52528656
-13.068364 4.5926123 0.17002131
-13.947363 7.3483748 -0.19678865
-13.53876 6.3028178 -0.55344528
-13.157695 5.3596802 -0.87981361
-12.957369 4.5523038 -1.1980847
-14.016367 6.5289564 -2.1254902
-13.594834 5.5337019 -2.3961017
-13.223851 4.6386952 -2.6455944
-13.675694 4.7906628 -4.2674613
-13.632107 7.2877769 6.2783747
-13.125015 7.0131631 4.3839087
-13.288706 6.2904983 3.9256721
-13.657032 5.6568451 3.563431
-13.087387 7.0042644 2.8052576
-13.045019 6.1728029 2.3545148
-13.147246 5.4394355 1.9578387
-13.376895 4.7906675 1.6010114
-13.538239 7.2402592 1.343112
-13.147486 6.2266579 0.90273428
-12.967136 5.375443 0.52638978
-13.052307 4.6771445 0.17018259
-14.052118 7.5140829 -0.19891348
-13.600203 6.4332457 -0.55756003
-13.209791 5.4756427 -0.88552701
-12.977775 4.6491275 -1.2025867
-13.650993 5.6544466 -2.4120696
-13.284436 4.7516885 -2.6634982
-13.735178 4.9063253 -4.2953362
-13.548102 7.3501101 6.2603393
-13.104768 7.1060543 4.3916268
-13.243984 6.3690934 3.9239321
-13.591213 5.7275352 3.5553603
-13.126721 7.1292701 2.8230124
-13.023351 6.2606392 2.3574932
-13.115066 5.5206103 1.9580539
-13.340062 4.8700337 1.6001495
-13.602468 7.3822994 1.3539526
-13.198755 6.3503804 0.90891284
-12.997581 5.4817605 0.52898115
-13.015401 4.7542353 0.17007853
-13.650491 6.559833 -0.56126124
-13.272215 5.5971932 -0.89199716
-12.99966 4.7471681 -1.2072911
-13.722439 5.7829394 -2.4309175
-13.352201 4.8685422 -2.6830242
-13.81541 5.0307832 -4.329999
-13.470325 7.4152489 6.245306
-14.159624 6.9092317 5.9461436
-13.086686 7.2005081 4.400291
-13.215754 6.4556594 3.9272304
-13.495493 5.784965 3.5395398
-13.192352 7.2700911 2.8466668
-13.02676 6.3609734 2.3651311
-13.092996 5.6061349 1.9598577
-13.261621 4.9338231 1.5943419
-13.672324 7.5291791 1.3654788
-13.265182 6.4828758 0.91620934
-13.009497 5.5810561 0.53084987
-12.99131 4.8359895 0.17014828
-13.702198 6.6884804 -0.56506413
-13.346109 5.7250624 -0.89930743
-13.010053 4.8416424 -1.2109925
-13.753615 5.8957162 -2.4428031
-13.413462 4.9843359 -2.7014284
-13.88528 5.1529355 -4.3617244
-13.425152 7.4980865 6.2455759
-13.870968 6.8740749 5.8425288
-13.081447 7.3025475 4.4135127
-13.187405 6.5423346 3.9306605
-13.429663 5.8545494 3.5316296
-13.996776 5.3018169 3.2128456
-13.258821 7.4131451 2.8707709
-13.018624 6.4562278 2.3708019
-13.062879 5.6883388 1.9605372
-13.223198 5.0121078 1.5933899
-13.714301 7.6623378 1.3743408
-13.329389 6.6158834 0.9234305
-13.042262 5.6901178 0.53360146
-12.991003 4.9268417 0.17053699
-13.781786 6.8323588 -0.57006437
-13.416836 5.8531346 -0.90647632
-13.041472 4.9446487 -1.2167183
-13.873806 6.0482764 -2.4706955
-13.503163 5.1121802 -2.7257605
-13.975755 5.2842999 -4.4002476
-13.36742 7.5738211 6.2402205
-13.735558 6.9122696 5.8032484
-13.083027 7.4090858 4.4293008
-13.138704 6.6189427 3.9281766
-13.389008 5.9348569 3.5304482
-13.829994 5.3359046 3.1820178
-13.307257 7.5477734 2.8912311
-13.050365 6.5720444 2.3838813
-13.058181 5.7818675 1.9651197
-13.2033 5.0974364 1.5947311
-13.787539 7.8146482 1.3864594
-13.408317 6.7579136 0.93175364
-13.037161 5.7833705 0.53483456
-12.990624 5.0180831 0.17093299
-13.838325 6.9664922 -0.57416034
-13.462496 5.9716449 -0.91201955
-13.11431 5.064517 -1.22639
-13.933475 6.1763067 -2.4880238
-13.531656 5.2181201 -2.7379236
-14.028687 5.4029293 -4.4272685
-13.306804 7.6477146 6.2337122
-13.649425 6.9742126 5.7848291
-13.088112 7.5184002 4.446557
-13.129428 6.7155905 3.937649
-13.335666 6.0093856 3.5260394
-13.712784 5.3875785 3.1625962
-13.379807 7.6978126 2.9172013
-13.059799 6.6775646 2.393044
-13.034499 5.8673024 1.9669369
-13.154422 5.1715331 1.5926303
-13.865723 7.9717665 1.3992139
-13.471189 6.89358 0.93904442
-13.100391 5.9078851 0.53890556
-12.984193 5.1073756 0.17125751
-13.915771 7.1128387 -0.57917351
-13.522055 6.0976319 -0.91857189
-13.143243 5.1685853 -1.2320383
-14.005087 6.311152 -2.507679
-13.575962 5.3311219 -2.7534552
-13.281282 7.7418432 6.2438936
-13.57427 7.0411801 5.7711797
-13.065311 7.6123042 4.454596
-13.094958 6.7996516 3.9397502
-13.270079 6.0780621 3.5184927
-13.617045 5.4466491 3.1481645
-13.443829 7.8448319 2.9415998
-13.072899 6.7857676 2.4030287
-13.038889 5.9657631 1.973086
-13.1219 5.2519326 1.5925643
-13.9274 8.121335 1.4104398
-13.52463 7.0259757 0.94575703
-13.141326 6.0236497 0.54209965
-12.981882 5.1986718 0.17164455
-13.996127 7.2625704 -0.58436173
-13.586516 6.2272983 -0.92552918
-13.190921 5.2810173 -1.2395219
-13.646848 5.4558415 -2.7745695
-13.230173 7.8212056 6.2423096
-13.479196 7.0971618 5.7491651
-13.111786 7.7475333 4.4865651
-13.07685 6.8924494 3.9469519
-13.237164 6.1615262 3.5197239
-13.531587 5.5090184 3.1361632
-13.51748 7.9993958 2.9683995
-13.122783 6.9142046 2.4199512
-13.033439 6.0602565 1.9778512
-13.101767 5.3373752 1.5940658
-14.023381 8.2930231 1.4252864
-13.599464 7.1711574 0.95404911
-13.180138 6.1395817 0.54524451
-12.994709 5.2965589 0.17224061
-13.636265 6.3516359 -0.93155539
-13.250472 5.3994279 -1.2482074
-13.693704 5.572268 -2.7909951
-13.188442 7.9061399 6.2453914
-13.430526 7.1771331 5.7470818
-13.928547 6.5940881 5.3788013
-13.127871 7.8661103 4.5085001
-13.066973 6.9900289 3.9568415
-13.214593 6.2499557 3.5238528
-13.466667 5.5791569 3.1289923
-13.589765 8.1551723 2.9952052
-13.18477 7.0505605 2.4393141
-13.007135 6.145371 1.9795445
-13.074574 5.4200721 1.5947737
-13.660317 7.3107204 0.96144712
-13.26342 6.2777047 0.550273
-12.994166 5.3895488 0.17266849
-13.682056 6.4754262 -0.93738043
-13.332561 5.5285101 -1.2591122
-13.757295 5.6967797 -2.8110271
-13.170334 8.0055456 6.2599611
-13.369328 7.2502379 5.7398233
-13.774709 6.6250253 5.3349919
-13.129217 7.9768057 4.5256867
-13.056535 7.0878248 3.9667757
-13.175982 6.3309145 3.5238492
-13.402344 5.6491055 3.1220419
-13.628606 8.2926416 3.014924
-13.23722 7.183403 2.4571266
-13.017084 6.2480583 1.986856
-13.063252 5.5095491 1.5974861
-13.70345 7.4423285 0.96767879
-13.310978 6.4004788 0.55386502
-13.011068 5.4903688 0.17333749
-13.765803 6.6187501 -0.94588268
-13.400516 5.6532946 -1.2687818
-13.154325 8.1067648 6.275876
-13.309366 7.3237534 5.7332644
-13.661663 6.6741796 5.3069696
-13.1844 8.1215096 4.5618
-13.06891 7.1987138 3.9838805
-13.134262 6.410357 3.5231445
-13.359241 5.7277246 3.1201298
-13.698684 8.4508896 3.0418406
-13.05578 6.3654904 1.9986864
-13.04758 5.5974851 1.5997397
-13.76466 7.5853095 0.9752695
-13.39664 6.5431762 0.55908948
-13.038808 5.5965714 0.17416126
-13.828105 6.7534795 -0.95299309
-13.453495 5.7731409 -1.277128
-13.927658 5.968585 -2.8605893
-13.131185 8.2041025 6.2887354
-13.277529 7.412734 5.7350097
-13.593859 6.7446856 5.2966075
-13.260449 8.2810221 4.6056075
-13.066531 7.3022609 3.9967391
-13.131978 6.5093141 3.5331793
-13.297671 5.7981749 3.1140006
-13.764606 8.6086044 3.0681505
-13.360352 7.4638963 2.4967976
-13.058887 6.4664803 2.0051985
-13.025759 5.6830096 1.6013094
-13.842393 7.7392488 0.98842537
-13.452065 6.6727872 0.5631007
-13.080203 5.7096376 0.17645632
-13.914521 6.9017467 -0.96184915
-13.522251 5.9011559 -1.2870679
-13.986419 6.0983577 -2.8804927
-13.127066 8.3139486 6.3110752
-13.227907 7.4918628 5.7333245
-13.500988 6.8021584 5.2765856
-13.305458 8.423048 4.6391039
-13.087434 7.4196897 4.0169826
-13.077571 6.5826106 3.5293417
-13.270319 5.8834167 3.1159906
-13.826218 8.7656136 3.0938148
-13.436445 7.6149564 2.5197027
-13.062606 6.5684319 2.0119205
-13.013109 5.7727904 1.6040787
-13.914293 7.8919001 0.99699849
-13.50526 6.8027477 0.56706399
-13.136937 5.8306274 0.17770097
-14.003227 7.0531359 -0.9709543
-13.57422 6.0232563 -1.2955078
-13.120176 8.4228239 6.3324914
-13.210692 7.5895491 5.7459397
-13.444571 6.877492 5.2709303
-13.390075 8.5921535 4.6869006
-13.089083 7.5271244 4.0315895
-13.069145 6.6791911 3.5380621
-13.220853 5.9588156 3.1129019
-13.915493 8.9423857 3.1260107
-13.50191 7.761898 2.5408628
-13.113966 6.695384 2.0261207
-13.022717 5.8729463 1.6096747
-14.00567 8.0577087 1.0070696
-13.589434 6.9500093 0.5723781
-13.175318 5.9446959 0.17871019
-13.617895 6.142921 -1.303249
-13.114295 8.5331316 6.3548045
-13.165285 7.6712875 5.7465553
-13.394508 6.955905 5.2679367
-13.844409 6.3434048 4.9003716
-13.481248 8.7678957 4.7375546
-13.125734 7.6557555 4.057271
-13.055718 6.7736812 3.5456121
-13.154392 6.0262427 3.1059015
-13.996347 9.1161728 3.1566803
-13.549133 7.9000463 2.5588233
-13.186265 6.8346186 2.0437317
-13.023072 5.9695354 1.6142159
-13.640305 7.0819473 0.5763402
-13.258527 6.0804276 0.1803415
-13.690508 6.2770553 -1.3138593
-13.122552 8.653574 6.3844151
-13.151979 7.7720227 5.7614551
-13.331223 7.0272322 5.2599063
-13.728963 6.3927188 4.8733006
-13.534614 8.9212542 4.7754555
-13.148675 7.7776518 4.0790367
-13.059884 6.8778744 3.5581379
-13.153249 6.1236405 3.1144445
-13.625508 8.0570097 2.582535
-13.218875 6.9547505 2.055361
-13.027578 6.0686073 1.6193595
-13.691862 7.2157164 0.58037853
-13.329379 6.2121921 0.18182029
-13.743007 6.4034686 -1.3226435
-13.136676 8.7790127 6.4173732
-13.132949 7.8698974 5.7741637
-13.279452 7.1044011 5.2565804
-13.622691 6.4452386 4.8495245
-13.604561 9.0875931 4.8197193
-13.192582 7.9132957 4.1076446
-13.045538 6.972899 3.5658188
-13.117138 6.2050424 3.114851
-13.693878 8.211257 2.6049943
-13.279915 7.0912395 2.0715785
-13.038018 6.1711111 1.6253333
-13.759481 7.35958 0.58514798
-13.367581 6.3301225 0.18286778
-13.82308 6.5443072 -1.3341894
-13.14834 8.9039984 6.4496398
-13.096999 7.9579797 5.7797184
-13.258964 7.1984267 5.2658548
-13.558498 6.5169821 4.840817
-13.656626 9.2440567 4.8581676
-13.258154 8.0636539 4.1433878
-13.045708 7.0762467 3.5776663
-13.092011 6.2917519 3.1179934
-13.752722 8.3616943 2.6258991
-13.35566 7.23735 2.0902822
-13.053922 6.276967 1.6320866
-13.810159 7.496027 0.58924812
-13.449344 6.4701614 0.18452589
-13.903437 6.6870885 -1.3458804
-13.178071 9.0425682 6.4913182
-13.115744 8.0799732 5.8097596
-13.227838 7.2869701 5.271152
-13.444633 6.5641079 4.8144531
-13.729833 9.4169693 4.9046731
-13.316267 8.2113514 4.1772165
-13.049191 7.1821117 3.5906401
-13.076074 6.3831501 3.1234667
-13.828324 8.5243139 2.6502714
-13.430368 7.384799 2.1090271
-13.078016 6.3876472 1.6399686
-13.924895 7.669292 0.59614038
-13.509124 6.6012993 0.18589833
-13.991044 6.8352466 -1.3583953
-13.238529 9.2040377 6.5487947
-13.104609 8.1844606 5.8269629
-13.185822 7.3696442 5.2723298
-13.404877 6.646863 4.8147311
-13.780835 9.5768147 4.9437914
-13.389042 8.3700533 4.2160769
-13.097725 7.3138924 3.6162753
-13.049882 6.4698181 3.1266344
-13.913197 8.6948919 2.6767123
-13.487247 7.5242171 2.1251688
-13.124483 6.5103865 1.6507738
-13.996486 7.8210354 0.60124838
-13.553597 6.7263651 0.18707477
-14.06191 6.9770665 -1.3694065
-13.301213 9.3692036 6.6081181
-13.113701 8.3024225 5.8535476
-13.17336 7.4691262 5.285573
-13.348915 6.7214737 4.8093543
-13.844281 9.7474184 4.987915
-13.485372 8.5458002 4.2628422
-13.108004 7.4255052 3.6316245
-13.054832 6.5723705 3.1374235
-13.97561 8.8536005 2.6991208
-13.560803 7.6747336 2.1441391
-13.165885 6.6318955 1.6610683
-13.635498 6.8716035 0.18878363
-13.352465 9.5284185 6.6625009
-13.088916 8.3996763 5.8653808
-13.134165 7.5537744 5.2883444
-13.310843 6.8050046 4.8105907
-13.948874 9.9496355 5.0474997
-13.53029 8.691081 4.2938175
-13.141705 7.5514827 3.6537304
-13.048528 6.6698666 3.145685
-13.625797 7.8222899 2.1619639
-13.216535 6.7593975 1.6726599
-13.667053 6.992991 0.18981101
-13.432069 9.7101622 6.7318234
-13.132867 8.5421 5.908452
-13.106809 7.6454453 5.2961187
-13.263194 6.8836212 4.8085442
-14.028602 10.136951 5.0987611
-13.608588 8.8597994 4.3358364
-13.178252 7.6804261 3.6769247
-13.028282 6.7606645 3.1507456
-13.685528 7.9686246 2.1791582
-13.261697 6.8854766 1.6836908
-13.726271 7.1299 0.19123742
-13.523383 9.9030828 6.8079147
-13.157558 8.6735125 5.9433932
-13.098857 7.7489176 5.3120184
-13.241409 6.9757791 4.8160739
-13.677564 9.024683 4.3753738
-13.238861 7.8249664 3.7071626
-13.054618 6.8763289 3.1672587
-13.722125 8.1030846 2.1928616
-13.352325 7.0368795 1.7006468
-13.794358 7.2730908 0.19280419
-13.573214 10.068097 6.8639712
-13.188862 8.81071 5.9818406
-13.101926 7.8596568 5.3327203
-13.201451 7.0585504 4.817203
-13.728721 9.1798429 4.4096742
-13.302756 7.9732714 3.7386835
-13.059805 6.9817619 3.1788511
-13.773643 8.2479057 2.2091401
-13.430282 7.1836028 1.7161578
-13.877659 7.4261899 0.19460168
-13.646592 10.252929 6.9327621
-13.253138 8.9717464 6.0358481
-13.112504 7.9758186 5.3568439
-13.147472 7.1337667 4.8133883
-13.778172 9.3357553 4.4438739
-13.382133 8.1328707 3.774946
-13.07118 7.0913095 3.1921511
-13.874945 8.4246597 2.2336369
-13.459426 7.3057566 1.7255776
-13.977172 7.5901279 0.19664651
-13.737883 10.454007 7.0115962
-13.299206 9.1224279 6.0822058
-13.08379 8.0687504 5.3652387
-13.147755 7.2386951 4.8296618
-13.867332 9.5208416 4.4913883
-13.460342 8.2939243 3.8112919
-13.100122 7.2114005 3.2099652
-13.962365 8.595437 2.2561584
-13.546356 7.4609084 1.7425588
-14.046207 7.739594 0.19828221
-13.787619 10.626071 7.0701251
-13.395761 9.3169727 6.1581869
-13.121303 8.2034388 5.4011612
-13.119154 7.3282051 4.8355827
-13.956187 9.7083817 4.5393753
-13.533735 8.454154 3.8466892
-13.120193 7.3277016 3.2258391
-14.051585 8.7697105 2.2792277
-13.606516 7.6032271 1.7562659
-13.850714 10.810811 7.1363611
-13.453807 9.4803572 6.2114968
-13.119741 8.3148642 5.4214182
-13.08908 7.4171391 4.8411813
-14.03303 9.8901587 4.584022
-13.596508 8.6097965 3.8794737
-13.193674 7.4753165 3.2551224
-13.653669 7.7398944 1.7684491
-13.536582 9.6635237 6.2769699
-13.168129 8.4592257 5.462759
-13.0982 7.5288558 4.8615494
-13.631403 8.7495317 3.9046752
-13.229256 7.6030841 3.2753496
-13.71427 7.8858275 1.7825319
-14.043476 11.24129 7.3062086
-13.577508 9.8190632 6.3237662
-13.210106 8.6011496 5.5019627
-13.079752 7.6254048 4.8719773
-13.728827 8.9314804 3.9482057
-13.318454 7.7634473 3.3091652
-13.795224 8.0454111 1.7994366
-13.665955 10.011306 6.3934512
-13.26043 8.7502413 5.5451813
-13.08182 7.734549 4.8903332
-13.782897 9.0875063 3.9797173
-13.384376 7.9123006 3.3375447
-13.875043 8.2064667 1.8163822
-13.712974 10.175634 6.4445376
-13.317278 8.9055281 5.5916991
-13.078013 7.8409905 4.9068031
-13.850502 9.254508 4.0155587
-13.460917 8.069416 3.3689144
-13.975863 8.3822746 1.8362792
-13.394826 9.0768204 5.6475391
-13.110379 7.9701629 4.9372029
-13.938323 9.4374056 4.0577321
-13.517803 8.2166872 3.3957059
-14.064318 8.5531025 1.8547617
-13.862764 10.55302 6.575304
-13.470666 9.2493277 5.7033362
-13.11213 8.081831 4.9564443
-14.005147 9.6085062 4.0942721
-13.602324 8.3827915 3.4297943
-13.97001 10.77069 6.6573935
-13.539763 9.4195366 5.7569537
-13.142683 8.2123661 4.9869471
-13.638227 8.5208235 3.4519653
-14.05248 10.972409 6.728652
-13.588837 9.5779448 5.8026986
-13.201138 8.3619556 5.0285025
-13.727472 8.6941442 3.4879911
-13.659552 9.753787 5.8583422
-13.256462 8.5114231 5.0693741
-13.766958 8.8379717 3.5117376
-13.74683 9.9440308 5.9218321
-13.320745 8.6685829 5.1142006
-13.845669 9.0089464 3.5458491
-13.813317 10.12181 5.9771156
-13.379633 8.8242397 5.1575007
-13.876848 10.299823 6.0318394
-13.464311 8.9991226 5.2113285
-14.012918 9.3645229 3.6178415
-13.964857 10.498648 6.0979805
-13.531874 9.1648979 5.2591457
-13.603698 9.3358088 5.3092227
-13.657099 9.4962444 5.3527045
-13.727723 9.6708469 5.4035411
-13.804083 9.8519287 5.4572897
-13.869052 10.02731 5.5071955
-13.9694 10.230967 5.5718656
-14.058455 10.429319 5.6328049
